<svg width="18" height="14" viewBox="0 0 18 14" fill="none" xmlns="http://www.w3.org/2000/svg">
<path d="M15.9375 13.5H2.06255C0.924774 13.5 0 12.5752 0 11.4375V2.06255C0 0.924774 0.924774 0 2.06255 0H15.9375C17.0752 0 18 0.924774 18 2.06255V11.4375C18 12.5752 17.0752 13.5 15.9375 13.5ZM2.06255 1.125C1.54578 1.125 1.125 1.54578 1.125 2.06255V11.4375C1.125 11.9542 1.54578 12.375 2.06255 12.375H15.9375C16.4542 12.375 16.875 11.9542 16.875 11.4375V2.06255C16.875 1.54578 16.4542 1.125 15.9375 1.125H2.06255Z" fill="#707070"/>
<path d="M5.62495 6.75005C4.59142 6.75005 3.75 5.90849 3.75 4.87509C3.75 3.84155 4.59142 3 5.62495 3C6.65849 3 7.49991 3.84155 7.49991 4.87509C7.49991 5.90849 6.65849 6.75005 5.62495 6.75005ZM5.62495 4.125C5.21173 4.125 4.875 4.46173 4.875 4.87509C4.875 5.28831 5.21173 5.62505 5.62495 5.62505C6.03818 5.62505 6.37491 5.28831 6.37491 4.87509C6.37491 4.46173 6.03818 4.125 5.62495 4.125Z" fill="#707070"/>
<path d="M8.4375 10.5001C8.127 10.5001 7.875 10.2481 7.875 9.93759V9.56255C7.875 9.04578 7.45422 8.625 6.93745 8.625H4.31255C3.79578 8.625 3.375 9.04578 3.375 9.56255V9.93759C3.375 10.2481 3.123 10.5001 2.8125 10.5001C2.502 10.5001 2.25 10.2481 2.25 9.93759V9.56255C2.25 8.42477 3.17477 7.5 4.31255 7.5H6.93745C8.07523 7.5 9 8.42477 9 9.56255V9.93759C9 10.2481 8.748 10.5001 8.4375 10.5001Z" fill="#707070"/>
<path d="M15.1875 4.5H11.0625C10.752 4.5 10.5 4.248 10.5 3.9375C10.5 3.627 10.752 3.375 11.0625 3.375H15.1875C15.498 3.375 15.75 3.627 15.75 3.9375C15.75 4.248 15.498 4.5 15.1875 4.5Z" fill="#707070"/>
<path d="M15.1875 7.5H11.0625C10.752 7.5 10.5 7.248 10.5 6.9375C10.5 6.627 10.752 6.375 11.0625 6.375H15.1875C15.498 6.375 15.75 6.627 15.75 6.9375C15.75 7.248 15.498 7.5 15.1875 7.5Z" fill="#707070"/>
<path d="M15.1875 10.5H11.0625C10.752 10.5 10.5 10.248 10.5 9.9375C10.5 9.627 10.752 9.375 11.0625 9.375H15.1875C15.498 9.375 15.75 9.627 15.75 9.9375C15.75 10.248 15.498 10.5 15.1875 10.5Z" fill="#707070"/>
</svg>
