<svg width="19" height="20" viewBox="0 0 19 20" fill="none" xmlns="http://www.w3.org/2000/svg">
<path d="M9.06555 0C5.95678 0 3.42993 2.52685 3.42993 5.63562C3.42993 8.74439 5.95678 11.2712 9.06555 11.2712C12.1743 11.2712 14.7012 8.74439 14.7012 5.63562C14.7012 2.52685 12.1743 0 9.06555 0ZM9.06555 9.31459C7.0347 9.31459 5.38268 7.66257 5.38268 5.63171C5.38268 3.60086 7.0386 1.95274 9.06555 1.95274C11.0925 1.95274 12.7484 3.60476 12.7484 5.63562C12.7484 7.66647 11.0964 9.31459 9.06555 9.31459Z" fill="#808080"/>
<path d="M18.0482 16.5827C17.5405 14.712 16.4782 13.0678 14.9746 11.8336C14.5567 11.49 13.9436 11.5524 13.5999 11.9664C13.2562 12.3843 13.3187 12.9975 13.7327 13.3412C14.9199 14.3214 15.7635 15.6181 16.1619 17.0943C16.2439 17.4029 16.115 17.6294 16.033 17.7426C15.8846 17.934 15.662 18.0473 15.4198 18.0473C14.8809 18.0473 14.4435 18.4847 14.4435 19.0236C14.4435 19.5626 14.8809 20 15.4198 20C16.2751 20 17.064 19.6095 17.5835 18.9299C18.099 18.2543 18.2708 17.399 18.0482 16.5827Z" fill="#808080"/>
<path d="M11.9127 18.0434H2.71528C2.38722 18.0434 2.19585 17.8559 2.10993 17.7427C1.96152 17.5474 1.91465 17.3014 1.98105 17.067C2.38331 15.6064 3.21909 14.3176 4.39464 13.349C4.80862 13.0053 4.87111 12.3922 4.52742 11.9743C4.18374 11.5564 3.57058 11.4978 3.15269 11.8415C1.6647 13.0717 0.606315 14.6964 0.0986014 16.5515C-0.127917 17.3795 0.0400191 18.2465 0.559449 18.93C1.07107 19.6056 1.85998 19.9961 2.71528 19.9961H11.9127C12.4517 19.9961 12.8891 19.5587 12.8891 19.0198C12.8891 18.4808 12.4517 18.0434 11.9127 18.0434Z" fill="#808080"/>
</svg>
