<svg width="19" height="19" viewBox="0 0 19 19" fill="none" xmlns="http://www.w3.org/2000/svg">
<rect x="0.5" y="0.5" width="18" height="18" rx="9" fill="#F3F3F3" stroke="#808080"/>
<path fill-rule="evenodd" clip-rule="evenodd" d="M9.65674 4.8125C9.31156 4.8125 9.03174 5.09232 9.03174 5.4375V9.03125H5.4375C5.09232 9.03125 4.8125 9.31107 4.8125 9.65625C4.8125 10.0014 5.09232 10.2812 5.4375 10.2812H9.03174V13.875C9.03174 14.2202 9.31156 14.5 9.65674 14.5C10.0019 14.5 10.2817 14.2202 10.2817 13.875V10.2812H13.875C14.2202 10.2812 14.5 10.0014 14.5 9.65625C14.5 9.31107 14.2202 9.03125 13.875 9.03125H10.2817V5.4375C10.2817 5.09232 10.0019 4.8125 9.65674 4.8125Z" fill="#808080"/>
</svg>
