<svg width="18" height="22" viewBox="0 0 18 22" fill="none" xmlns="http://www.w3.org/2000/svg">
<path d="M17.3571 0H1.92857C1.57354 0 1.28571 0.287829 1.28571 0.642857V3.94286H0.642857C0.287829 3.94286 0 4.23069 0 4.58571C0 4.94074 0.287829 5.22857 0.642857 5.22857H1.28571V10.3714H0.642857C0.287829 10.3714 0 10.6593 0 11.0143C0 11.3693 0.287829 11.6571 0.642857 11.6571H1.28571V16.8H0.642857C0.287829 16.8 0 17.0878 0 17.4429C0 17.7979 0.287829 18.0857 0.642857 18.0857H1.28571V21.3C1.28571 21.655 1.57354 21.9429 1.92857 21.9429H14.7857C14.9587 21.9429 15.1244 21.8704 15.2404 21.7545L17.8117 19.1831C17.9322 19.0626 18 18.8991 18 18.7286V0.642857C18 0.287829 17.7122 0 17.3571 0ZM16.7143 14.6052L15.4286 15.8909V13.852L16.7143 12.5663V14.6052ZM14.1429 20.6571H2.57143V18.0857H3.21429C3.56931 18.0857 3.85714 17.7979 3.85714 17.4429C3.85714 17.0878 3.56931 16.8 3.21429 16.8H2.57143V11.6571H3.21429C3.56931 11.6571 3.85714 11.3693 3.85714 11.0143C3.85714 10.6593 3.56931 10.3714 3.21429 10.3714H2.57143V5.22857H3.21429C3.56931 5.22857 3.85714 4.94074 3.85714 4.58571C3.85714 4.23069 3.56931 3.94286 3.21429 3.94286H2.57143V1.28571H16.7143V10.748L14.3312 13.1312C14.2106 13.2517 14.1429 13.4152 14.1429 13.5857V20.6571ZM15.4286 19.748V17.7091L16.7143 16.4234V18.4623L15.4286 19.748Z" fill="#707070"/>
<path d="M9.6428 5.22852C8.57939 5.22852 7.71423 6.09367 7.71423 7.15709C7.71423 8.2205 8.57939 9.08566 9.6428 9.08566C10.7062 9.08566 11.5714 8.2205 11.5714 7.15709C11.5714 6.09367 10.7062 5.22852 9.6428 5.22852ZM9.6428 7.79994C9.28833 7.79994 8.99995 7.51156 8.99995 7.15709C8.99995 6.80262 9.28833 6.51423 9.6428 6.51423C9.99728 6.51423 10.2857 6.80262 10.2857 7.15709C10.2857 7.51156 9.99728 7.79994 9.6428 7.79994Z" fill="#707070"/>
<path d="M9.64282 2.65723C7.16152 2.65723 5.14282 4.67593 5.14282 7.15723C5.14282 8.36584 5.83492 9.9015 7.19997 11.7215C8.18037 13.0287 9.14757 13.9997 9.18828 14.0403C9.30884 14.1609 9.47234 14.2287 9.64282 14.2287C9.81331 14.2287 9.97681 14.1609 10.0974 14.0403C10.1381 13.9997 11.1052 13.0287 12.0857 11.7215C13.4507 9.9015 14.1428 8.36584 14.1428 7.15723C14.1428 4.67593 12.1241 2.65723 9.64282 2.65723ZM9.64282 12.6543C8.45169 11.3562 6.42854 8.8071 6.42854 7.15723C6.42854 5.38487 7.87047 3.94294 9.64282 3.94294C11.4152 3.94294 12.8571 5.38487 12.8571 7.15723C12.8571 8.80714 10.8339 11.3562 9.64282 12.6543Z" fill="#707070"/>
<path d="M12.2143 15.5144H7.07145C6.71642 15.5144 6.42859 15.8022 6.42859 16.1573C6.42859 16.5123 6.71642 16.8001 7.07145 16.8001H12.2143C12.5693 16.8001 12.8572 16.5123 12.8572 16.1573C12.8572 15.8022 12.5693 15.5144 12.2143 15.5144Z" fill="#707070"/>
<path d="M12.2143 18.0857H7.07145C6.71642 18.0857 6.42859 18.3735 6.42859 18.7286C6.42859 19.0836 6.71642 19.3714 7.07145 19.3714H12.2143C12.5693 19.3714 12.8572 19.0836 12.8572 18.7286C12.8572 18.3735 12.5693 18.0857 12.2143 18.0857Z" fill="#707070"/>
</svg>
