<svg width="20" height="20" viewBox="0 0 20 20" fill="none" xmlns="http://www.w3.org/2000/svg">
<path d="M13.5113 0.634033C12.5127 0.703106 11.3455 1.34233 10.6653 2.17472C10.0448 2.92984 9.53437 4.0514 9.73339 5.14135C10.8245 5.1753 11.9519 4.52086 12.6052 3.67442C13.2163 2.88652 13.6787 1.77198 13.5113 0.634033Z" fill="white"/>
<path d="M17.4579 6.91841C16.4991 5.71607 15.1516 5.01831 13.879 5.01831C12.199 5.01831 11.4883 5.8226 10.3211 5.8226C9.11761 5.8226 8.20327 5.02065 6.75039 5.02065C5.32327 5.02065 3.80366 5.89285 2.84015 7.38436C1.48561 9.48466 1.71741 13.4335 3.91254 16.7971C4.6981 18.0006 5.74707 19.3539 7.11917 19.3657C8.34024 19.3774 8.68444 18.5824 10.3387 18.5742C11.9929 18.5649 12.3067 19.3762 13.5254 19.3633C14.8987 19.3528 16.005 17.8531 16.7906 16.6496C17.3537 15.7867 17.5633 15.3524 17.9999 14.3783C14.8238 13.169 14.3145 8.65227 17.4579 6.91841Z" fill="white"/>
</svg>
