<svg width="20" height="20" viewBox="0 0 20 20" fill="none" xmlns="http://www.w3.org/2000/svg">
<path d="M17.5588 12.3677H17.203V6.51473C17.203 4.23826 15.3529 2.39119 13.0794 2.39119H12.9559C12.5088 1.14708 11.3147 0.294128 9.97943 0.294128C8.64119 0.294128 7.44706 1.14708 7.00296 2.39119H6.9206C4.64707 2.39119 2.79706 4.23826 2.79706 6.51473V12.3677H2.44119C1.71177 12.3677 1.12061 12.9588 1.12061 13.6853V16.6206C1.12061 17.3471 1.71177 17.9383 2.44119 17.9383H2.79706V18.0765C2.79706 18.9765 3.52943 19.7059 4.42648 19.7059H15.5735C16.4735 19.7059 17.203 18.9765 17.203 18.0765V17.9383H17.5588C18.2882 17.9383 18.8794 17.3471 18.8794 16.6206V13.6853C18.8794 12.9588 18.2882 12.3677 17.5588 12.3677ZM2.79706 17.35H2.44119C2.03825 17.35 1.70884 17.0236 1.70884 16.6206V13.6853C1.70884 13.2824 2.03825 12.9559 2.44119 12.9559H2.79706V17.35ZM9.97943 0.882364C10.9941 0.882364 11.9088 1.48825 12.3235 2.39119H7.6353C8.04707 1.48825 8.96177 0.882364 9.97943 0.882364ZM16.6147 18.0765C16.6147 18.653 16.15 19.1177 15.5735 19.1177H4.42648C3.85295 19.1177 3.3853 18.653 3.3853 18.0765V9.26472C3.67941 9.52355 4.06765 9.6765 4.48824 9.6765H5.57353V10.0941C5.57353 10.4147 5.8353 10.6736 6.1559 10.6736H7.02647C7.34707 10.6736 7.60884 10.4147 7.60884 10.0941V9.6765H12.3941V10.0941C12.3941 10.4147 12.6559 10.6736 12.9765 10.6736H13.8441C14.1647 10.6736 14.4265 10.4147 14.4265 10.0941V9.6765H15.5176C15.9382 9.6765 16.3206 9.52355 16.6147 9.26767V18.0765H16.6147ZM6.16177 10.0941V8.50297L7.02061 8.49708L7.02648 10.0853L6.16177 10.0941ZM12.9824 10.0941V8.50297L13.8382 8.49708L13.8441 10.0853L12.9824 10.0941ZM16.6147 7.98826C16.6147 8.59414 16.1206 9.08826 15.5176 9.08826H14.4265V8.49708C14.4265 8.17356 14.1647 7.91473 13.8441 7.91473H12.9765C12.6559 7.91473 12.3941 8.17356 12.3941 8.49708V9.08826H7.60884V8.49708C7.60884 8.17356 7.34707 7.91473 7.02648 7.91473H6.1559C5.8353 7.91473 5.57353 8.17356 5.57353 8.49708V9.08826H4.48824C3.87943 9.08826 3.3853 8.59414 3.3853 7.98826V6.51473C3.3853 4.56473 4.9706 2.97942 6.9206 2.97942H13.0794C15.0294 2.97942 16.6147 4.56472 16.6147 6.51473V7.98826H16.6147ZM18.2912 16.6206C18.2912 17.0236 17.9618 17.35 17.5588 17.35H17.203V12.9559H17.5588C17.9618 12.9559 18.2912 13.2824 18.2912 13.6853V16.6206Z" fill="black"/>
<path d="M13.2093 12.7647H6.79244C6.14906 12.7647 5.62573 13.288 5.62573 13.9314V17.0059C5.62573 17.7004 6.19099 18.2656 6.88579 18.2656H13.116C13.8108 18.2656 14.376 17.7004 14.376 17.0059V13.9314C14.376 13.288 13.8527 12.7647 13.2093 12.7647ZM6.79244 13.3529H13.2093C13.5284 13.3529 13.7878 13.6123 13.7878 13.9314V14.1374H6.21397V13.9314C6.21397 13.6123 6.47333 13.3529 6.79244 13.3529ZM13.116 17.6774H6.88579C6.51527 17.6774 6.21397 17.3761 6.21397 17.0059V14.7256H6.83179V15.3627C6.83179 15.5252 6.96334 15.6568 7.12591 15.6568C7.28847 15.6568 7.42002 15.5252 7.42002 15.3627V14.7256H13.7878V17.0059C13.7878 17.3761 13.4865 17.6774 13.116 17.6774Z" fill="black"/>
<path d="M15.694 15.2211C15.5314 15.2211 15.3999 15.3526 15.3999 15.5152V16.7623C15.3999 17.1245 15.2132 17.4551 14.9004 17.6461C14.7617 17.7308 14.718 17.9121 14.8027 18.0505C14.8582 18.1413 14.955 18.1912 15.0541 18.1912C15.1063 18.1912 15.1592 18.1775 15.2072 18.1482C15.6963 17.8492 15.9881 17.331 15.9881 16.7623V15.5152C15.9881 15.3526 15.8566 15.2211 15.694 15.2211Z" fill="black"/>
<path d="M15.694 14.0477C15.5314 14.0477 15.3999 14.1793 15.3999 14.3418V14.5013C15.3999 14.6638 15.5314 14.7954 15.694 14.7954C15.8566 14.7954 15.9881 14.6638 15.9881 14.5013V14.3418C15.9881 14.1793 15.8566 14.0477 15.694 14.0477Z" fill="black"/>
</svg>
