<svg width="50" height="50" viewBox="0 0 50 50" fill="none" xmlns="http://www.w3.org/2000/svg">
<circle cx="25" cy="25" r="24.5" stroke="#808080"/>
<g clip-path="url(#clip0_392:1973)">
<path d="M24.499 15.408C23.245 15.408 22.2251 16.4278 22.2251 17.6818C22.2251 18.9358 23.245 19.9556 24.499 19.9556C25.753 19.9556 26.7728 18.9358 26.7728 17.6818C26.7728 16.4279 25.7529 15.408 24.499 15.408ZM24.499 18.8193C23.872 18.8193 23.3615 18.3088 23.3615 17.6818C23.3615 17.0548 23.872 16.5444 24.499 16.5444C25.126 16.5444 25.6364 17.0548 25.6364 17.6818C25.6364 18.3088 25.126 18.8193 24.499 18.8193Z" fill="#808080"/>
<path d="M36.4319 22.2275C36.7459 22.2275 37.0001 21.9749 37.0001 21.6609V19.3884C37.0001 19.1881 36.8946 19.0023 36.722 18.9002L25.6075 12.2996C25.6025 12.2963 25.5975 12.2935 25.5925 12.2908C24.9017 11.9079 24.1227 11.8963 23.3919 12.2985L12.278 18.9002C12.1054 19.0022 12 19.1881 12 19.3884V21.6609C12 21.9749 12.2541 22.2275 12.5682 22.2275H14.2727V32.4553C13.0193 32.4553 12 33.4744 12 34.7277V36.4321C12 36.7461 12.2541 37.0003 12.5682 37.0003H36.4319C36.7459 37.0003 37.0001 36.7462 37.0001 36.4321V34.7277C37.0001 33.4744 35.9808 32.4553 34.7273 32.4553V22.2275H36.4319ZM35.8637 34.7275V35.8639H13.1363V34.7275C13.1363 34.1011 13.6463 33.5912 14.2727 33.5912H14.8409H34.1591H34.7273C35.3537 33.5911 35.8637 34.1011 35.8637 34.7275ZM15.4091 32.4548V22.2275H17.6818V32.4548H15.4091ZM18.8182 32.4548V22.2275H22.2273V32.4548H18.8182ZM23.3636 32.4548V22.2275H25.6364V32.4548H23.3636ZM26.7727 32.4548V22.2275H30.1818V32.4548H26.7727ZM31.3182 32.4548V22.2275H33.591V32.4548H31.3182ZM13.1363 21.0912V19.7101L23.9557 13.2825C24.3097 13.0878 24.6859 13.0883 25.0355 13.2786L35.8637 19.7101V21.0912H13.1363Z" fill="#808080"/>
</g>
<defs>
<clipPath id="clip0_392:1973">
<rect width="25" height="25" fill="white" transform="translate(12 12)"/>
</clipPath>
</defs>
</svg>
