<svg width="80" height="15" viewBox="0 0 80 15" fill="none" xmlns="http://www.w3.org/2000/svg">
<path d="M2.61234 12.5709H4.48534C5.93119 12.5709 6.65409 11.8592 6.65409 10.4853C6.65409 9.13586 5.88185 8.3997 4.37036 8.3997H2.61229L2.61234 12.5709ZM2.61234 2.51083V6.38776H4.25538C5.4876 6.38776 6.12834 5.70061 6.12834 4.44936C6.12834 3.17323 5.47117 2.51083 4.2389 2.51083H2.61234ZM0 14.6566V12.5709H1.10081V2.51083H0V0.425191H4.40323C6.42403 0.425191 7.6563 1.82382 7.6563 4.25304C7.6563 5.84785 7.03205 6.82943 6.24341 7.29549C7.37704 7.76185 8.18206 8.96415 8.18206 10.608C8.18206 13.2089 6.83485 14.6567 4.63314 14.6567L0 14.6566ZM16.1673 7.24641C16.0031 6.41223 15.5923 5.92133 15.0502 5.92133C13.7851 5.92133 12.5857 7.31996 12.5857 9.87174V12.5709H15.0173V14.6566H9.59547V12.5709H11.1398V6.28945H9.92403V4.20381H12.5692V5.97034C13.0129 4.74357 13.9165 3.86038 15.1158 3.86038C16.4632 3.86038 17.301 5.01367 17.5475 6.65757L16.1673 7.24641ZM23.5612 10.4362C23.1011 10.1908 22.411 9.99459 21.7703 9.99459C20.8502 9.99459 19.9629 10.4362 19.9629 11.6876C19.9629 12.6199 20.5215 13.0618 21.2938 13.0618C22.3618 13.0618 23.5612 12.2028 23.5612 10.7308V10.4362ZM23.5612 8.57149V7.98265C23.5612 6.51025 22.7724 5.89686 21.9182 5.89686C21.1131 5.89686 20.423 6.38776 19.8643 7.14811L18.9114 5.60258C19.5687 4.69456 20.5052 3.86038 21.9182 3.86038C23.6761 3.86038 25.0399 5.25901 25.0399 7.90881V12.5709H26.0585V14.6566H23.5612V13.5524C23.1833 14.4603 22.1647 15 21.1623 15C19.7164 15 18.4678 13.896 18.4678 11.7122C18.4678 9.13586 20.1602 8.15436 21.7044 8.15436C22.4604 8.15436 23.0847 8.37523 23.5612 8.57149ZM34.8325 12.5709V14.6566H27.7676V12.5709H30.6922V6.28945H28.4577V4.20381H32.138V12.5709H34.8325ZM36.5745 12.5709H37.6423V6.28945H36.64V4.20381H39.0718V5.55322C39.4989 4.52285 40.3861 3.86038 41.4705 3.86038C43.0313 3.86038 44.1485 5.33249 44.1485 7.71255V12.5709H45.2166V14.6566H41.5855V12.5709H42.7028V8.3014C42.7028 6.48578 41.9635 5.97034 41.2898 5.97034C40.1889 5.97034 39.0883 7.1974 39.0883 9.08657V12.5709H40.2053V14.6566H36.5745V12.5709ZM47.2049 6.28945H45.3812V4.20381H47.2049V0.425049H48.6507V4.20367H52.0516V6.28938H48.6507V10.6814C48.6507 12.3011 49.4065 12.9634 50.2772 12.9634C51.0987 12.9634 51.7888 12.2766 52.2981 11.5159L53.2675 13.0124C52.6268 14.0432 51.6409 14.9999 50.2772 14.9999C48.5192 14.9999 47.2049 13.5523 47.2049 10.7552V6.28945ZM61.1541 7.24641C60.9898 6.41223 60.5791 5.92133 60.0369 5.92133C58.7719 5.92133 57.5723 7.31996 57.5723 9.87174V12.5709H60.0041V14.6566H54.5822V12.5709H56.1266V6.28945H54.9109V4.20381H57.556V5.97034C57.9997 4.74357 58.9033 3.86038 60.1027 3.86038C61.45 3.86038 62.2878 5.01367 62.5343 6.65757L61.1541 7.24641ZM65.0484 8.35069H69.3529C69.1394 6.8539 68.2522 5.84785 67.2665 5.84785C66.149 5.84785 65.2948 6.87837 65.0484 8.35069ZM70.881 13.0618C70.1581 14.1903 68.8766 14.9999 67.4471 14.9999C65.0977 14.9999 63.4547 12.6444 63.4547 9.43014C63.4547 6.2159 65.0484 3.86038 67.2665 3.86038C69.468 3.86038 71.0124 6.38776 71.0124 9.8228V10.1908H64.9827C65.2291 11.9331 66.1984 12.988 67.4636 12.988C68.5151 12.988 69.4187 12.3501 69.9116 11.5404L70.881 13.0618ZM74.0358 8.35069H78.3405C78.1269 6.8539 77.2398 5.84785 76.2539 5.84785C75.1368 5.84785 74.2823 6.87837 74.0358 8.35069ZM79.8686 13.0618C79.1455 14.1903 77.8641 14.9999 76.4347 14.9999C74.0852 14.9999 72.4422 12.6444 72.4422 9.43014C72.4422 6.2159 74.0358 3.86038 76.2539 3.86038C78.4556 3.86038 80 6.38776 80 9.8228V10.1908H73.9702C74.2166 11.9331 75.1861 12.988 76.4511 12.988C77.5027 12.988 78.4062 12.3501 78.8992 11.5404L79.8686 13.0618Z" fill="black"/>
<ellipse cx="29.5" cy="1.60713" rx="0.5" ry="0.535715" fill="black"/>
<ellipse cx="31.5" cy="1.60713" rx="0.5" ry="0.535715" fill="black"/>
<ellipse cx="30.5" cy="2.67854" rx="0.5" ry="0.535715" fill="#FF6B00"/>
<ellipse cx="30.5" cy="0.535715" rx="0.5" ry="0.535715" fill="black"/>
</svg>
