<?xml version="1.0" encoding="iso-8859-1"?>
<!-- Generator: Adobe Illustrator 18.0.0, SVG Export Plug-In . SVG Version: 6.00 Build 0)  -->
<!DOCTYPE svg PUBLIC "-//W3C//DTD SVG 1.1//EN" "http://www.w3.org/Graphics/SVG/1.1/DTD/svg11.dtd">
<svg version="1.1" id="Capa_1" xmlns="http://www.w3.org/2000/svg" xmlns:xlink="http://www.w3.org/1999/xlink" x="0px" y="0px"
	 viewBox="0 0 336.265 336.265" style="enable-background:new 0 0 336.265 336.265;" xml:space="preserve">
<g>
	<g>
		<path d="M272.538,263.469l-34.566-34.564c-13.633-13.635-35.744-13.637-49.379-0.003l-10.736,10.738
			c-0.25,0.247-0.488,0.514-0.727,0.77l-79.914-79.914c0.258-0.238,0.516-0.472,0.77-0.726l10.736-10.738
			c13.635-13.634,13.633-35.743-0.002-49.379L74.157,65.089c-13.639-13.642-35.748-13.64-49.383-0.004L14.038,75.822
			c-29.041,29.04-9.205,98.218,70.172,177.593c79.373,79.377,148.547,99.221,177.594,70.173l10.738-10.737
			C286.175,299.216,286.175,277.106,272.538,263.469z"/>
	</g>
	<g>
		<path d="M292.856,252.482c-3.55,0-7.138-1.023-10.301-3.159c-8.442-5.698-10.666-17.161-4.968-25.603
			c13.366-19.802,20.432-42.958,20.432-66.965c0-66.098-53.774-119.872-119.871-119.872c-23.246,0-45.785,6.656-65.18,19.249
			c-8.542,5.547-19.964,3.118-25.51-5.424c-5.547-8.542-3.118-19.964,5.424-25.51C118.271,8.713,147.755,0,178.148,0
			c86.435,0,156.754,70.32,156.754,156.756c0,31.389-9.248,61.681-26.744,87.601C304.595,249.635,298.778,252.482,292.856,252.482z"
			/>
	</g>
	<g>
		<g>
			<path d="M200.023,165.163h-33.438l19.504-21.721c10.252-10.695,16.125-22.079,16.125-31.248c0-15.996-12.35-26.743-30.732-26.743
				c-10.402,0-21.269,4.638-29.066,12.408c-1.564,1.556-2.441,3.668-2.441,5.873c-0.004,2.204,0.873,4.318,2.432,5.877l0.666,0.667
				c3.234,3.23,8.475,3.238,11.715,0.015c4.449-4.42,11-7.276,16.695-7.276c6.01,0,13.17,1.593,13.17,9.179
				c0,3.569-3.523,11.085-11.264,19.151c-0.063,0.063-0.123,0.128-0.18,0.194l-31.506,35.006c-1.371,1.523-2.129,3.501-2.129,5.552
				v2.331c0,4.583,3.715,8.299,8.299,8.299h52.15c4.582,0,8.297-3.715,8.297-8.299v-0.966
				C208.32,168.878,204.605,165.163,200.023,165.163z"/>
		</g>
		<g>
			<path d="M259.681,140.744h-4.85v-17.88c0-4.583-3.717-8.298-8.299-8.298h-0.969c-4.584,0-8.299,3.715-8.299,8.298v17.88h-16.568
				l24.66-42.855c1.475-2.568,1.473-5.729-0.01-8.293c-1.482-2.565-4.221-4.144-7.184-4.144h-1.107
				c-2.971,0-5.713,1.587-7.193,4.161l-31.17,54.201c-0.723,1.259-1.105,2.685-1.105,4.137v2.06c0,4.583,3.715,8.298,8.299,8.298
				h31.379v16.12c0,4.583,3.715,8.299,8.299,8.299h0.969c4.582,0,8.299-3.715,8.299-8.299v-16.12h4.85
				c4.582,0,8.299-3.715,8.299-8.298v-0.967C267.98,144.46,264.263,140.744,259.681,140.744z"/>
		</g>
	</g>
</g>
<g>
</g>
<g>
</g>
<g>
</g>
<g>
</g>
<g>
</g>
<g>
</g>
<g>
</g>
<g>
</g>
<g>
</g>
<g>
</g>
<g>
</g>
<g>
</g>
<g>
</g>
<g>
</g>
<g>
</g>
</svg>
