<svg width="18" height="18" viewBox="0 0 18 18" fill="none" xmlns="http://www.w3.org/2000/svg">
<g clip-path="url(#clip0_3:1050)">
<path d="M16.3432 3.94233H14.5522C14.3913 3.94233 14.2401 3.87971 14.1264 3.76598L12.5539 2.19355C12.241 1.88062 11.825 1.70825 11.3824 1.70825H6.62112C6.17857 1.70825 5.76246 1.88062 5.44968 2.19351L3.87717 3.76598C3.76348 3.87968 3.61227 3.94233 3.45143 3.94233H1.65994C0.746719 3.94233 0.00348055 4.68532 0.00312899 5.59857L8.01017e-08 14.6342C-0.00028117 15.5495 0.740109 16.2916 1.65681 16.2916H16.3432C17.2568 16.2916 18 15.5483 18 14.6348V5.59913C18 4.68416 17.2598 3.94233 16.3432 3.94233ZM16.9453 14.6347C16.9453 14.9667 16.6752 15.2368 16.3432 15.2368H1.65681C1.3242 15.2368 1.05455 14.9676 1.05469 14.6345L1.05782 5.59892C1.05796 5.26701 1.32806 4.99698 1.65994 4.99698H3.45143C3.89398 4.99698 4.31005 4.82468 4.62298 4.51172L6.19545 2.93925C6.30914 2.82555 6.46031 2.7629 6.62112 2.7629H11.3824C11.5432 2.7629 11.6944 2.82552 11.8082 2.93932L13.3806 4.51168C13.6935 4.82461 14.1095 4.99698 14.5522 4.99698H16.3432C16.6758 4.99698 16.9453 5.2661 16.9453 5.5991V14.6347Z" fill="#C4C4C4"/>
<path d="M9.00163 5.63672C6.84252 5.63672 5.08594 7.3933 5.08594 9.55241C5.08594 11.7115 6.84252 13.4681 9.00163 13.4681C11.1608 13.4681 12.9173 11.7115 12.9173 9.55241C12.9173 7.3933 11.1608 5.63672 9.00163 5.63672ZM9.00163 12.4134C7.42407 12.4134 6.14062 11.13 6.14062 9.55241C6.14062 7.97485 7.42407 6.6914 9.00163 6.6914C10.5792 6.6914 11.8626 7.97485 11.8626 9.55241C11.8626 11.13 10.5792 12.4134 9.00163 12.4134Z" fill="#C4C4C4"/>
<path d="M1.6604 2.76318H2.78986C3.0811 2.76318 3.31721 2.52707 3.31721 2.23584C3.31721 1.94461 3.0811 1.7085 2.78986 1.7085H1.6604C1.36917 1.7085 1.13306 1.94461 1.13306 2.23584C1.13306 2.52707 1.36913 2.76318 1.6604 2.76318Z" fill="#C4C4C4"/>
</g>
<defs>
<clipPath id="clip0_3:1050">
<rect width="18" height="18" fill="white"/>
</clipPath>
</defs>
</svg>
