<svg width="20" height="20" viewBox="0 0 20 20" fill="none" xmlns="http://www.w3.org/2000/svg">
<g clip-path="url(#clip0_254:1193)">
<path d="M19.9962 4.93329C19.9729 4.71805 19.8391 4.52762 19.6393 4.43434L10.2643 0.0593408C10.0968 -0.0188232 9.90324 -0.0187842 9.7357 0.0593408L0.360703 4.43434C0.160938 4.52758 0.0272656 4.71793 0.00386719 4.93309C0.00335938 4.93758 0 4.99743 0 5.00071V15.6257C0 15.8813 0.155586 16.1111 0.392891 16.206L9.76789 19.956C9.84242 19.9858 9.92121 20.0007 10 20.0007C10.0788 20.0007 10.1576 19.9858 10.2321 19.956L12.7724 18.9401C13.5389 19.6007 14.5361 20.0007 15.625 20.0007C18.0374 20.0007 20 18.0381 20 15.6257V5.00071C20 4.99758 19.9966 4.93758 19.9962 4.93329ZM10 1.3154L17.8025 4.95657L14.798 6.15832L6.84871 2.78598L10 1.3154ZM9.375 18.4525L1.25 15.2025V5.92383L9.375 9.17383V18.4525ZM10 8.07754L2.1975 4.95657L5.32457 3.49727L13.1506 6.81731L10 8.07754ZM15.625 18.7507C13.9019 18.7507 12.5 17.3488 12.5 15.6257C12.5 13.9026 13.9019 12.5007 15.625 12.5007C17.3481 12.5007 18.75 13.9026 18.75 15.6257C18.75 17.3488 17.3481 18.7507 15.625 18.7507ZM15.625 11.2507C13.2126 11.2507 11.25 13.2133 11.25 15.6257C11.25 16.474 11.4929 17.2664 11.9125 17.9377L10.625 18.4526V9.17383L18.75 5.92383V12.5672C17.9553 11.7554 16.8481 11.2507 15.625 11.2507Z" fill="#303030"/>
<path d="M16.5089 15.625L17.0044 15.1295C17.2485 14.8854 17.2485 14.4897 17.0044 14.2456C16.7604 14.0015 16.3646 14.0015 16.1206 14.2456L15.625 14.7411L15.1294 14.2455C14.8854 14.0015 14.4896 14.0015 14.2456 14.2455C14.0015 14.4896 14.0015 14.8853 14.2456 15.1295L14.7412 15.625L14.2456 16.1206C14.0015 16.3647 14.0015 16.7604 14.2456 17.0045C14.3676 17.1265 14.5276 17.1875 14.6875 17.1875C14.8475 17.1875 15.0074 17.1265 15.1294 17.0045L15.625 16.5089L16.1206 17.0045C16.2426 17.1265 16.4026 17.1875 16.5625 17.1875C16.7225 17.1875 16.8824 17.1265 17.0044 17.0045C17.2485 16.7604 17.2485 16.3647 17.0044 16.1206L16.5089 15.625Z" fill="#303030"/>
</g>
<defs>
<clipPath id="clip0_254:1193">
<rect width="20" height="20" fill="white"/>
</clipPath>
</defs>
</svg>
