<svg width="20" height="20" viewBox="0 0 20 20" fill="none" xmlns="http://www.w3.org/2000/svg">
<path d="M4.13794 17.9311C4.13794 19.0718 5.06622 20.0001 6.2069 20.0001C7.34759 20.0001 8.27587 19.0718 8.27587 17.9311C8.27587 16.7905 7.34759 15.8622 6.2069 15.8622C5.06622 15.8622 4.13794 16.7905 4.13794 17.9311ZM6.89656 17.9311C6.89656 18.3111 6.5869 18.6208 6.2069 18.6208C5.8269 18.6208 5.51725 18.3111 5.51725 17.9311C5.51725 17.5511 5.8269 17.2415 6.2069 17.2415C6.5869 17.2415 6.89656 17.5511 6.89656 17.9311Z" fill="#808080"/>
<path d="M16.5517 17.9311C16.5517 16.7905 15.6235 15.8622 14.4828 15.8622C13.3421 15.8622 12.4138 16.7905 12.4138 17.9311C12.4138 19.0718 13.3421 20.0001 14.4828 20.0001C15.6235 20.0001 16.5517 19.0718 16.5517 17.9311ZM13.7931 17.9311C13.7931 17.5511 14.1028 17.2415 14.4828 17.2415C14.8628 17.2415 15.1724 17.5511 15.1724 17.9311C15.1724 18.3111 14.8628 18.6208 14.4828 18.6208C14.1028 18.6208 13.7931 18.3111 13.7931 17.9311Z" fill="#808080"/>
<path d="M2.13793 1.37931C2.22345 2.19379 3.17517 11.2338 3.32207 12.6303C3.4331 13.6862 4.31793 14.4828 5.38 14.4828H16.1269C17.0959 14.4828 17.9469 13.7945 18.1503 12.8469L19.8069 5.11655C19.8945 4.7069 19.7938 4.28552 19.5303 3.96069C19.2669 3.63517 18.8759 3.44828 18.4572 3.44828H3.74276L3.44483 0.617931C3.40759 0.266207 3.11172 0 2.75862 0H0.689655C0.308966 0 0 0.308966 0 0.689655C0 1.07034 0.308966 1.37931 0.689655 1.37931H2.13793ZM18.4572 4.82759L16.8014 12.5579C16.7331 12.8738 16.4497 13.1034 16.1262 13.1034H5.38C5.02552 13.1034 4.73103 12.8379 4.69379 12.4862L3.88759 4.82759H18.4572Z" fill="#808080"/>
</svg>
