<svg width="20" height="20" viewBox="0 0 20 20" fill="none" xmlns="http://www.w3.org/2000/svg">
<path d="M7.7778 20H1.11109C0.499973 20 -2.95639e-05 19.5 -2.95639e-05 18.8889V12.2221C-2.95639e-05 11.611 0.499973 11.111 1.11109 11.111H7.7778C8.38891 11.111 8.88892 11.611 8.88892 12.2221V18.8889C8.88892 19.5 8.38891 20 7.7778 20Z" fill="#808080"/>
<path d="M7.7778 8.88895H1.11109C0.499973 8.88895 -2.95639e-05 8.38894 -2.95639e-05 7.77783V1.11112C-2.95639e-05 0.500003 0.499973 0 1.11109 0H7.7778C8.38891 0 8.88892 0.500003 8.88892 1.11112V7.77783C8.88892 8.38894 8.38891 8.88895 7.7778 8.88895Z" fill="#808080"/>
<path d="M18.8891 20H12.2224C11.6113 20 11.1113 19.5 11.1113 18.8889V12.2221C11.1113 11.611 11.6113 11.111 12.2224 11.111H18.8891C19.5002 11.111 20.0002 11.611 20.0002 12.2221V18.8889C20.0002 19.5 19.5002 20 18.8891 20Z" fill="#808080"/>
<path d="M18.8891 8.88895H12.2224C11.6113 8.88895 11.1113 8.38894 11.1113 7.77783V1.11112C11.1113 0.500003 11.6113 0 12.2224 0H18.8891C19.5002 0 20.0002 0.500003 20.0002 1.11112V7.77783C20.0002 8.38894 19.5002 8.88895 18.8891 8.88895Z" fill="#808080"/>
</svg>
