<svg width="20" height="18" viewBox="0 0 20 18" fill="none" xmlns="http://www.w3.org/2000/svg">
<path d="M19.1666 7.75C19.1657 6.97674 18.8581 6.23542 18.3113 5.68864C17.7645 5.14186 17.0232 4.83427 16.2499 4.83333H14.1666V3.16667C14.1657 2.39341 13.8581 1.65209 13.3113 1.10531C12.7645 0.558529 12.0232 0.250937 11.2499 0.25H3.74992C2.97666 0.250937 2.23534 0.558529 1.68856 1.10531C1.14178 1.65209 0.834192 2.39341 0.833255 3.16667V9C0.832238 9.7538 1.12368 10.4786 1.64625 11.0219L0.877213 12.564C0.839679 12.6392 0.825744 12.724 0.837236 12.8072C0.848727 12.8904 0.885108 12.9682 0.941606 13.0304C0.998104 13.0926 1.07208 13.1362 1.15382 13.1556C1.23557 13.175 1.32127 13.1692 1.39967 13.139L4.57717 11.9167H5.83326V13.5833C5.83419 14.3566 6.14178 15.0979 6.68856 15.6447C7.23534 16.1915 7.97666 16.4991 8.74992 16.5H15.4227L18.6002 17.7223C18.6786 17.7525 18.7643 17.7583 18.846 17.7389C18.9278 17.7195 19.0017 17.6759 19.0582 17.6137C19.1147 17.5515 19.1511 17.4737 19.1626 17.3905C19.1741 17.3073 19.1602 17.2225 19.1226 17.1473L18.3536 15.6052C18.8762 15.0619 19.1676 14.3371 19.1666 13.5833V7.75ZM4.49992 11.0833C4.44874 11.0833 4.39798 11.0927 4.35017 11.111L2.10155 11.9761L2.53071 11.1151C2.57285 11.0309 2.58517 10.9349 2.56566 10.8428C2.54615 10.7507 2.49595 10.6679 2.4233 10.6081C2.18625 10.4126 1.99545 10.1669 1.86461 9.8889C1.73377 9.61086 1.66615 9.30729 1.66659 9V3.16667C1.66724 2.61433 1.88694 2.08481 2.2775 1.69425C2.66806 1.30369 3.19759 1.08398 3.74992 1.08333H11.2499C11.8023 1.08398 12.3318 1.30369 12.7223 1.69425C13.1129 2.08481 13.3326 2.61433 13.3333 3.16667V9C13.3326 9.55234 13.1129 10.0819 12.7223 10.4724C12.3318 10.863 11.8023 11.0827 11.2499 11.0833H4.49992ZM18.3333 13.5833C18.3337 13.8906 18.266 14.1942 18.1352 14.4723C18.0043 14.7503 17.8135 14.9959 17.5764 15.1914C17.5038 15.2513 17.4536 15.334 17.4341 15.4261C17.4146 15.5182 17.4269 15.6142 17.469 15.6984L17.8982 16.5594L15.6499 15.6943C15.602 15.676 15.5512 15.6667 15.4999 15.6667H8.74992C8.19759 15.666 7.66806 15.4463 7.2775 15.0558C6.88694 14.6652 6.66724 14.1357 6.66659 13.5833V11.9167H11.2499C12.0232 11.9157 12.7645 11.6081 13.3113 11.0614C13.8581 10.5146 14.1657 9.77326 14.1666 9V5.66667H16.2499C16.8023 5.66732 17.3318 5.88702 17.7223 6.27758C18.1129 6.66814 18.3326 7.19767 18.3333 7.75V13.5833Z" fill="#303030"/>
<path d="M6.66667 4.83334H10.8333C10.9438 4.83334 11.0498 4.78944 11.128 4.7113C11.2061 4.63316 11.25 4.52718 11.25 4.41667C11.25 4.30616 11.2061 4.20018 11.128 4.12204C11.0498 4.0439 10.9438 4 10.8333 4H6.66667C6.55616 4 6.45018 4.0439 6.37204 4.12204C6.2939 4.20018 6.25 4.30616 6.25 4.41667C6.25 4.52718 6.2939 4.63316 6.37204 4.7113C6.45018 4.78944 6.55616 4.83334 6.66667 4.83334Z" fill="#303030"/>
<path d="M11.25 7.74992C11.25 7.63941 11.2061 7.53343 11.128 7.45529C11.0498 7.37715 10.9438 7.33325 10.8333 7.33325H4.16667C4.05616 7.33325 3.95018 7.37715 3.87204 7.45529C3.7939 7.53343 3.75 7.63941 3.75 7.74992C3.75 7.86043 3.7939 7.96641 3.87204 8.04455C3.95018 8.12269 4.05616 8.16659 4.16667 8.16659H10.8333C10.9438 8.16659 11.0498 8.12269 11.128 8.04455C11.2061 7.96641 11.25 7.86043 11.25 7.74992Z" fill="#303030"/>
</svg>
