<svg width="17" height="17" viewBox="0 0 17 17" fill="none" xmlns="http://www.w3.org/2000/svg">
<path d="M8.5 17C13.1944 17 17 13.1944 17 8.5C17 3.80558 13.1944 0 8.5 0C3.80558 0 0 3.80558 0 8.5C0 13.1944 3.80558 17 8.5 17Z" fill="#FF3A27"/>
<path d="M12.808 6.69869L8.2037 11.3026C8.06558 11.4407 7.88429 11.5105 7.703 11.5105C7.52171 11.5105 7.34042 11.4407 7.2023 11.3026L4.90032 9.00065C4.62307 8.72374 4.62307 8.27616 4.90032 7.99925C5.17723 7.722 5.62481 7.722 5.90173 7.99925L7.703 9.80052L11.8066 5.69728C12.0835 5.42004 12.5311 5.42004 12.808 5.69728C13.0849 5.9742 13.0849 6.42177 12.808 6.69869Z" fill="white"/>
</svg>
