<svg width="20" height="20" viewBox="0 0 20 20" fill="none" xmlns="http://www.w3.org/2000/svg">
<g clip-path="url(#clip0_254:1205)">
<mask id="path-1-outside-1_254:1205" maskUnits="userSpaceOnUse" x="-0.999756" y="-1" width="22" height="22" fill="black">
<rect fill="white" x="-0.999756" y="-1" width="22" height="22"/>
<path fill-rule="evenodd" clip-rule="evenodd" d="M16.3749 10.3834C16.3015 10.3834 16.2283 10.3628 16.1643 10.3218L13.9254 8.88867H10.5631C9.39525 8.88867 8.42346 8.03559 8.2367 6.91996H7.32349L4.4983 9.16695C4.42787 9.22297 4.34185 9.25184 4.2551 9.25184C4.19861 9.25184 4.14185 9.23961 4.08885 9.21465C3.95439 9.15141 3.86748 9.01734 3.86459 8.86875L3.82564 6.85754C3.10412 6.71887 2.44275 6.35141 1.93564 5.80145C1.34377 5.15957 1.01783 4.32805 1.01783 3.45996C1.01783 1.55211 2.57041 0 4.47881 0H7.14392C7.35967 0 7.53455 0.174883 7.53455 0.390625C7.53455 0.606367 7.35967 0.78125 7.14392 0.78125H4.47881C3.00119 0.78125 1.79908 1.98293 1.79908 3.45988C1.79908 4.83656 2.87287 6.00848 4.24365 6.12789C4.4426 6.14523 4.59642 6.30984 4.60029 6.50949L4.63041 8.06359L6.94396 6.22355C7.0131 6.16859 7.09881 6.13867 7.18713 6.13867H8.2367C8.42346 5.02305 9.39525 4.16996 10.5631 4.16996H15.8989C15.9628 3.93891 15.9954 3.70113 15.9954 3.45996C15.9954 1.98293 14.7937 0.78125 13.3167 0.78125H10.6516C10.4359 0.78125 10.261 0.606367 10.261 0.390625C10.261 0.174883 10.4359 0 10.6516 0H13.3167C15.2245 0 16.7766 1.55211 16.7766 3.45992C16.7766 3.71559 16.748 3.9682 16.6924 4.21555C17.7731 4.43074 18.5903 5.38625 18.5903 6.5293C18.5903 7.62176 17.8228 8.56785 16.7881 8.82156L16.7655 10.0003C16.7628 10.1417 16.6838 10.2706 16.5592 10.3373C16.5015 10.3681 16.4381 10.3834 16.3749 10.3834ZM10.5631 4.95121C9.69295 4.95121 8.98502 5.65914 8.98502 6.5293C8.98502 7.39945 9.69291 8.10738 10.5631 8.10734H14.0398C14.1144 8.10734 14.1875 8.12875 14.2504 8.16898L15.9978 9.28754L16.0132 8.48277C16.017 8.28309 16.1708 8.11844 16.3698 8.10109C17.1769 8.03074 17.809 7.34031 17.809 6.5293C17.809 5.65914 17.1011 4.95121 16.231 4.95121H10.5631ZM5.97454 15.4934C6.24075 15.0907 6.39626 14.6087 6.39626 14.0908C6.39626 12.6848 5.25196 11.541 3.8454 11.541C2.43884 11.541 1.29458 12.6848 1.29458 14.0908C1.29458 14.6087 1.45013 15.0907 1.71634 15.4935C0.704502 15.9126 0.000244141 16.9171 0.000244141 18.0471V19.6094C0.000244141 19.8251 0.175127 20 0.390869 20H7.29997C7.51571 20 7.6906 19.8251 7.6906 19.6094V18.0471C7.6906 16.9169 6.98634 15.9125 5.97454 15.4934ZM3.8454 12.3223C4.82114 12.3223 5.61501 13.1156 5.61501 14.0908C5.61501 15.0666 4.82118 15.8605 3.8454 15.8605C2.86966 15.8605 2.07583 15.0666 2.07583 14.0908C2.07583 13.1156 2.86966 12.3223 3.8454 12.3223ZM6.90935 19.2188H0.781494V18.0471C0.781494 17.1322 1.42524 16.332 2.30356 16.1212C2.73216 16.4475 3.26642 16.6417 3.8454 16.6417C4.42438 16.6417 4.95868 16.4475 5.38727 16.1212C6.2656 16.3319 6.90935 17.1321 6.90935 18.0471V19.2188ZM18.2825 15.4934C18.5487 15.0907 18.7042 14.6087 18.7042 14.0908C18.7042 12.6848 17.5599 11.541 16.1534 11.541C14.7474 11.541 13.6036 12.6848 13.6036 14.0908C13.6036 14.6085 13.759 15.0905 14.025 15.4932C13.0128 15.9121 12.3082 16.9167 12.3082 18.0471V19.6094C12.3082 19.8251 12.4831 20 12.6988 20H19.6091C19.8248 20 19.9997 19.8251 19.9997 19.6094V18.0471C19.9996 16.9169 19.295 15.9124 18.2825 15.4934ZM16.1534 12.3223C17.1291 12.3223 17.9229 13.1156 17.9229 14.0908C17.9229 15.0666 17.1291 15.8605 16.1534 15.8605C15.1782 15.8605 14.3849 15.0666 14.3849 14.0908C14.3849 13.1156 15.1782 12.3223 16.1534 12.3223ZM19.2184 19.2188H13.0894V18.0471C13.0894 17.1321 13.7334 16.3317 14.612 16.1211C15.0405 16.4474 15.5746 16.6417 16.1534 16.6417C16.7323 16.6417 17.2666 16.4475 17.6952 16.1212C18.5742 16.3319 19.2184 17.1321 19.2184 18.0471V19.2188ZM11.1808 6.13814C10.9651 6.13814 10.7902 6.31357 10.7902 6.52931C10.7902 6.74505 10.9651 6.91994 11.1808 6.91994C11.3966 6.91994 11.5715 6.74505 11.5715 6.52931V6.52822C11.5715 6.31248 11.3966 6.13814 11.1808 6.13814ZM13.0068 6.52931C13.0068 6.31357 13.1817 6.13814 13.3974 6.13814C13.6132 6.13814 13.788 6.31248 13.788 6.52822V6.52931C13.788 6.74505 13.6132 6.91994 13.3974 6.91994C13.1817 6.91994 13.0068 6.74505 13.0068 6.52931ZM15.613 6.91994C15.8288 6.91994 16.0037 6.74505 16.0037 6.52931V6.52822C16.0037 6.31248 15.8288 6.13814 15.613 6.13814C15.3973 6.13814 15.2224 6.31357 15.2224 6.52931C15.2224 6.74505 15.3973 6.91994 15.613 6.91994ZM8.89993 0.78125H8.89771C8.68196 0.78125 8.50712 0.606367 8.50712 0.390625C8.50712 0.174883 8.682 0 8.89774 0C9.11349 0 9.28946 0.174883 9.28946 0.390625C9.28946 0.606367 9.11567 0.78125 8.89993 0.78125Z"/>
</mask>
<path fill-rule="evenodd" clip-rule="evenodd" d="M16.3749 10.3834C16.3015 10.3834 16.2283 10.3628 16.1643 10.3218L13.9254 8.88867H10.5631C9.39525 8.88867 8.42346 8.03559 8.2367 6.91996H7.32349L4.4983 9.16695C4.42787 9.22297 4.34185 9.25184 4.2551 9.25184C4.19861 9.25184 4.14185 9.23961 4.08885 9.21465C3.95439 9.15141 3.86748 9.01734 3.86459 8.86875L3.82564 6.85754C3.10412 6.71887 2.44275 6.35141 1.93564 5.80145C1.34377 5.15957 1.01783 4.32805 1.01783 3.45996C1.01783 1.55211 2.57041 0 4.47881 0H7.14392C7.35967 0 7.53455 0.174883 7.53455 0.390625C7.53455 0.606367 7.35967 0.78125 7.14392 0.78125H4.47881C3.00119 0.78125 1.79908 1.98293 1.79908 3.45988C1.79908 4.83656 2.87287 6.00848 4.24365 6.12789C4.4426 6.14523 4.59642 6.30984 4.60029 6.50949L4.63041 8.06359L6.94396 6.22355C7.0131 6.16859 7.09881 6.13867 7.18713 6.13867H8.2367C8.42346 5.02305 9.39525 4.16996 10.5631 4.16996H15.8989C15.9628 3.93891 15.9954 3.70113 15.9954 3.45996C15.9954 1.98293 14.7937 0.78125 13.3167 0.78125H10.6516C10.4359 0.78125 10.261 0.606367 10.261 0.390625C10.261 0.174883 10.4359 0 10.6516 0H13.3167C15.2245 0 16.7766 1.55211 16.7766 3.45992C16.7766 3.71559 16.748 3.9682 16.6924 4.21555C17.7731 4.43074 18.5903 5.38625 18.5903 6.5293C18.5903 7.62176 17.8228 8.56785 16.7881 8.82156L16.7655 10.0003C16.7628 10.1417 16.6838 10.2706 16.5592 10.3373C16.5015 10.3681 16.4381 10.3834 16.3749 10.3834ZM10.5631 4.95121C9.69295 4.95121 8.98502 5.65914 8.98502 6.5293C8.98502 7.39945 9.69291 8.10738 10.5631 8.10734H14.0398C14.1144 8.10734 14.1875 8.12875 14.2504 8.16898L15.9978 9.28754L16.0132 8.48277C16.017 8.28309 16.1708 8.11844 16.3698 8.10109C17.1769 8.03074 17.809 7.34031 17.809 6.5293C17.809 5.65914 17.1011 4.95121 16.231 4.95121H10.5631ZM5.97454 15.4934C6.24075 15.0907 6.39626 14.6087 6.39626 14.0908C6.39626 12.6848 5.25196 11.541 3.8454 11.541C2.43884 11.541 1.29458 12.6848 1.29458 14.0908C1.29458 14.6087 1.45013 15.0907 1.71634 15.4935C0.704502 15.9126 0.000244141 16.9171 0.000244141 18.0471V19.6094C0.000244141 19.8251 0.175127 20 0.390869 20H7.29997C7.51571 20 7.6906 19.8251 7.6906 19.6094V18.0471C7.6906 16.9169 6.98634 15.9125 5.97454 15.4934ZM3.8454 12.3223C4.82114 12.3223 5.61501 13.1156 5.61501 14.0908C5.61501 15.0666 4.82118 15.8605 3.8454 15.8605C2.86966 15.8605 2.07583 15.0666 2.07583 14.0908C2.07583 13.1156 2.86966 12.3223 3.8454 12.3223ZM6.90935 19.2188H0.781494V18.0471C0.781494 17.1322 1.42524 16.332 2.30356 16.1212C2.73216 16.4475 3.26642 16.6417 3.8454 16.6417C4.42438 16.6417 4.95868 16.4475 5.38727 16.1212C6.2656 16.3319 6.90935 17.1321 6.90935 18.0471V19.2188ZM18.2825 15.4934C18.5487 15.0907 18.7042 14.6087 18.7042 14.0908C18.7042 12.6848 17.5599 11.541 16.1534 11.541C14.7474 11.541 13.6036 12.6848 13.6036 14.0908C13.6036 14.6085 13.759 15.0905 14.025 15.4932C13.0128 15.9121 12.3082 16.9167 12.3082 18.0471V19.6094C12.3082 19.8251 12.4831 20 12.6988 20H19.6091C19.8248 20 19.9997 19.8251 19.9997 19.6094V18.0471C19.9996 16.9169 19.295 15.9124 18.2825 15.4934ZM16.1534 12.3223C17.1291 12.3223 17.9229 13.1156 17.9229 14.0908C17.9229 15.0666 17.1291 15.8605 16.1534 15.8605C15.1782 15.8605 14.3849 15.0666 14.3849 14.0908C14.3849 13.1156 15.1782 12.3223 16.1534 12.3223ZM19.2184 19.2188H13.0894V18.0471C13.0894 17.1321 13.7334 16.3317 14.612 16.1211C15.0405 16.4474 15.5746 16.6417 16.1534 16.6417C16.7323 16.6417 17.2666 16.4475 17.6952 16.1212C18.5742 16.3319 19.2184 17.1321 19.2184 18.0471V19.2188ZM11.1808 6.13814C10.9651 6.13814 10.7902 6.31357 10.7902 6.52931C10.7902 6.74505 10.9651 6.91994 11.1808 6.91994C11.3966 6.91994 11.5715 6.74505 11.5715 6.52931V6.52822C11.5715 6.31248 11.3966 6.13814 11.1808 6.13814ZM13.0068 6.52931C13.0068 6.31357 13.1817 6.13814 13.3974 6.13814C13.6132 6.13814 13.788 6.31248 13.788 6.52822V6.52931C13.788 6.74505 13.6132 6.91994 13.3974 6.91994C13.1817 6.91994 13.0068 6.74505 13.0068 6.52931ZM15.613 6.91994C15.8288 6.91994 16.0037 6.74505 16.0037 6.52931V6.52822C16.0037 6.31248 15.8288 6.13814 15.613 6.13814C15.3973 6.13814 15.2224 6.31357 15.2224 6.52931C15.2224 6.74505 15.3973 6.91994 15.613 6.91994ZM8.89993 0.78125H8.89771C8.68196 0.78125 8.50712 0.606367 8.50712 0.390625C8.50712 0.174883 8.682 0 8.89774 0C9.11349 0 9.28946 0.174883 9.28946 0.390625C9.28946 0.606367 9.11567 0.78125 8.89993 0.78125Z" fill="#303030"/>
<path d="M16.1643 10.3218L16.2182 10.2376L16.2182 10.2376L16.1643 10.3218ZM13.9254 8.88867L13.9794 8.80445L13.9547 8.78867H13.9254V8.88867ZM8.2367 6.91996L8.33533 6.90345L8.32135 6.81996H8.2367V6.91996ZM7.32349 6.91996V6.81996H7.28858L7.26125 6.8417L7.32349 6.91996ZM4.4983 9.16695L4.43605 9.08869H4.43605L4.4983 9.16695ZM4.08885 9.21465L4.13145 9.12418L4.13141 9.12416L4.08885 9.21465ZM3.86459 8.86875L3.76461 8.87069L3.76461 8.87069L3.86459 8.86875ZM3.82564 6.85754L3.92562 6.8556L3.92406 6.77462L3.84452 6.75934L3.82564 6.85754ZM1.93564 5.80145L2.00916 5.73366L2.00916 5.73366L1.93564 5.80145ZM4.24365 6.12789L4.25234 6.02827L4.25233 6.02827L4.24365 6.12789ZM4.60029 6.50949L4.50031 6.51143V6.51143L4.60029 6.50949ZM4.63041 8.06359L4.53043 8.06553L4.53435 8.26777L4.69266 8.14186L4.63041 8.06359ZM6.94396 6.22355L6.88174 6.14527L6.88172 6.14529L6.94396 6.22355ZM8.2367 6.13867V6.23867H8.32135L8.33533 6.15518L8.2367 6.13867ZM15.8989 4.16996V4.26996H15.975L15.9953 4.1966L15.8989 4.16996ZM16.7766 3.45992H16.8766V3.45992L16.7766 3.45992ZM16.6924 4.21555L16.5949 4.19362L16.5724 4.29361L16.6729 4.31362L16.6924 4.21555ZM16.7881 8.82156L16.7643 8.72444L16.6896 8.74275L16.6881 8.81965L16.7881 8.82156ZM16.7655 10.0003L16.8655 10.0022V10.0022L16.7655 10.0003ZM16.5592 10.3373L16.512 10.2491L16.512 10.2491L16.5592 10.3373ZM10.5631 8.10734V8.00734H10.5631L10.5631 8.10734ZM14.2504 8.16898L14.1965 8.25321H14.1965L14.2504 8.16898ZM15.9978 9.28754L15.9438 9.37176L16.0943 9.46808L16.0977 9.28946L15.9978 9.28754ZM16.0132 8.48277L16.1132 8.48469V8.48467L16.0132 8.48277ZM16.3698 8.10109L16.3785 8.20072V8.20072L16.3698 8.10109ZM5.97454 15.4934L5.89112 15.4383L5.82426 15.5394L5.93628 15.5858L5.97454 15.4934ZM1.71634 15.4935L1.75461 15.5859L1.86661 15.5395L1.79976 15.4384L1.71634 15.4935ZM0.781494 19.2188H0.681494V19.3188H0.781494V19.2188ZM6.90935 19.2188V19.3188H7.00935V19.2188H6.90935ZM2.30356 16.1212L2.36414 16.0416L2.32638 16.0129L2.28022 16.024L2.30356 16.1212ZM5.38727 16.1212L5.4106 16.024L5.36446 16.0129L5.3267 16.0416L5.38727 16.1212ZM18.2825 15.4934L18.1991 15.4383L18.1322 15.5394L18.2443 15.5858L18.2825 15.4934ZM14.025 15.4932L14.0633 15.5856L14.1753 15.5392L14.1085 15.4381L14.025 15.4932ZM19.9997 18.0471H20.0997V18.0471L19.9997 18.0471ZM13.0894 19.2188H12.9894V19.3188H13.0894V19.2188ZM19.2184 19.2188V19.3188H19.3184V19.2188H19.2184ZM14.612 16.1211L14.6726 16.0415L14.6349 16.0128L14.5887 16.0238L14.612 16.1211ZM17.6952 16.1212L17.7185 16.0239L17.6724 16.0129L17.6347 16.0416L17.6952 16.1212ZM16.1104 10.406C16.1908 10.4575 16.2827 10.4834 16.3749 10.4834V10.2834C16.3203 10.2834 16.2658 10.2681 16.2182 10.2376L16.1104 10.406ZM13.8715 8.97289L16.1104 10.406L16.2182 10.2376L13.9794 8.80445L13.8715 8.97289ZM10.5631 8.98867H13.9254V8.78867H10.5631V8.98867ZM8.13807 6.93647C8.33274 8.09938 9.34548 8.98867 10.5631 8.98867V8.78867C9.44502 8.78867 8.51417 7.9718 8.33533 6.90345L8.13807 6.93647ZM7.32349 7.01996H8.2367V6.81996H7.32349V7.01996ZM4.56055 9.24522L7.38574 6.99823L7.26125 6.8417L4.43605 9.08869L4.56055 9.24522ZM4.2551 9.35184C4.364 9.35184 4.47206 9.31559 4.56055 9.24522L4.43605 9.08869C4.38368 9.13034 4.31971 9.15184 4.2551 9.15184V9.35184ZM4.04624 9.30512C4.11282 9.33647 4.18416 9.35184 4.2551 9.35184V9.15184C4.21307 9.15184 4.17089 9.14275 4.13145 9.12418L4.04624 9.30512ZM3.76461 8.87069C3.76824 9.05731 3.87739 9.2257 4.04628 9.30514L4.13141 9.12416C4.03139 9.07711 3.96672 8.97738 3.96457 8.86681L3.76461 8.87069ZM3.72566 6.85947L3.76461 8.87069L3.96457 8.86681L3.92562 6.8556L3.72566 6.85947ZM1.86213 5.86923C2.38363 6.43481 3.06411 6.81301 3.80677 6.95574L3.84452 6.75934C3.14413 6.62473 2.50187 6.26801 2.00916 5.73366L1.86213 5.86923ZM0.917831 3.45996C0.917831 4.35333 1.25333 5.20901 1.86213 5.86923L2.00916 5.73366C1.4342 5.11013 1.11783 4.30276 1.11783 3.45996H0.917831ZM4.47881 -0.1C2.51521 -0.1 0.917831 1.49685 0.917831 3.45996H1.11783C1.11783 1.60737 2.62561 0.1 4.47881 0.1V-0.1ZM7.14392 -0.1H4.47881V0.1H7.14392V-0.1ZM7.63455 0.390625C7.63455 0.119654 7.4149 -0.1 7.14392 -0.1V0.1C7.30444 0.1 7.43455 0.230111 7.43455 0.390625H7.63455ZM7.14392 0.88125C7.4149 0.88125 7.63455 0.661596 7.63455 0.390625H7.43455C7.43455 0.551139 7.30444 0.68125 7.14392 0.68125V0.88125ZM4.47881 0.88125H7.14392V0.68125H4.47881V0.88125ZM1.89908 3.45988C1.89908 2.0382 3.05638 0.88125 4.47881 0.88125V0.68125C2.946 0.68125 1.69908 1.92766 1.69908 3.45988H1.89908ZM4.25233 6.02827C2.93326 5.91336 1.89908 4.78474 1.89908 3.45988H1.69908C1.69908 4.88839 2.81248 6.10359 4.23497 6.22751L4.25233 6.02827ZM4.70027 6.50756C4.69542 6.2568 4.50221 6.05005 4.25234 6.02827L4.23497 6.22751C4.38298 6.24042 4.49743 6.36289 4.50031 6.51143L4.70027 6.50756ZM4.73039 8.06166L4.70027 6.50756L4.50031 6.51143L4.53043 8.06553L4.73039 8.06166ZM6.88172 6.14529L4.56816 7.98533L4.69266 8.14186L7.00621 6.30182L6.88172 6.14529ZM7.18713 6.03867C7.0762 6.03867 6.96856 6.07625 6.88174 6.14527L7.00619 6.30184C7.05764 6.26093 7.12142 6.23867 7.18713 6.23867V6.03867ZM8.2367 6.03867H7.18713V6.23867H8.2367V6.03867ZM10.5631 4.06996C9.34548 4.06996 8.33274 4.95926 8.13807 6.12216L8.33533 6.15518C8.51417 5.08684 9.44502 4.26996 10.5631 4.26996V4.06996ZM15.8989 4.06996H10.5631V4.26996H15.8989V4.06996ZM15.8954 3.45996C15.8954 3.69206 15.864 3.92087 15.8025 4.14332L15.9953 4.1966C16.0615 3.95694 16.0954 3.71021 16.0954 3.45996H15.8954ZM13.3167 0.88125C14.7385 0.88125 15.8954 2.03816 15.8954 3.45996H16.0954C16.0954 1.9277 14.849 0.68125 13.3167 0.68125V0.88125ZM10.6516 0.88125H13.3167V0.68125H10.6516V0.88125ZM10.161 0.390625C10.161 0.661596 10.3806 0.88125 10.6516 0.88125V0.68125C10.4911 0.68125 10.361 0.551139 10.361 0.390625H10.161ZM10.6516 -0.1C10.3806 -0.1 10.161 0.119654 10.161 0.390625H10.361C10.361 0.230111 10.4911 0.1 10.6516 0.1V-0.1ZM13.3167 -0.1H10.6516V0.1H13.3167V-0.1ZM16.8766 3.45992C16.8766 1.49688 15.2797 -0.1 13.3167 -0.1V0.1C15.1693 0.1 16.6766 1.60734 16.6766 3.45992L16.8766 3.45992ZM16.79 4.23747C16.8472 3.98305 16.8766 3.72308 16.8766 3.45992H16.6766C16.6766 3.7081 16.6489 3.95336 16.5949 4.19362L16.79 4.23747ZM18.6903 6.5293C18.6903 5.33753 17.8384 4.34178 16.712 4.11747L16.6729 4.31362C17.7078 4.5197 18.4903 5.43497 18.4903 6.5293H18.6903ZM16.8119 8.91869C17.8904 8.65423 18.6903 7.66876 18.6903 6.5293H18.4903C18.4903 7.57476 17.7552 8.48147 16.7643 8.72444L16.8119 8.91869ZM16.8655 10.0022L16.888 8.82348L16.6881 8.81965L16.6655 9.9984L16.8655 10.0022ZM16.6063 10.4254C16.7629 10.3417 16.862 10.1798 16.8655 10.0022L16.6655 9.99838C16.6635 10.1036 16.6048 10.1995 16.512 10.2491L16.6063 10.4254ZM16.3749 10.4834C16.4543 10.4834 16.5339 10.4642 16.6063 10.4254L16.512 10.2491C16.4691 10.272 16.422 10.2834 16.3749 10.2834V10.4834ZM9.08502 6.5293C9.08502 5.71437 9.74818 5.05121 10.5631 5.05121V4.85121C9.63772 4.85121 8.88502 5.60391 8.88502 6.5293H9.08502ZM10.5631 8.00734C9.74814 8.00738 9.08502 7.34423 9.08502 6.5293H8.88502C8.88502 7.45468 9.63768 8.20739 10.5631 8.20734L10.5631 8.00734ZM14.0398 8.00734H10.5631V8.20734H14.0398V8.00734ZM14.3043 8.08476C14.2253 8.03423 14.1336 8.00734 14.0398 8.00734V8.20734C14.0953 8.20734 14.1497 8.22327 14.1965 8.25321L14.3043 8.08476ZM16.0517 9.20332L14.3043 8.08476L14.1965 8.25321L15.9438 9.37176L16.0517 9.20332ZM15.9132 8.48086L15.8978 9.28562L16.0977 9.28946L16.1132 8.48469L15.9132 8.48086ZM16.3611 8.00147C16.1112 8.02326 15.918 8.23006 15.9132 8.48088L16.1132 8.48467C16.116 8.33611 16.2304 8.21362 16.3785 8.20072L16.3611 8.00147ZM17.709 6.5293C17.709 7.28854 17.1164 7.93563 16.3611 8.00147L16.3785 8.20072C17.2373 8.12585 17.909 7.39208 17.909 6.5293H17.709ZM16.231 5.05121C17.0459 5.05121 17.709 5.71437 17.709 6.5293H17.909C17.909 5.60391 17.1563 4.85121 16.231 4.85121V5.05121ZM10.5631 5.05121H16.231V4.85121H10.5631V5.05121ZM6.29626 14.0908C6.29626 14.5883 6.14692 15.0513 5.89112 15.4383L6.05796 15.5486C6.33459 15.1301 6.49626 14.629 6.49626 14.0908H6.29626ZM3.8454 11.641C5.19677 11.641 6.29626 12.7401 6.29626 14.0908H6.49626C6.49626 12.6296 5.30715 11.441 3.8454 11.441V11.641ZM1.39458 14.0908C1.39458 12.7401 2.49403 11.641 3.8454 11.641V11.441C2.38365 11.441 1.19458 12.6296 1.19458 14.0908H1.39458ZM1.79976 15.4384C1.54396 15.0513 1.39458 14.5884 1.39458 14.0908H1.19458C1.19458 14.629 1.35629 15.1301 1.63291 15.5486L1.79976 15.4384ZM0.100244 18.0471C0.100244 16.9588 0.778899 15.9901 1.75461 15.5859L1.67807 15.4011C0.630105 15.8352 -0.0997559 16.8753 -0.0997559 18.0471H0.100244ZM0.100244 19.6094V18.0471H-0.0997559V19.6094H0.100244ZM0.390869 19.9C0.230355 19.9 0.100244 19.7699 0.100244 19.6094H-0.0997559C-0.0997559 19.8804 0.119898 20.1 0.390869 20.1V19.9ZM7.29997 19.9H0.390869V20.1H7.29997V19.9ZM7.5906 19.6094C7.5906 19.7699 7.46048 19.9 7.29997 19.9V20.1C7.57094 20.1 7.7906 19.8804 7.7906 19.6094H7.5906ZM7.5906 18.0471V19.6094H7.7906V18.0471H7.5906ZM5.93628 15.5858C6.91194 15.9899 7.5906 16.9587 7.5906 18.0471H7.7906C7.7906 16.8751 7.06074 15.8351 6.01281 15.401L5.93628 15.5858ZM5.71501 14.0908C5.71501 13.0603 4.87631 12.2223 3.8454 12.2223V12.4223C4.76597 12.4223 5.51501 13.1709 5.51501 14.0908H5.71501ZM3.8454 15.9605C4.87641 15.9605 5.71501 15.1218 5.71501 14.0908H5.51501C5.51501 15.0114 4.76595 15.7605 3.8454 15.7605V15.9605ZM1.97583 14.0908C1.97583 15.1218 2.81443 15.9605 3.8454 15.9605V15.7605C2.92489 15.7605 2.17583 15.0114 2.17583 14.0908H1.97583ZM3.8454 12.2223C2.81448 12.2223 1.97583 13.0603 1.97583 14.0908H2.17583C2.17583 13.1709 2.92483 12.4223 3.8454 12.4223V12.2223ZM0.781494 19.3188H6.90935V19.1188H0.781494V19.3188ZM0.681494 18.0471V19.2188H0.881494V18.0471H0.681494ZM2.28022 16.024C1.35757 16.2454 0.681494 17.0853 0.681494 18.0471H0.881494C0.881494 17.1791 1.49292 16.4186 2.3269 16.2184L2.28022 16.024ZM3.8454 16.5417C3.28916 16.5417 2.77602 16.3552 2.36414 16.0416L2.24299 16.2008C2.68829 16.5398 3.24367 16.7417 3.8454 16.7417V16.5417ZM5.3267 16.0416C4.91482 16.3552 4.40164 16.5417 3.8454 16.5417V16.7417C4.44713 16.7417 5.00254 16.5398 5.44785 16.2008L5.3267 16.0416ZM7.00935 18.0471C7.00935 17.0852 6.33328 16.2453 5.4106 16.024L5.36395 16.2184C6.19791 16.4185 6.80935 17.179 6.80935 18.0471H7.00935ZM7.00935 19.2188V18.0471H6.80935V19.2188H7.00935ZM18.6042 14.0908C18.6042 14.5883 18.4548 15.0513 18.1991 15.4383L18.3659 15.5485C18.6425 15.13 18.8042 14.629 18.8042 14.0908H18.6042ZM16.1534 11.641C17.5047 11.641 18.6042 12.7401 18.6042 14.0908H18.8042C18.8042 12.6296 17.6151 11.441 16.1534 11.441V11.641ZM13.7036 14.0908C13.7036 12.7401 14.8026 11.641 16.1534 11.641V11.441C14.6922 11.441 13.5036 12.6296 13.5036 14.0908H13.7036ZM14.1085 15.4381C13.8529 15.0511 13.7036 14.5882 13.7036 14.0908H13.5036C13.5036 14.6289 13.6652 15.1299 13.9416 15.5483L14.1085 15.4381ZM12.4082 18.0471C12.4082 16.9585 13.0872 15.9896 14.0633 15.5856L13.9868 15.4008C12.9384 15.8347 12.2082 16.875 12.2082 18.0471H12.4082ZM12.4082 19.6094V18.0471H12.2082V19.6094H12.4082ZM12.6988 19.9C12.5383 19.9 12.4082 19.7699 12.4082 19.6094H12.2082C12.2082 19.8804 12.4278 20.1 12.6988 20.1V19.9ZM19.6091 19.9H12.6988V20.1H19.6091V19.9ZM19.8997 19.6094C19.8997 19.7699 19.7696 19.9 19.6091 19.9V20.1C19.88 20.1 20.0997 19.8804 20.0997 19.6094H19.8997ZM19.8997 18.0471V19.6094H20.0997V18.0471H19.8997ZM18.2443 15.5858C19.2206 15.9899 19.8996 16.9587 19.8997 18.0471L20.0997 18.0471C20.0996 16.8751 19.3693 15.835 18.3207 15.401L18.2443 15.5858ZM18.0229 14.0908C18.0229 13.0603 17.1843 12.2223 16.1534 12.2223V12.4223C17.0739 12.4223 17.8229 13.1709 17.8229 14.0908H18.0229ZM16.1534 15.9605C17.1843 15.9605 18.0229 15.1218 18.0229 14.0908H17.8229C17.8229 15.0114 17.0739 15.7605 16.1534 15.7605V15.9605ZM14.2849 14.0908C14.2849 15.1218 15.1229 15.9605 16.1534 15.9605V15.7605C15.2335 15.7605 14.4849 15.0114 14.4849 14.0908H14.2849ZM16.1534 12.2223C15.123 12.2223 14.2849 13.0604 14.2849 14.0908H14.4849C14.4849 13.1708 15.2334 12.4223 16.1534 12.4223V12.2223ZM13.0894 19.3188H19.2184V19.1188H13.0894V19.3188ZM12.9894 18.0471V19.2188H13.1894V18.0471H12.9894ZM14.5887 16.0238C13.6658 16.2451 12.9894 17.0852 12.9894 18.0471H13.1894C13.1894 17.1789 13.8011 16.4183 14.6353 16.2183L14.5887 16.0238ZM16.1534 16.5417C15.5973 16.5417 15.0843 16.3551 14.6726 16.0415L14.5514 16.2006C14.9966 16.5397 15.5518 16.7417 16.1534 16.7417V16.5417ZM17.6347 16.0416C17.2228 16.3552 16.7096 16.5417 16.1534 16.5417V16.7417C16.7551 16.7417 17.3105 16.5397 17.7558 16.2007L17.6347 16.0416ZM19.3184 18.0471C19.3184 17.0852 18.6418 16.2453 17.7185 16.0239L17.6719 16.2184C18.5065 16.4185 19.1184 17.1791 19.1184 18.0471H19.3184ZM19.3184 19.2188V18.0471H19.1184V19.2188H19.3184ZM10.8902 6.52931C10.8902 6.36862 11.0205 6.23814 11.1808 6.23814V6.03814C10.9097 6.03814 10.6902 6.25852 10.6902 6.52931H10.8902ZM11.1808 6.81994C11.0203 6.81994 10.8902 6.68982 10.8902 6.52931H10.6902C10.6902 6.80028 10.9099 7.01994 11.1808 7.01994V6.81994ZM11.4715 6.52931C11.4715 6.68982 11.3413 6.81994 11.1808 6.81994V7.01994C11.4518 7.01994 11.6715 6.80028 11.6715 6.52931H11.4715ZM11.4715 6.52822V6.52931H11.6715V6.52822H11.4715ZM11.1808 6.23814C11.3415 6.23814 11.4715 6.36789 11.4715 6.52822H11.6715C11.6715 6.25706 11.4516 6.03814 11.1808 6.03814V6.23814ZM13.3974 6.03814C13.1263 6.03814 12.9068 6.25852 12.9068 6.52931H13.1068C13.1068 6.36862 13.2371 6.23814 13.3974 6.23814V6.03814ZM13.888 6.52822C13.888 6.25706 13.6682 6.03814 13.3974 6.03814V6.23814C13.5581 6.23814 13.688 6.36789 13.688 6.52822H13.888ZM13.888 6.52931V6.52822H13.688V6.52931H13.888ZM13.3974 7.01994C13.6684 7.01994 13.888 6.80028 13.888 6.52931H13.688C13.688 6.68982 13.5579 6.81994 13.3974 6.81994V7.01994ZM12.9068 6.52931C12.9068 6.80028 13.1265 7.01994 13.3974 7.01994V6.81994C13.2369 6.81994 13.1068 6.68982 13.1068 6.52931H12.9068ZM15.9037 6.52931C15.9037 6.68983 15.7736 6.81994 15.613 6.81994V7.01994C15.884 7.01994 16.1037 6.80028 16.1037 6.52931H15.9037ZM15.9037 6.52822V6.52931H16.1037V6.52822H15.9037ZM15.613 6.23814C15.7737 6.23814 15.9037 6.36789 15.9037 6.52822H16.1037C16.1037 6.25706 15.8838 6.03814 15.613 6.03814V6.23814ZM15.3224 6.52931C15.3224 6.36862 15.4527 6.23814 15.613 6.23814V6.03814C15.3419 6.03814 15.1224 6.25852 15.1224 6.52931H15.3224ZM15.613 6.81994C15.4525 6.81994 15.3224 6.68982 15.3224 6.52931H15.1224C15.1224 6.80028 15.3421 7.01994 15.613 7.01994V6.81994ZM8.89771 0.88125H8.89993V0.68125H8.89771V0.88125ZM8.40712 0.390625C8.40712 0.661583 8.62672 0.88125 8.89771 0.88125V0.68125C8.7372 0.68125 8.60712 0.551152 8.60712 0.390625H8.40712ZM8.89774 -0.1C8.62677 -0.1 8.40712 0.119654 8.40712 0.390625H8.60712C8.60712 0.230111 8.73723 0.1 8.89774 0.1V-0.1ZM9.38946 0.390625C9.38946 0.119291 9.16835 -0.1 8.89774 -0.1V0.1C9.05862 0.1 9.18946 0.230475 9.18946 0.390625H9.38946ZM8.89993 0.88125C9.17127 0.88125 9.38946 0.66123 9.38946 0.390625H9.18946C9.18946 0.551504 9.06008 0.68125 8.89993 0.68125V0.88125Z" fill="#303030" mask="url(#path-1-outside-1_254:1205)"/>
</g>
<defs>
<clipPath id="clip0_254:1205">
<rect width="20" height="20" fill="white"/>
</clipPath>
</defs>
</svg>
