<?xml version="1.0"?>
<svg xmlns="http://www.w3.org/2000/svg" xmlns:xlink="http://www.w3.org/1999/xlink" xmlns:svgjs="http://svgjs.com/svgjs" version="1.1" width="512" height="512" x="0" y="0" viewBox="0 0 512 512" style="enable-background:new 0 0 512 512" xml:space="preserve" class=""><g><g xmlns="http://www.w3.org/2000/svg" id="outline"><path d="M72.06,311.063A8.057,8.057,0,0,0,72,312a7.963,7.963,0,0,0,2.044,5.328C99.69,393.216,171.567,448,256,448c105.869,0,192-86.131,192-192A192.216,192.216,0,0,0,321.842,75.6c-11.09-25.3-35.993-43.216-64.888-43.59a72.139,72.139,0,0,0-67.215,43.741A192.2,192.2,0,0,0,74.088,194.624,7.96,7.96,0,0,0,72,200a8.072,8.072,0,0,0,.064.964,191.977,191.977,0,0,0,0,110.1Zm63.309,72.969A176.623,176.623,0,0,1,92.048,320H128v8a8,8,0,0,0,8,8h28l21.6,28.8A8,8,0,0,0,192,368h4.952q2.183,8.4,4.654,16H136C135.787,384,135.578,384.016,135.369,384.032ZM241.337,203.545l6.663,7.5v13.971a32,32,0,1,0,16,0V211.042l4.627-5.207,75.3-13.69L376,198.559V238.7l-14.542,43.624-29.036,14.519A8,8,0,0,0,328,304v24h-4.687l-21.656-21.657A8,8,0,0,0,296,304H264a8,8,0,0,0-5.657,2.343l-20.5,20.5L218.53,320.41A8,8,0,0,0,208,328v24H196l-21.6-28.8A8,8,0,0,0,168,320H144V296a8.006,8.006,0,0,0-1.6-4.8l-22.061-29.415,7.178-57.423L154.667,184H182.7Zm-34.714-28.437q.775-4.449,1.637-8.775l11.772,13.245ZM256,256a8,8,0,0,0,8-8v-5.835a16,16,0,1,1-16,0V248A8,8,0,0,0,256,256Zm29.87-69.562,17.869-20.1q1.581,7.95,2.875,16.331ZM305.987,333.3a306.259,306.259,0,0,1-12.5,50.7H218.515q-2.649-7.521-5-16H216a8,8,0,0,0,8-8V339.1l13.47,4.49a8,8,0,0,0,8.187-1.933L267.313,320h25.374ZM154.925,400h52.557c4.871,11.726,10.328,21.459,16.252,29.025A175.1,175.1,0,0,1,154.925,400ZM256,432c-10.614,0-21.645-11.811-31.025-32h62.1C277.8,420.142,266.852,432,256,432Zm32.336-2.989a105.369,105.369,0,0,0,10.079-15.847c2.135-4.073,4.172-8.478,6.114-13.164h52.546A175.1,175.1,0,0,1,288.336,429.011Zm88.295-44.979c-.209-.016-.418-.032-.631-.032H310.394a318,318,0,0,0,9.966-40H336a8,8,0,0,0,8-8V320h75.952A176.623,176.623,0,0,1,376.631,384.032ZM425.29,207.887a176.178,176.178,0,0,1,.025,96.23A8.027,8.027,0,0,0,424,304H353.888l17.69-8.845a8,8,0,0,0,4.011-4.625l16-48A8,8,0,0,0,392,240V208h32A8.067,8.067,0,0,0,425.29,207.887ZM327.312,95.042A175.3,175.3,0,0,1,367.75,120H326.712A89.731,89.731,0,0,0,328,104.954,73.387,73.387,0,0,0,327.312,95.042ZM322.443,136H384c.242,0,.479-.015.716-.036A176.717,176.717,0,0,1,419.939,192H392a8,8,0,0,0-6.431-7.845l-40-8a8.028,8.028,0,0,0-3-.026L322.361,179.8c-1.665-10.711-3.684-20.982-6.026-30.66A89.522,89.522,0,0,0,322.443,136ZM200,104a56,56,0,0,1,56-56c.249,0,.5,0,.75.005C287.213,48.4,312,73.947,312,104.954A73.585,73.585,0,0,1,293.4,153.89L256,195.958l-37.4-42.069A73.581,73.581,0,0,1,200,104.954Zm-15.438-8.9A73.356,73.356,0,0,0,184,104v.955A89.731,89.731,0,0,0,185.288,120H144.25A175.274,175.274,0,0,1,184.562,95.1Zm-57.278,40.865c.236.021.474.036.716.036h61.557a89.439,89.439,0,0,0,6.105,13.137c-1.615,6.675-3.084,13.654-4.384,20.856l-4.748-1.583A8.027,8.027,0,0,0,184,168H152a8,8,0,0,0-4.8,1.6L117.333,192H92.061A176.717,176.717,0,0,1,127.284,135.964ZM86.677,208h24.261l-6.876,55.008A8,8,0,0,0,105.6,268.8L128,298.667V304H86.654a176.163,176.163,0,0,1,.023-96Z" fill="#707070" data-original="#000000" style="" class=""/><path d="M256,144a40,40,0,1,0-40-40A40.045,40.045,0,0,0,256,144Zm0-64a24,24,0,1,1-24,24A24.028,24.028,0,0,1,256,80Z" fill="#707070" data-original="#000000" style="" class=""/><path d="M28.805,208.118a8,8,0,0,0-9.251,6.512A242.291,242.291,0,0,0,16,256a8,8,0,0,0,16,0,226.267,226.267,0,0,1,3.317-38.63A8,8,0,0,0,28.805,208.118Z" fill="#707070" data-original="#000000" style="" class=""/><path d="M28.879,304.235a8,8,0,0,0-5.84,9.69,239.01,239.01,0,0,0,7.614,24.834,8,8,0,1,0,15.018-5.518,223.21,223.21,0,0,1-7.1-23.166A8,8,0,0,0,28.879,304.235Z" fill="#707070" data-original="#000000" style="" class=""/><path d="M51.937,366.756a8,8,0,0,0-2.829,10.954c3.827,6.491,8.011,12.879,12.436,18.984A8,8,0,1,0,74.5,387.306c-4.131-5.7-8.037-11.662-11.609-17.721A8,8,0,0,0,51.937,366.756Z" fill="#707070" data-original="#000000" style="" class=""/><path d="M110.054,425.934a8,8,0,1,0-10.431,12.132,241.258,241.258,0,0,0,34.666,24.826,8,8,0,0,0,8.126-13.784A225.257,225.257,0,0,1,110.054,425.934Z" fill="#707070" data-original="#000000" style="" class=""/><path d="M479.476,271.456a225.488,225.488,0,0,1-2.793,23.174,8,8,0,1,0,15.763,2.74,241.049,241.049,0,0,0,2.992-24.826,8,8,0,0,0-15.962-1.088Z" fill="#707070" data-original="#000000" style="" class=""/><path d="M484.216,181.52a8,8,0,0,0-15.211,4.96,223.248,223.248,0,0,1,8.881,38.613,8,8,0,1,0,15.85-2.186A239.19,239.19,0,0,0,484.216,181.52Z" fill="#707070" data-original="#000000" style="" class=""/><path d="M438.066,99.623a8,8,0,1,0-12.132,10.43,224.564,224.564,0,0,1,30.9,46.621,8,8,0,1,0,14.335-7.1A240.46,240.46,0,0,0,438.066,99.623Z" fill="#707070" data-original="#000000" style="" class=""/></g></g></svg>
