<svg width="32" height="32" viewBox="0 0 32 32" fill="none" xmlns="http://www.w3.org/2000/svg">
<g filter="url(#filter0_d_3:961)">
<path d="M29.0968 8H8.32259V8.45161C8.32259 8.70126 8.12057 8.90322 7.87098 8.90322C7.62133 8.90322 7.41937 8.7012 7.41937 8.45161V8H2.90322C2.40441 8 2 8.40436 2 8.90322V12.8788C2 13.1065 2.11195 13.3228 2.30554 13.4426C3.20564 13.9993 3.80644 14.9928 3.80644 16.129C3.80644 17.2652 3.20564 18.2587 2.30554 18.8154C2.11195 18.9352 2 19.1516 2 19.3792V23.3548C2 23.8536 2.40441 24.258 2.90322 24.258H7.41937V23.8064C7.41937 23.5568 7.62138 23.3548 7.87098 23.3548C8.12063 23.3548 8.32259 23.5568 8.32259 23.8064V24.258H29.0968C29.5956 24.258 30 23.8536 30 23.3548V8.90322C30 8.40436 29.5956 8 29.0968 8ZM8.32259 22C8.32259 22.2496 8.12057 22.4516 7.87098 22.4516C7.62133 22.4516 7.41937 22.2496 7.41937 22V21.0968C7.41937 20.8471 7.62138 20.6452 7.87098 20.6452C8.12063 20.6452 8.32259 20.8472 8.32259 21.0968V22ZM8.32259 19.2903C8.32259 19.5399 8.12057 19.7419 7.87098 19.7419C7.62133 19.7419 7.41937 19.5399 7.41937 19.2903V18.3871C7.41937 18.1374 7.62138 17.9355 7.87098 17.9355C8.12063 17.9355 8.32259 18.1375 8.32259 18.3871V19.2903ZM8.32259 16.5806C8.32259 16.8303 8.12057 17.0322 7.87098 17.0322C7.62133 17.0322 7.41937 16.8302 7.41937 16.5806V15.6774C7.41937 15.4278 7.62138 15.2258 7.87098 15.2258C8.12063 15.2258 8.32259 15.4278 8.32259 15.6774V16.5806ZM8.32259 13.871C8.32259 14.1206 8.12057 14.3226 7.87098 14.3226C7.62133 14.3226 7.41937 14.1206 7.41937 13.871V12.9678C7.41937 12.7181 7.62138 12.5161 7.87098 12.5161C8.12063 12.5161 8.32259 12.7182 8.32259 12.9678V13.871ZM8.32259 11.1613C8.32259 11.4109 8.12057 11.6129 7.87098 11.6129C7.62133 11.6129 7.41937 11.4109 7.41937 11.1613V10.258C7.41937 10.0084 7.62138 9.80644 7.87098 9.80644C8.12063 9.80644 8.32259 10.0085 8.32259 10.258V11.1613Z" fill="white"/>
<path d="M28.6452 23.3549H9.67744C9.42801 23.3549 9.22583 23.1528 9.22583 22.9033V9.35493C9.22583 9.1055 9.42801 8.90332 9.67744 8.90332H28.6452C28.8946 8.90332 29.0968 9.1055 29.0968 9.35493V22.9033C29.0968 23.1528 28.8946 23.3549 28.6452 23.3549Z" fill="#F0F0F0"/>
</g>
<path d="M14 13.0107C14 12.4095 14.1969 11.9241 14.5906 11.5544C14.9843 11.1848 15.5123 11 16.1745 11C16.8456 11 17.3758 11.1848 17.7651 11.5544C18.1544 11.9196 18.349 12.4162 18.349 13.0441V13.5251C18.349 14.1263 18.1544 14.6094 17.7651 14.9746C17.3758 15.3398 16.8501 15.5224 16.1879 15.5224C15.5302 15.5224 15 15.342 14.5973 14.9813C14.1991 14.6161 14 14.1173 14 13.485V13.0107ZM15.4564 13.5251C15.4564 13.7566 15.5213 13.9459 15.651 14.0929C15.7808 14.2354 15.9597 14.3066 16.1879 14.3066C16.6577 14.3066 16.8926 14.0082 16.8926 13.4115V13.0107C16.8926 12.7791 16.83 12.5898 16.7047 12.4429C16.5794 12.2915 16.4027 12.2158 16.1745 12.2158C15.9553 12.2158 15.7808 12.2892 15.651 12.4362C15.5213 12.5787 15.4564 12.7747 15.4564 13.024V13.5251ZM18.6443 18.4816C18.6443 17.876 18.8412 17.3906 19.2349 17.0254C19.6331 16.6602 20.1611 16.4776 20.8188 16.4776C21.4855 16.4776 22.0157 16.658 22.4094 17.0187C22.8031 17.3794 23 17.8827 23 18.5284V18.996C23 19.6016 22.8054 20.0871 22.4161 20.4522C22.0268 20.8174 21.4989 21 20.8322 21C20.1745 21 19.6443 20.8196 19.2416 20.4589C18.8434 20.0937 18.6443 19.595 18.6443 18.9626V18.4816ZM20.094 18.996C20.094 19.2053 20.1655 19.3901 20.3087 19.5504C20.4519 19.7063 20.6264 19.7842 20.8322 19.7842C21.2662 19.7842 21.5011 19.5794 21.5369 19.1697L21.5436 18.4816C21.5436 18.2456 21.4787 18.0563 21.349 17.9138C21.2192 17.7669 21.0425 17.6934 20.8188 17.6934C20.604 17.6934 20.4318 17.7624 20.302 17.9005C20.1723 18.0341 20.1029 18.2167 20.094 18.4482V18.996ZM16.6174 20.1383L15.5638 19.6106L20.3356 12.0087L21.3893 12.5364L16.6174 20.1383Z" fill="#04924E"/>
<defs>
<filter id="filter0_d_3:961" x="0" y="7" width="32" height="20.2581" filterUnits="userSpaceOnUse" color-interpolation-filters="sRGB">
<feFlood flood-opacity="0" result="BackgroundImageFix"/>
<feColorMatrix in="SourceAlpha" type="matrix" values="0 0 0 0 0 0 0 0 0 0 0 0 0 0 0 0 0 0 127 0" result="hardAlpha"/>
<feOffset dy="1"/>
<feGaussianBlur stdDeviation="1"/>
<feComposite in2="hardAlpha" operator="out"/>
<feColorMatrix type="matrix" values="0 0 0 0 0 0 0 0 0 0 0 0 0 0 0 0 0 0 0.3 0"/>
<feBlend mode="normal" in2="BackgroundImageFix" result="effect1_dropShadow_3:961"/>
<feBlend mode="normal" in="SourceGraphic" in2="effect1_dropShadow_3:961" result="shape"/>
</filter>
</defs>
</svg>
