<svg width="20" height="20" viewBox="0 0 20 20" fill="none" xmlns="http://www.w3.org/2000/svg">
<path d="M19.862 10.753C19.8384 10.2066 19.3037 9.77019 18.2698 9.45568C17.4677 9.21587 16.4495 9.0704 15.3487 9.04682V4.85203C15.3448 4.78127 15.3251 4.71443 15.2898 4.65546C15.1797 4.17976 14.6489 3.79449 13.7093 3.51143C12.8248 3.24409 11.669 3.09863 10.4542 3.09863C9.24329 3.09863 8.09926 3.24409 7.23042 3.51143C6.51884 3.73159 5.66573 4.14045 5.66573 4.84417C5.66573 4.88741 5.66967 4.93066 5.67753 4.9739L5.72077 6.76661C3.16537 6.27912 0.700397 7.95782 0.216836 10.5093C0.161797 10.8002 0.134277 11.0911 0.134277 11.386C0.134277 13.9807 2.24543 16.0919 4.84014 16.0919C5.92127 16.0919 6.96702 15.7223 7.80441 15.0382C8.53958 15.2112 9.40448 15.3056 10.3205 15.3134C10.521 16.4024 12.8798 16.9017 15.0775 16.9017C16.2883 16.9017 17.4324 16.7523 18.3012 16.4811C19.0128 16.2609 19.8659 15.8481 19.8659 15.1444V10.8277C19.8659 10.8041 19.8659 10.7766 19.862 10.753ZM14.5271 7.02609C14.5271 7.07719 14.3384 7.34846 13.4853 7.60793C12.6872 7.84774 11.5825 7.98927 10.4581 7.98927C9.48704 7.98927 8.53564 7.88706 7.78082 7.69442C7.76902 7.69049 7.76116 7.69049 7.74937 7.68656C7.37589 7.3917 6.96309 7.15582 6.51884 6.9907L6.49132 5.88205C6.76259 6.01965 7.04565 6.12973 7.3405 6.20836C8.19361 6.45603 9.29833 6.5897 10.4581 6.5897C11.669 6.5897 12.8287 6.44424 13.7133 6.17691C14.0081 6.09042 14.2951 5.97641 14.5664 5.83488V6.8649C14.5231 6.91994 14.5271 6.97105 14.5271 7.02609ZM7.46631 4.27019C8.26045 4.02644 9.32192 3.88884 10.4542 3.88884C11.5785 3.88884 12.6833 4.02644 13.4813 4.27019C14.3344 4.52966 14.5231 4.79699 14.5231 4.8481C14.5231 4.90314 14.3305 5.1744 13.4774 5.42994C12.6793 5.66976 11.5785 5.80736 10.4542 5.80736C9.3691 5.80736 8.33908 5.68155 7.55673 5.45353C6.71148 5.20979 6.4756 4.94245 6.45594 4.85596C6.45594 4.8481 6.45201 4.8481 6.45201 4.8481C6.45594 4.7734 6.63679 4.52179 7.46631 4.27019ZM7.4781 14.2874C5.87803 15.742 3.39733 15.628 1.94271 14.0279C0.488102 12.4278 0.602112 9.9471 2.20219 8.49249C2.92163 7.83595 3.86516 7.47426 4.84014 7.47426C5.23328 7.47426 5.62249 7.53323 5.9999 7.64724C7.36409 8.07183 8.39018 9.20407 8.68111 10.5997C8.73221 10.8592 8.75973 11.1265 8.75973 11.3899C8.76366 12.4946 8.29583 13.5443 7.4781 14.2874ZM8.47667 14.3738C8.79512 13.9846 9.05066 13.5483 9.2315 13.0804C9.56567 13.1079 9.91163 13.1276 10.2733 13.1315V13.2023L10.2969 14.535C9.68754 14.5272 9.07818 14.4721 8.47667 14.3738ZM9.52635 10.9221C9.75437 10.9378 9.99419 10.9457 10.2379 10.9496L10.2615 12.3413C9.98633 12.3374 9.71506 12.3256 9.45559 12.3059C9.51456 12.0032 9.54601 11.6926 9.54601 11.386C9.54601 11.2327 9.53815 11.0793 9.52635 10.9221ZM10.4935 10.1673C10.4817 10.1673 10.466 10.1673 10.4542 10.1673C10.0767 10.1673 9.71113 10.1515 9.37303 10.1279C9.22364 9.60114 8.98775 9.10579 8.66931 8.66547C9.25902 8.74017 9.85266 8.77948 10.4502 8.77948C11.665 8.77948 12.8248 8.63402 13.7093 8.36669C14.0042 8.2802 14.2873 8.16619 14.5585 8.02859V9.05861C12.872 9.10579 11.1382 9.45961 10.4935 10.1673ZM11.0124 10.7924C11.0124 10.7884 11.0124 10.7845 11.0163 10.7766C11.0517 10.6705 11.3309 10.411 12.1447 10.183C12.9073 9.96676 13.902 9.84882 14.9477 9.84882H15.0146C16.1389 9.84882 17.2397 9.97856 18.0417 10.2223C18.8791 10.4739 19.0757 10.7334 19.0796 10.7924V10.7963C19.0757 10.8553 18.8791 11.1265 18.0063 11.386C17.2004 11.6258 16.1389 11.7555 15.0185 11.7555C13.9334 11.7555 12.9034 11.6297 12.1211 11.4056C11.2758 11.1619 11.0439 10.8906 11.0203 10.8081C11.0124 10.7924 11.0124 10.7924 11.0124 10.7924ZM18.0732 15.7341C17.279 15.9818 16.2136 16.1194 15.0814 16.1194C13.9452 16.1194 12.8838 15.9857 12.0975 15.7459C11.268 15.4904 11.095 15.227 11.095 15.168C11.095 15.1641 11.095 15.1641 11.095 15.1601L11.0753 14.02C11.3898 14.1733 11.7161 14.2913 12.0542 14.3778C12.8798 14.594 13.9295 14.7159 15.0067 14.7159C16.2215 14.7159 17.3734 14.5704 18.254 14.3031C18.541 14.2166 18.8162 14.1026 19.0796 13.9689V15.1483H19.0835C19.0835 15.2034 18.9027 15.4746 18.0732 15.7341ZM19.0875 12.8406H19.0835C19.0835 12.8799 19.06 12.9271 19.06 12.9703C19.06 13.0254 18.8752 13.2927 18.026 13.5522C17.2201 13.7959 16.1468 13.9296 15.0106 13.9296C12.8326 13.9296 11.3662 13.4382 11.0596 13.0568L11.0557 12.7266L11.0399 11.8224C11.3151 11.96 11.6021 12.0701 11.897 12.1526C12.7501 12.4003 13.8548 12.534 15.0146 12.534C16.2097 12.534 17.3498 12.3924 18.2265 12.133C18.5253 12.0504 18.8123 11.9364 19.0875 11.7949V12.8406V12.8406Z" fill="#707070"/>
<path fill-rule="evenodd" clip-rule="evenodd" d="M18.2695 9.45571C19.3035 9.77022 19.8382 10.2066 19.8617 10.7531C19.8657 10.7767 19.8657 10.8042 19.8657 10.8278V15.1444C19.8657 15.8481 19.0126 16.2609 18.301 16.4811C17.4321 16.7524 16.2881 16.9017 15.0772 16.9017C12.8796 16.9017 10.5208 16.4025 10.3203 15.3135C9.40426 15.3056 8.53936 15.2113 7.80419 15.0383C6.9668 15.7223 5.92106 16.0919 4.83992 16.0919C2.24521 16.0919 0.134058 13.9807 0.134058 11.386C0.134058 11.0912 0.161578 10.8002 0.216618 10.5093C0.693923 7.99085 3.10172 6.32272 5.62144 6.74881C5.65446 6.75439 5.6875 6.76033 5.72056 6.76664L5.67731 4.97393C5.66945 4.93068 5.66552 4.88744 5.66552 4.84419C5.66552 4.14047 6.51863 3.73161 7.23021 3.51145C8.09904 3.24412 9.24308 3.09866 10.4539 3.09866C11.6687 3.09866 12.8246 3.24412 13.7091 3.51145C14.6487 3.79451 15.1795 4.17979 15.2895 4.65549C15.3249 4.71446 15.3446 4.78129 15.3485 4.85206V9.04684C16.4493 9.07043 17.4675 9.21589 18.2695 9.45571ZM15.4472 8.95059C16.5177 8.98054 17.509 9.12533 18.2978 9.36118C18.8208 9.52028 19.227 9.71284 19.5069 9.94093C19.7868 10.1692 19.9451 10.4373 19.9601 10.7433C19.9644 10.7732 19.9643 10.8046 19.9643 10.825V15.1444C19.9643 15.5414 19.7226 15.8464 19.408 16.074C19.0931 16.3018 18.6903 16.4639 18.3303 16.5753C17.4494 16.8503 16.295 17.0004 15.0772 17.0004C13.9724 17.0004 12.8233 16.8751 11.9221 16.6106C11.4717 16.4785 11.0781 16.3102 10.7823 16.1017C10.5126 15.9116 10.3169 15.6827 10.2416 15.4112C9.36793 15.3991 8.54092 15.3084 7.82877 15.1453C6.98006 15.8243 5.92739 16.1905 4.83992 16.1905C2.19072 16.1905 0.0354004 14.0352 0.0354004 11.386C0.0354004 11.0849 0.0635083 10.7879 0.119679 10.491C0.605822 7.92588 3.05334 6.22483 5.61902 6.64837L5.57886 4.98377C5.57088 4.93738 5.56686 4.89083 5.56686 4.84419C5.56686 4.44716 5.8087 4.14309 6.12335 3.91644C6.43826 3.6896 6.84119 3.52854 7.20105 3.4172C8.08189 3.14618 9.2364 3 10.4539 3C11.6754 3 12.8413 3.14613 13.7376 3.417C14.2132 3.56029 14.5922 3.73134 14.8683 3.93133C15.1398 4.12803 15.3171 4.35679 15.3821 4.61853C15.4212 4.6886 15.4426 4.76622 15.447 4.84658L15.4473 4.85206L15.4472 8.95059ZM7.49473 4.36462C7.08595 4.48861 6.84376 4.61066 6.7056 4.70656C6.63655 4.75449 6.59535 4.79459 6.57227 4.82339C6.56557 4.83175 6.56083 4.8386 6.5575 4.84394C6.56271 4.85239 6.57233 4.86599 6.58946 4.88445C6.62077 4.91818 6.67176 4.96227 6.75012 5.01297C6.90683 5.11437 7.16753 5.23871 7.58385 5.35876C8.35482 5.58347 9.37534 5.70872 10.4539 5.70872C11.5718 5.70872 12.6625 5.57176 13.4488 5.33548C13.8687 5.2097 14.1201 5.08177 14.264 4.98261C14.336 4.933 14.3797 4.89161 14.4041 4.86266C14.4084 4.85758 14.412 4.85302 14.415 4.84902C14.4122 4.84541 14.4089 4.84134 14.4051 4.83684C14.381 4.80858 14.3377 4.76781 14.2661 4.71862C14.1229 4.62031 13.8725 4.49236 13.4524 4.3646C12.6664 4.12454 11.5719 3.98752 10.4539 3.98752C9.32846 3.98752 8.27696 4.12453 7.49473 4.36462ZM6.49663 4.76002C6.5892 4.64579 6.84698 4.458 7.46609 4.27021C8.26023 4.02646 9.3217 3.88887 10.4539 3.88887C11.5783 3.88887 12.683 4.02646 13.4811 4.27021C14.3342 4.52968 14.5229 4.79702 14.5229 4.84812C14.5229 4.90316 14.3303 5.17443 13.4772 5.42997C12.6791 5.66978 11.5783 5.80738 10.4539 5.80738C9.36888 5.80738 8.33886 5.68158 7.55651 5.45356C6.71126 5.20981 6.47538 4.94248 6.45572 4.85599C6.45572 4.84871 6.45236 4.84817 6.45186 4.84813C6.45285 4.82918 6.46517 4.79885 6.49663 4.76002ZM7.41154 14.2144C8.20885 13.4899 8.66469 12.4667 8.66086 11.3903C8.66086 11.1338 8.63407 10.8727 8.58419 10.6193C8.30044 9.2591 7.30033 8.15557 5.97078 7.7416C5.60249 7.63038 5.22301 7.57295 4.83992 7.57295C3.88925 7.57295 2.96952 7.92564 2.26847 8.56539C0.708855 9.98322 0.597408 12.4016 2.0155 13.9615C3.43333 15.5212 5.85164 15.6324 7.41154 14.2144ZM5.99968 7.64727C7.36387 8.07186 8.38997 9.2041 8.68089 10.5997C8.732 10.8592 8.75952 11.1265 8.75952 11.3899C8.76345 12.4947 8.29561 13.5443 7.47788 14.2874C5.87781 15.742 3.39711 15.628 1.9425 14.0279C0.487883 12.4278 0.601893 9.94713 2.20197 8.49252C2.92141 7.83598 3.86494 7.47429 4.83992 7.47429C5.23306 7.47429 5.62227 7.53326 5.99968 7.64727ZM10.2731 13.1316C9.91141 13.1276 9.56545 13.108 9.23128 13.0804C9.06403 13.5131 8.83288 13.9189 8.54717 14.2853C8.52396 14.3151 8.50039 14.3446 8.47646 14.3739C8.5139 14.38 8.55138 14.3859 8.58889 14.3917C9.12131 14.4738 9.65948 14.5219 10.198 14.5334C10.2309 14.5341 10.2638 14.5346 10.2967 14.5351L10.2731 13.2023V13.1316ZM10.1749 13.2288C9.87155 13.2231 9.57937 13.2068 9.29617 13.1846C9.1347 13.5838 8.91974 13.9596 8.6585 14.3025C9.16768 14.3787 9.68186 14.4236 10.1962 14.4347L10.1749 13.2288ZM11.0161 10.7767C11.0122 10.7845 11.0122 10.7884 11.0122 10.7924L11.0201 10.8081C11.023 10.8183 11.0291 10.8314 11.0392 10.847C11.0537 10.8696 11.0766 10.8973 11.1101 10.929C11.2404 11.0524 11.5316 11.2357 12.1208 11.4057C12.9032 11.6298 13.9332 11.7556 15.0183 11.7556C16.1387 11.7556 17.2002 11.6258 18.0061 11.386C18.8789 11.1265 19.0755 10.8553 19.0794 10.7963V10.7924C19.0755 10.7334 18.8789 10.4739 18.0415 10.2223C17.2395 9.97858 16.1387 9.84884 15.0143 9.84884H14.9475C13.9018 9.84884 12.9071 9.96679 12.1444 10.183C11.3356 10.4096 11.0549 10.6674 11.0168 10.7747C11.0166 10.7754 11.0163 10.776 11.0161 10.7767ZM18.9722 10.7948C18.9687 10.7902 18.9645 10.7849 18.9592 10.7789C18.934 10.7502 18.8899 10.7098 18.818 10.6615C18.6742 10.5649 18.4255 10.4407 18.0131 10.3168C17.2235 10.0768 16.1328 9.9475 15.0143 9.9475H14.9475C13.9081 9.9475 12.9229 10.0648 12.1713 10.2779C11.7705 10.3902 11.5058 10.5091 11.3395 10.6099C11.2564 10.6603 11.1991 10.7054 11.1618 10.7418C11.1407 10.7625 11.1276 10.7787 11.1198 10.79C11.1252 10.7988 11.1357 10.8138 11.1551 10.8346C11.1869 10.8685 11.2381 10.9129 11.3162 10.9638C11.4724 11.0656 11.732 11.1909 12.148 11.3108C12.9193 11.5317 13.9397 11.6569 15.0183 11.6569C16.1323 11.6569 17.1838 11.5278 17.978 11.2915C18.4079 11.1636 18.6653 11.0346 18.8132 10.9343C18.8872 10.8841 18.9324 10.8421 18.9581 10.8124C18.9639 10.8057 18.9685 10.7998 18.9722 10.7948ZM11.0948 15.1601V15.168C11.0948 15.227 11.2677 15.4904 12.0973 15.7459C12.8835 15.9857 13.945 16.1194 15.0812 16.1194C16.2134 16.1194 17.2788 15.9818 18.073 15.7341C18.6589 15.5509 18.9212 15.3617 19.0247 15.247C19.0557 15.2127 19.0724 15.185 19.0794 15.1662C19.0821 15.1589 19.0833 15.1529 19.0833 15.1484H19.0794V13.9689C19.0467 13.9855 19.0138 14.0018 18.9807 14.0178C18.7475 14.1305 18.5052 14.2274 18.2538 14.3031C17.3732 14.5704 16.2213 14.7159 15.0065 14.7159C13.9293 14.7159 12.8796 14.594 12.054 14.3778C11.7514 14.3004 11.4583 14.1978 11.1746 14.0672C11.1413 14.0519 11.1081 14.0361 11.0751 14.02L11.0948 15.1601ZM11.1765 14.1764L11.1934 15.1579C11.1961 15.1634 11.2018 15.1729 11.2122 15.1861C11.2343 15.2142 11.2745 15.2545 11.3424 15.303C11.478 15.4001 11.718 15.5258 12.1261 15.6516C12.9003 15.8877 13.9515 16.0207 15.0812 16.0207C16.2067 16.0207 17.2616 15.8838 18.0435 15.64C18.4515 15.5124 18.6937 15.3837 18.8316 15.2845C18.9006 15.2349 18.9421 15.1936 18.9652 15.1648C18.9723 15.156 18.9773 15.1488 18.9807 15.1433V14.1271C18.7566 14.2331 18.5238 14.3248 18.2825 14.3975M11.1765 14.1764C11.4523 14.3003 11.7366 14.3984 12.0293 14.4733ZM18.9847 12.742H18.9886V11.9536C18.7521 12.0655 18.507 12.1577 18.2534 12.2278C17.3654 12.4905 16.2158 12.6326 15.0143 12.6326C13.8483 12.6326 12.734 12.4984 11.8696 12.2475C11.6206 12.1777 11.377 12.0887 11.1411 11.9804L11.1541 12.7249L11.1576 13.0193C11.2264 13.0918 11.3524 13.1768 11.5414 13.2646C11.749 13.3611 12.023 13.4564 12.3572 13.5406C13.0256 13.7089 13.9285 13.831 15.0104 13.831C16.1401 13.831 17.2031 13.6979 17.9971 13.4578C18.4151 13.3301 18.6634 13.2022 18.8048 13.1037C18.8756 13.0544 18.9181 13.0135 18.9417 12.985C18.9524 12.9721 18.9584 12.9627 18.9615 12.9571C18.9633 12.9268 18.9708 12.8988 18.9755 12.8811L18.9762 12.8786C18.9794 12.8668 18.9815 12.8587 18.9831 12.8513C18.9833 12.8501 18.9835 12.849 18.9837 12.848C18.984 12.8462 18.9843 12.8447 18.9844 12.8434L18.9846 12.8413C18.9847 12.841 18.9846 12.8414 18.9846 12.8413L18.9847 12.742ZM11.0594 13.0569C11.366 13.4382 12.8324 13.9296 15.0104 13.9296C16.1466 13.9296 17.2199 13.796 18.0258 13.5522C18.875 13.2927 19.0597 13.0254 19.0597 12.9704C19.0597 12.9482 19.0659 12.9251 19.072 12.9024C19.0777 12.8809 19.0833 12.8598 19.0833 12.8406H19.0873V11.7949C19.0545 11.8117 19.0217 11.8281 18.9886 11.8442C18.7437 11.9631 18.4896 12.0602 18.2263 12.133C17.3496 12.3925 16.2095 12.534 15.0143 12.534C13.8546 12.534 12.7499 12.4003 11.8968 12.1526C11.6373 12.08 11.3839 11.986 11.1392 11.8707C11.1059 11.855 11.0727 11.8389 11.0397 11.8224L11.0554 12.7266L11.0594 13.0569ZM14.4281 7.01216C14.4247 7.01784 14.4186 7.02667 14.4087 7.03838C14.3845 7.067 14.3412 7.1082 14.2697 7.15782C14.1266 7.25698 13.8763 7.38583 13.4564 7.51355C12.6699 7.74983 11.5754 7.89064 10.4579 7.89064C9.494 7.89064 8.55228 7.78922 7.80778 7.59956C7.80225 7.59786 7.79724 7.59659 7.79309 7.59564C7.43407 7.31479 7.03937 7.08684 6.61561 6.92206L6.59375 6.04157C6.82537 6.14905 7.0654 6.23712 7.31381 6.30343C8.17807 6.55419 9.2921 6.68838 10.4579 6.68838C11.6753 6.68838 12.845 6.54229 13.7412 6.27148C13.9901 6.19845 14.2337 6.10613 14.4675 5.99444V6.83465C14.4271 6.90272 14.4276 6.96863 14.4281 7.01216ZM14.5662 6.86492C14.5263 6.91571 14.5265 6.96315 14.5268 7.01342C14.5268 7.01763 14.5269 7.02186 14.5269 7.02611C14.5269 7.07722 14.3381 7.34848 13.485 7.60796C12.687 7.84777 11.5822 7.9893 10.4579 7.9893C9.48682 7.9893 8.53543 7.88708 7.7806 7.69445C7.7747 7.69248 7.76979 7.6915 7.76488 7.69052C7.75996 7.68953 7.75505 7.68855 7.74915 7.68658C7.37567 7.39173 6.96287 7.15585 6.51863 6.99073L6.49111 5.88208C6.52423 5.89888 6.55754 5.91527 6.59102 5.93125C6.83168 6.04609 7.08144 6.13936 7.34029 6.20838C8.1934 6.45606 9.29812 6.58973 10.4579 6.58973C11.6687 6.58973 12.8285 6.44427 13.7131 6.17693C13.9724 6.10086 14.2257 6.00349 14.4675 5.88483C14.5006 5.86858 14.5335 5.85194 14.5662 5.8349V6.86492ZM9.62554 10.9284C9.82343 10.94 10.0291 10.9463 10.2377 10.9496L10.2613 12.3413C10.2283 12.3409 10.1954 12.3403 10.1626 12.3396C9.95601 12.3352 9.75218 12.3264 9.55449 12.313C9.52127 12.3108 9.48823 12.3084 9.45537 12.306C9.46169 12.2735 9.46769 12.241 9.47337 12.2084C9.52072 11.9367 9.54579 11.6598 9.54579 11.386C9.54579 11.2651 9.5409 11.1443 9.53306 11.0215C9.53095 10.9885 9.52863 10.9554 9.52614 10.9221C9.55903 10.9244 9.59217 10.9265 9.62554 10.9284ZM9.6323 11.0277C9.63978 11.1477 9.64445 11.2667 9.64445 11.386C9.64445 11.6624 9.61945 11.9416 9.57229 12.2154C9.76369 12.2281 9.96094 12.2366 10.1609 12.2409L10.1407 11.0465C9.96819 11.043 9.79775 11.0371 9.6323 11.0277ZM10.4933 10.1673C11.138 9.45964 12.8717 9.10581 14.5583 9.05864V8.02861C14.5256 8.04521 14.4927 8.06146 14.4596 8.07736C14.2186 8.19331 13.9684 8.29065 13.7091 8.36671C12.8246 8.63405 11.6648 8.77951 10.45 8.77951C9.89712 8.77951 9.34759 8.74585 8.80142 8.68166C8.75729 8.67647 8.71318 8.67108 8.66909 8.6655C8.69507 8.70142 8.72049 8.7377 8.74537 8.77434C9.02544 9.18684 9.2356 9.64414 9.37281 10.128C9.71091 10.1516 10.0765 10.1673 10.4539 10.1673H10.4933ZM9.44826 10.0342C9.76411 10.055 10.1024 10.0685 10.4506 10.0686C10.7988 9.70911 11.4028 9.44822 12.111 9.26962C12.8169 9.09159 13.6423 8.99147 14.4596 8.96303V8.1866C14.2273 8.2958 13.9865 8.38814 13.7373 8.46126C12.841 8.73208 11.6713 8.87817 10.45 8.87817C9.92142 8.87817 9.39602 8.84762 8.87381 8.78926C9.12412 9.17291 9.3163 9.59246 9.44826 10.0342Z" fill="#707070"/>
<path d="M6.22036 11.9706C6.03706 11.321 5.44332 10.8747 4.76987 10.8747C4.37936 10.8747 4.06057 10.5599 4.06057 10.1694C4.06455 9.77491 4.37936 9.4601 4.76987 9.4601C5.16039 9.4601 5.47918 9.77889 5.47918 10.1694C5.47918 10.3886 5.6585 10.5679 5.87767 10.5679C6.09683 10.5679 6.27615 10.3886 6.27615 10.1694C6.27615 9.49597 5.82985 8.90222 5.18031 8.71892V8.5396C5.18031 8.32043 5.001 8.14111 4.78183 8.14111C4.56266 8.14111 4.38334 8.32043 4.38334 8.5396V8.71095C3.58238 8.92613 3.1042 9.751 3.31938 10.552C3.49472 11.2095 4.08846 11.6677 4.76987 11.6677C5.16039 11.6677 5.47918 11.9825 5.47918 12.373C5.47918 12.7636 5.16437 13.0823 4.77386 13.0823C4.38334 13.0823 4.06455 12.7675 4.06455 12.377C4.06455 12.1579 3.88523 11.9785 3.66606 11.9785C3.4469 11.9785 3.26758 12.1579 3.26758 12.377C3.27156 13.0584 3.72584 13.6522 4.38334 13.8315V14.1782C4.38334 14.3974 4.56266 14.5767 4.78183 14.5767C5.001 14.5767 5.18031 14.3974 5.18031 14.1782V13.8275C5.98127 13.6004 6.4475 12.7715 6.22036 11.9706Z" fill="#707070"/>
</svg>
