<svg width="20" height="20" viewBox="0 0 20 20" fill="none" xmlns="http://www.w3.org/2000/svg">
<path d="M18.5956 8.71967C18.5191 6.53811 17.6356 4.49811 16.0844 2.94686C14.4584 1.32061 12.2975 0.425293 9.99999 0.425293C5.35968 0.425293 1.56812 4.11873 1.40468 8.71967C0.696553 9.03436 0.200928 9.7431 0.200928 10.5669V12.8362C0.200928 13.9506 1.10749 14.8575 2.22218 14.8575C2.94343 14.8575 3.52999 14.2709 3.52999 13.5497V9.85311C3.52999 9.17592 3.01062 8.62373 2.3503 8.55811C2.59405 4.54967 5.93093 1.36279 9.99999 1.36279C12.0475 1.36279 13.9728 2.16092 15.4219 3.60998C16.7525 4.94061 17.5312 6.67498 17.6484 8.55842C16.9887 8.62467 16.4703 9.17654 16.4703 9.85311V13.5494C16.4703 14.2322 16.9978 14.7878 17.6659 14.8456V15.7797C17.6659 16.8315 16.81 17.6872 15.7581 17.6872H14.3453C14.2759 17.489 14.1672 17.3059 14.0147 17.154C13.7475 16.8856 13.3912 16.7378 13.0119 16.7378H11.5556C11.3466 16.7378 11.1459 16.7822 10.9622 16.8678C10.4609 17.0981 10.1372 17.6037 10.1372 18.1559C10.1372 18.5353 10.285 18.8915 10.5528 19.1581C10.8206 19.4265 11.1769 19.5744 11.5556 19.5744H13.0119C13.6156 19.5744 14.1478 19.184 14.3462 18.6247H15.7581C17.3272 18.6247 18.6034 17.3484 18.6034 15.7797V14.6787C19.3072 14.3622 19.7991 13.6559 19.7991 12.8356V10.5662C19.7991 9.74311 19.3034 9.03436 18.5956 8.71967ZM2.59218 9.85311V13.5494C2.59218 13.7534 2.42624 13.9197 2.22187 13.9197C1.62437 13.9197 1.13812 13.4334 1.13812 12.8359V10.5665C1.13812 9.96873 1.62437 9.48279 2.22187 9.48279C2.42624 9.48279 2.59218 9.64904 2.59218 9.85311ZM13.4822 18.2565C13.4356 18.4772 13.2375 18.6375 13.0116 18.6375H11.5553C11.4272 18.6375 11.3069 18.5875 11.215 18.4956C11.1244 18.4053 11.0744 18.2847 11.0744 18.1565C11.0744 17.9694 11.1841 17.7984 11.3559 17.7194C11.4172 17.6906 11.4844 17.6759 11.5553 17.6759H13.0116C13.1397 17.6759 13.26 17.7256 13.3516 17.8175C13.4422 17.9078 13.4922 18.0284 13.4922 18.1565C13.4925 18.1909 13.4887 18.2253 13.4822 18.2565ZM18.8616 12.8359C18.8616 13.4334 18.3753 13.9197 17.7778 13.9197C17.5737 13.9197 17.4075 13.7537 17.4075 13.5494V9.85311C17.4075 9.64904 17.5734 9.48279 17.7778 9.48279C18.3753 9.48279 18.8616 9.96904 18.8616 10.5665V12.8359Z" fill="#303030"/>
<path d="M13.0354 12.9975C14.1307 12.9975 15.0216 12.1062 15.0216 11.0112V6.96403C15.0216 6.43466 14.8148 5.93591 14.4391 5.56028C14.0635 5.18466 13.5651 4.97778 13.0354 4.97778H6.96477C5.86945 4.97778 4.97852 5.86872 4.97852 6.96403V11.0112C4.97852 12.1065 5.86945 12.9975 6.96477 12.9975H7.00195V14.0462C7.00195 14.4462 7.24039 14.8012 7.60914 14.9509C7.7282 14.9987 7.85195 15.0225 7.97445 15.0225C8.22977 15.0225 8.47852 14.9212 8.6607 14.7328L10.4054 12.9975H13.0354ZM9.88195 12.1962L7.99383 14.074C7.98539 14.0828 7.97914 14.0893 7.96133 14.0815C7.93977 14.0728 7.93977 14.0587 7.93977 14.0462V12.5287C7.93977 12.27 7.73008 12.06 7.47102 12.06H6.96508C6.38664 12.06 5.91633 11.5893 5.91633 11.0112V6.96403C5.91633 6.3856 6.38664 5.91528 6.96508 5.91528H13.0357C13.3151 5.91528 13.5779 6.02466 13.7766 6.2231C13.9754 6.42185 14.0845 6.68497 14.0845 6.96403V11.0112C14.0845 11.5897 13.6138 12.06 13.0357 12.06H10.2126C10.0885 12.06 9.96977 12.109 9.88195 12.1962Z" fill="#303030"/>
<path d="M7.72281 8.37085C7.34156 8.37085 7.03125 8.68147 7.03125 9.06241C7.03125 9.44335 7.34187 9.75397 7.72281 9.75397C8.10437 9.75397 8.415 9.44335 8.415 9.06241C8.415 8.68147 8.10469 8.37085 7.72281 8.37085Z" fill="#303030"/>
<path d="M9.99967 8.37085C9.61842 8.37085 9.30811 8.68147 9.30811 9.06241C9.30811 9.44335 9.61873 9.75397 9.99967 9.75397C10.3815 9.75397 10.6919 9.44335 10.6919 9.06241C10.6919 8.68147 10.3815 8.37085 9.99967 8.37085Z" fill="#303030"/>
<path d="M12.2766 8.37085C11.8954 8.37085 11.5851 8.68147 11.5851 9.06241C11.5851 9.44335 11.8957 9.75397 12.2766 9.75397C12.6582 9.75397 12.9688 9.44335 12.9688 9.06241C12.9688 8.68147 12.6582 8.37085 12.2766 8.37085Z" fill="#303030"/>
</svg>
