<svg width="15" height="18" viewBox="0 0 15 18" fill="none" xmlns="http://www.w3.org/2000/svg">
<path d="M13.2188 2.25H10.125V1.6875C10.125 0.75702 9.36798 0 8.4375 0H6.1875C5.25702 0 4.5 0.75702 4.5 1.6875V2.25H1.40625C0.630844 2.25 0 2.88084 0 3.65625V5.625C0 5.93564 0.251859 6.1875 0.5625 6.1875H0.869906L1.35587 16.3928C1.3988 17.294 2.13919 18 3.04144 18H11.5836C12.4858 18 13.2262 17.294 13.2691 16.3928L13.7551 6.1875H14.0625C14.3731 6.1875 14.625 5.93564 14.625 5.625V3.65625C14.625 2.88084 13.9942 2.25 13.2188 2.25ZM5.625 1.6875C5.625 1.37735 5.87735 1.125 6.1875 1.125H8.4375C8.74765 1.125 9 1.37735 9 1.6875V2.25H5.625V1.6875ZM1.125 3.65625C1.125 3.50118 1.25118 3.375 1.40625 3.375H13.2188C13.3738 3.375 13.5 3.50118 13.5 3.65625V5.0625C13.3266 5.0625 1.84335 5.0625 1.125 5.0625V3.65625ZM12.1454 16.3393C12.1311 16.6397 11.8843 16.875 11.5836 16.875H3.04144C2.74068 16.875 2.49388 16.6397 2.47961 16.3393L1.99617 6.1875H12.6288L12.1454 16.3393Z" fill="white"/>
<path d="M7.3125 15.75C7.62314 15.75 7.875 15.4981 7.875 15.1875V7.875C7.875 7.56436 7.62314 7.3125 7.3125 7.3125C7.00186 7.3125 6.75 7.56436 6.75 7.875V15.1875C6.75 15.4981 7.00182 15.75 7.3125 15.75Z" fill="white"/>
<path d="M10.125 15.75C10.4356 15.75 10.6875 15.4981 10.6875 15.1875V7.875C10.6875 7.56436 10.4356 7.3125 10.125 7.3125C9.81436 7.3125 9.5625 7.56436 9.5625 7.875V15.1875C9.5625 15.4981 9.81432 15.75 10.125 15.75Z" fill="white"/>
<path d="M4.5 15.75C4.81064 15.75 5.0625 15.4981 5.0625 15.1875V7.875C5.0625 7.56436 4.81064 7.3125 4.5 7.3125C4.18936 7.3125 3.9375 7.56436 3.9375 7.875V15.1875C3.9375 15.4981 4.18932 15.75 4.5 15.75Z" fill="white"/>
</svg>
