<svg width="20" height="20" viewBox="0 0 20 20" fill="none" xmlns="http://www.w3.org/2000/svg">
<path d="M17.3497 4.05052L17.3498 4.05055C17.4099 4.08073 17.4605 4.12705 17.4959 4.18433C17.5313 4.24162 17.55 4.30761 17.55 4.37493V12.8677C18.0175 13.2083 18.4011 13.6511 18.6716 14.1625C18.9461 14.6816 19.0966 15.2571 19.1113 15.8441C19.1259 16.4311 19.0044 17.0134 18.7561 17.5455C18.5078 18.0776 18.1397 18.5449 17.6804 18.9107C17.2212 19.2766 16.6834 19.5311 16.1093 19.6541C15.5352 19.7772 14.9404 19.7656 14.3716 19.6201C13.8027 19.4747 13.2753 19.1994 12.8308 18.8158C12.3997 18.4439 12.0579 17.98 11.8304 17.4586L9.84971 18.4493L9.84965 18.4494C9.801 18.4736 9.74751 18.4866 9.69316 18.4874C9.63882 18.4882 9.585 18.4767 9.53569 18.4539L17.3497 4.05052ZM17.3497 4.05052L9.8497 0.300524L9.8496 0.300473C9.80095 0.276285 9.74749 0.263322 9.69316 0.262538C9.63883 0.261754 9.58502 0.273169 9.53569 0.295941L17.3497 4.05052ZM3.7 11.25V11.2499V5.76083L1.925 4.94137V14.1429L9.325 17.5585V8.35692L6.6125 7.10503V12.1874C6.6125 12.2836 6.57431 12.3758 6.50633 12.4438C6.43837 12.5117 6.34622 12.5499 6.25012 12.5499C6.25008 12.5499 6.25004 12.5499 6.25 12.5499V12.4999L3.7 11.25ZM3.7 11.25C3.70003 11.3209 3.72087 11.3902 3.75994 11.4494C3.799 11.5086 3.85457 11.5551 3.91977 11.583L3.7 11.25ZM1.41078 14.704L9.53563 18.4539L1.41078 14.704ZM3.89529 4.99073L3.89518 4.99079C3.87556 5.00106 3.85693 5.01306 3.83951 5.02665L2.42752 4.37494L9.68117 1.02727L10.6177 1.49534L3.89529 4.99073ZM10.05 8.3488L16.825 4.9613V12.4518C16.1976 12.1799 15.5081 12.082 14.8289 12.1693C14.1241 12.2598 13.4589 12.5461 12.9086 12.9957C12.3583 13.4453 11.9451 14.0401 11.7158 14.7127C11.4908 15.3728 11.4518 16.0818 11.6027 16.7622L10.05 17.5386V8.3488ZM17.4858 18.1107C16.9093 18.6872 16.1277 19.0115 15.3124 19.0124C14.7043 19.0124 14.1098 18.8321 13.6041 18.4942C13.0984 18.1563 12.7043 17.6761 12.4716 17.1142C12.2388 16.5523 12.1779 15.934 12.2966 15.3375C12.4152 14.741 12.7081 14.1931 13.1381 13.7631C13.5682 13.333 14.1161 13.0402 14.7126 12.9215C15.3091 12.8029 15.9274 12.8638 16.4893 13.0965C17.0511 13.3292 17.5314 13.7234 17.8693 14.2291C18.2071 14.7347 18.3875 15.3292 18.3875 15.9374C18.3866 16.7526 18.0623 17.5342 17.4858 18.1107ZM12.836 2.60432L6.26156 6.14446L4.66509 5.4078L11.4188 1.8959L12.836 2.60432ZM4.425 6.09526L5.8875 6.77021V11.6378L4.425 11.0107V6.09526ZM9.68116 7.72259L7.08491 6.52461L13.629 3.00079L16.3769 4.37493L9.68116 7.72259Z" fill="#303030" stroke="#303030" stroke-width="0.1"/>
<path d="M16.6187 15.0562L16.654 15.0915L16.6187 15.0562L15 16.6749L14.3188 15.9937L14.3188 15.9937C14.2509 15.9257 14.1587 15.8875 14.0625 15.8875C13.9664 15.8875 13.8742 15.9257 13.8062 15.9937C13.7382 16.0617 13.7 16.1539 13.7 16.25C13.7 16.3462 13.7382 16.4384 13.8062 16.5063L14.7437 17.4438C14.7773 17.4775 14.8173 17.5042 14.8613 17.5224C14.9053 17.5406 14.9524 17.55 15 17.55C15.0476 17.55 15.0948 17.5406 15.1387 17.5224C15.1827 17.5042 15.2227 17.4775 15.2563 17.4438L17.1313 15.5688C17.165 15.5352 17.1917 15.4952 17.2099 15.4512C17.2281 15.4073 17.2375 15.3601 17.2375 15.3125C17.2375 15.2649 17.2281 15.2178 17.2099 15.1738C17.1917 15.1298 17.165 15.0898 17.1313 15.0562C17.0977 15.0225 17.0577 14.9958 17.0137 14.9776C16.9698 14.9594 16.9226 14.95 16.875 14.95C16.8274 14.95 16.7803 14.9594 16.7363 14.9776C16.6923 14.9958 16.6523 15.0225 16.6187 15.0562Z" fill="#303030" stroke="#303030" stroke-width="0.1"/>
</svg>
