<svg width="20" height="15" viewBox="0 0 20 15" fill="none" xmlns="http://www.w3.org/2000/svg">
<path d="M19.9328 1.9048C19.8665 1.58535 19.7335 1.28352 19.5423 1.01911C19.3094 0.700384 19.0039 0.44171 18.6512 0.264506C18.2984 0.0873019 17.9086 -0.00333626 17.5138 9.38525e-05H2.48565C2.08842 -8.12259e-05 1.69694 0.0949467 1.344 0.277216C0.991059 0.459485 0.686943 0.723687 0.45713 1.04768C0.269597 1.3036 0.136689 1.59535 0.0666648 1.9048C0.023061 2.09539 0.000703144 2.29023 0 2.48574V11.7998C0 12.459 0.26188 13.0912 0.728029 13.5574C1.19418 14.0235 1.82641 14.2854 2.48565 14.2854H17.5138C18.173 14.2854 18.8053 14.0235 19.2714 13.5574C19.7376 13.0912 19.9995 12.459 19.9995 11.7998V2.48574C20.0039 2.28996 19.9815 2.09449 19.9328 1.9048ZM2.48565 0.952449H17.5138C17.7458 0.951702 17.9748 1.00461 18.183 1.10704C18.3912 1.20947 18.5728 1.35864 18.7138 1.54291L10.2283 6.59991C10.1597 6.63742 10.0827 6.65708 10.0045 6.65708C9.92627 6.65708 9.84932 6.63742 9.78068 6.59991L1.28568 1.54291C1.42664 1.35864 1.6083 1.20947 1.81646 1.10704C2.02462 1.00461 2.25365 0.951702 2.48565 0.952449ZM19.0471 11.7998C19.0471 12.2064 18.8856 12.5964 18.598 12.884C18.3105 13.1715 17.9205 13.3331 17.5138 13.3331H2.48565C2.07899 13.3331 1.68899 13.1715 1.40145 12.884C1.1139 12.5964 0.952355 12.2064 0.952355 11.7998V2.45717L9.30451 7.42846C9.51764 7.55041 9.75893 7.61456 10.0045 7.61456C10.25 7.61456 10.4913 7.55041 10.7045 7.42846L19.0471 2.45717V11.7998Z" fill="#303030"/>
</svg>
