<svg width="20" height="20" viewBox="0 0 20 20" fill="none" xmlns="http://www.w3.org/2000/svg">
<path d="M10 20C15.5228 20 20 15.5228 20 10C20 4.47715 15.5228 0 10 0C4.47715 0 0 4.47715 0 10C0 15.5228 4.47715 20 10 20Z" fill="#3A559F"/>
<path d="M14.3965 10.4844L14.1427 12.7142C14.1322 12.8159 14.0852 12.9102 14.0107 12.9791C13.9362 13.048 13.8393 13.0868 13.7385 13.088H11.4447L11.4333 19.6989C11.434 19.7772 11.4044 19.8528 11.3507 19.9091C11.2971 19.9654 11.2237 19.9981 11.1465 20H8.8227C8.78406 20 8.74582 19.9921 8.71026 19.9768C8.67471 19.9615 8.64258 19.939 8.6158 19.9107C8.58902 19.8825 8.56814 19.849 8.55443 19.8124C8.54071 19.7757 8.53444 19.7366 8.53598 19.6975V13.088H6.81568C6.76165 13.0874 6.70826 13.0761 6.65856 13.0546C6.60885 13.0331 6.56381 13.0018 6.526 12.9627C6.4882 12.9235 6.45837 12.8771 6.43821 12.8263C6.41806 12.7754 6.40798 12.721 6.40854 12.6662L6.39994 10.4364C6.39918 10.3814 6.40911 10.3267 6.42917 10.2756C6.44922 10.2245 6.479 10.1779 6.5168 10.1384C6.55461 10.099 6.59971 10.0675 6.64951 10.0457C6.69932 10.024 6.75286 10.0124 6.80708 10.0116H8.53598V7.85891C8.53598 5.36 9.99824 4 12.1429 4H13.9005C13.9548 4.00057 14.0085 4.01202 14.0585 4.03369C14.1084 4.05536 14.1537 4.08683 14.1917 4.12629C14.2296 4.16575 14.2595 4.21242 14.2797 4.26364C14.2998 4.31485 14.3098 4.36959 14.309 4.42473V6.30109C14.3098 6.35623 14.2998 6.41097 14.2797 6.46218C14.2595 6.5134 14.2296 6.56007 14.1917 6.59953C14.1537 6.63899 14.1084 6.67046 14.0585 6.69213C14.0085 6.7138 13.9548 6.72525 13.9005 6.72582H12.8224C11.6569 6.72582 11.4304 7.30764 11.4304 8.14836V10.0116H13.9922C14.0505 10.0124 14.1079 10.0256 14.1608 10.0505C14.2136 10.0754 14.2607 10.1113 14.2989 10.156C14.3371 10.2006 14.3655 10.253 14.3823 10.3096C14.3991 10.3662 14.404 10.4257 14.3965 10.4844Z" fill="white"/>
</svg>
