<svg width="32" height="32" viewBox="0 0 32 32" fill="none" xmlns="http://www.w3.org/2000/svg">
<g filter="url(#filter0_d_3:948)">
<path d="M9.03846 25.7742L6.61538 29L5 25.7742H9.03846Z" fill="#F2F2F2"/>
<path d="M25.9999 25.7742L24.3845 29L21.9614 25.7742H25.9999Z" fill="#F2F2F2"/>
<path d="M21.9616 25.7742L24.3847 29H6.61548L9.03856 25.7742H14.2886H14.7987H15.2255H21.9616Z" fill="#D9D9D9"/>
<path d="M24.3846 9.24194L26 25.7742H21.9615H15.2254L9.00615 20.9999L16.7115 18.1129V11.6613L19.0215 20.5323H14.2885L15.5162 25.7742H9.03846H5L6.61538 9.24194H11.0577V10.8548H12.6731V9.24194H18.3269V10.8548H19.9423V9.24194H24.3846Z" fill="white"/>
<path d="M19.9422 9.24194V10.8548H18.3268V9.24194V8.43548C18.3268 6.875 17.0628 5.6129 15.4999 5.6129C14.7165 5.6129 14.0138 5.92742 13.5009 6.43952C12.988 6.95161 12.673 7.65323 12.673 8.43548V9.24194V10.8548H11.0576V9.24194V8.43548C11.0576 5.98387 13.0445 4 15.4999 4C16.7276 4 17.8382 4.49597 18.6418 5.29839C19.4455 6.10081 19.9422 7.20968 19.9422 8.43548V9.24194Z" fill="white"/>
<path d="M7.67788 17.5445C7.66495 17.5445 7.65163 17.5437 7.6383 17.5425C7.41618 17.5207 7.25384 17.3239 7.27565 17.1021L7.70776 12.6667C7.72916 12.4453 7.92786 12.2852 8.14876 12.3046C8.37088 12.3263 8.53322 12.5231 8.51142 12.7449L8.0793 17.1804C8.05911 17.3884 7.88343 17.5445 7.67788 17.5445Z" fill="#EC6344"/>
<path d="M8.26786 11.4949C8.4909 11.4949 8.67171 11.3144 8.67171 11.0917C8.67171 10.869 8.4909 10.6885 8.26786 10.6885C8.04482 10.6885 7.86401 10.869 7.86401 11.0917C7.86401 11.3144 8.04482 11.4949 8.26786 11.4949Z" fill="#EC6344"/>
<path d="M16.675 16.3242V11L14.0088 17.3225H17.0083L14.6753 23.6451L15.4485 22.6468L20.3411 16.3242H16.675Z" fill="#FFAD9A"/>
<path d="M14.0088 17.3225L16.675 11L11.0093 18.3208H14.6753V22.6468V23.6451L17.0083 17.3225H14.0088Z" fill="#FF5933"/>
</g>
<defs>
<filter id="filter0_d_3:948" x="3" y="3" width="25" height="29" filterUnits="userSpaceOnUse" color-interpolation-filters="sRGB">
<feFlood flood-opacity="0" result="BackgroundImageFix"/>
<feColorMatrix in="SourceAlpha" type="matrix" values="0 0 0 0 0 0 0 0 0 0 0 0 0 0 0 0 0 0 127 0" result="hardAlpha"/>
<feOffset dy="1"/>
<feGaussianBlur stdDeviation="1"/>
<feComposite in2="hardAlpha" operator="out"/>
<feColorMatrix type="matrix" values="0 0 0 0 0 0 0 0 0 0 0 0 0 0 0 0 0 0 0.3 0"/>
<feBlend mode="normal" in2="BackgroundImageFix" result="effect1_dropShadow_3:948"/>
<feBlend mode="normal" in="SourceGraphic" in2="effect1_dropShadow_3:948" result="shape"/>
</filter>
</defs>
</svg>
