<svg width="15" height="15" viewBox="0 0 15 15" fill="none" xmlns="http://www.w3.org/2000/svg">
<path d="M14.0036 1.12947e-06H0.630301C0.394432 -0.000445031 0.178194 0.13132 0.070372 0.341164C-0.0389369 0.553833 -0.019752 0.809928 0.119896 1.00416L5.01931 7.90593C5.02095 7.90831 5.02273 7.91054 5.02437 7.91292C5.20238 8.15325 5.29861 8.44429 5.2992 8.74352V14.3705C5.29816 14.5372 5.3636 14.6972 5.48109 14.8154C5.59857 14.9337 5.7583 15 5.92486 15C6.00963 15 6.09336 14.983 6.17159 14.9506L8.92469 13.9008C9.17141 13.8256 9.33515 13.5928 9.33515 13.3125V8.74352C9.3356 8.44444 9.43197 8.15325 9.60984 7.91292C9.61147 7.91054 9.61326 7.90831 9.61489 7.90593L14.5142 1.00386C14.6538 0.809779 14.673 0.553833 14.5637 0.341164C14.4559 0.13132 14.2396 -0.000445031 14.0036 1.12947e-06ZM8.99592 7.46185C8.72228 7.83321 8.5743 8.28219 8.57341 8.74352V13.22L6.06065 14.178V8.74352C6.05975 8.28219 5.91178 7.83321 5.63798 7.46185L0.881488 0.761445H13.7526L8.99592 7.46185Z" fill="black"/>
</svg>
