<svg width="7" height="10" viewBox="0 0 7 10" fill="none" xmlns="http://www.w3.org/2000/svg">
<path d="M2.2558 10C2.21689 10 2.17752 9.99223 2.1399 9.976C2.00824 9.91922 1.93703 9.77549 1.9716 9.63635L2.9623 5.64851H0.292976C0.196355 5.64851 0.105945 5.60088 0.0513165 5.52117C-0.00331215 5.44146 -0.0151285 5.33996 0.0197347 5.24984L1.97797 0.187284C2.02162 0.0744138 2.13018 0 2.25119 0H4.94573C5.04473 0 5.13704 0.0499998 5.19114 0.132929C5.2452 0.215859 5.25376 0.320487 5.21384 0.411092L4.05429 3.04311H6.34764C6.45479 3.04311 6.55338 3.10161 6.60475 3.19565C6.65611 3.28967 6.65205 3.40424 6.59414 3.4944L2.50244 9.86531C2.44711 9.95148 2.35301 10 2.2558 10Z" fill="white"/>
</svg>
