<svg width="32" height="32" viewBox="0 0 32 32" fill="none" xmlns="http://www.w3.org/2000/svg">
<g clip-path="url(#clip0_3:936)">
<g filter="url(#filter0_d_3:936)">
<path d="M11.5044 23.2505C11.5044 22.1614 10.625 21.2783 9.54028 21.2783C8.45532 21.2783 7.57593 22.1614 7.57593 23.2505C7.57593 24.3398 8.45532 25.2229 9.54028 25.2229C10.625 25.2229 11.5044 24.3398 11.5044 23.2505Z" fill="white"/>
<path d="M28.5461 23.2505C28.5461 22.1614 27.6667 21.2783 26.5818 21.2783C25.4971 21.2783 24.6177 22.1614 24.6177 23.2505C24.6177 24.3398 25.4971 25.2229 26.5818 25.2229C27.6667 25.2229 28.5461 24.3398 28.5461 23.2505Z" fill="white"/>
<path d="M29.7041 14.1536L27.2842 13.1631L25.2427 8.60303C24.9336 7.91284 24.2461 7.4668 23.4912 7.4668H5.43701C4.91919 7.4668 4.49951 7.88672 4.49951 8.4043V10.209H5.43701C5.95484 10.209 6.37452 10.6289 6.37452 11.1465C6.37452 11.6643 5.95484 12.084 5.43701 12.084H4.49951V13.9592H7.74952C8.26734 13.9592 8.68702 14.3789 8.68702 14.8967C8.68702 15.4143 8.26734 15.8342 7.74952 15.8342H4.49951V17.7092H5.43701C5.95484 17.7092 6.37452 18.1289 6.37452 18.6467C6.37452 19.1646 5.95484 19.5843 5.43701 19.5843H4.49951V21.4934C4.49951 22.0113 4.91919 22.4309 5.43701 22.4309H5.78955C6.16553 20.7022 7.70386 19.4033 9.54029 19.4033C11.3765 19.4033 12.9148 20.7022 13.291 22.4309H22.8311C23.2073 20.7022 24.7456 19.4033 26.5818 19.4033C28.4183 19.4033 29.9566 20.7022 30.3326 22.4309H31.0001C31.5176 22.4309 31.9376 22.0113 31.9376 21.4934V17.4866C31.9376 16.0171 31.0608 14.7088 29.7041 14.1536ZM20.7102 14.1809C20.1924 14.1809 19.7727 13.7612 19.7727 13.2434V9.11866H23.4912C23.5081 9.11866 25.7264 14.0486 25.7264 14.0486C25.7471 14.095 25.7723 14.1389 25.8001 14.1809H20.7102Z" fill="white"/>
<path d="M2.87451 17.7092C2.35669 17.7092 1.93701 18.1289 1.93701 18.6467C1.93701 19.1646 2.35669 19.5842 2.87451 19.5842H4.49951V17.7092H2.87451Z" fill="white"/>
<path d="M2.87451 13.9592C2.35669 13.9592 1.93701 14.3789 1.93701 14.8967C1.93701 15.4143 2.35669 15.8342 2.87451 15.8342H4.49951V13.9592H2.87451Z" fill="white"/>
<path d="M0.875002 10.209C0.357179 10.209 -0.0625 10.6289 -0.0625 11.1465C-0.0625 11.6643 0.357179 12.084 0.875002 12.084H4.49952V10.209H0.875002Z" fill="white"/>
</g>
</g>
<defs>
<filter id="filter0_d_3:936" x="-2.0625" y="6.4668" width="36" height="21.7561" filterUnits="userSpaceOnUse" color-interpolation-filters="sRGB">
<feFlood flood-opacity="0" result="BackgroundImageFix"/>
<feColorMatrix in="SourceAlpha" type="matrix" values="0 0 0 0 0 0 0 0 0 0 0 0 0 0 0 0 0 0 127 0" result="hardAlpha"/>
<feOffset dy="1"/>
<feGaussianBlur stdDeviation="1"/>
<feComposite in2="hardAlpha" operator="out"/>
<feColorMatrix type="matrix" values="0 0 0 0 0 0 0 0 0 0 0 0 0 0 0 0 0 0 0.3 0"/>
<feBlend mode="normal" in2="BackgroundImageFix" result="effect1_dropShadow_3:936"/>
<feBlend mode="normal" in="SourceGraphic" in2="effect1_dropShadow_3:936" result="shape"/>
</filter>
<clipPath id="clip0_3:936">
<rect width="32" height="32" fill="white"/>
</clipPath>
</defs>
</svg>
