<svg width="18" height="18" viewBox="0 0 18 18" fill="none" xmlns="http://www.w3.org/2000/svg">
<path fill-rule="evenodd" clip-rule="evenodd" d="M1.6991 4C1.37473 4 1.09299 4.22301 1.01889 4.5383C0.944088 4.85429 1.09649 5.17936 1.38661 5.32408L8.37751 8.81952C8.57395 8.9181 8.80605 8.9181 9.00249 8.81952L15.9934 5.32408C16.2835 5.17936 16.4359 4.85429 16.3611 4.5383C16.287 4.22301 16.0053 4 15.6809 4H1.6991ZM4.66045 5.39818L8.69 7.41296L12.7196 5.39818H4.66045Z" fill="#707070"/>
<path fill-rule="evenodd" clip-rule="evenodd" d="M8.68988 10.2092L15.3683 6.87038C15.7129 6.69771 16.1338 6.83752 16.3058 7.18287C16.4784 7.52752 16.3386 7.94838 15.9933 8.12035L9.00237 11.6158C8.80593 11.7144 8.57383 11.7144 8.37738 11.6158L1.38649 8.12035C1.04114 7.94838 0.901319 7.52752 1.07399 7.18287C1.24597 6.83752 1.66682 6.69771 2.01147 6.87038L8.68988 10.2092Z" fill="#707070"/>
<path fill-rule="evenodd" clip-rule="evenodd" d="M8.68988 13.0056L15.3683 9.66677C15.7129 9.49409 16.1338 9.63391 16.3058 9.97926C16.4784 10.3239 16.3386 10.7448 15.9933 10.9167L9.00237 14.4122C8.80593 14.5108 8.57383 14.5108 8.37738 14.4122L1.38649 10.9167C1.04114 10.7448 0.901319 10.3239 1.07399 9.97926C1.24597 9.63391 1.66682 9.49409 2.01147 9.66677L8.68988 13.0056Z" fill="#707070"/>
</svg>
