<svg width="20" height="20" viewBox="0 0 20 20" fill="none" xmlns="http://www.w3.org/2000/svg">
<path d="M19.8253 8.13186H15.645H10.2198V12.0879H15.567C15.0857 13.3725 14.172 14.4456 13.0027 15.1313C12.122 15.6483 11.0956 15.9445 10 15.9445C7.45112 15.9445 5.27691 14.3401 4.43241 12.0862C4.18845 11.4373 4.05551 10.734 4.05551 9.99996C4.05551 9.32356 4.16866 8.67358 4.37638 8.06811C5.17856 5.73348 7.39345 4.05546 10 4.05546C11.1544 4.05546 12.2319 4.38456 13.1434 4.95438L16.383 2.30217C14.6511 0.864286 12.4264 0 10 0C6.13519 0 2.78244 2.1923 1.11812 5.40113C0.403265 6.77801 0 8.34172 0 10C0 11.7148 0.43132 13.3286 1.19179 14.739C2.88079 17.8714 6.19179 20 10 20C12.3698 20 14.5467 19.1759 16.2604 17.7984C18.0225 16.3819 19.2945 14.3803 19.7813 12.0879C19.9248 11.4143 20 10.7159 20 10C20 9.36153 19.9401 8.73681 19.8253 8.13186Z" fill="white"/>
<path d="M16.26 17.7977L16.2606 17.7983C14.5468 19.1758 12.3699 19.9999 10.0001 19.9999C6.1919 19.9999 2.8809 17.8714 1.19189 14.7389L4.43256 12.0862C5.27706 14.34 7.45122 15.9445 10.0002 15.9445C11.0958 15.9445 12.1222 15.6483 13.0029 15.1313L16.26 17.7977Z" fill="white"/>
<path d="M19.8253 8.13184C19.9401 8.73678 20 9.36151 20 9.99997C20 10.7159 19.9247 11.4142 19.7813 12.0879C19.2945 14.3802 18.0225 16.3818 16.2604 17.7983L16.2599 17.7978L13.0027 15.1313C14.1719 14.4455 15.0857 13.3725 15.567 12.0879H10.2197V8.13184H15.645H19.8253Z" fill="white"/>
<path d="M16.383 2.30221L13.1435 4.95443C12.2319 4.38461 11.1545 4.05551 10 4.05551C7.39345 4.05551 5.1786 5.73352 4.37643 8.06815L1.11874 5.40113H1.11816C2.78249 2.1923 6.13519 0 10 0C12.4264 0 14.6512 0.864286 16.383 2.30221Z" fill="white"/>
</svg>
