<svg width="15" height="15" viewBox="0 0 15 15" fill="none" xmlns="http://www.w3.org/2000/svg">
<path fill-rule="evenodd" clip-rule="evenodd" d="M5 0.833334H1.66667C1.20643 0.833334 0.833334 1.20643 0.833334 1.66667V5C0.833334 5.46024 1.20643 5.83334 1.66667 5.83334H5C5.46024 5.83334 5.83334 5.46024 5.83334 5V1.66667C5.83334 1.20643 5.46024 0.833334 5 0.833334ZM1.66667 0C0.746193 0 0 0.746193 0 1.66667V5C0 5.92048 0.746193 6.66667 1.66667 6.66667H5C5.92048 6.66667 6.66667 5.92048 6.66667 5V1.66667C6.66667 0.746193 5.92048 0 5 0H1.66667Z" fill="black"/>
<path fill-rule="evenodd" clip-rule="evenodd" d="M5 9.16659H1.66667C1.20643 9.16659 0.833334 9.53968 0.833334 9.99992V13.3333C0.833334 13.7935 1.20643 14.1666 1.66667 14.1666H5C5.46024 14.1666 5.83334 13.7935 5.83334 13.3333V9.99992C5.83334 9.53968 5.46024 9.16659 5 9.16659ZM1.66667 8.33325C0.746193 8.33325 0 9.07944 0 9.99992V13.3333C0 14.2537 0.746193 14.9999 1.66667 14.9999H5C5.92048 14.9999 6.66667 14.2537 6.66667 13.3333V9.99992C6.66667 9.07944 5.92048 8.33325 5 8.33325H1.66667Z" fill="black"/>
<path fill-rule="evenodd" clip-rule="evenodd" d="M13 0.833334H9.66667C9.20643 0.833334 8.83333 1.20643 8.83333 1.66667V5C8.83333 5.46024 9.20643 5.83334 9.66667 5.83334H13C13.4602 5.83334 13.8333 5.46024 13.8333 5V1.66667C13.8333 1.20643 13.4602 0.833334 13 0.833334ZM9.66667 0C8.74619 0 8 0.746193 8 1.66667V5C8 5.92048 8.74619 6.66667 9.66667 6.66667H13C13.9205 6.66667 14.6667 5.92048 14.6667 5V1.66667C14.6667 0.746193 13.9205 0 13 0H9.66667Z" fill="black"/>
<path fill-rule="evenodd" clip-rule="evenodd" d="M13 9.16659H9.66667C9.20643 9.16659 8.83333 9.53968 8.83333 9.99992V13.3333C8.83333 13.7935 9.20643 14.1666 9.66667 14.1666H13C13.4602 14.1666 13.8333 13.7935 13.8333 13.3333V9.99992C13.8333 9.53968 13.4602 9.16659 13 9.16659ZM9.66667 8.33325C8.74619 8.33325 8 9.07944 8 9.99992V13.3333C8 14.2537 8.74619 14.9999 9.66667 14.9999H13C13.9205 14.9999 14.6667 14.2537 14.6667 13.3333V9.99992C14.6667 9.07944 13.9205 8.33325 13 8.33325H9.66667Z" fill="black"/>
</svg>
