<svg width="18" height="18" viewBox="0 0 18 18" fill="none" xmlns="http://www.w3.org/2000/svg">
<path d="M9 0C4.02571 0 0 4.02525 0 9C0 13.9742 4.02525 18 9 18C13.9743 18 18 13.9747 18 9C18 4.02571 13.9747 0 9 0ZM9 16.7442C4.72985 16.7442 1.25582 13.2702 1.25582 9C1.25582 4.72982 4.72985 1.25582 9 1.25582C13.2702 1.25582 16.7442 4.72982 16.7442 9C16.7442 13.2702 13.2702 16.7442 9 16.7442Z" fill="#707070"/>
<path d="M8.73385 11.3879C8.23628 11.3879 7.8335 11.8026 7.8335 12.3001C7.8335 12.7859 8.22443 13.2123 8.73385 13.2123C9.24326 13.2123 9.64601 12.7859 9.64601 12.3001C9.64601 11.8026 9.23138 11.3879 8.73385 11.3879Z" fill="#707070"/>
<path d="M8.88765 4.48145C7.28832 4.48145 6.55383 5.42922 6.55383 6.06893C6.55383 6.53095 6.94477 6.74421 7.26462 6.74421C7.90436 6.74421 7.64375 5.83197 8.85211 5.83197C9.44442 5.83197 9.91833 6.09262 9.91833 6.63758C9.91833 7.27728 9.2549 7.64452 8.86396 7.97622C8.52037 8.27234 8.07023 8.7581 8.07023 9.77693C8.07023 10.3929 8.2361 10.5706 8.72179 10.5706C9.30225 10.5706 9.42073 10.31 9.42073 10.0849C9.42073 9.46889 9.43258 9.11349 10.0842 8.60408C10.404 8.35531 11.411 7.54971 11.411 6.43613C11.411 5.32256 10.404 4.48145 8.88765 4.48145Z" fill="#707070"/>
</svg>
