<svg width="20" height="20" viewBox="0 0 20 20" fill="none" xmlns="http://www.w3.org/2000/svg">
<path d="M14.1554 19.9975H5.84385C4.90392 20.0325 3.98818 19.695 3.2956 19.0586C2.60303 18.4222 2.18957 17.5382 2.14507 16.5987V12.143C2.14507 11.9536 2.2203 11.772 2.35421 11.6381C2.48812 11.5042 2.66974 11.4289 2.85912 11.4289C3.0485 11.4289 3.23012 11.5042 3.36403 11.6381C3.49794 11.772 3.57317 11.9536 3.57317 12.143V16.5987C3.61706 17.1595 3.87981 17.6806 4.30467 18.0493C4.72953 18.4181 5.2824 18.6049 5.84385 18.5694H14.1554C14.7168 18.6049 15.2697 18.4181 15.6946 18.0493C16.1194 17.6806 16.3822 17.1595 16.4261 16.5987V12.143C16.4261 11.9536 16.5013 11.772 16.6352 11.6381C16.7691 11.5042 16.9507 11.4289 17.1401 11.4289C17.3295 11.4289 17.5111 11.5042 17.645 11.6381C17.7789 11.772 17.8542 11.9536 17.8542 12.143V16.5987C17.8097 17.5382 17.3962 18.4222 16.7036 19.0586C16.0111 19.695 15.0953 20.0325 14.1554 19.9975ZM19.7892 10.5078C19.8562 10.4414 19.9093 10.3625 19.9455 10.2754C19.9818 10.1884 20.0005 10.0951 20.0005 10.0008C20.0005 9.90658 19.9818 9.81324 19.9455 9.72623C19.9093 9.63922 19.8562 9.56024 19.7892 9.49386L10.5066 0.211215C10.4402 0.144288 10.3612 0.0911667 10.2742 0.0549154C10.1872 0.018664 10.0939 0 9.99962 0C9.90536 0 9.81203 0.018664 9.72501 0.0549154C9.638 0.0911667 9.55902 0.144288 9.49264 0.211215L0.209996 9.49386C0.0755378 9.62832 0 9.81069 0 10.0008C0 10.191 0.0755378 10.3734 0.209996 10.5078C0.344454 10.6423 0.526819 10.7178 0.716972 10.7178C0.907124 10.7178 1.08949 10.6423 1.22395 10.5078L9.99962 1.725L18.7753 10.5078C18.8417 10.5747 18.9206 10.6279 19.0077 10.6641C19.0947 10.7004 19.188 10.719 19.2823 10.719C19.3765 10.719 19.4699 10.7004 19.5569 10.6641C19.6439 10.6279 19.7229 10.5747 19.7892 10.5078Z" fill="#808080"/>
</svg>
