<svg width="15" height="15" viewBox="0 0 15 15" fill="none" xmlns="http://www.w3.org/2000/svg">
<path fill-rule="evenodd" clip-rule="evenodd" d="M5 0.833334H1.66667C1.20643 0.833334 0.833334 1.20643 0.833334 1.66667V5C0.833334 5.46024 1.20643 5.83334 1.66667 5.83334H5C5.46024 5.83334 5.83334 5.46024 5.83334 5V1.66667C5.83334 1.20643 5.46024 0.833334 5 0.833334ZM1.66667 0C0.746193 0 0 0.746193 0 1.66667V5C0 5.92048 0.746193 6.66667 1.66667 6.66667H5C5.92048 6.66667 6.66667 5.92048 6.66667 5V1.66667C6.66667 0.746193 5.92048 0 5 0H1.66667Z" fill="#303030"/>
<path fill-rule="evenodd" clip-rule="evenodd" d="M5 9.16671H1.66667C1.20643 9.16671 0.833334 9.5398 0.833334 10V13.3334C0.833334 13.7936 1.20643 14.1667 1.66667 14.1667H5C5.46024 14.1667 5.83334 13.7936 5.83334 13.3334V10C5.83334 9.5398 5.46024 9.16671 5 9.16671ZM1.66667 8.33337C0.746193 8.33337 0 9.07957 0 10V13.3334C0 14.2539 0.746193 15 1.66667 15H5C5.92048 15 6.66667 14.2539 6.66667 13.3334V10C6.66667 9.07957 5.92048 8.33337 5 8.33337H1.66667Z" fill="#303030"/>
<path fill-rule="evenodd" clip-rule="evenodd" d="M14.9999 2.49996H8.33325V1.66663H14.9999V2.49996Z" fill="#303030"/>
<path fill-rule="evenodd" clip-rule="evenodd" d="M14.9999 5.00008H8.33325V4.16675H14.9999V5.00008Z" fill="#303030"/>
<path fill-rule="evenodd" clip-rule="evenodd" d="M14.9999 10.8333H8.33325V10H14.9999V10.8333Z" fill="#303030"/>
<path fill-rule="evenodd" clip-rule="evenodd" d="M14.9999 13.3332H8.33325V12.4999H14.9999V13.3332Z" fill="#303030"/>
</svg>
