<svg width="20" height="20" viewBox="0 0 20 20" fill="none" xmlns="http://www.w3.org/2000/svg">
<g clip-path="url(#clip0_303:1161)">
<path d="M19.7353 4.08269L15.626 0.476027C15.3201 0.172445 14.907 0.00145634 14.476 2.69402e-05H9.524C9.10002 -0.00243177 8.6924 0.163494 8.39067 0.46136L4.24933 4.09769C4.16997 4.17659 4.10707 4.27046 4.06427 4.37386C4.02147 4.47726 3.99962 4.58812 4 4.70003V5.66669C4 5.84351 4.07024 6.01307 4.19526 6.1381C4.32029 6.26312 4.48986 6.33336 4.66667 6.33336H5.06133C5.01564 6.45649 4.9951 6.58753 5.00094 6.71874C5.00677 6.84994 5.03885 6.97865 5.09529 7.09724C5.15172 7.21583 5.23137 7.3219 5.32951 7.40918C5.42765 7.49645 5.5423 7.56316 5.66667 7.60536V10H1.66667C1.2248 10.0006 0.801186 10.1763 0.48874 10.4888C0.176294 10.8012 0.000529286 11.2248 0 11.6667L0 18.3334C0.000529286 18.7752 0.176294 19.1988 0.48874 19.5113C0.801186 19.8237 1.2248 19.9995 1.66667 20H13C13.4419 19.9995 13.8655 19.8237 14.1779 19.5113C14.4904 19.1988 14.6661 18.7752 14.6667 18.3334V16H19.3333C19.5101 16 19.6797 15.9298 19.8047 15.8048C19.9298 15.6797 20 15.5102 20 15.3334V15C19.9991 14.7939 19.9346 14.5932 19.8153 14.4251C19.696 14.2571 19.5276 14.1301 19.3333 14.0614V13.6667C19.333 13.4982 19.2901 13.3325 19.2085 13.1851C19.1269 13.0377 19.0093 12.9134 18.8667 12.8237C18.94 12.6976 18.9844 12.5567 18.9968 12.4114C19.0091 12.266 18.9891 12.1197 18.9381 11.983C18.8871 11.8463 18.8064 11.7227 18.7018 11.6209C18.5972 11.5192 18.4714 11.4419 18.3333 11.3947V7.60536C18.4577 7.56316 18.5723 7.49645 18.6705 7.40918C18.7686 7.3219 18.8483 7.21583 18.9047 7.09724C18.9611 6.97865 18.9932 6.84994 18.9991 6.71874C19.0049 6.58753 18.9844 6.45649 18.9387 6.33336H19.3333C19.5101 6.33336 19.6797 6.26312 19.8047 6.1381C19.9298 6.01307 20 5.84351 20 5.66669V4.70003C20.0003 4.58826 19.9784 4.47755 19.9357 4.37428C19.893 4.27101 19.8302 4.17723 19.751 4.09836L19.7353 4.08269ZM8.84533 0.94936C9.0255 0.769434 9.26938 0.667857 9.524 0.666694H14.476C14.6055 0.667869 14.7335 0.694624 14.8527 0.745421C14.9719 0.796218 15.0798 0.870056 15.1703 0.962694L19.01 4.33336H4.99033L8.84533 0.94936ZM18.3333 12.3334C18.3333 12.4218 18.2982 12.5066 18.2357 12.5691C18.1732 12.6316 18.0884 12.6667 18 12.6667H16.6667C16.5783 12.6667 16.4935 12.6316 16.431 12.5691C16.3685 12.5066 16.3333 12.4218 16.3333 12.3334C16.3333 12.245 16.3685 12.1602 16.431 12.0977C16.4935 12.0351 16.5783 12 16.6667 12H18C18.0884 12 18.1732 12.0351 18.2357 12.0977C18.2982 12.1602 18.3333 12.245 18.3333 12.3334ZM18.3333 13.3334C18.4217 13.3334 18.5065 13.3685 18.569 13.431C18.6315 13.4935 18.6667 13.5783 18.6667 13.6667V14H14.6667V13.3334H18.3333ZM17.6667 11.3334H17V7.66669H17.6667V11.3334ZM16.3333 7.60536V11.3947C16.209 11.4369 16.0943 11.5036 15.9962 11.5909C15.898 11.6782 15.8184 11.7842 15.762 11.9028C15.7055 12.0214 15.6734 12.1501 15.6676 12.2813C15.6618 12.4125 15.6823 12.5436 15.728 12.6667H14.6667V11.6667C14.6661 11.2248 14.4904 10.8012 14.1779 10.4888C13.8655 10.1763 13.4419 10.0006 13 10V7.60536C13.1244 7.56316 13.239 7.49645 13.3372 7.40918C13.4353 7.3219 13.5149 7.21583 13.5714 7.09724C13.6278 6.97865 13.6599 6.84994 13.6657 6.71874C13.6716 6.58753 13.651 6.45649 13.6053 6.33336H15.728C15.6823 6.45649 15.6618 6.58753 15.6676 6.71874C15.6734 6.84994 15.7055 6.97865 15.762 7.09724C15.8184 7.21583 15.898 7.3219 15.9962 7.40918C16.0943 7.49645 16.209 7.56316 16.3333 7.60536ZM11.6667 10V7.66669H12.3333V10H11.6667ZM13 6.66669C13 6.7551 12.9649 6.83988 12.9024 6.9024C12.8399 6.96491 12.7551 7.00003 12.6667 7.00003H11.3333C11.2449 7.00003 11.1601 6.96491 11.0976 6.9024C11.0351 6.83988 11 6.7551 11 6.66669C11 6.57829 11.0351 6.4935 11.0976 6.43099C11.1601 6.36848 11.2449 6.33336 11.3333 6.33336H12.6667C12.7551 6.33336 12.8399 6.36848 12.9024 6.43099C12.9649 6.4935 13 6.57829 13 6.66669ZM11 7.60536V10H7.66667V7.60536C7.79104 7.56316 7.90568 7.49645 8.00382 7.40918C8.10197 7.3219 8.18161 7.21583 8.23805 7.09724C8.29448 6.97865 8.32656 6.84994 8.3324 6.71874C8.33823 6.58753 8.31769 6.45649 8.272 6.33336H10.3947C10.349 6.45649 10.3284 6.58753 10.3343 6.71874C10.3401 6.84994 10.3722 6.97865 10.4286 7.09724C10.4851 7.21583 10.5647 7.3219 10.6628 7.40918C10.761 7.49645 10.8756 7.56316 11 7.60536V7.60536ZM7.66667 6.66669C7.66667 6.7551 7.63155 6.83988 7.56904 6.9024C7.50652 6.96491 7.42174 7.00003 7.33333 7.00003H6C5.91159 7.00003 5.82681 6.96491 5.7643 6.9024C5.70179 6.83988 5.66667 6.7551 5.66667 6.66669C5.66667 6.57829 5.70179 6.4935 5.7643 6.43099C5.82681 6.36848 5.91159 6.33336 6 6.33336H7.33333C7.42174 6.33336 7.50652 6.36848 7.56904 6.43099C7.63155 6.4935 7.66667 6.57829 7.66667 6.66669ZM6.33333 7.66669H7V10H6.33333V7.66669ZM14 18.3334C14 18.5986 13.8946 18.8529 13.7071 19.0405C13.5196 19.228 13.2652 19.3334 13 19.3334H1.66667C1.40145 19.3334 1.1471 19.228 0.95956 19.0405C0.772024 18.8529 0.666667 18.5986 0.666667 18.3334V11.6667C0.666667 11.4015 0.772024 11.1471 0.95956 10.9596C1.1471 10.7721 1.40145 10.6667 1.66667 10.6667H13C13.2652 10.6667 13.5196 10.7721 13.7071 10.9596C13.8946 11.1471 14 11.4015 14 11.6667V18.3334ZM19.3333 15.3334H14.6667V14.6667H19C19.0884 14.6667 19.1732 14.7018 19.2357 14.7643C19.2982 14.8268 19.3333 14.9116 19.3333 15V15.3334ZM18.3333 6.66669C18.3333 6.7551 18.2982 6.83988 18.2357 6.9024C18.1732 6.96491 18.0884 7.00003 18 7.00003H16.6667C16.5783 7.00003 16.4935 6.96491 16.431 6.9024C16.3685 6.83988 16.3333 6.7551 16.3333 6.66669C16.3333 6.57829 16.3685 6.4935 16.431 6.43099C16.4935 6.36848 16.5783 6.33336 16.6667 6.33336H18C18.0884 6.33336 18.1732 6.36848 18.2357 6.43099C18.2982 6.4935 18.3333 6.57829 18.3333 6.66669ZM18 5.66669H4.66667V5.00003H19.3333V5.66669H18Z" fill="#707070"/>
<path d="M1.99992 13.6666H3.33325C3.51006 13.6666 3.67963 13.5963 3.80466 13.4713C3.92968 13.3463 3.99992 13.1767 3.99992 12.9999V11.9999C3.99992 11.8231 3.92968 11.6535 3.80466 11.5285C3.67963 11.4035 3.51006 11.3333 3.33325 11.3333H1.99992C1.82311 11.3333 1.65354 11.4035 1.52851 11.5285C1.40349 11.6535 1.33325 11.8231 1.33325 11.9999V12.9999C1.33325 13.1767 1.40349 13.3463 1.52851 13.4713C1.65354 13.5963 1.82311 13.6666 1.99992 13.6666ZM1.99992 11.9999H3.33325V12.9999H1.99992V11.9999Z" fill="#707070"/>
<path d="M7.66658 3.66667H10.9999C11.0883 3.66667 11.1731 3.63155 11.2356 3.56904C11.2981 3.50652 11.3332 3.42174 11.3332 3.33333C11.3332 3.24493 11.2981 3.16014 11.2356 3.09763C11.1731 3.03512 11.0883 3 10.9999 3H7.66658C7.57818 3 7.49339 3.03512 7.43088 3.09763C7.36837 3.16014 7.33325 3.24493 7.33325 3.33333C7.33325 3.42174 7.36837 3.50652 7.43088 3.56904C7.49339 3.63155 7.57818 3.66667 7.66658 3.66667Z" fill="#707070"/>
<path d="M13.0001 3.66667H16.3334C16.4218 3.66667 16.5066 3.63155 16.5691 3.56904C16.6316 3.50652 16.6667 3.42174 16.6667 3.33333C16.6667 3.24493 16.6316 3.16014 16.5691 3.09763C16.5066 3.03512 16.4218 3 16.3334 3H13.0001C12.9117 3 12.8269 3.03512 12.7644 3.09763C12.7019 3.16014 12.6667 3.24493 12.6667 3.33333C12.6667 3.42174 12.7019 3.50652 12.7644 3.56904C12.8269 3.63155 12.9117 3.66667 13.0001 3.66667Z" fill="#707070"/>
<path d="M1.6665 14.6666V14.9999C1.6665 15.0883 1.70162 15.1731 1.76414 15.2356C1.82665 15.2981 1.91143 15.3332 1.99984 15.3332C2.08824 15.3332 2.17303 15.2981 2.23554 15.2356C2.29805 15.1731 2.33317 15.0883 2.33317 14.9999V14.6666C2.33317 14.5782 2.29805 14.4934 2.23554 14.4309C2.17303 14.3684 2.08824 14.3333 1.99984 14.3333C1.91143 14.3333 1.82665 14.3684 1.76414 14.4309C1.70162 14.4934 1.6665 14.5782 1.6665 14.6666Z" fill="#707070"/>
<path d="M3.66667 14.9999V14.6666C3.66667 14.5782 3.63155 14.4934 3.56904 14.4309C3.50652 14.3684 3.42174 14.3333 3.33333 14.3333C3.24493 14.3333 3.16014 14.3684 3.09763 14.4309C3.03512 14.4934 3 14.5782 3 14.6666V14.9999C3 15.0883 3.03512 15.1731 3.09763 15.2356C3.16014 15.2981 3.24493 15.3332 3.33333 15.3332C3.42174 15.3332 3.50652 15.2981 3.56904 15.2356C3.63155 15.1731 3.66667 15.0883 3.66667 14.9999Z" fill="#707070"/>
<path d="M4.66659 14.3333C4.57818 14.3333 4.4934 14.3684 4.43088 14.4309C4.36837 14.4934 4.33325 14.5782 4.33325 14.6666V14.9999C4.33325 15.0883 4.36837 15.1731 4.43088 15.2356C4.4934 15.2981 4.57818 15.3332 4.66659 15.3332C4.75499 15.3332 4.83978 15.2981 4.90229 15.2356C4.9648 15.1731 4.99992 15.0883 4.99992 14.9999V14.6666C4.99992 14.5782 4.9648 14.4934 4.90229 14.4309C4.83978 14.3684 4.75499 14.3333 4.66659 14.3333Z" fill="#707070"/>
<path d="M6.00008 15.3332C6.08849 15.3332 6.17327 15.2981 6.23579 15.2356C6.2983 15.1731 6.33342 15.0883 6.33342 14.9999V14.6666C6.33342 14.5782 6.2983 14.4934 6.23579 14.4309C6.17327 14.3684 6.08849 14.3333 6.00008 14.3333C5.91168 14.3333 5.82689 14.3684 5.76438 14.4309C5.70187 14.4934 5.66675 14.5782 5.66675 14.6666V14.9999C5.66675 15.0883 5.70187 15.1731 5.76438 15.2356C5.82689 15.2981 5.91168 15.3332 6.00008 15.3332Z" fill="#707070"/>
<path d="M8.66683 14.3333C8.57842 14.3333 8.49364 14.3684 8.43113 14.4309C8.36861 14.4934 8.3335 14.5782 8.3335 14.6666V14.9999C8.3335 15.0883 8.36861 15.1731 8.43113 15.2356C8.49364 15.2981 8.57842 15.3332 8.66683 15.3332C8.75524 15.3332 8.84002 15.2981 8.90253 15.2356C8.96505 15.1731 9.00016 15.0883 9.00016 14.9999V14.6666C9.00016 14.5782 8.96505 14.4934 8.90253 14.4309C8.84002 14.3684 8.75524 14.3333 8.66683 14.3333Z" fill="#707070"/>
<path d="M10.0001 14.3333C9.91167 14.3333 9.82689 14.3684 9.76438 14.4309C9.70187 14.4934 9.66675 14.5782 9.66675 14.6666V14.9999C9.66675 15.0883 9.70187 15.1731 9.76438 15.2356C9.82689 15.2981 9.91167 15.3332 10.0001 15.3332C10.0885 15.3332 10.1733 15.2981 10.2358 15.2356C10.2983 15.1731 10.3334 15.0883 10.3334 14.9999V14.6666C10.3334 14.5782 10.2983 14.4934 10.2358 14.4309C10.1733 14.3684 10.0885 14.3333 10.0001 14.3333Z" fill="#707070"/>
<path d="M11.3333 14.3333C11.2449 14.3333 11.1601 14.3684 11.0976 14.4309C11.0351 14.4934 11 14.5782 11 14.6666V14.9999C11 15.0883 11.0351 15.1731 11.0976 15.2356C11.1601 15.2981 11.2449 15.3332 11.3333 15.3332C11.4217 15.3332 11.5065 15.2981 11.569 15.2356C11.6315 15.1731 11.6667 15.0883 11.6667 14.9999V14.6666C11.6667 14.5782 11.6315 14.4934 11.569 14.4309C11.5065 14.3684 11.4217 14.3333 11.3333 14.3333Z" fill="#707070"/>
<path d="M2.33325 16H1.66659C1.57818 16 1.4934 16.0351 1.43088 16.0976C1.36837 16.1601 1.33325 16.2449 1.33325 16.3333C1.33325 16.4217 1.36837 16.5065 1.43088 16.569C1.4934 16.6315 1.57818 16.6667 1.66659 16.6667H2.33325C2.42166 16.6667 2.50645 16.6315 2.56896 16.569C2.63147 16.5065 2.66659 16.4217 2.66659 16.3333C2.66659 16.2449 2.63147 16.1601 2.56896 16.0976C2.50645 16.0351 2.42166 16 2.33325 16Z" fill="#707070"/>
<path d="M4.3335 16H3.66683C3.57842 16 3.49364 16.0351 3.43113 16.0976C3.36862 16.1601 3.3335 16.2449 3.3335 16.3333C3.3335 16.4217 3.36862 16.5065 3.43113 16.569C3.49364 16.6315 3.57842 16.6667 3.66683 16.6667H4.3335C4.4219 16.6667 4.50669 16.6315 4.5692 16.569C4.63171 16.5065 4.66683 16.4217 4.66683 16.3333C4.66683 16.2449 4.63171 16.1601 4.5692 16.0976C4.50669 16.0351 4.4219 16 4.3335 16Z" fill="#707070"/>
<path d="M2.33325 17.3333H1.66659C1.57818 17.3333 1.4934 17.3684 1.43088 17.4309C1.36837 17.4934 1.33325 17.5782 1.33325 17.6666C1.33325 17.755 1.36837 17.8398 1.43088 17.9023C1.4934 17.9648 1.57818 17.9999 1.66659 17.9999H2.33325C2.42166 17.9999 2.50645 17.9648 2.56896 17.9023C2.63147 17.8398 2.66659 17.755 2.66659 17.6666C2.66659 17.5782 2.63147 17.4934 2.56896 17.4309C2.50645 17.3684 2.42166 17.3333 2.33325 17.3333Z" fill="#707070"/>
<path d="M4.3335 17.3333H3.66683C3.57842 17.3333 3.49364 17.3684 3.43113 17.4309C3.36862 17.4934 3.3335 17.5782 3.3335 17.6666C3.3335 17.755 3.36862 17.8398 3.43113 17.9023C3.49364 17.9648 3.57842 17.9999 3.66683 17.9999H4.3335C4.4219 17.9999 4.50669 17.9648 4.5692 17.9023C4.63171 17.8398 4.66683 17.755 4.66683 17.6666C4.66683 17.5782 4.63171 17.4934 4.5692 17.4309C4.50669 17.3684 4.4219 17.3333 4.3335 17.3333Z" fill="#707070"/>
<path d="M6.3335 16H5.66683C5.57842 16 5.49364 16.0351 5.43113 16.0976C5.36861 16.1601 5.3335 16.2449 5.3335 16.3333C5.3335 16.4217 5.36861 16.5065 5.43113 16.569C5.49364 16.6315 5.57842 16.6667 5.66683 16.6667H6.3335C6.4219 16.6667 6.50669 16.6315 6.5692 16.569C6.63171 16.5065 6.66683 16.4217 6.66683 16.3333C6.66683 16.2449 6.63171 16.1601 6.5692 16.0976C6.50669 16.0351 6.4219 16 6.3335 16Z" fill="#707070"/>
<path d="M8.33325 16H7.66659C7.57818 16 7.4934 16.0351 7.43088 16.0976C7.36837 16.1601 7.33325 16.2449 7.33325 16.3333C7.33325 16.4217 7.36837 16.5065 7.43088 16.569C7.4934 16.6315 7.57818 16.6667 7.66659 16.6667H8.33325C8.42166 16.6667 8.50645 16.6315 8.56896 16.569C8.63147 16.5065 8.66659 16.4217 8.66659 16.3333C8.66659 16.2449 8.63147 16.1601 8.56896 16.0976C8.50645 16.0351 8.42166 16 8.33325 16Z" fill="#707070"/>
</g>
<defs>
<clipPath id="clip0_303:1161">
<rect width="20" height="20" fill="white"/>
</clipPath>
</defs>
</svg>
