<svg width="24px" height="24px" viewBox="0 0 24 24" fill="none" xmlns="http://www.w3.org/2000/svg">
<path fill-rule="evenodd" clip-rule="evenodd" d="M12 3.5C7.28986 3.5 3.5 7.1899 3.5 11.7071C3.5 14.0838 4.54603 16.2271 6.2249 17.7289C6.31701 17.8113 6.37534 17.9249 6.38864 18.0478L6.70243 20.9462C6.73215 21.2207 6.53369 21.4674 6.25915 21.4971C5.98462 21.5268 5.73796 21.3284 5.70824 21.0538L5.41479 18.3433C3.62078 16.6708 2.5 14.317 2.5 11.7071C2.5 6.60668 6.76902 2.5 12 2.5C15.0863 2.5 17.7762 3.83689 19.5165 6.06743C19.6775 6.27381 19.6521 6.56945 19.4582 6.74532L14.0482 11.6531C13.8719 11.8131 13.6073 11.8266 13.4156 11.6853L10.3489 9.42482L8.00341 13.3115L10.1084 11.6944C10.2829 11.5603 10.5246 11.5561 10.7037 11.6841L14.0166 14.0515L19.7983 7.67052C19.9076 7.5499 20.0688 7.49003 20.2303 7.51005C20.3919 7.53007 20.5335 7.62747 20.6101 7.77113C21.2947 9.056 21.5 10.2136 21.5 11.7071C21.5 16.8075 17.231 20.9141 12 20.9141C10.9256 20.9141 9.89175 20.7411 8.92713 20.4217C8.66499 20.3349 8.52284 20.052 8.60964 19.7899C8.69644 19.5278 8.97931 19.3856 9.24146 19.4724C10.1057 19.7585 11.0334 19.9141 12 19.9141C16.7101 19.9141 20.5 16.2242 20.5 11.7071C20.5 10.607 20.3821 9.75722 20.0355 8.898L14.4587 15.0529C14.2883 15.241 14.004 15.2715 13.7975 15.124L10.4238 12.7131L6.50993 15.7197C6.31928 15.8662 6.05139 15.8562 5.87214 15.696C5.69289 15.5358 5.65303 15.2707 5.77725 15.0649L9.77609 8.43863C9.84874 8.31823 9.96873 8.234 10.1067 8.20657C10.2446 8.17915 10.3877 8.21106 10.5008 8.29449L13.6795 10.6375L18.4328 6.32538C16.8861 4.55847 14.6156 3.5 12 3.5Z" fill="black"/>
</svg>
