<svg width="20" height="20" viewBox="0 0 20 20" fill="none" xmlns="http://www.w3.org/2000/svg">
<mask id="path-1-outside-1_106:1502" maskUnits="userSpaceOnUse" x="-0.648438" y="0.00146484" width="21" height="20" fill="black">
<rect fill="white" x="-0.648438" y="0.00146484" width="21" height="20"/>
<path d="M13.4356 12.6953H13.7219C13.7944 12.6953 13.8639 12.6665 13.9152 12.6152C13.9665 12.5639 13.9953 12.4944 13.9953 12.4219C13.9953 12.3494 13.9665 12.2798 13.9152 12.2285C13.8639 12.1772 13.7944 12.1484 13.7219 12.1484H13.7111V11.4062H14.4653C14.4824 11.4612 14.5171 11.5091 14.5641 11.5424C14.6111 11.5758 14.6677 11.5928 14.7252 11.5909C14.7978 11.5911 14.8675 11.5625 14.9191 11.5113C14.9706 11.4602 14.9998 11.3907 15.0001 11.3181V11.1341C14.9995 11.0611 14.9701 10.9914 14.9184 10.9399C14.8666 10.8885 14.7967 10.8595 14.7237 10.8594H13.4356C13.3998 10.8596 13.3643 10.8668 13.3312 10.8807C13.2982 10.8946 13.2682 10.9149 13.2429 10.9405C13.2177 10.966 13.1978 10.9962 13.1843 11.0294C13.1708 11.0627 13.1639 11.0982 13.1642 11.1341V12.4222C13.164 12.458 13.1708 12.4935 13.1844 12.5266C13.1979 12.5597 13.2179 12.5898 13.2431 12.6152C13.2683 12.6406 13.2983 12.6607 13.3314 12.6745C13.3644 12.6882 13.3999 12.6953 13.4356 12.6953Z"/>
<path fill-rule="evenodd" clip-rule="evenodd" d="M14.7266 15.1953H13.4375C13.365 15.1953 13.2954 15.1665 13.2442 15.1152C13.1929 15.0639 13.1641 14.9944 13.1641 14.9219V13.6328C13.1641 13.5603 13.1929 13.4907 13.2442 13.4395C13.2954 13.3882 13.365 13.3594 13.4375 13.3594H14.7266C14.7991 13.3594 14.8686 13.3882 14.9199 13.4395C14.9712 13.4907 15 13.5603 15 13.6328V14.9219C15 14.9944 14.9712 15.0639 14.9199 15.1152C14.8686 15.1665 14.7991 15.1953 14.7266 15.1953ZM14.4531 13.9062H13.7109V14.6484H14.4531V13.9062Z"/>
<path d="M13.7218 17.1484H13.711V16.4063H14.4504C14.4518 16.4782 14.4813 16.5467 14.5327 16.597C14.584 16.6474 14.653 16.6757 14.7249 16.6757C14.7969 16.6758 14.8659 16.6477 14.9174 16.5974C14.9688 16.5471 14.9985 16.4787 15 16.4068V16.1433C14.9998 16.0694 14.9708 15.9985 14.9192 15.9455C14.8676 15.8925 14.7975 15.8616 14.7236 15.8594H13.4355C13.3622 15.8618 13.2927 15.8929 13.2419 15.946C13.1912 15.9991 13.1632 16.0699 13.1641 16.1433V17.4314C13.164 17.4667 13.1711 17.5017 13.1848 17.5342C13.1985 17.5667 13.2187 17.5962 13.244 17.6208C13.2693 17.6454 13.2993 17.6647 13.3322 17.6775C13.3651 17.6903 13.4002 17.6964 13.4355 17.6953H13.7218C13.7943 17.6953 13.8639 17.6665 13.9151 17.6152C13.9664 17.564 13.9952 17.4944 13.9952 17.4219C13.9952 17.3494 13.9664 17.2798 13.9151 17.2285C13.8639 17.1773 13.7943 17.1484 13.7218 17.1484Z"/>
<path d="M14.5523 11.9957L15.3531 11.195C15.4044 11.1437 15.4741 11.1147 15.5466 11.1147C15.6191 11.1147 15.6887 11.1436 15.7399 11.1948C15.7912 11.2461 15.82 11.3157 15.82 11.3882C15.82 11.4607 15.7912 11.5303 15.7399 11.5816L14.7457 12.5758C14.7203 12.6012 14.6902 12.6213 14.657 12.6351C14.6238 12.6488 14.5883 12.6559 14.5524 12.6559C14.5165 12.6559 14.4809 12.6488 14.4477 12.6351C14.4145 12.6213 14.3844 12.6012 14.359 12.5758L13.922 12.1388C13.8966 12.1134 13.8765 12.0833 13.8627 12.0501C13.849 12.0169 13.8419 11.9814 13.8419 11.9455C13.8419 11.9096 13.849 11.874 13.8627 11.8408C13.8765 11.8076 13.8966 11.7775 13.922 11.7521C13.9474 11.7267 13.9775 11.7066 14.0107 11.6928C14.0439 11.6791 14.0795 11.672 14.1154 11.672C14.1513 11.672 14.1868 11.6791 14.22 11.6928C14.2532 11.7066 14.2833 11.7267 14.3087 11.7521L14.5523 11.9957Z"/>
<path d="M15.3531 16.2438L14.5523 17.0446L14.3087 16.8009C14.2833 16.7755 14.2532 16.7554 14.22 16.7417C14.1868 16.7279 14.1513 16.7208 14.1154 16.7208C14.0795 16.7208 14.0439 16.7279 14.0107 16.7417C13.9775 16.7554 13.9474 16.7755 13.922 16.8009C13.8966 16.8263 13.8765 16.8565 13.8627 16.8896C13.849 16.9228 13.8419 16.9584 13.8419 16.9943C13.8419 17.0302 13.849 17.0658 13.8627 17.0989C13.8765 17.1321 13.8966 17.1623 13.922 17.1877L14.359 17.6246C14.3844 17.65 14.4145 17.6701 14.4477 17.6839C14.4809 17.6976 14.5165 17.7047 14.5524 17.7047C14.5883 17.7047 14.6238 17.6976 14.657 17.6839C14.6902 17.6701 14.7203 17.65 14.7457 17.6246L15.7399 16.6304C15.7912 16.5791 15.82 16.5096 15.82 16.437C15.82 16.3645 15.7912 16.2949 15.7399 16.2437C15.6887 16.1924 15.6191 16.1636 15.5466 16.1636C15.4741 16.1636 15.4044 16.1925 15.3531 16.2438Z"/>
<path d="M16.4409 11.5234H18.1583C18.2309 11.5234 18.3004 11.5522 18.3517 11.6035C18.403 11.6548 18.4318 11.7244 18.4318 11.7969C18.4318 11.8694 18.403 11.9389 18.3517 11.9902C18.3004 12.0415 18.2309 12.0703 18.1583 12.0703H16.4409C16.3684 12.0703 16.2988 12.0415 16.2476 11.9902C16.1963 11.9389 16.1675 11.8694 16.1675 11.7969C16.1675 11.7244 16.1963 11.6548 16.2476 11.6035C16.2988 11.5522 16.3684 11.5234 16.4409 11.5234Z"/>
<path d="M18.1583 14.0234H16.4409C16.3684 14.0234 16.2988 14.0522 16.2476 14.1035C16.1963 14.1548 16.1675 14.2244 16.1675 14.2969C16.1675 14.3694 16.1963 14.4389 16.2476 14.4902C16.2988 14.5415 16.3684 14.5703 16.4409 14.5703H18.1583C18.2309 14.5703 18.3004 14.5415 18.3517 14.4902C18.403 14.4389 18.4318 14.3694 18.4318 14.2969C18.4318 14.2244 18.403 14.1548 18.3517 14.1035C18.3004 14.0522 18.2309 14.0234 18.1583 14.0234Z"/>
<path d="M16.4409 16.5234H18.1583C18.2309 16.5234 18.3004 16.5522 18.3517 16.6035C18.403 16.6548 18.4318 16.7244 18.4318 16.7969C18.4318 16.8694 18.403 16.9389 18.3517 16.9902C18.3004 17.0415 18.2309 17.0703 18.1583 17.0703H16.4409C16.3684 17.0703 16.2988 17.0415 16.2476 16.9902C16.1963 16.9389 16.1675 16.8694 16.1675 16.7969C16.1675 16.7244 16.1963 16.6548 16.2476 16.6035C16.2988 16.5522 16.3684 16.5234 16.4409 16.5234Z"/>
<path fill-rule="evenodd" clip-rule="evenodd" d="M18.4733 8.75014H17.5003C17.4448 8.54951 17.3256 8.37237 17.1606 8.24551C16.9955 8.11866 16.7937 8.04898 16.5855 8.04702H15.5469V5.50702C15.548 5.4595 15.5366 5.41253 15.5136 5.37092C15.4906 5.32931 15.457 5.29455 15.4162 5.27022L8.08895 1.03811C8.04765 1.01411 8.00074 1.00146 7.95297 1.00146C7.9052 1.00146 7.85829 1.01411 7.81699 1.03811L0.487503 5.27022C0.446031 5.29426 0.411628 5.32881 0.387763 5.37038C0.363897 5.41195 0.351412 5.45908 0.351564 5.50702V13.9713C0.351566 14.0193 0.364202 14.0664 0.388201 14.108C0.4122 14.1496 0.446717 14.1841 0.488284 14.2081L7.81852 18.4402C7.86008 18.4642 7.90724 18.4768 7.95524 18.4768C8.00448 18.4769 8.0529 18.4642 8.09586 18.4402L11.9531 16.2153V17.8237C11.9527 17.9768 11.9827 18.1285 12.0413 18.2699C12.1 18.4114 12.186 18.5398 12.2946 18.6478C12.4032 18.7558 12.5322 18.8411 12.674 18.8989C12.8158 18.9567 12.9676 18.9858 13.1207 18.9845H18.4733C18.6268 18.9859 18.7791 18.957 18.9214 18.8993C19.0637 18.8417 19.1931 18.7565 19.3024 18.6486C19.4116 18.5407 19.4984 18.4122 19.5578 18.2707C19.6172 18.1291 19.648 17.9772 19.6484 17.8237V9.92913C19.6483 9.61716 19.5245 9.31797 19.3043 9.09702C19.084 8.87606 18.7852 8.75134 18.4733 8.75014ZM16.5953 8.59389C16.7005 8.59389 16.8015 8.63571 16.8759 8.71015C16.9504 8.78458 16.9922 8.88554 16.9922 8.99081V9.01729C16.9922 9.12256 16.9504 9.22352 16.8759 9.29795C16.8015 9.37239 16.7005 9.41421 16.5953 9.41421H15.0063C14.901 9.41421 14.8001 9.37239 14.7256 9.29795C14.6512 9.22352 14.6094 9.12256 14.6094 9.01729V8.99081C14.6094 8.88554 14.6512 8.78458 14.7256 8.71015C14.8001 8.63571 14.901 8.59389 15.0063 8.59389H16.5953ZM7.95524 1.59065L11.0011 3.34917L4.21821 7.26526L1.17239 5.50675L7.95524 1.59065ZM7.69531 17.7298L0.89844 13.8134V5.98003L7.69531 9.89639V17.7298ZM7.95524 9.4228L4.76508 7.58096L11.548 3.66491L14.7383 5.50675L7.95524 9.4228ZM11.9531 9.92913V15.5839L8.24219 17.7298V9.89639L15 5.98003V8.04702H15.0085C14.8003 8.04897 14.5985 8.11865 14.4334 8.2455C14.2684 8.37236 14.1492 8.5495 14.0938 8.75014H13.1207C12.8096 8.75165 12.5117 8.87671 12.2928 9.09782C12.0738 9.31892 11.9516 9.61795 11.9531 9.92913ZM19.1016 17.8237C19.1012 17.9054 19.0846 17.9862 19.0527 18.0615C19.0208 18.1368 18.9743 18.2049 18.9158 18.2621C18.8574 18.3192 18.7882 18.3641 18.7122 18.3943C18.6362 18.4244 18.555 18.4391 18.4733 18.4376H13.1207C13.0394 18.439 12.9586 18.4241 12.8832 18.3938C12.8077 18.3635 12.739 18.3185 12.6812 18.2613C12.6233 18.2041 12.5775 18.1359 12.5464 18.0608C12.5153 17.9856 12.4995 17.905 12.5 17.8237V9.92913C12.4992 9.84684 12.5146 9.7652 12.5454 9.68888C12.5761 9.61256 12.6216 9.54305 12.6793 9.48434C12.7369 9.42563 12.8056 9.37886 12.8814 9.34672C12.9571 9.31458 13.0385 9.29769 13.1207 9.29702H14.1044C14.1631 9.49057 14.2829 9.6599 14.4458 9.77962C14.6088 9.89934 14.8062 9.96301 15.0085 9.96108H16.5855C16.7878 9.96302 16.9852 9.89935 17.1482 9.77962C17.3112 9.6599 17.4309 9.49057 17.4896 9.29702H18.4733C18.6403 9.29807 18.8 9.36513 18.9177 9.48355C19.0354 9.60198 19.1015 9.76216 19.1016 9.92913V17.8237Z"/>
</mask>
<path d="M13.4356 12.6953H13.7219C13.7944 12.6953 13.8639 12.6665 13.9152 12.6152C13.9665 12.5639 13.9953 12.4944 13.9953 12.4219C13.9953 12.3494 13.9665 12.2798 13.9152 12.2285C13.8639 12.1772 13.7944 12.1484 13.7219 12.1484H13.7111V11.4062H14.4653C14.4824 11.4612 14.5171 11.5091 14.5641 11.5424C14.6111 11.5758 14.6677 11.5928 14.7252 11.5909C14.7978 11.5911 14.8675 11.5625 14.9191 11.5113C14.9706 11.4602 14.9998 11.3907 15.0001 11.3181V11.1341C14.9995 11.0611 14.9701 10.9914 14.9184 10.9399C14.8666 10.8885 14.7967 10.8595 14.7237 10.8594H13.4356C13.3998 10.8596 13.3643 10.8668 13.3312 10.8807C13.2982 10.8946 13.2682 10.9149 13.2429 10.9405C13.2177 10.966 13.1978 10.9962 13.1843 11.0294C13.1708 11.0627 13.1639 11.0982 13.1642 11.1341V12.4222C13.164 12.458 13.1708 12.4935 13.1844 12.5266C13.1979 12.5597 13.2179 12.5898 13.2431 12.6152C13.2683 12.6406 13.2983 12.6607 13.3314 12.6745C13.3644 12.6882 13.3999 12.6953 13.4356 12.6953Z" fill="white"/>
<path fill-rule="evenodd" clip-rule="evenodd" d="M14.7266 15.1953H13.4375C13.365 15.1953 13.2954 15.1665 13.2442 15.1152C13.1929 15.0639 13.1641 14.9944 13.1641 14.9219V13.6328C13.1641 13.5603 13.1929 13.4907 13.2442 13.4395C13.2954 13.3882 13.365 13.3594 13.4375 13.3594H14.7266C14.7991 13.3594 14.8686 13.3882 14.9199 13.4395C14.9712 13.4907 15 13.5603 15 13.6328V14.9219C15 14.9944 14.9712 15.0639 14.9199 15.1152C14.8686 15.1665 14.7991 15.1953 14.7266 15.1953ZM14.4531 13.9062H13.7109V14.6484H14.4531V13.9062Z" fill="white"/>
<path d="M13.7218 17.1484H13.711V16.4063H14.4504C14.4518 16.4782 14.4813 16.5467 14.5327 16.597C14.584 16.6474 14.653 16.6757 14.7249 16.6757C14.7969 16.6758 14.8659 16.6477 14.9174 16.5974C14.9688 16.5471 14.9985 16.4787 15 16.4068V16.1433C14.9998 16.0694 14.9708 15.9985 14.9192 15.9455C14.8676 15.8925 14.7975 15.8616 14.7236 15.8594H13.4355C13.3622 15.8618 13.2927 15.8929 13.2419 15.946C13.1912 15.9991 13.1632 16.0699 13.1641 16.1433V17.4314C13.164 17.4667 13.1711 17.5017 13.1848 17.5342C13.1985 17.5667 13.2187 17.5962 13.244 17.6208C13.2693 17.6454 13.2993 17.6647 13.3322 17.6775C13.3651 17.6903 13.4002 17.6964 13.4355 17.6953H13.7218C13.7943 17.6953 13.8639 17.6665 13.9151 17.6152C13.9664 17.564 13.9952 17.4944 13.9952 17.4219C13.9952 17.3494 13.9664 17.2798 13.9151 17.2285C13.8639 17.1773 13.7943 17.1484 13.7218 17.1484Z" fill="white"/>
<path d="M14.5523 11.9957L15.3531 11.195C15.4044 11.1437 15.4741 11.1147 15.5466 11.1147C15.6191 11.1147 15.6887 11.1436 15.7399 11.1948C15.7912 11.2461 15.82 11.3157 15.82 11.3882C15.82 11.4607 15.7912 11.5303 15.7399 11.5816L14.7457 12.5758C14.7203 12.6012 14.6902 12.6213 14.657 12.6351C14.6238 12.6488 14.5883 12.6559 14.5524 12.6559C14.5165 12.6559 14.4809 12.6488 14.4477 12.6351C14.4145 12.6213 14.3844 12.6012 14.359 12.5758L13.922 12.1388C13.8966 12.1134 13.8765 12.0833 13.8627 12.0501C13.849 12.0169 13.8419 11.9814 13.8419 11.9455C13.8419 11.9096 13.849 11.874 13.8627 11.8408C13.8765 11.8076 13.8966 11.7775 13.922 11.7521C13.9474 11.7267 13.9775 11.7066 14.0107 11.6928C14.0439 11.6791 14.0795 11.672 14.1154 11.672C14.1513 11.672 14.1868 11.6791 14.22 11.6928C14.2532 11.7066 14.2833 11.7267 14.3087 11.7521L14.5523 11.9957Z" fill="white"/>
<path d="M15.3531 16.2438L14.5523 17.0446L14.3087 16.8009C14.2833 16.7755 14.2532 16.7554 14.22 16.7417C14.1868 16.7279 14.1513 16.7208 14.1154 16.7208C14.0795 16.7208 14.0439 16.7279 14.0107 16.7417C13.9775 16.7554 13.9474 16.7755 13.922 16.8009C13.8966 16.8263 13.8765 16.8565 13.8627 16.8896C13.849 16.9228 13.8419 16.9584 13.8419 16.9943C13.8419 17.0302 13.849 17.0658 13.8627 17.0989C13.8765 17.1321 13.8966 17.1623 13.922 17.1877L14.359 17.6246C14.3844 17.65 14.4145 17.6701 14.4477 17.6839C14.4809 17.6976 14.5165 17.7047 14.5524 17.7047C14.5883 17.7047 14.6238 17.6976 14.657 17.6839C14.6902 17.6701 14.7203 17.65 14.7457 17.6246L15.7399 16.6304C15.7912 16.5791 15.82 16.5096 15.82 16.437C15.82 16.3645 15.7912 16.2949 15.7399 16.2437C15.6887 16.1924 15.6191 16.1636 15.5466 16.1636C15.4741 16.1636 15.4044 16.1925 15.3531 16.2438Z" fill="white"/>
<path d="M16.4409 11.5234H18.1583C18.2309 11.5234 18.3004 11.5522 18.3517 11.6035C18.403 11.6548 18.4318 11.7244 18.4318 11.7969C18.4318 11.8694 18.403 11.9389 18.3517 11.9902C18.3004 12.0415 18.2309 12.0703 18.1583 12.0703H16.4409C16.3684 12.0703 16.2988 12.0415 16.2476 11.9902C16.1963 11.9389 16.1675 11.8694 16.1675 11.7969C16.1675 11.7244 16.1963 11.6548 16.2476 11.6035C16.2988 11.5522 16.3684 11.5234 16.4409 11.5234Z" fill="white"/>
<path d="M18.1583 14.0234H16.4409C16.3684 14.0234 16.2988 14.0522 16.2476 14.1035C16.1963 14.1548 16.1675 14.2244 16.1675 14.2969C16.1675 14.3694 16.1963 14.4389 16.2476 14.4902C16.2988 14.5415 16.3684 14.5703 16.4409 14.5703H18.1583C18.2309 14.5703 18.3004 14.5415 18.3517 14.4902C18.403 14.4389 18.4318 14.3694 18.4318 14.2969C18.4318 14.2244 18.403 14.1548 18.3517 14.1035C18.3004 14.0522 18.2309 14.0234 18.1583 14.0234Z" fill="white"/>
<path d="M16.4409 16.5234H18.1583C18.2309 16.5234 18.3004 16.5522 18.3517 16.6035C18.403 16.6548 18.4318 16.7244 18.4318 16.7969C18.4318 16.8694 18.403 16.9389 18.3517 16.9902C18.3004 17.0415 18.2309 17.0703 18.1583 17.0703H16.4409C16.3684 17.0703 16.2988 17.0415 16.2476 16.9902C16.1963 16.9389 16.1675 16.8694 16.1675 16.7969C16.1675 16.7244 16.1963 16.6548 16.2476 16.6035C16.2988 16.5522 16.3684 16.5234 16.4409 16.5234Z" fill="white"/>
<path fill-rule="evenodd" clip-rule="evenodd" d="M18.4733 8.75014H17.5003C17.4448 8.54951 17.3256 8.37237 17.1606 8.24551C16.9955 8.11866 16.7937 8.04898 16.5855 8.04702H15.5469V5.50702C15.548 5.4595 15.5366 5.41253 15.5136 5.37092C15.4906 5.32931 15.457 5.29455 15.4162 5.27022L8.08895 1.03811C8.04765 1.01411 8.00074 1.00146 7.95297 1.00146C7.9052 1.00146 7.85829 1.01411 7.81699 1.03811L0.487503 5.27022C0.446031 5.29426 0.411628 5.32881 0.387763 5.37038C0.363897 5.41195 0.351412 5.45908 0.351564 5.50702V13.9713C0.351566 14.0193 0.364202 14.0664 0.388201 14.108C0.4122 14.1496 0.446717 14.1841 0.488284 14.2081L7.81852 18.4402C7.86008 18.4642 7.90724 18.4768 7.95524 18.4768C8.00448 18.4769 8.0529 18.4642 8.09586 18.4402L11.9531 16.2153V17.8237C11.9527 17.9768 11.9827 18.1285 12.0413 18.2699C12.1 18.4114 12.186 18.5398 12.2946 18.6478C12.4032 18.7558 12.5322 18.8411 12.674 18.8989C12.8158 18.9567 12.9676 18.9858 13.1207 18.9845H18.4733C18.6268 18.9859 18.7791 18.957 18.9214 18.8993C19.0637 18.8417 19.1931 18.7565 19.3024 18.6486C19.4116 18.5407 19.4984 18.4122 19.5578 18.2707C19.6172 18.1291 19.648 17.9772 19.6484 17.8237V9.92913C19.6483 9.61716 19.5245 9.31797 19.3043 9.09702C19.084 8.87606 18.7852 8.75134 18.4733 8.75014ZM16.5953 8.59389C16.7005 8.59389 16.8015 8.63571 16.8759 8.71015C16.9504 8.78458 16.9922 8.88554 16.9922 8.99081V9.01729C16.9922 9.12256 16.9504 9.22352 16.8759 9.29795C16.8015 9.37239 16.7005 9.41421 16.5953 9.41421H15.0063C14.901 9.41421 14.8001 9.37239 14.7256 9.29795C14.6512 9.22352 14.6094 9.12256 14.6094 9.01729V8.99081C14.6094 8.88554 14.6512 8.78458 14.7256 8.71015C14.8001 8.63571 14.901 8.59389 15.0063 8.59389H16.5953ZM7.95524 1.59065L11.0011 3.34917L4.21821 7.26526L1.17239 5.50675L7.95524 1.59065ZM7.69531 17.7298L0.89844 13.8134V5.98003L7.69531 9.89639V17.7298ZM7.95524 9.4228L4.76508 7.58096L11.548 3.66491L14.7383 5.50675L7.95524 9.4228ZM11.9531 9.92913V15.5839L8.24219 17.7298V9.89639L15 5.98003V8.04702H15.0085C14.8003 8.04897 14.5985 8.11865 14.4334 8.2455C14.2684 8.37236 14.1492 8.5495 14.0938 8.75014H13.1207C12.8096 8.75165 12.5117 8.87671 12.2928 9.09782C12.0738 9.31892 11.9516 9.61795 11.9531 9.92913ZM19.1016 17.8237C19.1012 17.9054 19.0846 17.9862 19.0527 18.0615C19.0208 18.1368 18.9743 18.2049 18.9158 18.2621C18.8574 18.3192 18.7882 18.3641 18.7122 18.3943C18.6362 18.4244 18.555 18.4391 18.4733 18.4376H13.1207C13.0394 18.439 12.9586 18.4241 12.8832 18.3938C12.8077 18.3635 12.739 18.3185 12.6812 18.2613C12.6233 18.2041 12.5775 18.1359 12.5464 18.0608C12.5153 17.9856 12.4995 17.905 12.5 17.8237V9.92913C12.4992 9.84684 12.5146 9.7652 12.5454 9.68888C12.5761 9.61256 12.6216 9.54305 12.6793 9.48434C12.7369 9.42563 12.8056 9.37886 12.8814 9.34672C12.9571 9.31458 13.0385 9.29769 13.1207 9.29702H14.1044C14.1631 9.49057 14.2829 9.6599 14.4458 9.77962C14.6088 9.89934 14.8062 9.96301 15.0085 9.96108H16.5855C16.7878 9.96302 16.9852 9.89935 17.1482 9.77962C17.3112 9.6599 17.4309 9.49057 17.4896 9.29702H18.4733C18.6403 9.29807 18.8 9.36513 18.9177 9.48355C19.0354 9.60198 19.1015 9.76216 19.1016 9.92913V17.8237Z" fill="white"/>
<path d="M13.4356 12.6953H13.7219C13.7944 12.6953 13.8639 12.6665 13.9152 12.6152C13.9665 12.5639 13.9953 12.4944 13.9953 12.4219C13.9953 12.3494 13.9665 12.2798 13.9152 12.2285C13.8639 12.1772 13.7944 12.1484 13.7219 12.1484H13.7111V11.4062H14.4653C14.4824 11.4612 14.5171 11.5091 14.5641 11.5424C14.6111 11.5758 14.6677 11.5928 14.7252 11.5909C14.7978 11.5911 14.8675 11.5625 14.9191 11.5113C14.9706 11.4602 14.9998 11.3907 15.0001 11.3181V11.1341C14.9995 11.0611 14.9701 10.9914 14.9184 10.9399C14.8666 10.8885 14.7967 10.8595 14.7237 10.8594H13.4356C13.3998 10.8596 13.3643 10.8668 13.3312 10.8807C13.2982 10.8946 13.2682 10.9149 13.2429 10.9405C13.2177 10.966 13.1978 10.9962 13.1843 11.0294C13.1708 11.0627 13.1639 11.0982 13.1642 11.1341V12.4222C13.164 12.458 13.1708 12.4935 13.1844 12.5266C13.1979 12.5597 13.2179 12.5898 13.2431 12.6152C13.2683 12.6406 13.2983 12.6607 13.3314 12.6745C13.3644 12.6882 13.3999 12.6953 13.4356 12.6953Z" stroke="white" stroke-width="0.2" mask="url(#path-1-outside-1_106:1502)"/>
<path fill-rule="evenodd" clip-rule="evenodd" d="M14.7266 15.1953H13.4375C13.365 15.1953 13.2954 15.1665 13.2442 15.1152C13.1929 15.0639 13.1641 14.9944 13.1641 14.9219V13.6328C13.1641 13.5603 13.1929 13.4907 13.2442 13.4395C13.2954 13.3882 13.365 13.3594 13.4375 13.3594H14.7266C14.7991 13.3594 14.8686 13.3882 14.9199 13.4395C14.9712 13.4907 15 13.5603 15 13.6328V14.9219C15 14.9944 14.9712 15.0639 14.9199 15.1152C14.8686 15.1665 14.7991 15.1953 14.7266 15.1953ZM14.4531 13.9062H13.7109V14.6484H14.4531V13.9062Z" stroke="white" stroke-width="0.2" mask="url(#path-1-outside-1_106:1502)"/>
<path d="M13.7218 17.1484H13.711V16.4063H14.4504C14.4518 16.4782 14.4813 16.5467 14.5327 16.597C14.584 16.6474 14.653 16.6757 14.7249 16.6757C14.7969 16.6758 14.8659 16.6477 14.9174 16.5974C14.9688 16.5471 14.9985 16.4787 15 16.4068V16.1433C14.9998 16.0694 14.9708 15.9985 14.9192 15.9455C14.8676 15.8925 14.7975 15.8616 14.7236 15.8594H13.4355C13.3622 15.8618 13.2927 15.8929 13.2419 15.946C13.1912 15.9991 13.1632 16.0699 13.1641 16.1433V17.4314C13.164 17.4667 13.1711 17.5017 13.1848 17.5342C13.1985 17.5667 13.2187 17.5962 13.244 17.6208C13.2693 17.6454 13.2993 17.6647 13.3322 17.6775C13.3651 17.6903 13.4002 17.6964 13.4355 17.6953H13.7218C13.7943 17.6953 13.8639 17.6665 13.9151 17.6152C13.9664 17.564 13.9952 17.4944 13.9952 17.4219C13.9952 17.3494 13.9664 17.2798 13.9151 17.2285C13.8639 17.1773 13.7943 17.1484 13.7218 17.1484Z" stroke="white" stroke-width="0.2" mask="url(#path-1-outside-1_106:1502)"/>
<path d="M14.5523 11.9957L15.3531 11.195C15.4044 11.1437 15.4741 11.1147 15.5466 11.1147C15.6191 11.1147 15.6887 11.1436 15.7399 11.1948C15.7912 11.2461 15.82 11.3157 15.82 11.3882C15.82 11.4607 15.7912 11.5303 15.7399 11.5816L14.7457 12.5758C14.7203 12.6012 14.6902 12.6213 14.657 12.6351C14.6238 12.6488 14.5883 12.6559 14.5524 12.6559C14.5165 12.6559 14.4809 12.6488 14.4477 12.6351C14.4145 12.6213 14.3844 12.6012 14.359 12.5758L13.922 12.1388C13.8966 12.1134 13.8765 12.0833 13.8627 12.0501C13.849 12.0169 13.8419 11.9814 13.8419 11.9455C13.8419 11.9096 13.849 11.874 13.8627 11.8408C13.8765 11.8076 13.8966 11.7775 13.922 11.7521C13.9474 11.7267 13.9775 11.7066 14.0107 11.6928C14.0439 11.6791 14.0795 11.672 14.1154 11.672C14.1513 11.672 14.1868 11.6791 14.22 11.6928C14.2532 11.7066 14.2833 11.7267 14.3087 11.7521L14.5523 11.9957Z" stroke="white" stroke-width="0.2" mask="url(#path-1-outside-1_106:1502)"/>
<path d="M15.3531 16.2438L14.5523 17.0446L14.3087 16.8009C14.2833 16.7755 14.2532 16.7554 14.22 16.7417C14.1868 16.7279 14.1513 16.7208 14.1154 16.7208C14.0795 16.7208 14.0439 16.7279 14.0107 16.7417C13.9775 16.7554 13.9474 16.7755 13.922 16.8009C13.8966 16.8263 13.8765 16.8565 13.8627 16.8896C13.849 16.9228 13.8419 16.9584 13.8419 16.9943C13.8419 17.0302 13.849 17.0658 13.8627 17.0989C13.8765 17.1321 13.8966 17.1623 13.922 17.1877L14.359 17.6246C14.3844 17.65 14.4145 17.6701 14.4477 17.6839C14.4809 17.6976 14.5165 17.7047 14.5524 17.7047C14.5883 17.7047 14.6238 17.6976 14.657 17.6839C14.6902 17.6701 14.7203 17.65 14.7457 17.6246L15.7399 16.6304C15.7912 16.5791 15.82 16.5096 15.82 16.437C15.82 16.3645 15.7912 16.2949 15.7399 16.2437C15.6887 16.1924 15.6191 16.1636 15.5466 16.1636C15.4741 16.1636 15.4044 16.1925 15.3531 16.2438Z" stroke="white" stroke-width="0.2" mask="url(#path-1-outside-1_106:1502)"/>
<path d="M16.4409 11.5234H18.1583C18.2309 11.5234 18.3004 11.5522 18.3517 11.6035C18.403 11.6548 18.4318 11.7244 18.4318 11.7969C18.4318 11.8694 18.403 11.9389 18.3517 11.9902C18.3004 12.0415 18.2309 12.0703 18.1583 12.0703H16.4409C16.3684 12.0703 16.2988 12.0415 16.2476 11.9902C16.1963 11.9389 16.1675 11.8694 16.1675 11.7969C16.1675 11.7244 16.1963 11.6548 16.2476 11.6035C16.2988 11.5522 16.3684 11.5234 16.4409 11.5234Z" stroke="white" stroke-width="0.2" mask="url(#path-1-outside-1_106:1502)"/>
<path d="M18.1583 14.0234H16.4409C16.3684 14.0234 16.2988 14.0522 16.2476 14.1035C16.1963 14.1548 16.1675 14.2244 16.1675 14.2969C16.1675 14.3694 16.1963 14.4389 16.2476 14.4902C16.2988 14.5415 16.3684 14.5703 16.4409 14.5703H18.1583C18.2309 14.5703 18.3004 14.5415 18.3517 14.4902C18.403 14.4389 18.4318 14.3694 18.4318 14.2969C18.4318 14.2244 18.403 14.1548 18.3517 14.1035C18.3004 14.0522 18.2309 14.0234 18.1583 14.0234Z" stroke="white" stroke-width="0.2" mask="url(#path-1-outside-1_106:1502)"/>
<path d="M16.4409 16.5234H18.1583C18.2309 16.5234 18.3004 16.5522 18.3517 16.6035C18.403 16.6548 18.4318 16.7244 18.4318 16.7969C18.4318 16.8694 18.403 16.9389 18.3517 16.9902C18.3004 17.0415 18.2309 17.0703 18.1583 17.0703H16.4409C16.3684 17.0703 16.2988 17.0415 16.2476 16.9902C16.1963 16.9389 16.1675 16.8694 16.1675 16.7969C16.1675 16.7244 16.1963 16.6548 16.2476 16.6035C16.2988 16.5522 16.3684 16.5234 16.4409 16.5234Z" stroke="white" stroke-width="0.2" mask="url(#path-1-outside-1_106:1502)"/>
<path fill-rule="evenodd" clip-rule="evenodd" d="M18.4733 8.75014H17.5003C17.4448 8.54951 17.3256 8.37237 17.1606 8.24551C16.9955 8.11866 16.7937 8.04898 16.5855 8.04702H15.5469V5.50702C15.548 5.4595 15.5366 5.41253 15.5136 5.37092C15.4906 5.32931 15.457 5.29455 15.4162 5.27022L8.08895 1.03811C8.04765 1.01411 8.00074 1.00146 7.95297 1.00146C7.9052 1.00146 7.85829 1.01411 7.81699 1.03811L0.487503 5.27022C0.446031 5.29426 0.411628 5.32881 0.387763 5.37038C0.363897 5.41195 0.351412 5.45908 0.351564 5.50702V13.9713C0.351566 14.0193 0.364202 14.0664 0.388201 14.108C0.4122 14.1496 0.446717 14.1841 0.488284 14.2081L7.81852 18.4402C7.86008 18.4642 7.90724 18.4768 7.95524 18.4768C8.00448 18.4769 8.0529 18.4642 8.09586 18.4402L11.9531 16.2153V17.8237C11.9527 17.9768 11.9827 18.1285 12.0413 18.2699C12.1 18.4114 12.186 18.5398 12.2946 18.6478C12.4032 18.7558 12.5322 18.8411 12.674 18.8989C12.8158 18.9567 12.9676 18.9858 13.1207 18.9845H18.4733C18.6268 18.9859 18.7791 18.957 18.9214 18.8993C19.0637 18.8417 19.1931 18.7565 19.3024 18.6486C19.4116 18.5407 19.4984 18.4122 19.5578 18.2707C19.6172 18.1291 19.648 17.9772 19.6484 17.8237V9.92913C19.6483 9.61716 19.5245 9.31797 19.3043 9.09702C19.084 8.87606 18.7852 8.75134 18.4733 8.75014ZM16.5953 8.59389C16.7005 8.59389 16.8015 8.63571 16.8759 8.71015C16.9504 8.78458 16.9922 8.88554 16.9922 8.99081V9.01729C16.9922 9.12256 16.9504 9.22352 16.8759 9.29795C16.8015 9.37239 16.7005 9.41421 16.5953 9.41421H15.0063C14.901 9.41421 14.8001 9.37239 14.7256 9.29795C14.6512 9.22352 14.6094 9.12256 14.6094 9.01729V8.99081C14.6094 8.88554 14.6512 8.78458 14.7256 8.71015C14.8001 8.63571 14.901 8.59389 15.0063 8.59389H16.5953ZM7.95524 1.59065L11.0011 3.34917L4.21821 7.26526L1.17239 5.50675L7.95524 1.59065ZM7.69531 17.7298L0.89844 13.8134V5.98003L7.69531 9.89639V17.7298ZM7.95524 9.4228L4.76508 7.58096L11.548 3.66491L14.7383 5.50675L7.95524 9.4228ZM11.9531 9.92913V15.5839L8.24219 17.7298V9.89639L15 5.98003V8.04702H15.0085C14.8003 8.04897 14.5985 8.11865 14.4334 8.2455C14.2684 8.37236 14.1492 8.5495 14.0938 8.75014H13.1207C12.8096 8.75165 12.5117 8.87671 12.2928 9.09782C12.0738 9.31892 11.9516 9.61795 11.9531 9.92913ZM19.1016 17.8237C19.1012 17.9054 19.0846 17.9862 19.0527 18.0615C19.0208 18.1368 18.9743 18.2049 18.9158 18.2621C18.8574 18.3192 18.7882 18.3641 18.7122 18.3943C18.6362 18.4244 18.555 18.4391 18.4733 18.4376H13.1207C13.0394 18.439 12.9586 18.4241 12.8832 18.3938C12.8077 18.3635 12.739 18.3185 12.6812 18.2613C12.6233 18.2041 12.5775 18.1359 12.5464 18.0608C12.5153 17.9856 12.4995 17.905 12.5 17.8237V9.92913C12.4992 9.84684 12.5146 9.7652 12.5454 9.68888C12.5761 9.61256 12.6216 9.54305 12.6793 9.48434C12.7369 9.42563 12.8056 9.37886 12.8814 9.34672C12.9571 9.31458 13.0385 9.29769 13.1207 9.29702H14.1044C14.1631 9.49057 14.2829 9.6599 14.4458 9.77962C14.6088 9.89934 14.8062 9.96301 15.0085 9.96108H16.5855C16.7878 9.96302 16.9852 9.89935 17.1482 9.77962C17.3112 9.6599 17.4309 9.49057 17.4896 9.29702H18.4733C18.6403 9.29807 18.8 9.36513 18.9177 9.48355C19.0354 9.60198 19.1015 9.76216 19.1016 9.92913V17.8237Z" stroke="white" stroke-width="0.2" mask="url(#path-1-outside-1_106:1502)"/>
</svg>
