<svg width="20" height="20" viewBox="0 0 20 20" fill="none" xmlns="http://www.w3.org/2000/svg">
<path d="M8.4375 20H11.5625C11.994 20 12.3438 19.6502 12.3438 19.2188C12.3438 18.7873 11.994 18.4375 11.5625 18.4375H8.4375C8.00602 18.4375 7.65625 18.7873 7.65625 19.2188C7.65625 19.6502 8.00602 20 8.4375 20Z" fill="#303030"/>
<path d="M10 0C9.56852 0 9.21875 0.349766 9.21875 0.78125V1.61855C6.57207 1.99879 4.53125 4.28102 4.53125 7.03125V11.8342C4.53125 12.1095 4.40723 12.36 4.2227 12.4575C3.44922 12.8659 2.96875 13.6605 2.96875 14.5312C2.96875 15.8236 4.02016 16.875 5.3125 16.875H14.6875C15.9798 16.875 17.0312 15.8236 17.0312 14.5312C17.0312 13.6605 16.5508 12.8659 15.7773 12.4575C15.5927 12.36 15.4688 12.1096 15.4688 11.8342V7.03125C15.4688 4.28102 13.4279 1.99879 10.7812 1.61855V0.78125C10.7812 0.349766 10.4315 0 10 0V0ZM13.9062 7.03125V11.8342C13.9062 12.6991 14.3436 13.4674 15.0477 13.8392C15.3074 13.9763 15.4688 14.2415 15.4688 14.5312C15.4688 14.962 15.1183 15.3125 14.6875 15.3125H5.3125C4.88172 15.3125 4.53125 14.962 4.53125 14.5312C4.53125 14.2415 4.69258 13.9763 4.95227 13.8392C5.65637 13.4674 6.09375 12.6991 6.09375 11.8342V7.03125C6.09375 4.87734 7.84609 3.125 10 3.125C12.1539 3.125 13.9062 4.87734 13.9062 7.03125Z" fill="#303030"/>
</svg>
