<svg width="62" height="15" viewBox="0 0 62 15" fill="none" xmlns="http://www.w3.org/2000/svg">
<path fill-rule="evenodd" clip-rule="evenodd" d="M5.40243 3.53076H9.63323C11.9048 3.53076 12.7599 4.68074 12.6278 6.37022C12.4093 9.15944 10.7231 10.7026 8.48652 10.7026H7.35729C7.05041 10.7026 6.844 10.9057 6.761 11.4561L6.28157 14.656C6.2499 14.8635 6.14069 14.9836 5.97688 15H3.31871C3.06861 15 2.98015 14.8089 3.04568 14.395L4.66636 4.13688C4.7297 3.72625 4.95467 3.53076 5.40243 3.53076Z" fill="#009EE3"/>
<path fill-rule="evenodd" clip-rule="evenodd" d="M23.7704 3.34082C25.1978 3.34082 26.5149 4.11512 26.3347 6.04486C26.1162 8.33827 24.8876 9.60729 22.9492 9.61275H21.2553C21.0118 9.61275 20.8938 9.81151 20.8305 10.2189L20.5029 12.3015C20.4537 12.616 20.2921 12.7711 20.054 12.7711H18.4781C18.2269 12.7711 18.1396 12.6106 18.1953 12.2513L19.4959 3.90434C19.5604 3.49371 19.7144 3.34082 19.995 3.34082H23.7671H23.7704ZM21.204 7.80969H22.4872C23.2899 7.77911 23.8228 7.22323 23.8764 6.22069C23.9091 5.60147 23.4908 5.15807 22.8258 5.16135L21.6179 5.16681L21.204 7.80969ZM30.619 12.1322C30.7631 12.0012 30.9095 11.9335 30.8887 12.0951L30.8374 12.4817C30.8112 12.6837 30.8909 12.7908 31.0788 12.7908H32.4788C32.7147 12.7908 32.8294 12.6957 32.8873 12.331L33.75 6.91635C33.7937 6.64442 33.7271 6.51119 33.5207 6.51119H31.9808C31.8421 6.51119 31.7744 6.58872 31.7384 6.80059L31.6816 7.13368C31.6521 7.30732 31.5724 7.33791 31.4981 7.16317C31.2371 6.54504 30.5709 6.26765 29.6415 6.28949C27.4825 6.33427 26.0267 7.97351 25.8705 10.0747C25.7504 11.6998 26.9146 12.9764 28.4501 12.9764C29.564 12.9764 30.062 12.6488 30.6233 12.1355L30.619 12.1322ZM29.4461 11.299C28.5167 11.299 27.8691 10.5574 28.0034 9.64879C28.1377 8.74016 29.007 7.99862 29.9364 7.99862C30.8658 7.99862 31.5134 8.74016 31.3791 9.64879C31.2448 10.5574 30.3765 11.299 29.4461 11.299ZM36.4901 6.49371H35.0704C34.7777 6.49371 34.6587 6.71213 34.7515 6.98079L36.5141 12.1421L34.7853 14.5982C34.6401 14.8035 34.7526 14.9902 34.9568 14.9902H36.5524C36.6453 15.001 36.7395 14.9848 36.8235 14.9435C36.9075 14.9023 36.9779 14.8378 37.0263 14.7576L42.4475 6.98188C42.6146 6.74271 42.536 6.49153 42.2619 6.49153H40.7515C40.4927 6.49153 40.3889 6.59419 40.2404 6.80933L37.9797 10.0856L36.9695 6.80168C36.9106 6.60292 36.7631 6.49371 36.4912 6.49371H36.4901Z" fill="#113984"/>
<path fill-rule="evenodd" clip-rule="evenodd" d="M48.0871 3.34081C49.5145 3.34081 50.8316 4.11511 50.6514 6.04485C50.433 8.33826 49.2044 9.60728 47.2659 9.61274H45.5731C45.3296 9.61274 45.2116 9.8115 45.1483 10.2189L44.8207 12.3015C44.7715 12.616 44.6099 12.7711 44.3718 12.7711H42.7959C42.5447 12.7711 42.4574 12.6106 42.5131 12.2513L43.8159 3.90215C43.8804 3.49152 44.0344 3.33862 44.315 3.33862H48.0871V3.34081ZM45.5207 7.80968H46.8039C47.6066 7.7791 48.1396 7.22322 48.1931 6.22068C48.2258 5.60146 47.8076 5.15806 47.1425 5.16134L45.9346 5.1668L45.5207 7.80968ZM54.9357 12.1322C55.0799 12.0012 55.2262 11.9335 55.2054 12.0951L55.1541 12.4817C55.1279 12.6837 55.2076 12.7907 55.3955 12.7907H56.7955C57.0314 12.7907 57.1461 12.6957 57.204 12.331L58.0667 6.91634C58.1104 6.64441 58.0438 6.51117 57.8374 6.51117H56.2997C56.161 6.51117 56.0933 6.58871 56.0573 6.80058L56.0005 7.13367C55.971 7.30731 55.8913 7.33789 55.817 7.16316C55.556 6.54503 54.8898 6.26764 53.9605 6.28948C51.8014 6.33425 50.3456 7.9735 50.1894 10.0747C50.0693 11.6997 51.2335 12.9764 52.769 12.9764C53.8829 12.9764 54.3809 12.6488 54.9422 12.1355L54.9357 12.1322ZM53.7639 11.2989C52.8345 11.2989 52.1869 10.5574 52.3212 9.64878C52.4555 8.74015 53.3248 7.99861 54.2542 7.99861C55.1836 7.99861 55.8312 8.74015 55.6969 9.64878C55.5626 10.5574 54.6933 11.2989 53.7639 11.2989ZM60.2215 12.7995H58.6051C58.577 12.8007 58.549 12.7958 58.523 12.7849C58.497 12.7741 58.4738 12.7577 58.4549 12.7368C58.436 12.7159 58.422 12.6912 58.4138 12.6642C58.4056 12.6373 58.4034 12.6089 58.4075 12.5811L59.8272 3.58653C59.8408 3.52515 59.8747 3.47015 59.9235 3.4305C59.9722 3.39084 60.033 3.36885 60.0959 3.36811H61.7122C61.7403 3.36685 61.7683 3.37182 61.7943 3.38266C61.8203 3.39349 61.8435 3.40993 61.8624 3.4308C61.8813 3.45166 61.8953 3.47644 61.9035 3.50336C61.9117 3.53028 61.9139 3.55868 61.9098 3.58653L60.4901 12.5811C60.477 12.6429 60.4433 12.6983 60.3944 12.7384C60.3456 12.7785 60.2846 12.8008 60.2215 12.8017V12.7995Z" fill="#009EE3"/>
<path fill-rule="evenodd" clip-rule="evenodd" d="M2.75628 0H6.99144C8.18401 0 9.59937 0.0382235 10.5451 0.87368C11.1775 1.43174 11.5095 2.31962 11.433 3.2763C11.1731 6.51001 9.23898 8.3218 6.64415 8.3218H4.55606C4.20003 8.3218 3.96523 8.55769 3.86476 9.19548L3.28158 12.9086C3.24335 13.1489 3.1396 13.2909 2.95395 13.3083H0.340552C0.0511452 13.3083 -0.0515132 13.0899 0.0238417 12.6072L1.90225 0.705496C1.97761 0.227156 2.2408 0 2.75628 0Z" fill="#113984"/>
<path fill-rule="evenodd" clip-rule="evenodd" d="M3.9259 8.81883L4.66526 4.137C4.72969 3.72637 4.95466 3.52979 5.40242 3.52979H9.63322C10.3333 3.52979 10.9001 3.639 11.3434 3.84103C10.9186 6.71981 9.05659 8.31864 6.61902 8.31864H4.5342C4.25463 8.31974 4.04931 8.45953 3.9259 8.81883Z" fill="#172C70"/>
</svg>
