<svg width="80" height="15" viewBox="0 0 80 15" fill="none" xmlns="http://www.w3.org/2000/svg">
<path d="M11.4759 1.4939H0.671892C0.30907 1.4939 0 1.81663 0 2.20952L0 3.48641C0 3.8793 0.30907 4.20204 0.671892 4.20204H11.4759C11.8522 4.20204 12.1478 3.8793 12.1612 3.48641L12.1612 2.22355C12.1612 1.81663 11.8522 1.4939 11.4759 1.4939V1.4939ZM11.4759 8.57996H0.671892C0.4972 8.57996 0.322508 8.65012 0.201568 8.79044C0.0671892 8.93076 0 9.09913 0 9.29558L0 10.5725C0 10.9654 0.30907 11.2881 0.671892 11.2881H11.4759C11.8522 11.2881 12.1478 10.9794 12.1612 10.5725L12.1612 9.29558C12.1478 8.88866 11.8522 8.57996 11.4759 8.57996V8.57996ZM6.75923 12.116H0.671892C0.4972 12.116 0.322508 12.1861 0.201568 12.3265C0.080627 12.4668 0 12.6352 0 12.8316L0 14.1085C0 14.5014 0.30907 14.8241 0.671892 14.8241H6.74579C7.12205 14.8241 7.41768 14.5014 7.41768 14.1225L7.41768 12.8456C7.43112 12.4247 7.13549 12.1019 6.75923 12.116V12.116ZM12.1612 5.02991H0.671892C0.4972 5.02991 0.322508 5.10007 0.201568 5.24039C0.080627 5.38071 0 5.54909 0 5.74553L0 7.02243C0 7.41532 0.30907 7.73805 0.671892 7.73805H12.1478C12.5241 7.73805 12.8197 7.41532 12.8197 7.02243L12.8197 5.74553C12.8331 5.35264 12.5241 5.04394 12.1612 5.02991V5.02991Z" fill="#00C9FF"/>
<path d="M24.0969 4.29373C23.7609 3.92891 23.3712 3.64827 22.9278 3.45183C22.4843 3.25538 22.014 3.15716 21.5303 3.15716C21.0599 3.14312 20.6031 3.25538 20.173 3.46586C19.8908 3.60617 19.6355 3.80262 19.4205 4.04116V3.81665C19.4205 3.7044 19.3802 3.59214 19.313 3.50795C19.2458 3.42376 19.1383 3.36763 19.0174 3.36763L17.5258 3.36763C17.4183 3.36763 17.3108 3.40973 17.2436 3.50795C17.163 3.59214 17.1227 3.7044 17.1361 3.81665V14.3124C17.1361 14.4247 17.1764 14.537 17.2436 14.6211C17.3242 14.7053 17.4183 14.7474 17.5258 14.7474L19.0577 14.7474C19.1652 14.7474 19.2593 14.7053 19.3399 14.6211C19.4205 14.551 19.4743 14.4387 19.4608 14.3124V10.7203C19.6758 10.9729 19.958 11.1553 20.2671 11.2675C20.6702 11.4219 21.0868 11.5061 21.5168 11.5061C22.0006 11.5061 22.4843 11.4079 22.9278 11.2114C23.3712 11.015 23.7744 10.7343 24.1103 10.3695C24.4597 9.99065 24.7285 9.54163 24.9166 9.05052C25.1316 8.50327 25.2257 7.91394 25.2122 7.3246C25.2257 6.73527 25.1182 6.14593 24.9166 5.58466C24.715 5.12161 24.4463 4.67259 24.0969 4.29373V4.29373ZM22.7262 8.09635C22.6456 8.32086 22.5247 8.51731 22.3634 8.69972C22.0543 9.05052 21.6109 9.24696 21.154 9.24696C20.9256 9.24696 20.6971 9.20486 20.4821 9.09261C20.2805 8.99439 20.0924 8.8681 19.9312 8.69972C19.7699 8.53134 19.649 8.32086 19.5683 8.09635C19.3936 7.61927 19.3936 7.1001 19.5683 6.62301C19.649 6.39851 19.7833 6.20206 19.9312 6.03368C20.0924 5.8653 20.2805 5.72498 20.4821 5.62676C20.6971 5.52853 20.9256 5.4724 21.154 5.4724C21.3959 5.4724 21.6109 5.5145 21.8393 5.62676C22.0409 5.72498 22.229 5.85126 22.3768 6.01964C22.5381 6.18803 22.6456 6.38447 22.7397 6.60898C22.9009 7.10009 22.8875 7.61927 22.7262 8.09635ZM33.4227 3.38167L31.9043 3.38167C31.7968 3.38167 31.6893 3.42376 31.6221 3.50795C31.5414 3.59214 31.5011 3.7044 31.5011 3.83068V4.02713C31.313 3.78859 31.0711 3.60617 30.8158 3.47989C30.3992 3.26941 29.9423 3.17119 29.4855 3.17119C28.5045 3.17119 27.5773 3.57811 26.8785 4.29373C26.5157 4.67259 26.2335 5.12161 26.0454 5.61272C25.8304 6.15996 25.7229 6.7493 25.7363 7.35267C25.7229 7.942 25.8304 8.53134 26.0454 9.09261C26.2469 9.58372 26.5157 10.0327 26.8785 10.4116C27.5638 11.1413 28.5045 11.5482 29.472 11.5482C29.9289 11.5622 30.3858 11.45 30.8024 11.2395C31.0577 11.0992 31.313 10.9167 31.5011 10.6922V10.9027C31.5011 11.015 31.5414 11.1272 31.6221 11.2114C31.7027 11.2816 31.7968 11.3377 31.9043 11.3377L33.4227 11.3377C33.5302 11.3377 33.6378 11.2956 33.7049 11.2114C33.7856 11.1272 33.8259 11.015 33.8259 10.9027V3.84471C33.8259 3.73246 33.7856 3.62021 33.7184 3.53601C33.6378 3.43779 33.5302 3.38167 33.4227 3.38167V3.38167ZM31.3668 8.09635C31.2861 8.32086 31.1652 8.51731 31.0039 8.69972C30.8427 8.8681 30.668 9.00842 30.4664 9.10664C30.0364 9.31712 29.5392 9.31712 29.1092 9.10664C28.9076 9.00842 28.7195 8.8681 28.5582 8.69972C28.397 8.53134 28.2761 8.32086 28.1954 8.09635C28.0342 7.61927 28.0342 7.1001 28.1954 6.62301C28.2761 6.39851 28.397 6.21609 28.5582 6.03368C28.7195 5.8653 28.8942 5.72498 29.1092 5.62676C29.5392 5.41628 30.0364 5.41628 30.453 5.62676C30.6546 5.72498 30.8427 5.85126 30.9905 6.01964C31.1383 6.18803 31.2593 6.38447 31.3533 6.60898C31.5414 7.10009 31.5414 7.61927 31.3668 8.09635V8.09635ZM48.5537 7.14219C48.3387 6.94574 48.0834 6.77736 47.8147 6.66511C47.5325 6.53882 47.2234 6.45463 46.9278 6.38447L45.7721 6.14593C45.4765 6.0898 45.2615 6.00561 45.154 5.90739C45.0599 5.83723 44.9927 5.72498 44.9927 5.59869C44.9927 5.4724 45.0599 5.36015 45.2077 5.26193C45.4093 5.14967 45.6243 5.09354 45.8527 5.10758C46.1484 5.10758 46.444 5.17774 46.7128 5.28999C46.9815 5.41628 47.2368 5.54257 47.4787 5.71095C47.8147 5.93546 48.1103 5.89336 48.3119 5.64079L48.8628 4.98129C48.9703 4.86904 49.0241 4.72872 49.0375 4.57437C49.0241 4.40599 48.9434 4.26567 48.8225 4.15342C48.5941 3.94294 48.2178 3.71843 47.7206 3.49392C47.2234 3.26941 46.5918 3.15716 45.8527 3.15716C45.3959 3.14312 44.9524 3.21328 44.5224 3.3536C44.1596 3.47989 43.8102 3.6623 43.5011 3.90084C43.2189 4.12535 43.0039 4.40599 42.8427 4.74275C42.6949 5.06548 42.6142 5.41628 42.6142 5.76707C42.6142 6.42657 42.8024 6.95978 43.1786 7.35267C43.5549 7.74556 44.0521 8.01216 44.6702 8.13845L45.8796 8.41908C46.1349 8.46118 46.4037 8.54537 46.6456 8.67165C46.78 8.72778 46.8606 8.8681 46.8606 9.02245C46.8606 9.16277 46.7934 9.28906 46.6456 9.40131C46.4978 9.51356 46.2559 9.58372 45.9334 9.58372C45.6109 9.58372 45.2749 9.51357 44.9793 9.35922C44.6971 9.2189 44.4418 9.03648 44.1999 8.82601C44.0924 8.74181 43.9849 8.67166 43.8505 8.61553C43.7161 8.57343 43.5414 8.61553 43.3667 8.76988L42.7083 9.28906C42.5202 9.42938 42.4261 9.66791 42.4798 9.89242C42.5202 10.131 42.6948 10.3555 43.0308 10.6221C43.8639 11.2114 44.8583 11.5201 45.8662 11.492C46.3365 11.492 46.8068 11.4359 47.2503 11.2956C47.64 11.1693 48.0028 10.9869 48.3253 10.7343C48.6209 10.5098 48.8628 10.2152 49.0241 9.86436C49.1853 9.52759 49.266 9.16277 49.266 8.78391C49.2794 8.44715 49.2122 8.11039 49.0778 7.80169C48.9434 7.57718 48.7688 7.33863 48.5537 7.14219V7.14219ZM55.192 9.06455C55.1248 8.93826 55.0039 8.85407 54.8561 8.82601C54.7217 8.82601 54.5739 8.8681 54.4664 8.95229C54.2783 9.07858 54.0633 9.14874 53.8483 9.16277C53.7811 9.16277 53.7004 9.14874 53.6332 9.13471C53.5526 9.12068 53.4854 9.07858 53.4317 9.02245C53.3645 8.95229 53.3107 8.8681 53.2704 8.78391C53.2167 8.64359 53.1898 8.50328 53.2032 8.36296V5.48644L55.1652 5.48644C55.2861 5.48644 55.3936 5.43031 55.4742 5.34612C55.5549 5.26193 55.6086 5.1637 55.6086 5.03742V3.81665C55.6086 3.69036 55.5683 3.57811 55.4742 3.50795C55.3936 3.42376 55.2861 3.38167 55.1786 3.38167L53.2032 3.38167V1.41721C53.2032 1.30496 53.1629 1.17867 53.0823 1.10851C53.0017 1.03835 52.9076 0.996258 52.8001 0.982226L51.2682 0.982226C51.1607 0.982226 51.0532 1.02432 50.9726 1.10851C50.8919 1.1927 50.8382 1.30496 50.8382 1.41721V3.38167L49.9647 3.38167C49.8572 3.38167 49.7497 3.42376 49.6691 3.52198C49.6019 3.60618 49.5616 3.71843 49.5616 3.83068V5.05145C49.5616 5.1637 49.6019 5.27596 49.6691 5.36015C49.7363 5.45837 49.8438 5.50047 49.9647 5.50047L50.8382 5.50047V8.92423C50.8247 9.33115 50.9054 9.73807 51.0666 10.1029C51.2144 10.4116 51.4026 10.6782 51.6579 10.9027C51.8998 11.1132 52.182 11.2675 52.491 11.3517C52.8001 11.45 53.1226 11.5061 53.4451 11.5061C53.8617 11.5061 54.2917 11.4359 54.6948 11.2956C55.0711 11.1693 55.407 10.9448 55.6758 10.6501C55.8505 10.4677 55.8639 10.1731 55.7295 9.96258L55.192 9.06455ZM63.4966 3.38167L61.9781 3.38167C61.8706 3.38167 61.7766 3.42376 61.6959 3.50795C61.6153 3.59214 61.575 3.7044 61.575 3.83068V4.02713C61.3869 3.78859 61.1584 3.60617 60.8897 3.47989C60.4731 3.26941 60.0162 3.17119 59.5593 3.17119C58.5784 3.17119 57.6512 3.57811 56.9524 4.29373C56.5896 4.67259 56.3074 5.12161 56.1192 5.61272C55.9042 6.15996 55.7967 6.7493 55.8102 7.33863C55.7967 7.92797 55.9042 8.51731 56.1192 9.07858C56.3074 9.56969 56.603 10.0187 56.9524 10.3976C57.6377 11.1272 58.5649 11.5341 59.5459 11.5341C60.0028 11.5482 60.4597 11.4359 60.8762 11.2395C61.145 11.0992 61.3869 10.9167 61.575 10.6922V10.9027C61.575 11.015 61.6153 11.1272 61.6959 11.1974C61.7766 11.2816 61.8706 11.3237 61.9781 11.3237L63.4966 11.3237C63.7251 11.3237 63.8998 11.1413 63.8998 10.9027V3.84471C63.8998 3.73246 63.8594 3.62021 63.7922 3.53601C63.7251 3.43779 63.6176 3.38167 63.4966 3.38167V3.38167ZM61.4541 8.09635C61.3734 8.32086 61.2525 8.51731 61.0912 8.69972C60.93 8.8681 60.7553 9.00842 60.5537 9.10664C60.3387 9.20486 60.1103 9.26099 59.8684 9.26099C59.6265 9.26099 59.4115 9.20486 59.1965 9.10664C58.9949 9.00842 58.8068 8.8681 58.6456 8.69972C58.4843 8.53134 58.3634 8.32086 58.2962 8.09635C58.1349 7.61927 58.1349 7.1001 58.2962 6.62301C58.3768 6.39851 58.4977 6.20206 58.6456 6.03368C58.8068 5.8653 58.9949 5.72498 59.1965 5.62676C59.4115 5.52853 59.64 5.4724 59.8684 5.4724C60.0968 5.4724 60.3253 5.5145 60.5537 5.62676C60.7553 5.72498 60.93 5.85126 61.0912 6.01964C61.2525 6.18803 61.3734 6.38447 61.4541 6.60898C61.6288 7.08606 61.6288 7.61927 61.4541 8.09635V8.09635ZM71.8281 8.95229L70.9546 8.2507C70.7934 8.11038 70.6321 8.06829 70.4977 8.12442C70.3768 8.18054 70.2693 8.26473 70.1752 8.36296C69.9871 8.6015 69.7586 8.81198 69.5168 8.99439C69.248 9.14874 68.9658 9.23293 68.6702 9.20487C68.3208 9.20487 67.9983 9.10664 67.7161 8.89616C67.4339 8.68569 67.2189 8.40505 67.1114 8.05426C67.0308 7.81572 66.9905 7.57717 66.9905 7.33863C66.9905 7.08606 67.0308 6.84752 67.1114 6.59495C67.192 6.37044 67.2995 6.17399 67.4608 6.00561C67.622 5.83723 67.7967 5.69691 67.9983 5.61272C68.2133 5.5145 68.4417 5.45837 68.6836 5.45837C68.9793 5.44434 69.2749 5.52853 69.5302 5.68288C69.7855 5.85126 70.0005 6.06174 70.1887 6.31431C70.2693 6.41254 70.3768 6.49673 70.4977 6.55286C70.6321 6.60898 70.7934 6.56688 70.9546 6.42657L71.8281 5.73901C71.9356 5.66885 72.0162 5.5566 72.0565 5.43031C72.1103 5.28999 72.0968 5.13564 72.0162 5.00936C71.6803 4.46212 71.2234 4.0131 70.6724 3.69037C70.0946 3.3536 69.4093 3.17119 68.6433 3.17119C68.1058 3.17119 67.5683 3.28344 67.0576 3.49392C66.5739 3.7044 66.1439 3.99906 65.781 4.37792C65.4182 4.75678 65.1226 5.2058 64.921 5.71095C64.5045 6.76333 64.5045 7.942 64.921 8.99439C65.1226 9.4855 65.4048 9.94855 65.781 10.3134C66.547 11.0992 67.5683 11.5201 68.6433 11.5201C69.4093 11.5201 70.0946 11.3377 70.6724 11.0009C71.2234 10.6782 71.6937 10.2292 72.0296 9.66791C72.0968 9.54163 72.1103 9.38728 72.07 9.26099C72.0162 9.14874 71.9356 9.03648 71.8281 8.95229V8.95229ZM79.9176 10.594L77.5123 6.91768L79.5683 4.08326C79.6623 3.95697 79.7026 3.77456 79.6489 3.62021C79.6086 3.50795 79.5145 3.3957 79.2592 3.3957L77.6332 3.3957C77.5392 3.3957 77.4451 3.42376 77.3645 3.46586C77.257 3.52198 77.1763 3.60617 77.1226 3.7044L75.4832 6.10384L75.0935 6.10384V0.434987C75.0935 0.322732 75.0532 0.210476 74.9725 0.126285C74.8919 0.0420946 74.7978 0 74.6903 0L73.1719 0C73.0644 0 72.9568 0.0420946 72.8762 0.126285C72.7956 0.210476 72.7553 0.308701 72.7553 0.434987V10.8887C72.7553 11.015 72.7956 11.1132 72.8762 11.1974C72.9568 11.2816 73.0644 11.3237 73.1719 11.3237L74.6903 11.3237C74.7978 11.3237 74.9053 11.2816 74.9725 11.1974C75.0532 11.1132 75.0935 11.0009 75.0935 10.8887V8.12442L75.5235 8.12442L77.3107 10.9869C77.4182 11.1974 77.6198 11.3237 77.8348 11.3237L79.5414 11.3237C79.7967 11.3237 79.9042 11.1974 79.958 11.0851C80.0251 10.9167 80.0117 10.7343 79.9176 10.594V10.594ZM42.0498 3.38167L40.3432 3.38167C40.2089 3.38167 40.0879 3.42376 39.9938 3.52198C39.9132 3.60618 39.8595 3.7044 39.8326 3.81665L38.5694 8.69972H38.2604L36.9166 3.81665C36.8897 3.71843 36.8494 3.62021 36.7822 3.52198C36.7016 3.42376 36.5941 3.36763 36.4731 3.36763L34.7397 3.36763C34.5112 3.36763 34.3768 3.43779 34.3096 3.60617C34.2693 3.74649 34.2693 3.90084 34.3096 4.04116L36.4597 10.9167C36.5 11.015 36.5403 11.1272 36.6209 11.1974C36.7016 11.2816 36.8225 11.3237 36.9435 11.3237H37.8572L37.7766 11.5482L37.575 12.1796C37.5078 12.3761 37.4003 12.5444 37.2391 12.6707C37.0913 12.783 36.9166 12.8531 36.7285 12.8391C36.5672 12.8391 36.4194 12.797 36.2716 12.7409C36.1237 12.6707 35.9894 12.5865 35.8684 12.4883C35.7609 12.4041 35.6265 12.362 35.4787 12.362H35.4653C35.304 12.3761 35.1562 12.4602 35.0756 12.6146L34.5381 13.4425C34.3231 13.8073 34.444 14.0318 34.5784 14.1581C34.874 14.4387 35.21 14.6492 35.5862 14.7755C36.0028 14.9298 36.4328 15 36.8628 15C37.6422 15 38.2872 14.7755 38.7844 14.3405C39.2951 13.8634 39.6848 13.246 39.8729 12.5444L42.3723 4.04116C42.4261 3.88681 42.4395 3.73246 42.3858 3.59214C42.3723 3.49392 42.2783 3.38167 42.0498 3.38167Z" fill="#011B33"/>
</svg>
