<svg width="48" height="15" viewBox="0 0 48 15" fill="none" xmlns="http://www.w3.org/2000/svg">
<path d="M37.9858 3.04566C38.3408 2.75502 38.6981 2.54364 39.1024 2.43221C40.2753 2.10595 41.3311 2.32077 42.2501 3.13642C42.2754 3.15939 42.3018 3.18352 42.3248 3.20764C42.3673 3.25359 42.4029 3.2444 42.4477 3.20419C42.5499 3.11114 42.651 3.01579 42.7613 2.93308C44.5144 1.60852 47.16 2.37821 47.7919 4.64018C47.8815 4.96299 47.8907 5.29499 47.8907 5.62699C47.8918 7.74996 47.8907 9.87292 47.8907 11.9947C47.8907 12.7552 47.8907 13.5157 47.8907 14.2762C47.8907 14.3383 47.8941 14.4015 47.8861 14.4623C47.8539 14.7323 47.6735 14.8977 47.4013 14.9081C47.3186 14.9115 47.2359 14.9092 47.152 14.9092C46.5638 14.9092 45.9756 14.9092 45.3886 14.9092C44.975 14.9092 44.8131 14.7472 44.8119 14.3302C44.8062 11.6961 44.8016 9.06188 44.7958 6.4277C44.7958 6.33809 44.797 6.24734 44.7947 6.15773C44.7809 5.69707 44.465 5.38345 44.0032 5.37196C43.9067 5.36966 43.809 5.36966 43.7125 5.37196C43.276 5.38575 42.9578 5.69133 42.9267 6.12787C42.921 6.20369 42.9244 6.27951 42.9244 6.35648C42.9244 9.00444 42.9244 11.6524 42.9244 14.3015C42.9244 14.3773 42.9279 14.4543 42.9187 14.529C42.8957 14.7266 42.7406 14.8851 42.5442 14.9196C42.5097 14.9253 42.4753 14.9288 42.4408 14.9288C41.7423 14.9299 41.0439 14.9333 40.3454 14.9276C40.0387 14.9253 39.8618 14.7381 39.8514 14.4325C39.8503 14.3911 39.8514 14.3498 39.8514 14.3084C39.8503 13.147 39.8503 11.9855 39.8491 10.8241C39.848 9.33069 39.848 7.83727 39.8468 6.34384C39.8468 6.29559 39.848 6.24734 39.8468 6.19909C39.8354 5.75566 39.5734 5.45123 39.1369 5.39264C38.9519 5.36737 38.7647 5.36966 38.5797 5.41102C38.2408 5.48569 37.9996 5.76715 37.9789 6.11408C37.9743 6.19679 37.9755 6.27951 37.9755 6.36337C37.9755 8.99754 37.9755 11.6317 37.9766 14.2659C37.9766 14.3141 37.9778 14.3624 37.9766 14.4106C37.9697 14.7128 37.7871 14.9035 37.4861 14.9104C37.2713 14.915 37.0576 14.9115 36.8428 14.9115C36.3798 14.9115 35.9157 14.9012 35.4527 14.915C35.169 14.9242 34.9013 14.7381 34.9013 14.3624C34.9082 10.553 34.9059 6.74247 34.9059 2.93308C34.9059 2.85726 34.9013 2.78144 34.9254 2.70677C34.9898 2.50458 35.1621 2.38166 35.4022 2.38166C36.08 2.37936 36.7577 2.37936 37.4355 2.38166C37.7951 2.38281 37.9663 2.55283 37.9789 2.91125C37.9778 2.94227 37.9812 2.97558 37.9858 3.04566Z" fill="#00BAF2"/>
<path d="M16.8895 9.55817V5.70053C16.8895 5.38921 16.8688 5.07903 16.8125 4.77231C16.6115 3.6844 16.0037 2.94803 14.9342 2.61488C14.4954 2.47817 14.0439 2.41958 13.5855 2.41844C12.5758 2.41729 11.566 2.41729 10.5562 2.41614C10.5286 2.41614 10.501 2.41614 10.4735 2.41844C10.2001 2.43452 10.0197 2.60799 10.0174 2.8837C10.0117 3.53276 10.0117 4.18298 10.0174 4.83319C10.0208 5.11694 10.2184 5.30649 10.5033 5.32488C10.5585 5.32832 10.6148 5.32602 10.6699 5.32602C11.52 5.32717 12.3713 5.32717 13.2214 5.32602C13.342 5.32488 13.4511 5.34785 13.5568 5.40989C13.844 5.57761 13.8383 6.23472 13.5741 6.40359C13.4764 6.46562 13.3765 6.49205 13.2616 6.4909C12.902 6.4886 12.5424 6.4909 12.1829 6.48975C11.9198 6.48975 11.6579 6.4909 11.3971 6.52996C10.678 6.63909 10.045 6.92055 9.54065 7.45473C9.00646 8.02224 8.779 8.71036 8.7744 9.4789C8.76866 10.2876 8.77211 11.0964 8.77326 11.9051C8.77326 12.1544 8.79393 12.4026 8.84678 12.6473C9.07424 13.6927 9.68654 14.3992 10.709 14.7335C11.0329 14.8392 11.3695 14.8805 11.7107 14.8805C13.0111 14.8794 14.3116 14.8736 15.612 14.884C16.2392 14.8886 16.9067 14.4233 16.8941 13.5824C16.8745 12.2417 16.8895 10.9 16.8895 9.55817ZM13.79 10.7414C13.79 11.0252 13.7785 11.3089 13.7935 11.5904C13.8073 11.8523 13.6212 12.1223 13.2639 12.1246C12.987 12.1269 12.7113 12.1303 12.4345 12.1246C12.0875 12.1165 11.9037 11.9281 11.9026 11.5777C11.9003 11.0183 11.8991 10.46 11.9026 9.90051C11.9049 9.55013 12.091 9.36402 12.439 9.35828C12.7148 9.35368 12.9916 9.35943 13.2673 9.35713C13.5384 9.35483 13.8107 9.54898 13.7935 9.89247C13.7785 10.1751 13.79 10.4588 13.79 10.7414Z" fill="#1F336B"/>
<path d="M26.0682 7.47319C26.0682 8.90458 26.0671 10.3348 26.0682 11.7662C26.0682 12.328 25.9637 12.8668 25.6937 13.363C25.1986 14.2752 24.4117 14.7646 23.3984 14.9105C23.179 14.9415 22.9585 14.9472 22.7367 14.9461C21.6856 14.9438 20.6345 14.9449 19.5833 14.9449C19.5282 14.9449 19.4719 14.9472 19.4179 14.9426C19.1479 14.9196 18.9744 14.7404 18.9653 14.4705C18.9607 14.3326 18.9641 14.1936 18.9641 14.0558C18.9641 13.4894 18.9607 12.9219 18.9664 12.3555C18.9687 12.0557 19.1456 11.8834 19.4443 11.8708C19.4788 11.8696 19.5132 11.8696 19.5477 11.8696C20.5023 11.8639 21.4558 11.8581 22.4105 11.8512C22.4656 11.8512 22.5219 11.8524 22.5759 11.8455C22.824 11.8191 23.009 11.6249 23.0251 11.3802C23.04 11.1424 22.8711 10.9207 22.6253 10.8725C22.5311 10.8541 22.4335 10.8541 22.337 10.8529C21.874 10.8483 21.4099 10.8656 20.9469 10.8414C19.9934 10.7897 19.1962 10.4129 18.616 9.63751C18.2369 9.13089 18.052 8.5496 18.021 7.92122C18.0072 7.64551 18.0152 7.36865 18.0152 7.09179C18.0152 5.73737 18.0152 4.38179 18.0152 3.02737C18.0152 2.96534 18.0129 2.90215 18.0175 2.84127C18.0347 2.61266 18.1921 2.44493 18.4207 2.40932C18.4483 2.40473 18.4759 2.40128 18.5034 2.40128C19.2019 2.40128 19.9004 2.39554 20.5988 2.40358C20.9216 2.40702 21.0905 2.60232 21.0905 2.94236C21.0928 4.32435 21.094 5.7075 21.0963 7.08949C21.0963 7.15153 21.094 7.21356 21.0974 7.2756C21.1158 7.56854 21.3122 7.76613 21.604 7.77302C21.9016 7.77991 22.1991 7.77991 22.4955 7.77302C22.7769 7.76613 22.9734 7.57084 22.9941 7.29053C22.9987 7.2285 22.9964 7.16646 22.9964 7.10443C22.9964 5.75 22.9964 4.39443 22.9964 3.04001C22.9964 2.97108 22.9929 2.901 22.9987 2.83322C23.017 2.61381 23.171 2.44838 23.3893 2.41277C23.4432 2.40358 23.4995 2.40128 23.5547 2.40128C24.2049 2.40013 24.8551 2.40128 25.5042 2.40128C25.5455 2.40128 25.5869 2.40128 25.6282 2.40587C25.8879 2.43459 26.0556 2.61036 26.0694 2.86999C26.0728 2.92513 26.0705 2.98027 26.0705 3.03541C26.0682 4.51505 26.0682 5.99469 26.0682 7.47319Z" fill="#1F336B"/>
<path d="M8.02188 5.30767C8.02188 5.10663 8.01154 4.90674 7.97363 4.70915C7.77029 3.66145 7.18556 2.93312 6.17233 2.56781C5.79667 2.43225 5.40378 2.39893 5.0086 2.39893C3.54274 2.39778 2.07574 2.39778 0.609884 2.39893C0.527171 2.39893 0.44331 2.40123 0.362894 2.41731C0.161856 2.45637 0.0217036 2.61605 0.00332295 2.81939C-0.002421 2.88832 0.00102537 2.95725 0.00102537 3.02617C-0.000123424 4.89985 -0.000123424 6.77353 0.00102537 8.6472C0.00102537 10.5622 -0.000123424 12.4773 0.00102537 14.3923C0.00102537 14.7611 0.164154 14.9242 0.530618 14.9253C1.19462 14.9265 1.85862 14.9265 2.52262 14.9253C2.55708 14.9253 2.59155 14.9265 2.62601 14.9242C2.88449 14.9047 3.05796 14.7289 3.07404 14.4693C3.07863 14.4003 3.07634 14.3303 3.07634 14.2613C3.07749 13.301 3.07863 12.3394 3.08093 11.379C3.08208 11.2205 3.08438 11.2182 3.23946 11.2182C3.81386 11.2159 4.38711 11.2159 4.9615 11.2182C5.18322 11.2182 5.40379 11.2147 5.6232 11.1791C6.70192 11.0034 7.46127 10.429 7.84611 9.39392C7.97478 9.04698 8.02303 8.68511 8.02188 8.3152C8.01958 7.31231 8.02188 6.31056 8.02188 5.30767ZM4.93853 7.61329C4.93508 7.90279 4.75242 8.10957 4.46867 8.11991C4.04132 8.13714 3.61282 8.1268 3.18432 8.13025C3.08093 8.1314 3.08093 8.06821 3.08093 7.99354C3.08208 7.60065 3.08093 7.20662 3.08093 6.81259C3.08093 6.4197 3.08438 6.02566 3.07978 5.63163C3.07749 5.52479 3.1108 5.48803 3.21994 5.49033C3.61971 5.49492 4.02064 5.48803 4.42157 5.49377C4.72715 5.49722 4.93393 5.69481 4.93738 5.99809C4.94427 6.53688 4.94427 7.07566 4.93853 7.61329Z" fill="#1F336B"/>
<path d="M29.0412 10.0591C29.0412 8.64259 29.0412 7.22499 29.0412 5.80853C29.0412 5.76717 29.0412 5.72582 29.0412 5.68446C29.0401 5.49031 29.0389 5.48916 28.8517 5.48802C28.5197 5.48687 28.1877 5.47538 27.8557 5.49146C27.4984 5.50755 27.2606 5.27549 27.2698 4.90558C27.2859 4.26341 27.2732 3.62008 27.2744 2.97676C27.2744 2.58847 27.4433 2.41845 27.8247 2.41156C28.0808 2.40696 28.3347 2.37824 28.5852 2.3254C29.2204 2.19329 29.7351 1.86703 30.1291 1.35237C30.2842 1.14904 30.4324 0.941105 30.584 0.735471C30.7116 0.563153 30.8506 0.400024 31.0206 0.266765C31.1584 0.158778 31.3089 0.0749168 31.4755 0.02437C31.7811 -0.068682 32.0373 0.112827 32.0476 0.431042C32.0533 0.60336 32.0488 0.776828 32.0488 0.949146C32.0488 1.37075 32.0488 1.79236 32.0488 2.21396C32.0488 2.40926 32.0499 2.41156 32.2383 2.4127C32.5634 2.41385 32.8885 2.4127 33.2136 2.41385C33.2963 2.41385 33.3802 2.41156 33.4572 2.44832C33.6433 2.53677 33.7421 2.68497 33.7432 2.89175C33.7444 3.59711 33.7478 4.30132 33.7421 5.00667C33.7398 5.29042 33.5433 5.47768 33.2515 5.48687C33.0585 5.49376 32.8644 5.48227 32.6714 5.49031C32.4807 5.49721 32.2877 5.457 32.0981 5.51444C32.0591 5.69824 32.0809 5.88435 32.0809 6.0693C32.0786 8.82755 32.0798 11.5846 32.0786 14.3429C32.0786 14.4049 32.0809 14.467 32.0775 14.529C32.0591 14.8093 31.8776 14.9943 31.5973 14.9966C30.8988 15.0011 30.2003 15.0011 29.5019 14.9966C29.2377 14.9943 29.0596 14.8277 29.0401 14.56C29.0228 14.3326 29.0309 14.1039 29.0297 13.8765C29.0286 12.6048 29.0297 11.3331 29.0297 10.0613C29.0355 10.0591 29.0389 10.0591 29.0412 10.0591Z" fill="#00BAF2"/>
</svg>
