<svg width="20" height="20" viewBox="0 0 20 20" fill="none" xmlns="http://www.w3.org/2000/svg">
<path d="M16.2964 8.5907V2.21832C16.2964 1.40442 15.6342 0.742188 14.8203 0.742188H1.47614C0.662231 0.742188 0 1.40442 0 2.21832V15.5624C0 16.3765 0.662231 17.0386 1.47614 17.0386H10.0696C11.0713 18.4009 12.6848 19.2867 14.5015 19.2867C17.5334 19.2867 20 16.8201 20 13.7881C20 11.3844 18.4496 9.3364 16.2964 8.5907ZM6.69861 1.94382H9.59778V5.26062L8.37112 4.77051C8.228 4.71344 8.06839 4.71344 7.92526 4.77051L6.69861 5.26062V1.94382ZM1.47614 15.8369C1.32477 15.8369 1.20163 15.7138 1.20163 15.5624V2.21832C1.20163 2.06696 1.32477 1.94382 1.47614 1.94382H5.49713V6.14777C5.49713 6.34705 5.59601 6.53336 5.76096 6.6452C5.92606 6.7569 6.13571 6.77963 6.3208 6.70563L8.14819 5.97549L9.97574 6.70563C10.0476 6.73431 10.1233 6.7485 10.1985 6.7485C10.3169 6.7485 10.4346 6.71341 10.5356 6.6452C10.7005 6.53336 10.7994 6.34705 10.7994 6.14777V1.94382H14.8203C14.9716 1.94382 15.0948 2.06696 15.0948 2.21832V8.32169C14.8999 8.30063 14.702 8.28964 14.5015 8.28964C11.4696 8.28964 9.00299 10.7562 9.00299 13.7881C9.00299 14.512 9.14383 15.2034 9.39911 15.8369H1.47614ZM14.5015 18.085C12.1321 18.085 10.2046 16.1574 10.2046 13.7881C10.2046 11.4188 12.1321 9.49127 14.5015 9.49127C16.8707 9.49127 18.7984 11.4188 18.7984 13.7881C18.7984 16.1574 16.8707 18.085 14.5015 18.085Z" fill="white"/>
<path d="M16.6891 13.2273H15.0622V11.6004C15.0622 11.2685 14.7932 10.9995 14.4613 10.9995C14.1296 10.9995 13.8606 11.2685 13.8606 11.6004V13.8282C13.8606 14.1599 14.1296 14.4289 14.4613 14.4289H16.6891C17.021 14.4289 17.29 14.1599 17.29 13.8282C17.29 13.4963 17.021 13.2273 16.6891 13.2273Z" fill="white"/>
</svg>
