<svg width="12" height="18" viewBox="0 0 12 18" fill="none" xmlns="http://www.w3.org/2000/svg">
<path fill-rule="evenodd" clip-rule="evenodd" d="M0 2.14286C0 0.959391 1.03319 0 2.30769 0H9.69231C10.9668 0 12 0.959391 12 2.14286V15.8571C12 17.0406 10.9668 18 9.69231 18H2.30769C1.03319 18 0 17.0406 0 15.8571V2.14286ZM2.30769 0.857143C1.54299 0.857143 0.923077 1.43277 0.923077 2.14286V15.8571C0.923077 16.5672 1.54299 17.1429 2.30769 17.1429H9.69231C10.457 17.1429 11.0769 16.5672 11.0769 15.8571V2.14286C11.0769 1.43277 10.457 0.857143 9.69231 0.857143H2.30769Z" fill="#FF4027"/>
<path fill-rule="evenodd" clip-rule="evenodd" d="M2.76929 0.428571C2.76929 0.19188 2.97593 0 3.23083 0H8.76929C9.02415 0 9.23083 0.19188 9.23083 0.428571V1.28571C9.23083 1.9958 8.61089 2.57143 7.84621 2.57143H4.1539C3.3892 2.57143 2.76929 1.9958 2.76929 1.28571V0.428571ZM3.69236 0.857143V1.28571C3.69236 1.52241 3.899 1.71429 4.1539 1.71429H7.84621C8.10107 1.71429 8.30775 1.52241 8.30775 1.28571V0.857143H3.69236Z" fill="#FF4027"/>
<path fill-rule="evenodd" clip-rule="evenodd" d="M8 16H4V15H8V16Z" fill="#FF4027"/>
</svg>
