<svg width="20" height="20" viewBox="0 0 20 20" fill="none" xmlns="http://www.w3.org/2000/svg">
<g clip-path="url(#clip0_254:1154)">
<path d="M19.9775 12.584C19.8841 12.2353 19.5255 12.0283 19.177 12.1218L18.1861 12.3873L16.6635 6.70486C16.5701 6.35658 16.2116 6.14912 15.8629 6.24267L13.9688 6.75025L12.7845 2.33049C12.6911 1.98201 12.3324 1.77474 11.984 1.8683L6.93285 3.22174C6.58442 3.3151 6.37719 3.67361 6.47067 4.02228C6.55098 4.32201 8.84785 12.894 8.92781 13.1924C8.71164 13.1344 8.48473 13.103 8.25051 13.103C7.98445 13.103 7.72766 13.1432 7.48559 13.2174L4.78043 3.12178C4.49992 2.0749 3.4259 1.45467 2.37879 1.73513L0.484612 2.24267C0.135901 2.33611 -0.0709741 2.69455 0.0224243 3.04322C0.115862 3.39189 0.474182 3.59896 0.822971 3.50541L2.71715 2.99787C3.06606 2.90431 3.42418 3.11107 3.5177 3.4601L6.32789 13.9479C5.8986 14.4139 5.63586 15.0355 5.63586 15.7176C5.63586 17.1593 6.80879 18.3322 8.25047 18.3322C9.69219 18.3322 10.8651 17.1593 10.8651 15.7176C10.8651 15.7126 10.8647 15.7075 10.8647 15.7025L19.5153 13.3846C19.864 13.2911 20.071 12.9327 19.9775 12.584ZM8.9177 8.10365L7.90262 4.31533L11.6909 3.30025L12.706 7.08857L8.9177 8.10365ZM8.25047 17.0249C7.52961 17.0249 6.94317 16.4385 6.94317 15.7176C6.94317 14.9967 7.52961 14.4103 8.25047 14.4103C8.97133 14.4103 9.55777 14.9967 9.55777 15.7176C9.55777 16.4385 8.97133 17.0249 8.25047 17.0249ZM10.6095 14.4175L9.25606 9.36638C9.54649 9.28857 15.1375 7.79045 15.5699 7.67459L16.9232 12.7256L10.6095 14.4175Z" fill="#303030"/>
</g>
<defs>
<clipPath id="clip0_254:1154">
<rect width="20" height="20" fill="white"/>
</clipPath>
</defs>
</svg>
