<svg width="18" height="18" viewBox="0 0 18 18" fill="none" xmlns="http://www.w3.org/2000/svg">
<path d="M6.92578 2.17969H4.81641C4.52517 2.17969 4.28906 2.4158 4.28906 2.70703V4.81641C4.28906 5.10764 4.52517 5.34375 4.81641 5.34375H6.92578C7.21702 5.34375 7.45312 5.10764 7.45312 4.81641V2.70703C7.45312 2.4158 7.21702 2.17969 6.92578 2.17969ZM6.39844 4.28906H5.34375V3.23438H6.39844V4.28906Z" fill="#707070"/>
<path d="M9.03516 5.34375H11.1445C11.4358 5.34375 11.6719 5.10764 11.6719 4.81641C11.6719 4.52517 11.4358 4.28906 11.1445 4.28906H9.03516C8.74392 4.28906 8.50781 4.52517 8.50781 4.81641C8.50781 5.10764 8.74392 5.34375 9.03516 5.34375Z" fill="#707070"/>
<path d="M9.03516 3.23438H12.5508C12.842 3.23438 13.0781 2.99827 13.0781 2.70703C13.0781 2.4158 12.842 2.17969 12.5508 2.17969H9.03516C8.74392 2.17969 8.50781 2.4158 8.50781 2.70703C8.50781 2.99827 8.74392 3.23438 9.03516 3.23438Z" fill="#707070"/>
<path d="M6.92578 6.39844H4.81641C4.52517 6.39844 4.28906 6.63455 4.28906 6.92578V9.03516C4.28906 9.32639 4.52517 9.5625 4.81641 9.5625H6.92578C7.21702 9.5625 7.45312 9.32639 7.45312 9.03516V6.92578C7.45312 6.63455 7.21702 6.39844 6.92578 6.39844ZM6.39844 8.50781H5.34375V7.45312H6.39844V8.50781Z" fill="#707070"/>
<path d="M9.03516 7.45312H12.5508C12.842 7.45312 13.0781 7.21702 13.0781 6.92578C13.0781 6.63455 12.842 6.39844 12.5508 6.39844H9.03516C8.74392 6.39844 8.50781 6.63455 8.50781 6.92578C8.50781 7.21702 8.74392 7.45312 9.03516 7.45312Z" fill="#707070"/>
<path d="M6.92578 10.6172H4.81641C4.52517 10.6172 4.28906 10.8533 4.28906 11.1445V13.2539C4.28906 13.5451 4.52517 13.7812 4.81641 13.7812H6.92578C7.21702 13.7812 7.45312 13.5451 7.45312 13.2539V11.1445C7.45312 10.8533 7.21702 10.6172 6.92578 10.6172ZM6.39844 12.7266H5.34375V11.6719H6.39844V12.7266Z" fill="#707070"/>
<path d="M13.9249 11.1339C13.7241 10.9331 13.3971 10.9147 13.1871 11.1057C12.9629 11.3098 12.9567 11.6572 13.1686 11.8691L13.9144 12.6149C14.1203 12.8208 14.4542 12.8208 14.6602 12.6149L16.1517 11.1233C16.3636 10.9114 16.3575 10.564 16.1333 10.36C15.9232 10.1688 15.5962 10.1873 15.3954 10.3881L14.2873 11.4962L13.9249 11.1339Z" fill="#707070"/>
<path d="M17.6578 8.54139L15.1875 7.61502V0.527344C15.1875 0.236109 14.9514 0 14.6602 0H2.70703C2.4158 0 2.17969 0.236109 2.17969 0.527344V2.10938H0.527344C0.236109 2.10938 0 2.34548 0 2.63672V17.4727C0 17.7639 0.236109 18 0.527344 18H12.4805C12.7717 18 13.0078 17.7639 13.0078 17.4727V15.8906H13.7921C14.0098 16.0132 14.2378 16.1197 14.475 16.2086C14.5347 16.231 14.5974 16.2422 14.6602 16.2422C14.7229 16.2422 14.7856 16.231 14.8453 16.2086C15.7764 15.8595 16.5679 15.2429 17.1342 14.4256C17.7006 13.6084 18 12.6508 18 11.6564V9.03516C18 8.81536 17.8637 8.61856 17.6578 8.54139ZM11.9531 16.9453H1.05469V3.16406H2.17969V15.3633C2.17969 15.6545 2.4158 15.8906 2.70703 15.8906H11.9531V16.9453ZM3.23438 14.8359V1.05469H14.1328V7.61502L11.752 8.50781H9.03516C8.74392 8.50781 8.50781 8.74392 8.50781 9.03516C8.50781 9.32639 8.74392 9.5625 9.03516 9.5625H11.3203V10.6172H9.03516C8.74392 10.6172 8.50781 10.8533 8.50781 11.1445C8.50781 11.4358 8.74392 11.6719 9.03516 11.6719H11.3206C11.3217 12.0299 11.3618 12.3831 11.4391 12.7266H9.03516C8.74392 12.7266 8.50781 12.9627 8.50781 13.2539C8.50781 13.5451 8.74392 13.7812 9.03516 13.7812H11.8087C11.9172 14.0039 12.043 14.2193 12.1861 14.4256C12.2853 14.5688 12.3918 14.7054 12.5044 14.8359H3.23438ZM16.9453 11.6564C16.9453 13.1676 16.0349 14.5454 14.6602 15.146C13.2854 14.5454 12.375 13.1677 12.375 11.6564V9.40061L14.6602 8.54367L16.9453 9.40061V11.6564Z" fill="#707070"/>
</svg>
