<svg width="20" height="20" viewBox="0 0 20 20" fill="none" xmlns="http://www.w3.org/2000/svg">
<g clip-path="url(#clip0_106:1586)">
<mask id="path-1-outside-1_106:1586" maskUnits="userSpaceOnUse" x="-0.999512" y="-1" width="22" height="22" fill="black">
<rect fill="white" x="-0.999512" y="-1" width="22" height="22"/>
<path fill-rule="evenodd" clip-rule="evenodd" d="M18.3968 11.1119H19.4388C19.748 11.1119 19.9996 11.3635 19.9996 11.6727V13.1806C19.9996 13.4898 19.748 13.7414 19.4388 13.7414H18.3968C18.242 14.4475 17.9667 15.1128 17.5783 15.7194L18.3145 16.4556C18.4204 16.5615 18.4787 16.7023 18.4787 16.8521C18.4787 17.002 18.4204 17.1428 18.3144 17.2487L17.2482 18.315C17.1423 18.4209 17.0015 18.4792 16.8517 18.4792C16.7018 18.4792 16.561 18.4209 16.4551 18.315L15.7189 17.5788C15.1123 17.9672 14.4471 18.2425 13.741 18.3972V19.4393C13.741 19.7486 13.4894 20.0001 13.1802 20.0001H11.6722C11.363 20.0001 11.1115 19.7486 11.1115 19.4393V18.3974C10.4054 18.2427 9.74014 17.9674 9.13347 17.5789L8.39733 18.3151C8.29137 18.421 8.15057 18.4793 8.00076 18.4793C7.85095 18.4793 7.71016 18.421 7.60423 18.315L6.53793 17.2488C6.432 17.1429 6.37367 17.0021 6.37367 16.8523C6.37367 16.7024 6.432 16.5616 6.53797 16.4557L7.27411 15.7195C6.8857 15.1129 6.6104 14.4476 6.45563 13.7415H5.41365C5.10442 13.7415 4.85286 13.49 4.85286 13.1807V11.6728C4.85286 11.4981 4.93314 11.342 5.05866 11.2391V11.0474C4.51259 10.9227 3.99697 10.7093 3.52419 10.4125L2.96098 10.9757C2.76228 11.1743 2.43915 11.1743 2.24053 10.9757L1.37879 10.1139C1.18017 9.91527 1.18017 9.5921 1.37879 9.39349L1.942 8.83027C1.64519 8.35749 1.43181 7.84179 1.30702 7.29576H0.509898C0.229014 7.29576 0.000488281 7.06723 0.000488281 6.78635V5.56762C0.000488281 5.28674 0.229014 5.05821 0.509898 5.05821H1.30702C1.43181 4.51222 1.64519 3.99653 1.942 3.5237L1.37879 2.96049C1.18021 2.76183 1.18021 2.4387 1.37879 2.24008L2.24049 1.37834C2.3367 1.28209 2.46465 1.22911 2.60075 1.22911C2.73686 1.22911 2.86477 1.28209 2.96098 1.37834L3.52411 1.94151C3.99694 1.64474 4.51263 1.43132 5.05863 1.30654V0.50941C5.05863 0.228526 5.28715 0 5.56804 0H6.78676C7.06768 0 7.29617 0.228526 7.29613 0.50941V1.3065C7.84216 1.43128 8.35782 1.64466 8.83065 1.94147L9.3939 1.3783C9.49006 1.28206 9.61801 1.22907 9.75408 1.22907C9.89015 1.22907 10.0181 1.28206 10.1143 1.37826L10.9761 2.24004C11.1747 2.4387 11.1747 2.76183 10.9761 2.96045L10.4129 3.52366C10.7097 3.9966 10.9231 4.51222 11.0478 5.05818H11.2392C11.3421 4.93316 11.498 4.85327 11.6722 4.85327H13.1802C13.4894 4.85327 13.741 5.10487 13.741 5.41406V6.45604C14.4471 6.61081 15.1123 6.88607 15.7189 7.27456L16.4551 6.53834C16.561 6.43241 16.7018 6.37408 16.8517 6.37408C17.0015 6.37408 17.1423 6.43245 17.2482 6.53838L18.3145 7.60464C18.4204 7.71053 18.4787 7.85136 18.4787 8.00117C18.4787 8.15098 18.4204 8.29182 18.3144 8.39774L17.5783 9.13392C17.9668 9.74059 18.2421 10.4058 18.3968 11.1119ZM3.79031 9.88759C4.23448 10.174 4.72265 10.376 5.24135 10.488C5.47488 10.5385 5.64433 10.7479 5.64433 10.986V11.1119H6.45563C6.61036 10.4059 6.8857 9.74055 7.27411 9.13396L6.53793 8.39774C6.53031 8.39015 6.5233 8.38212 6.51629 8.37408C6.51501 8.37261 6.51372 8.37114 6.51244 8.36967C6.40143 8.38658 6.28949 8.39544 6.17744 8.39544C5.60911 8.39544 5.0407 8.1791 4.60802 7.74641C3.9076 7.04599 3.75674 5.95412 4.24116 5.09117C4.32034 4.95014 4.49889 4.90001 4.63984 4.97915C4.78086 5.05829 4.831 5.2368 4.75185 5.37783C4.39534 6.01288 4.5065 6.81657 5.0222 7.33227C5.33076 7.64083 5.74104 7.81079 6.17748 7.81079C6.25732 7.81079 6.33611 7.80447 6.41369 7.79318C6.44153 7.72345 6.48327 7.6593 6.53801 7.6046L7.60427 6.53834C7.65889 6.48376 7.72288 6.44206 7.7925 6.41422C7.86438 5.92074 7.71172 5.40059 7.33279 5.02167C6.88125 4.57012 6.20278 4.42285 5.60446 4.64645C5.45297 4.70303 5.28426 4.62611 5.22769 4.47462C5.17103 4.32313 5.24799 4.15442 5.39948 4.09781C6.21219 3.7942 7.13363 3.99426 7.7469 4.60757C8.26529 5.12596 8.47281 5.83906 8.37008 6.51363C8.3716 6.51496 8.37312 6.51628 8.37464 6.51761C8.38234 6.52433 8.39003 6.53104 8.39733 6.53834L9.13355 7.27456C9.74018 6.88607 10.4054 6.61077 11.1115 6.45604V5.64384H10.9865C10.7484 5.64384 10.539 5.47435 10.4885 5.24082C10.3766 4.72228 10.1745 4.23407 9.88812 3.78983C9.75873 3.58914 9.78699 3.32129 9.95539 3.15294L10.5081 2.60027L9.75412 1.84632L9.20145 2.39903C9.03305 2.56743 8.76521 2.59562 8.56452 2.46627C8.12032 2.17992 7.63215 1.9779 7.11352 1.86588C6.88004 1.81544 6.71055 1.606 6.71055 1.36791V0.585663H5.64433V1.36787C5.64433 1.60597 5.47484 1.8154 5.24135 1.86584C4.72273 1.97786 4.23456 2.17988 3.79039 2.46627C3.58951 2.59566 3.32178 2.56739 3.15346 2.39903L2.60079 1.84632L1.84685 2.60027L2.39956 3.15298C2.56788 3.32133 2.59615 3.58918 2.46679 3.78983C2.1804 4.23399 1.97839 4.72216 1.86637 5.24082C1.81585 5.47439 1.60642 5.64384 1.3684 5.64384H0.586151V6.71002H1.36836C1.60642 6.71002 1.81581 6.87947 1.86629 7.11292C1.97835 7.63166 2.18036 8.11987 2.46675 8.56399C2.59611 8.76472 2.56784 9.03252 2.39952 9.20088L1.84681 9.75363L2.60075 10.5076L3.15342 9.95487C3.32174 9.78651 3.58951 9.75824 3.79031 9.88759ZM18.3766 13.1557H19.4139V11.6976H18.3765C18.1144 11.6976 17.8839 11.5109 17.8283 11.2537C17.6879 10.6038 17.4347 9.992 17.0759 9.43538C16.9334 9.21443 16.9645 8.91953 17.1498 8.73419L17.8828 8.00105L16.8517 6.96994L16.1188 7.70295C15.9334 7.88833 15.6385 7.91933 15.4175 7.7769C14.8608 7.41801 14.2491 7.16484 13.5992 7.02448C13.342 6.96892 13.1554 6.73836 13.1554 6.47626V5.4389H11.6972V6.4763C11.6972 6.7384 11.5105 6.96896 11.2533 7.02452C10.6035 7.16488 9.9917 7.41805 9.43501 7.77694C9.21398 7.91937 8.91908 7.88829 8.73378 7.70299L8.00084 6.96997L6.96972 8.00109L7.7027 8.73411C7.88804 8.91941 7.91912 9.21431 7.77657 9.43534C7.41772 9.99192 7.16459 10.6037 7.02419 11.2536C6.96859 11.5108 6.73807 11.6974 6.47597 11.6974H5.4386V13.1557H6.47597C6.73807 13.1557 6.96859 13.3423 7.02419 13.5995C7.16459 14.2495 7.41775 14.8612 7.77661 15.4178C7.91912 15.6388 7.88804 15.9337 7.70266 16.119L6.96972 16.8521L8.00084 17.8832L8.73378 17.1502C8.91916 16.9649 9.2141 16.9338 9.43501 17.0763C9.9917 17.4351 10.6034 17.6883 11.2533 17.8287C11.5105 17.8843 11.6972 18.1148 11.6972 18.3769V19.4143H13.1554V18.3769C13.1554 18.1148 13.342 17.8842 13.5992 17.8287C14.2491 17.6883 14.8609 17.4351 15.4175 17.0763C15.6385 16.9338 15.9334 16.9649 16.1187 17.1502L16.8517 17.8832L17.8828 16.8521L17.1498 16.1191C16.9645 15.9338 16.9334 15.6388 17.076 15.4179C17.4348 14.8613 17.6879 14.2495 17.8283 13.5996C17.8839 13.3424 18.1145 13.1557 18.3766 13.1557ZM9.76847 9.7688C8.67902 10.8583 8.36401 12.4787 8.96604 13.8968C9.02921 14.0457 9.20124 14.115 9.35 14.0519C9.49887 13.9887 9.56833 13.8168 9.50512 13.668C8.99688 12.4707 9.26285 11.1027 10.1827 10.1829C11.4199 8.94575 13.433 8.94579 14.6701 10.1829C15.9073 11.4201 15.9073 13.4332 14.6701 14.6704C14.0757 15.2647 13.2856 15.5947 12.4452 15.5997L12.4261 15.5997C11.5934 15.5997 10.8076 15.2802 10.2114 14.6988C10.0956 14.5858 9.91024 14.5881 9.79737 14.7039C9.68445 14.8197 9.68676 15.0051 9.80256 15.118C10.5088 15.8069 11.4396 16.1854 12.4259 16.1854L12.4486 16.1853C13.4441 16.1795 14.3802 15.7885 15.0843 15.0844C16.5498 13.6189 16.5498 11.2343 15.0843 9.76877C13.6186 8.30328 11.2341 8.30328 9.76847 9.7688ZM12.4262 14.7089C13.0109 14.7089 13.5956 14.4863 14.0407 14.0412C14.9309 13.151 14.9309 11.7025 14.0407 10.8123C13.1505 9.92201 11.702 9.92201 10.8117 10.8123C9.92154 11.7025 9.92154 13.151 10.8117 14.0412C11.2569 14.4863 11.8415 14.7089 12.4262 14.7089ZM11.2259 11.2264C11.5569 10.8954 11.9915 10.7299 12.4262 10.7299C12.8609 10.7299 13.2957 10.8955 13.6266 11.2264C14.2884 11.8882 14.2884 12.9652 13.6266 13.627C12.9647 14.2889 11.8877 14.2889 11.2259 13.627C10.564 12.9652 10.564 11.8882 11.2259 11.2264Z"/>
</mask>
<path fill-rule="evenodd" clip-rule="evenodd" d="M18.3968 11.1119H19.4388C19.748 11.1119 19.9996 11.3635 19.9996 11.6727V13.1806C19.9996 13.4898 19.748 13.7414 19.4388 13.7414H18.3968C18.242 14.4475 17.9667 15.1128 17.5783 15.7194L18.3145 16.4556C18.4204 16.5615 18.4787 16.7023 18.4787 16.8521C18.4787 17.002 18.4204 17.1428 18.3144 17.2487L17.2482 18.315C17.1423 18.4209 17.0015 18.4792 16.8517 18.4792C16.7018 18.4792 16.561 18.4209 16.4551 18.315L15.7189 17.5788C15.1123 17.9672 14.4471 18.2425 13.741 18.3972V19.4393C13.741 19.7486 13.4894 20.0001 13.1802 20.0001H11.6722C11.363 20.0001 11.1115 19.7486 11.1115 19.4393V18.3974C10.4054 18.2427 9.74014 17.9674 9.13347 17.5789L8.39733 18.3151C8.29137 18.421 8.15057 18.4793 8.00076 18.4793C7.85095 18.4793 7.71016 18.421 7.60423 18.315L6.53793 17.2488C6.432 17.1429 6.37367 17.0021 6.37367 16.8523C6.37367 16.7024 6.432 16.5616 6.53797 16.4557L7.27411 15.7195C6.8857 15.1129 6.6104 14.4476 6.45563 13.7415H5.41365C5.10442 13.7415 4.85286 13.49 4.85286 13.1807V11.6728C4.85286 11.4981 4.93314 11.342 5.05866 11.2391V11.0474C4.51259 10.9227 3.99697 10.7093 3.52419 10.4125L2.96098 10.9757C2.76228 11.1743 2.43915 11.1743 2.24053 10.9757L1.37879 10.1139C1.18017 9.91527 1.18017 9.5921 1.37879 9.39349L1.942 8.83027C1.64519 8.35749 1.43181 7.84179 1.30702 7.29576H0.509898C0.229014 7.29576 0.000488281 7.06723 0.000488281 6.78635V5.56762C0.000488281 5.28674 0.229014 5.05821 0.509898 5.05821H1.30702C1.43181 4.51222 1.64519 3.99653 1.942 3.5237L1.37879 2.96049C1.18021 2.76183 1.18021 2.4387 1.37879 2.24008L2.24049 1.37834C2.3367 1.28209 2.46465 1.22911 2.60075 1.22911C2.73686 1.22911 2.86477 1.28209 2.96098 1.37834L3.52411 1.94151C3.99694 1.64474 4.51263 1.43132 5.05863 1.30654V0.50941C5.05863 0.228526 5.28715 0 5.56804 0H6.78676C7.06768 0 7.29617 0.228526 7.29613 0.50941V1.3065C7.84216 1.43128 8.35782 1.64466 8.83065 1.94147L9.3939 1.3783C9.49006 1.28206 9.61801 1.22907 9.75408 1.22907C9.89015 1.22907 10.0181 1.28206 10.1143 1.37826L10.9761 2.24004C11.1747 2.4387 11.1747 2.76183 10.9761 2.96045L10.4129 3.52366C10.7097 3.9966 10.9231 4.51222 11.0478 5.05818H11.2392C11.3421 4.93316 11.498 4.85327 11.6722 4.85327H13.1802C13.4894 4.85327 13.741 5.10487 13.741 5.41406V6.45604C14.4471 6.61081 15.1123 6.88607 15.7189 7.27456L16.4551 6.53834C16.561 6.43241 16.7018 6.37408 16.8517 6.37408C17.0015 6.37408 17.1423 6.43245 17.2482 6.53838L18.3145 7.60464C18.4204 7.71053 18.4787 7.85136 18.4787 8.00117C18.4787 8.15098 18.4204 8.29182 18.3144 8.39774L17.5783 9.13392C17.9668 9.74059 18.2421 10.4058 18.3968 11.1119ZM3.79031 9.88759C4.23448 10.174 4.72265 10.376 5.24135 10.488C5.47488 10.5385 5.64433 10.7479 5.64433 10.986V11.1119H6.45563C6.61036 10.4059 6.8857 9.74055 7.27411 9.13396L6.53793 8.39774C6.53031 8.39015 6.5233 8.38212 6.51629 8.37408C6.51501 8.37261 6.51372 8.37114 6.51244 8.36967C6.40143 8.38658 6.28949 8.39544 6.17744 8.39544C5.60911 8.39544 5.0407 8.1791 4.60802 7.74641C3.9076 7.04599 3.75674 5.95412 4.24116 5.09117C4.32034 4.95014 4.49889 4.90001 4.63984 4.97915C4.78086 5.05829 4.831 5.2368 4.75185 5.37783C4.39534 6.01288 4.5065 6.81657 5.0222 7.33227C5.33076 7.64083 5.74104 7.81079 6.17748 7.81079C6.25732 7.81079 6.33611 7.80447 6.41369 7.79318C6.44153 7.72345 6.48327 7.6593 6.53801 7.6046L7.60427 6.53834C7.65889 6.48376 7.72288 6.44206 7.7925 6.41422C7.86438 5.92074 7.71172 5.40059 7.33279 5.02167C6.88125 4.57012 6.20278 4.42285 5.60446 4.64645C5.45297 4.70303 5.28426 4.62611 5.22769 4.47462C5.17103 4.32313 5.24799 4.15442 5.39948 4.09781C6.21219 3.7942 7.13363 3.99426 7.7469 4.60757C8.26529 5.12596 8.47281 5.83906 8.37008 6.51363C8.3716 6.51496 8.37312 6.51628 8.37464 6.51761C8.38234 6.52433 8.39003 6.53104 8.39733 6.53834L9.13355 7.27456C9.74018 6.88607 10.4054 6.61077 11.1115 6.45604V5.64384H10.9865C10.7484 5.64384 10.539 5.47435 10.4885 5.24082C10.3766 4.72228 10.1745 4.23407 9.88812 3.78983C9.75873 3.58914 9.78699 3.32129 9.95539 3.15294L10.5081 2.60027L9.75412 1.84632L9.20145 2.39903C9.03305 2.56743 8.76521 2.59562 8.56452 2.46627C8.12032 2.17992 7.63215 1.9779 7.11352 1.86588C6.88004 1.81544 6.71055 1.606 6.71055 1.36791V0.585663H5.64433V1.36787C5.64433 1.60597 5.47484 1.8154 5.24135 1.86584C4.72273 1.97786 4.23456 2.17988 3.79039 2.46627C3.58951 2.59566 3.32178 2.56739 3.15346 2.39903L2.60079 1.84632L1.84685 2.60027L2.39956 3.15298C2.56788 3.32133 2.59615 3.58918 2.46679 3.78983C2.1804 4.23399 1.97839 4.72216 1.86637 5.24082C1.81585 5.47439 1.60642 5.64384 1.3684 5.64384H0.586151V6.71002H1.36836C1.60642 6.71002 1.81581 6.87947 1.86629 7.11292C1.97835 7.63166 2.18036 8.11987 2.46675 8.56399C2.59611 8.76472 2.56784 9.03252 2.39952 9.20088L1.84681 9.75363L2.60075 10.5076L3.15342 9.95487C3.32174 9.78651 3.58951 9.75824 3.79031 9.88759ZM18.3766 13.1557H19.4139V11.6976H18.3765C18.1144 11.6976 17.8839 11.5109 17.8283 11.2537C17.6879 10.6038 17.4347 9.992 17.0759 9.43538C16.9334 9.21443 16.9645 8.91953 17.1498 8.73419L17.8828 8.00105L16.8517 6.96994L16.1188 7.70295C15.9334 7.88833 15.6385 7.91933 15.4175 7.7769C14.8608 7.41801 14.2491 7.16484 13.5992 7.02448C13.342 6.96892 13.1554 6.73836 13.1554 6.47626V5.4389H11.6972V6.4763C11.6972 6.7384 11.5105 6.96896 11.2533 7.02452C10.6035 7.16488 9.9917 7.41805 9.43501 7.77694C9.21398 7.91937 8.91908 7.88829 8.73378 7.70299L8.00084 6.96997L6.96972 8.00109L7.7027 8.73411C7.88804 8.91941 7.91912 9.21431 7.77657 9.43534C7.41772 9.99192 7.16459 10.6037 7.02419 11.2536C6.96859 11.5108 6.73807 11.6974 6.47597 11.6974H5.4386V13.1557H6.47597C6.73807 13.1557 6.96859 13.3423 7.02419 13.5995C7.16459 14.2495 7.41775 14.8612 7.77661 15.4178C7.91912 15.6388 7.88804 15.9337 7.70266 16.119L6.96972 16.8521L8.00084 17.8832L8.73378 17.1502C8.91916 16.9649 9.2141 16.9338 9.43501 17.0763C9.9917 17.4351 10.6034 17.6883 11.2533 17.8287C11.5105 17.8843 11.6972 18.1148 11.6972 18.3769V19.4143H13.1554V18.3769C13.1554 18.1148 13.342 17.8842 13.5992 17.8287C14.2491 17.6883 14.8609 17.4351 15.4175 17.0763C15.6385 16.9338 15.9334 16.9649 16.1187 17.1502L16.8517 17.8832L17.8828 16.8521L17.1498 16.1191C16.9645 15.9338 16.9334 15.6388 17.076 15.4179C17.4348 14.8613 17.6879 14.2495 17.8283 13.5996C17.8839 13.3424 18.1145 13.1557 18.3766 13.1557ZM9.76847 9.7688C8.67902 10.8583 8.36401 12.4787 8.96604 13.8968C9.02921 14.0457 9.20124 14.115 9.35 14.0519C9.49887 13.9887 9.56833 13.8168 9.50512 13.668C8.99688 12.4707 9.26285 11.1027 10.1827 10.1829C11.4199 8.94575 13.433 8.94579 14.6701 10.1829C15.9073 11.4201 15.9073 13.4332 14.6701 14.6704C14.0757 15.2647 13.2856 15.5947 12.4452 15.5997L12.4261 15.5997C11.5934 15.5997 10.8076 15.2802 10.2114 14.6988C10.0956 14.5858 9.91024 14.5881 9.79737 14.7039C9.68445 14.8197 9.68676 15.0051 9.80256 15.118C10.5088 15.8069 11.4396 16.1854 12.4259 16.1854L12.4486 16.1853C13.4441 16.1795 14.3802 15.7885 15.0843 15.0844C16.5498 13.6189 16.5498 11.2343 15.0843 9.76877C13.6186 8.30328 11.2341 8.30328 9.76847 9.7688ZM12.4262 14.7089C13.0109 14.7089 13.5956 14.4863 14.0407 14.0412C14.9309 13.151 14.9309 11.7025 14.0407 10.8123C13.1505 9.92201 11.702 9.92201 10.8117 10.8123C9.92154 11.7025 9.92154 13.151 10.8117 14.0412C11.2569 14.4863 11.8415 14.7089 12.4262 14.7089ZM11.2259 11.2264C11.5569 10.8954 11.9915 10.7299 12.4262 10.7299C12.8609 10.7299 13.2957 10.8955 13.6266 11.2264C14.2884 11.8882 14.2884 12.9652 13.6266 13.627C12.9647 14.2889 11.8877 14.2889 11.2259 13.627C10.564 12.9652 10.564 11.8882 11.2259 11.2264Z" fill="white"/>
<path d="M18.3968 11.1119L18.2991 11.1333L18.3163 11.2119H18.3968V11.1119ZM19.9996 11.6727L19.8996 11.6726V11.6727H19.9996ZM18.3968 13.7414V13.6414H18.3163L18.2991 13.72L18.3968 13.7414ZM17.5783 15.7194L17.4941 15.6655L17.4507 15.7332L17.5076 15.7901L17.5783 15.7194ZM18.3145 16.4556L18.2438 16.5263L18.2438 16.5263L18.3145 16.4556ZM18.3144 17.2487L18.2437 17.178L18.2437 17.178L18.3144 17.2487ZM16.4551 18.315L16.3844 18.3857L16.3844 18.3857L16.4551 18.315ZM15.7189 17.5788L15.7897 17.508L15.7328 17.4512L15.665 17.4945L15.7189 17.5788ZM13.741 18.3972L13.7196 18.2996L13.641 18.3168V18.3972H13.741ZM11.1115 18.3974H11.2115V18.3169L11.1329 18.2997L11.1115 18.3974ZM9.13347 17.5789L9.1874 17.4947L9.11965 17.4513L9.06276 17.5082L9.13347 17.5789ZM8.39733 18.3151L8.46803 18.3858L8.46805 18.3858L8.39733 18.3151ZM7.60423 18.315L7.67494 18.2443H7.67494L7.60423 18.315ZM6.53793 17.2488L6.60864 17.1781L6.60863 17.1781L6.53793 17.2488ZM6.53797 16.4557L6.60867 16.5264L6.60868 16.5264L6.53797 16.4557ZM7.27411 15.7195L7.34482 15.7902L7.40171 15.7333L7.35833 15.6656L7.27411 15.7195ZM6.45563 13.7415L6.55331 13.7201L6.53608 13.6415H6.45563V13.7415ZM5.05866 11.2391L5.12207 11.3164L5.15866 11.2864V11.2391H5.05866ZM5.05866 11.0474H5.15866V10.9677L5.08094 10.95L5.05866 11.0474ZM3.52419 10.4125L3.57736 10.3278L3.50984 10.2854L3.45348 10.3418L3.52419 10.4125ZM2.96098 10.9757L3.03168 11.0464L3.03169 11.0464L2.96098 10.9757ZM2.24053 10.9757L2.16982 11.0464L2.16983 11.0464L2.24053 10.9757ZM1.37879 10.1139L1.4495 10.0432L1.4495 10.0432L1.37879 10.1139ZM1.37879 9.39349L1.30808 9.32278V9.32278L1.37879 9.39349ZM1.942 8.83027L2.01271 8.90099L2.06908 8.84462L2.02669 8.7771L1.942 8.83027ZM1.30702 7.29576L1.40451 7.27348L1.38675 7.19576H1.30702V7.29576ZM1.30702 5.05821V5.15821H1.38675L1.40451 5.08049L1.30702 5.05821ZM1.942 3.5237L2.0267 3.57687L2.06908 3.50935L2.01271 3.45299L1.942 3.5237ZM1.37879 2.96049L1.30806 3.03118L1.30808 3.0312L1.37879 2.96049ZM1.37879 2.24008L1.30808 2.16937L1.30807 2.16938L1.37879 2.24008ZM2.24049 1.37834L2.31121 1.44905L2.31122 1.44903L2.24049 1.37834ZM2.96098 1.37834L2.89025 1.44903L2.89026 1.44905L2.96098 1.37834ZM3.52411 1.94151L3.4534 2.01222L3.50976 2.06859L3.57727 2.02621L3.52411 1.94151ZM5.05863 1.30654L5.08091 1.40402L5.15863 1.38626V1.30654H5.05863ZM7.29613 0.50941L7.19613 0.509396V0.50941H7.29613ZM7.29613 1.3065H7.19613V1.38622L7.27385 1.40398L7.29613 1.3065ZM8.83065 1.94147L8.77748 2.02617L8.84499 2.06855L8.90135 2.01219L8.83065 1.94147ZM9.3939 1.3783L9.4646 1.44901L9.46464 1.44898L9.3939 1.3783ZM10.1143 1.37826L10.185 1.30755L10.185 1.30753L10.1143 1.37826ZM10.9761 2.24004L11.0468 2.16935L11.0468 2.16933L10.9761 2.24004ZM10.9761 2.96045L11.0468 3.03116L11.0468 3.03115L10.9761 2.96045ZM10.4129 3.52366L10.3422 3.45295L10.2858 3.50931L10.3282 3.57682L10.4129 3.52366ZM11.0478 5.05818L10.9504 5.08045L10.9681 5.15818H11.0478V5.05818ZM11.2392 5.05818V5.15818H11.2864L11.3164 5.12173L11.2392 5.05818ZM13.741 6.45604H13.641V6.53649L13.7196 6.55372L13.741 6.45604ZM15.7189 7.27456L15.665 7.35877L15.7327 7.40216L15.7896 7.34527L15.7189 7.27456ZM16.4551 6.53834L16.3844 6.46762L16.3844 6.46763L16.4551 6.53834ZM17.2482 6.53838L17.1775 6.60909L17.1775 6.60909L17.2482 6.53838ZM18.3145 7.60464L18.2438 7.67535L18.2438 7.67536L18.3145 7.60464ZM18.3144 8.39774L18.2437 8.32702L18.2437 8.32703L18.3144 8.39774ZM17.5783 9.13392L17.5076 9.06321L17.4507 9.1201L17.4941 9.18785L17.5783 9.13392ZM5.24135 10.488L5.26248 10.3903L5.26247 10.3903L5.24135 10.488ZM3.79031 9.88759L3.8445 9.80355L3.84447 9.80352L3.79031 9.88759ZM5.64433 11.1119H5.54433V11.2119H5.64433V11.1119ZM6.45563 11.1119V11.2119H6.53609L6.55331 11.1333L6.45563 11.1119ZM7.27411 9.13396L7.35833 9.18789L7.40171 9.12014L7.34482 9.06325L7.27411 9.13396ZM6.53793 8.39774L6.60864 8.32703L6.60849 8.32688L6.53793 8.39774ZM6.51629 8.37408L6.44093 8.43981L6.44093 8.43982L6.51629 8.37408ZM6.51244 8.36967L6.58764 8.30376L6.55154 8.26256L6.49738 8.27081L6.51244 8.36967ZM4.60802 7.74641L4.53731 7.81712L4.60802 7.74641ZM4.24116 5.09117L4.15396 5.04221L4.15396 5.04222L4.24116 5.09117ZM4.63984 4.97915L4.59088 5.06635L4.5909 5.06636L4.63984 4.97915ZM4.75185 5.37783L4.83905 5.42678L4.83906 5.42677L4.75185 5.37783ZM5.0222 7.33227L4.95149 7.40298L5.0222 7.33227ZM6.41369 7.79318L6.42809 7.89214L6.48518 7.88384L6.50657 7.83026L6.41369 7.79318ZM6.53801 7.6046L6.6087 7.67533L6.60872 7.67531L6.53801 7.6046ZM7.60427 6.53834L7.53358 6.46761L7.53356 6.46763L7.60427 6.53834ZM7.7925 6.41422L7.82963 6.50707L7.88315 6.48567L7.89146 6.42863L7.7925 6.41422ZM7.33279 5.02167L7.26208 5.09238L7.33279 5.02167ZM5.60446 4.64645L5.63945 4.74014L5.63947 4.74013L5.60446 4.64645ZM5.22769 4.47462L5.32137 4.43964L5.32135 4.43959L5.22769 4.47462ZM5.39948 4.09781L5.36449 4.00413L5.36447 4.00413L5.39948 4.09781ZM7.7469 4.60757L7.67618 4.67828L7.67619 4.67828L7.7469 4.60757ZM8.37008 6.51363L8.27122 6.49857L8.26298 6.55269L8.30413 6.58879L8.37008 6.51363ZM8.37464 6.51761L8.44038 6.44226L8.44037 6.44225L8.37464 6.51761ZM8.39733 6.53834L8.46805 6.46763L8.39733 6.53834ZM9.13355 7.27456L9.06284 7.34527L9.11973 7.40216L9.18748 7.35877L9.13355 7.27456ZM11.1115 6.45604L11.1329 6.55372L11.2115 6.5365V6.45604H11.1115ZM11.1115 5.64384H11.2115V5.54384H11.1115V5.64384ZM10.4885 5.24082L10.3908 5.26193L10.3908 5.26194L10.4885 5.24082ZM9.88812 3.78983L9.80407 3.84401V3.84401L9.88812 3.78983ZM9.95539 3.15294L10.0261 3.22365L10.0261 3.22365L9.95539 3.15294ZM10.5081 2.60027L10.5788 2.67098L10.6495 2.60027L10.5788 2.52955L10.5081 2.60027ZM9.75412 1.84632L9.82483 1.77561L9.75412 1.7049L9.68341 1.77561L9.75412 1.84632ZM9.20145 2.39903L9.27216 2.46974L9.27216 2.46974L9.20145 2.39903ZM8.56452 2.46627L8.51034 2.55032L8.51034 2.55032L8.56452 2.46627ZM7.11352 1.86588L7.0924 1.96363L7.09241 1.96363L7.11352 1.86588ZM6.71055 0.585663H6.81055V0.485663H6.71055V0.585663ZM5.64433 0.585663V0.485663H5.54433V0.585663H5.64433ZM5.24135 1.86584L5.26246 1.96359L5.26247 1.96359L5.24135 1.86584ZM3.79039 2.46627L3.84454 2.55034L3.84458 2.55031L3.79039 2.46627ZM3.15346 2.39903L3.22418 2.32833L3.22418 2.32832L3.15346 2.39903ZM2.60079 1.84632L2.67151 1.77561L2.6008 1.7049L2.53008 1.77561L2.60079 1.84632ZM1.84685 2.60027L1.77614 2.52955L1.70543 2.60027L1.77614 2.67098L1.84685 2.60027ZM2.39956 3.15298L2.47028 3.08227L2.47027 3.08226L2.39956 3.15298ZM2.46679 3.78983L2.55084 3.84402L2.55084 3.84401L2.46679 3.78983ZM1.86637 5.24082L1.96411 5.26197L1.96412 5.26193L1.86637 5.24082ZM0.586151 5.64384V5.54384H0.486151V5.64384H0.586151ZM0.586151 6.71002H0.486151V6.81002H0.586151V6.71002ZM1.86629 7.11292L1.96404 7.0918L1.96403 7.09178L1.86629 7.11292ZM2.46675 8.56399L2.55081 8.50982L2.5508 8.5098L2.46675 8.56399ZM2.39952 9.20088L2.47023 9.27159L2.47024 9.27158L2.39952 9.20088ZM1.84681 9.75363L1.7761 9.68292L1.70539 9.75363L1.7761 9.82434L1.84681 9.75363ZM2.60075 10.5076L2.53004 10.5783L2.60076 10.649L2.67147 10.5783L2.60075 10.5076ZM3.15342 9.95487L3.22414 10.0256L3.22414 10.0256L3.15342 9.95487ZM19.4139 13.1557V13.2557H19.5139V13.1557H19.4139ZM19.4139 11.6976H19.5139V11.5976H19.4139V11.6976ZM17.8283 11.2537L17.7306 11.2749L17.7306 11.2749L17.8283 11.2537ZM17.0759 9.43538L17.1599 9.3812L17.1599 9.38118L17.0759 9.43538ZM17.1498 8.73419L17.2205 8.8049L17.2206 8.80489L17.1498 8.73419ZM17.8828 8.00105L17.9535 8.07176L18.0242 8.00105L17.9535 7.93034L17.8828 8.00105ZM16.8517 6.96994L16.9224 6.89923L16.8517 6.82851L16.781 6.89923L16.8517 6.96994ZM16.1188 7.70295L16.1895 7.77366L16.1895 7.77366L16.1188 7.70295ZM15.4175 7.7769L15.3633 7.86095L15.3633 7.86095L15.4175 7.7769ZM13.5992 7.02448L13.578 7.12222L13.578 7.12223L13.5992 7.02448ZM13.1554 5.4389H13.2554V5.3389H13.1554V5.4389ZM11.6972 5.4389V5.3389H11.5972V5.4389H11.6972ZM11.2533 7.02452L11.2745 7.12227L11.2745 7.12226L11.2533 7.02452ZM9.43501 7.77694L9.48918 7.861L9.4892 7.86099L9.43501 7.77694ZM8.73378 7.70299L8.66306 7.7737L8.66307 7.7737L8.73378 7.70299ZM8.00084 6.96997L8.07156 6.89927L8.00084 6.82855L7.93013 6.89926L8.00084 6.96997ZM6.96972 8.00109L6.89901 7.93038L6.8283 8.00109L6.89901 8.0718L6.96972 8.00109ZM7.7027 8.73411L7.63199 8.80482L7.632 8.80483L7.7027 8.73411ZM7.77657 9.43534L7.69253 9.38114L7.69253 9.38115L7.77657 9.43534ZM7.02419 11.2536L7.12193 11.2748L7.12193 11.2747L7.02419 11.2536ZM5.4386 11.6974V11.5974H5.3386V11.6974H5.4386ZM5.4386 13.1557H5.3386V13.2557H5.4386V13.1557ZM7.02419 13.5995L7.12193 13.5784L7.12193 13.5784L7.02419 13.5995ZM7.77661 15.4178L7.69256 15.472L7.69257 15.472L7.77661 15.4178ZM7.70266 16.119L7.63196 16.0483L7.63194 16.0483L7.70266 16.119ZM6.96972 16.8521L6.89901 16.7814L6.8283 16.8521L6.89901 16.9228L6.96972 16.8521ZM8.00084 17.8832L7.93013 17.9539L8.00084 18.0246L8.07155 17.9539L8.00084 17.8832ZM8.73378 17.1502L8.66308 17.0794L8.66306 17.0795L8.73378 17.1502ZM9.43501 17.0763L9.38082 17.1603L9.38083 17.1603L9.43501 17.0763ZM11.2533 17.8287L11.2745 17.7309L11.2745 17.7309L11.2533 17.8287ZM11.6972 19.4143H11.5972V19.5143H11.6972V19.4143ZM13.1554 19.4143V19.5143H13.2554V19.4143H13.1554ZM13.5992 17.8287L13.578 17.7309L13.578 17.7309L13.5992 17.8287ZM15.4175 17.0763L15.3633 16.9922L15.3633 16.9922L15.4175 17.0763ZM16.1187 17.1502L16.1894 17.0795L16.1894 17.0795L16.1187 17.1502ZM16.8517 17.8832L16.781 17.9539L16.8517 18.0246L16.9224 17.9539L16.8517 17.8832ZM17.8828 16.8521L17.9535 16.9228L18.0242 16.8521L17.9535 16.7814L17.8828 16.8521ZM17.1498 16.1191L17.2205 16.0484L17.2205 16.0484L17.1498 16.1191ZM17.076 15.4179L17.16 15.472L17.16 15.472L17.076 15.4179ZM17.8283 13.5996L17.7306 13.5784L17.7306 13.5784L17.8283 13.5996ZM8.96604 13.8968L9.05809 13.8577L9.05809 13.8577L8.96604 13.8968ZM9.76847 9.7688L9.69777 9.69809L9.69776 9.6981L9.76847 9.7688ZM9.35 14.0519L9.38907 14.144L9.38908 14.144L9.35 14.0519ZM9.50512 13.668L9.41307 13.707L9.41308 13.707L9.50512 13.668ZM10.1827 10.1829L10.1119 10.1122L10.1827 10.1829ZM14.6701 10.1829L14.5994 10.2537L14.5994 10.2537L14.6701 10.1829ZM14.6701 14.6704L14.7408 14.7411L14.7408 14.7411L14.6701 14.6704ZM12.4452 15.5997L12.4454 15.6997L12.4457 15.6997L12.4452 15.5997ZM12.4261 15.5997V15.6997L12.4263 15.6997L12.4261 15.5997ZM10.2114 14.6988L10.1416 14.7703L10.1416 14.7703L10.2114 14.6988ZM9.79737 14.7039L9.86895 14.7737L9.86897 14.7737L9.79737 14.7039ZM9.80256 15.118L9.87239 15.0464L9.87237 15.0464L9.80256 15.118ZM12.4259 16.1854L12.4259 16.2854L12.4263 16.2854L12.4259 16.1854ZM12.4486 16.1853L12.4489 16.2853L12.4492 16.2853L12.4486 16.1853ZM15.0843 15.0844L15.155 15.1552L15.155 15.1551L15.0843 15.0844ZM15.0843 9.76877L15.155 9.69806L15.155 9.69805L15.0843 9.76877ZM14.0407 14.0412L13.97 13.9705V13.9705L14.0407 14.0412ZM10.8117 10.8123L10.741 10.7415H10.741L10.8117 10.8123ZM10.8117 14.0412L10.8825 13.9705V13.9705L10.8117 14.0412ZM11.2259 11.2264L11.2966 11.2971L11.2966 11.2971L11.2259 11.2264ZM13.6266 11.2264L13.5558 11.2971L13.5558 11.2971L13.6266 11.2264ZM13.6266 13.627L13.5558 13.5563L13.5558 13.5563L13.6266 13.627ZM11.2259 13.627L11.2966 13.5563L11.2966 13.5563L11.2259 13.627ZM19.4388 11.0119H18.3968V11.2119H19.4388V11.0119ZM20.0996 11.6727C20.0996 11.3082 19.8032 11.0119 19.4388 11.0119V11.2119C19.6928 11.2119 19.8996 11.4187 19.8996 11.6726L20.0996 11.6727ZM20.0996 13.1806V11.6727H19.8996V13.1806H20.0996ZM19.4388 13.8414C19.8032 13.8414 20.0996 13.5451 20.0996 13.1806H19.8996C19.8996 13.4346 19.6928 13.6414 19.4388 13.6414V13.8414ZM18.3968 13.8414H19.4388V13.6414H18.3968V13.8414ZM17.6625 15.7733C18.0573 15.1568 18.3372 14.4804 18.4945 13.7628L18.2991 13.72C18.1469 14.4146 17.8761 15.0689 17.4941 15.6655L17.6625 15.7733ZM18.3852 16.3849L17.649 15.6487L17.5076 15.7901L18.2438 16.5263L18.3852 16.3849ZM18.5787 16.8521C18.5787 16.6758 18.5099 16.5095 18.3852 16.3849L18.2438 16.5263C18.3309 16.6135 18.3787 16.7288 18.3787 16.8521H18.5787ZM18.3851 17.3194C18.5099 17.1947 18.5787 17.0285 18.5787 16.8521H18.3787C18.3787 16.9754 18.3309 17.0908 18.2437 17.178L18.3851 17.3194ZM17.3189 18.3857L18.3852 17.3194L18.2437 17.178L17.1775 18.2443L17.3189 18.3857ZM16.8517 18.5792C17.028 18.5792 17.1942 18.5104 17.3189 18.3857L17.1775 18.2443C17.0903 18.3314 16.9749 18.3792 16.8517 18.3792V18.5792ZM16.3844 18.3857C16.5091 18.5103 16.6753 18.5792 16.8517 18.5792V18.3792C16.7284 18.3792 16.613 18.3314 16.5258 18.2442L16.3844 18.3857ZM15.6482 17.6495L16.3844 18.3857L16.5258 18.2443L15.7897 17.508L15.6482 17.6495ZM13.7624 18.4949C14.48 18.3377 15.1562 18.0578 15.7729 17.663L15.665 17.4945C15.0684 17.8766 14.4142 18.1473 13.7196 18.2996L13.7624 18.4949ZM13.841 19.4393V18.3972H13.641V19.4393H13.841ZM13.1802 20.1001C13.5446 20.1001 13.841 19.8038 13.841 19.4393H13.641C13.641 19.6933 13.4342 19.9001 13.1802 19.9001V20.1001ZM11.6722 20.1001H13.1802V19.9001H11.6722V20.1001ZM11.0115 19.4393C11.0115 19.8038 11.3078 20.1001 11.6722 20.1001V19.9001C11.4182 19.9001 11.2115 19.6933 11.2115 19.4393H11.0115ZM11.0115 18.3974V19.4393H11.2115V18.3974H11.0115ZM9.07955 17.6631C9.69621 18.058 10.3725 18.3378 11.09 18.495L11.1329 18.2997C10.4383 18.1475 9.78408 17.8767 9.1874 17.4947L9.07955 17.6631ZM8.46805 18.3858L9.20419 17.6496L9.06276 17.5082L8.32662 18.2444L8.46805 18.3858ZM8.00076 18.5793C8.1771 18.5793 8.34332 18.5105 8.46803 18.3858L8.32664 18.2444C8.23941 18.3316 8.12404 18.3793 8.00076 18.3793V18.5793ZM7.53352 18.3858C7.65818 18.5104 7.8244 18.5793 8.00076 18.5793V18.3793C7.87749 18.3793 7.76213 18.3315 7.67494 18.2443L7.53352 18.3858ZM6.46722 17.3195L7.53352 18.3858L7.67494 18.2443L6.60864 17.1781L6.46722 17.3195ZM6.27367 16.8523C6.27367 17.0286 6.34254 17.1949 6.46723 17.3195L6.60863 17.1781C6.52147 17.0909 6.47367 16.9756 6.47367 16.8523H6.27367ZM6.46727 16.385C6.34254 16.5096 6.27367 16.6759 6.27367 16.8523H6.47367C6.47367 16.729 6.52147 16.6136 6.60867 16.5264L6.46727 16.385ZM7.2034 15.6488L6.46726 16.385L6.60868 16.5264L7.34482 15.7902L7.2034 15.6488ZM6.35795 13.7629C6.51524 14.4806 6.79509 15.1568 7.1899 15.7734L7.35833 15.6656C6.97631 15.069 6.70556 14.4147 6.55331 13.7201L6.35795 13.7629ZM5.41365 13.8415H6.45563V13.6415H5.41365V13.8415ZM4.75286 13.1807C4.75286 13.5452 5.0492 13.8415 5.41365 13.8415V13.6415C5.15965 13.6415 4.95286 13.4347 4.95286 13.1807H4.75286ZM4.75286 11.6728V13.1807H4.95286V11.6728H4.75286ZM4.99526 11.1617C4.84767 11.2827 4.75286 11.4668 4.75286 11.6728H4.95286C4.95286 11.5295 5.0186 11.4012 5.12207 11.3164L4.99526 11.1617ZM4.95866 11.0474V11.2391H5.15866V11.0474H4.95866ZM3.47102 10.4972C3.95334 10.8 4.47941 11.0176 5.03639 11.1449L5.08094 10.95C4.54578 10.8277 4.04061 10.6186 3.57736 10.3278L3.47102 10.4972ZM3.03169 11.0464L3.5949 10.4832L3.45348 10.3418L2.89026 10.905L3.03169 11.0464ZM2.16983 11.0464C2.40749 11.284 2.79392 11.2841 3.03168 11.0464L2.89027 10.905C2.73064 11.0646 2.47081 11.0645 2.31124 10.905L2.16983 11.0464ZM1.30808 10.1846L2.16982 11.0464L2.31124 10.905L1.4495 10.0432L1.30808 10.1846ZM1.30808 9.32278C1.07041 9.56045 1.07041 9.94693 1.30808 10.1846L1.4495 10.0432C1.28993 9.88362 1.28993 9.62376 1.4495 9.4642L1.30808 9.32278ZM1.87129 8.75956L1.30808 9.32278L1.4495 9.4642L2.01271 8.90099L1.87129 8.75956ZM1.20954 7.31804C1.33681 7.87497 1.5545 8.40112 1.85731 8.88344L2.02669 8.7771C1.73587 8.31386 1.5268 7.80861 1.40451 7.27348L1.20954 7.31804ZM0.509898 7.39576H1.30702V7.19576H0.509898V7.39576ZM-0.0995117 6.78635C-0.0995117 7.12246 0.173785 7.39576 0.509898 7.39576V7.19576C0.284242 7.19576 0.100488 7.01201 0.100488 6.78635H-0.0995117ZM-0.0995117 5.56762V6.78635H0.100488V5.56762H-0.0995117ZM0.509898 4.95821C0.173785 4.95821 -0.0995117 5.23151 -0.0995117 5.56762H0.100488C0.100488 5.34197 0.284243 5.15821 0.509898 5.15821V4.95821ZM1.30702 4.95821H0.509898V5.15821H1.30702V4.95821ZM1.8573 3.47053C1.5545 3.9529 1.33681 4.47904 1.20954 5.03593L1.40451 5.08049C1.5268 4.5454 1.73587 4.04015 2.0267 3.57687L1.8573 3.47053ZM1.30808 3.0312L1.87129 3.59441L2.01271 3.45299L1.4495 2.88978L1.30808 3.0312ZM1.30807 2.16938C1.07044 2.40705 1.07045 2.79348 1.30806 3.03118L1.44951 2.88979C1.28996 2.73018 1.28997 2.47035 1.44951 2.31079L1.30807 2.16938ZM2.16978 1.30763L1.30808 2.16937L1.4495 2.31079L2.31121 1.44905L2.16978 1.30763ZM2.60075 1.12911C2.43813 1.12911 2.28474 1.19262 2.16977 1.30764L2.31122 1.44903C2.38866 1.37157 2.49116 1.32911 2.60075 1.32911V1.12911ZM3.0317 1.30764C2.91673 1.19263 2.76338 1.12911 2.60075 1.12911V1.32911C2.71034 1.32911 2.81281 1.37156 2.89025 1.44903L3.0317 1.30764ZM3.59482 1.8708L3.03169 1.30763L2.89026 1.44905L3.4534 2.01222L3.59482 1.8708ZM5.03635 1.20905C4.47945 1.33633 3.95331 1.55406 3.47095 1.85681L3.57727 2.02621C4.04057 1.73542 4.54582 1.52632 5.08091 1.40402L5.03635 1.20905ZM4.95863 0.50941V1.30654H5.15863V0.50941H4.95863ZM5.56804 -0.1C5.23192 -0.1 4.95863 0.173297 4.95863 0.50941H5.15863C5.15863 0.283754 5.34238 0.1 5.56804 0.1V-0.1ZM6.78676 -0.1H5.56804V0.1H6.78676V-0.1ZM7.39613 0.509424C7.39618 0.173303 7.12291 -0.1 6.78676 -0.1V0.1C7.01245 0.1 7.19616 0.283749 7.19613 0.509396L7.39613 0.509424ZM7.39613 1.3065V0.50941H7.19613V1.3065H7.39613ZM8.88381 1.85678C8.40145 1.55398 7.87535 1.33629 7.31841 1.20901L7.27385 1.40398C7.80898 1.52628 8.31419 1.73534 8.77748 2.02617L8.88381 1.85678ZM9.32319 1.30758L8.75994 1.87076L8.90135 2.01219L9.4646 1.44901L9.32319 1.30758ZM9.75408 1.12907C9.5915 1.12907 9.4381 1.19258 9.32316 1.30762L9.46464 1.44898C9.54203 1.37153 9.64452 1.32907 9.75408 1.32907V1.12907ZM10.185 1.30753C10.07 1.19259 9.91667 1.12907 9.75408 1.12907V1.32907C9.86362 1.32907 9.96611 1.37152 10.0436 1.44899L10.185 1.30753ZM11.0468 2.16933L10.185 1.30755L10.0436 1.44897L10.9054 2.31075L11.0468 2.16933ZM11.0468 3.03115C11.2844 2.79348 11.2844 2.40705 11.0468 2.16935L10.9054 2.31074C11.0649 2.47035 11.0649 2.73018 10.9054 2.88974L11.0468 3.03115ZM10.4836 3.59437L11.0468 3.03116L10.9054 2.88974L10.3422 3.45295L10.4836 3.59437ZM11.1453 5.0359C11.0181 4.47904 10.8004 3.95297 10.4976 3.4705L10.3282 3.57682C10.619 4.04023 10.8281 4.54541 10.9504 5.08045L11.1453 5.0359ZM11.2392 4.95818H11.0478V5.15818H11.2392V4.95818ZM11.6722 4.75327C11.4668 4.75327 11.283 4.8476 11.162 4.99462L11.3164 5.12173C11.4012 5.01871 11.5293 4.95327 11.6722 4.95327V4.75327ZM13.1802 4.75327H11.6722V4.95327H13.1802V4.75327ZM13.841 5.41406C13.841 5.04965 13.5446 4.75327 13.1802 4.75327V4.95327C13.4342 4.95327 13.641 5.1601 13.641 5.41406H13.841ZM13.841 6.45604V5.41406H13.641V6.45604H13.841ZM15.7728 7.19035C15.1562 6.79546 14.48 6.51565 13.7624 6.35836L13.7196 6.55372C14.4142 6.70597 15.0683 6.97668 15.665 7.35877L15.7728 7.19035ZM16.3844 6.46763L15.6482 7.20385L15.7896 7.34527L16.5258 6.60905L16.3844 6.46763ZM16.8517 6.27408C16.6753 6.27408 16.5091 6.34296 16.3844 6.46762L16.5258 6.60906C16.613 6.52187 16.7284 6.47408 16.8517 6.47408V6.27408ZM17.3189 6.46767C17.1942 6.34301 17.028 6.27408 16.8517 6.27408V6.47408C16.9749 6.47408 17.0903 6.5219 17.1775 6.60909L17.3189 6.46767ZM18.3852 7.53393L17.3189 6.46767L17.1775 6.60909L18.2438 7.67535L18.3852 7.53393ZM18.5787 8.00117C18.5787 7.82484 18.5099 7.65857 18.3852 7.53392L18.2438 7.67536C18.3309 7.76249 18.3787 7.87787 18.3787 8.00117H18.5787ZM18.3851 8.46847C18.5099 8.34378 18.5787 8.17751 18.5787 8.00117H18.3787C18.3787 8.12446 18.3309 8.23985 18.2437 8.32702L18.3851 8.46847ZM17.649 9.20463L18.3852 8.46845L18.2437 8.32703L17.5076 9.06321L17.649 9.20463ZM18.4945 11.0905C18.3372 10.3729 18.0574 9.69666 17.6625 9.08L17.4941 9.18785C17.8761 9.78452 18.1469 10.4387 18.2991 11.1333L18.4945 11.0905ZM5.26247 10.3903C4.75547 10.2807 4.27851 10.0834 3.8445 9.80355L3.73612 9.97164C4.19045 10.2646 4.68983 10.4712 5.22024 10.5858L5.26247 10.3903ZM5.74433 10.986C5.74433 10.7006 5.5418 10.4507 5.26248 10.3903L5.22022 10.5858C5.40795 10.6263 5.54433 10.7952 5.54433 10.986H5.74433ZM5.74433 11.1119V10.986H5.54433V11.1119H5.74433ZM6.45563 11.0119H5.64433V11.2119H6.45563V11.0119ZM7.1899 9.08004C6.79509 9.69662 6.5152 10.3729 6.35794 11.0905L6.55331 11.1333C6.70552 10.4388 6.97631 9.78449 7.35833 9.18789L7.1899 9.08004ZM6.46722 8.46845L7.2034 9.20467L7.34482 9.06325L6.60864 8.32703L6.46722 8.46845ZM6.44093 8.43982C6.44757 8.44743 6.45685 8.45813 6.46737 8.4686L6.60849 8.32688C6.60377 8.32218 6.59903 8.31681 6.59165 8.30835L6.44093 8.43982ZM6.43723 8.43558C6.43843 8.43695 6.43965 8.43834 6.44093 8.43981L6.59166 8.30836C6.59037 8.30688 6.58902 8.30533 6.58764 8.30376L6.43723 8.43558ZM6.17744 8.49544C6.29477 8.49544 6.41174 8.48616 6.52749 8.46853L6.49738 8.27081C6.39112 8.28699 6.28422 8.29544 6.17744 8.29544V8.49544ZM4.53731 7.81712C4.98956 8.26937 5.58376 8.49544 6.17744 8.49544V8.29544C5.63446 8.29544 5.09185 8.08882 4.67873 7.6757L4.53731 7.81712ZM4.15396 5.04222C3.64757 5.9443 3.80525 7.08506 4.53731 7.81712L4.67873 7.6757C4.00996 7.00693 3.8659 5.96394 4.32836 5.14012L4.15396 5.04222ZM4.6888 4.89196C4.49968 4.78577 4.26017 4.85304 4.15396 5.04221L4.32835 5.14013C4.3805 5.04724 4.4981 5.01425 4.59088 5.06635L4.6888 4.89196ZM4.83906 5.42677C4.94522 5.2376 4.87799 4.99813 4.68878 4.89194L4.5909 5.06636C4.68374 5.11846 4.71678 5.236 4.66465 5.32889L4.83906 5.42677ZM5.09291 7.26156C4.60884 6.77749 4.50452 6.02268 4.83905 5.42678L4.66466 5.32888C4.28616 6.00308 4.40417 6.85566 4.95149 7.40298L5.09291 7.26156ZM6.17748 7.71079C5.76756 7.71079 5.38272 7.55137 5.09291 7.26156L4.95149 7.40298C5.27881 7.7303 5.71452 7.91079 6.17748 7.91079V7.71079ZM6.3993 7.69422C6.32599 7.70489 6.25203 7.71079 6.17748 7.71079V7.91079C6.26261 7.91079 6.34623 7.90405 6.42809 7.89214L6.3993 7.69422ZM6.46732 7.53386C6.40284 7.5983 6.35362 7.67395 6.32082 7.75611L6.50657 7.83026C6.52945 7.77295 6.5637 7.7203 6.6087 7.67533L6.46732 7.53386ZM7.53356 6.46763L6.4673 7.53389L6.60872 7.67531L7.67498 6.60905L7.53356 6.46763ZM7.75537 6.32137C7.67333 6.35417 7.59789 6.40335 7.53358 6.46761L7.67495 6.60908C7.71989 6.56417 7.77244 6.52994 7.82963 6.50707L7.75537 6.32137ZM7.26208 5.09238C7.61758 5.44788 7.7611 5.936 7.69354 6.39981L7.89146 6.42863C7.96766 5.90548 7.80585 5.35331 7.4035 4.95096L7.26208 5.09238ZM5.63947 4.74013C6.2011 4.53023 6.83825 4.66855 7.26208 5.09238L7.4035 4.95096C6.92425 4.4717 6.20445 4.31547 5.56946 4.55278L5.63947 4.74013ZM5.13401 4.50961C5.20991 4.71286 5.43624 4.81602 5.63945 4.74014L5.56948 4.55277C5.4697 4.59004 5.35861 4.53936 5.32137 4.43964L5.13401 4.50961ZM5.36447 4.00413C5.16127 4.08007 5.05801 4.30639 5.13402 4.50965L5.32135 4.43959C5.28406 4.33987 5.33471 4.22877 5.43449 4.19148L5.36447 4.00413ZM7.81761 4.53686C7.17663 3.89584 6.21387 3.68682 5.36449 4.00413L5.43448 4.19148C6.21051 3.90158 7.09063 4.09268 7.67618 4.67828L7.81761 4.53686ZM8.46894 6.52868C8.57623 5.82417 8.35953 5.07878 7.81761 4.53686L7.67619 4.67828C8.17104 5.17313 8.36939 5.85395 8.27122 6.49857L8.46894 6.52868ZM8.44037 6.44225C8.43884 6.44091 8.43742 6.43968 8.43604 6.43846L8.30413 6.58879C8.30577 6.59024 8.3074 6.59166 8.3089 6.59297L8.44037 6.44225ZM8.46805 6.46763C8.45794 6.45753 8.44768 6.44862 8.44038 6.44226L8.3089 6.59296C8.31701 6.60004 8.32212 6.60455 8.32662 6.60905L8.46805 6.46763ZM9.20426 7.20385L8.46805 6.46763L8.32662 6.60905L9.06284 7.34527L9.20426 7.20385ZM11.0901 6.35835C10.3725 6.51561 9.69624 6.79546 9.07962 7.19035L9.18748 7.35877C9.78412 6.97668 10.4383 6.70593 11.1329 6.55372L11.0901 6.35835ZM11.0115 5.64384V6.45604H11.2115V5.64384H11.0115ZM10.9865 5.74384H11.1115V5.54384H10.9865V5.74384ZM10.3908 5.26194C10.4511 5.54126 10.701 5.74384 10.9865 5.74384V5.54384C10.7957 5.54384 10.6268 5.40744 10.5863 5.21971L10.3908 5.26194ZM9.80407 3.84401C10.084 4.27811 10.2813 4.7551 10.3908 5.26193L10.5863 5.21972C10.4718 4.68945 10.2651 4.19003 9.97216 3.73564L9.80407 3.84401ZM9.88469 3.08222C9.68284 3.28402 9.64927 3.60392 9.80407 3.84401L9.97216 3.73564C9.86818 3.57436 9.89115 3.35857 10.0261 3.22365L9.88469 3.08222ZM10.4374 2.52955L9.88468 3.08223L10.0261 3.22365L10.5788 2.67098L10.4374 2.52955ZM9.68341 1.91703L10.4374 2.67098L10.5788 2.52955L9.82483 1.77561L9.68341 1.91703ZM9.27216 2.46974L9.82483 1.91703L9.68341 1.77561L9.13074 2.32832L9.27216 2.46974ZM8.51034 2.55032C8.75041 2.70506 9.0703 2.6716 9.27216 2.46974L9.13074 2.32832C8.9958 2.46326 8.78 2.48618 8.6187 2.38221L8.51034 2.55032ZM7.09241 1.96363C7.59932 2.07312 8.07628 2.27051 8.51034 2.55032L8.6187 2.38222C8.16435 2.08932 7.66497 1.88269 7.13463 1.76814L7.09241 1.96363ZM6.61055 1.36791C6.61055 1.65333 6.81312 1.90329 7.0924 1.96363L7.13464 1.76814C6.94696 1.72759 6.81055 1.55868 6.81055 1.36791H6.61055ZM6.61055 0.585663V1.36791H6.81055V0.585663H6.61055ZM5.64433 0.685663H6.71055V0.485663H5.64433V0.685663ZM5.74433 1.36787V0.585663H5.54433V1.36787H5.74433ZM5.26247 1.96359C5.54176 1.90325 5.74433 1.65329 5.74433 1.36787H5.54433C5.54433 1.55864 5.40792 1.72755 5.22023 1.7681L5.26247 1.96359ZM3.84458 2.55031C4.2786 2.27047 4.75555 2.07308 5.26246 1.96359L5.22024 1.7681C4.6899 1.88265 4.19052 2.08929 3.7362 2.38222L3.84458 2.55031ZM3.08274 2.46973C3.28453 2.67156 3.60429 2.70509 3.84454 2.55034L3.73624 2.3822C3.57473 2.48623 3.35904 2.46322 3.22418 2.32833L3.08274 2.46973ZM2.53008 1.91703L3.08275 2.46974L3.22418 2.32832L2.67151 1.77561L2.53008 1.91703ZM1.91756 2.67098L2.6715 1.91703L2.53008 1.77561L1.77614 2.52955L1.91756 2.67098ZM2.47027 3.08226L1.91756 2.52955L1.77614 2.67098L2.32885 3.22369L2.47027 3.08226ZM2.55084 3.84401C2.7056 3.60395 2.67203 3.28407 2.47028 3.08227L2.32884 3.22368C2.46373 3.3586 2.48669 3.5744 2.38274 3.73564L2.55084 3.84401ZM1.96412 5.26193C2.07361 4.75499 2.27099 4.27803 2.55084 3.84402L2.38275 3.73564C2.08981 4.18995 1.88317 4.68934 1.76863 5.21971L1.96412 5.26193ZM1.3684 5.74384C1.65375 5.74384 1.90369 5.5413 1.96411 5.26197L1.76863 5.21968C1.72801 5.40747 1.55908 5.54384 1.3684 5.54384V5.74384ZM0.586151 5.74384H1.3684V5.54384H0.586151V5.74384ZM0.686151 6.71002V5.64384H0.486151V6.71002H0.686151ZM1.36836 6.61002H0.586151V6.81002H1.36836V6.61002ZM1.96403 7.09178C1.90365 6.81255 1.65374 6.61002 1.36836 6.61002V6.81002C1.55909 6.81002 1.72797 6.94639 1.76855 7.13405L1.96403 7.09178ZM2.5508 8.5098C2.27096 8.07583 2.07357 7.59883 1.96404 7.0918L1.76855 7.13403C1.88313 7.66448 2.08977 8.1639 2.38271 8.61819L2.5508 8.5098ZM2.47024 9.27158C2.672 9.06978 2.70555 8.74995 2.55081 8.50982L2.3827 8.61816C2.48666 8.77949 2.46368 8.99527 2.3288 9.13018L2.47024 9.27158ZM1.91752 9.82434L2.47023 9.27159L2.32881 9.13017L1.7761 9.68292L1.91752 9.82434ZM2.67146 10.4369L1.91752 9.68292L1.7761 9.82434L2.53004 10.5783L2.67146 10.4369ZM3.08271 9.88416L2.53004 10.4369L2.67147 10.5783L3.22414 10.0256L3.08271 9.88416ZM3.84447 9.80352C3.60428 9.6488 3.28448 9.68234 3.08271 9.88416L3.22414 10.0256C3.35901 9.89067 3.57473 9.86767 3.73616 9.97166L3.84447 9.80352ZM19.4139 13.0557H18.3766V13.2557H19.4139V13.0557ZM19.3139 11.6976V13.1557H19.5139V11.6976H19.3139ZM18.3765 11.7976H19.4139V11.5976H18.3765V11.7976ZM17.7306 11.2749C17.7961 11.5778 18.0671 11.7976 18.3765 11.7976V11.5976C18.1618 11.5976 17.9718 11.444 17.926 11.2326L17.7306 11.2749ZM16.9918 9.48957C17.3441 10.036 17.5927 10.6366 17.7306 11.2749L17.9261 11.2326C17.7831 10.571 17.5253 9.94796 17.1599 9.3812L16.9918 9.48957ZM17.0791 8.66347C16.8603 8.88227 16.8239 9.22923 16.9918 9.48958L17.1599 9.38118C17.0428 9.19963 17.0686 8.95679 17.2205 8.8049L17.0791 8.66347ZM17.8121 7.93035L17.0791 8.66348L17.2206 8.80489L17.9535 8.07176L17.8121 7.93035ZM16.781 7.04065L17.8121 8.07176L17.9535 7.93034L16.9224 6.89923L16.781 7.04065ZM16.1895 7.77366L16.9224 7.04064L16.781 6.89923L16.048 7.63224L16.1895 7.77366ZM15.3633 7.86095C15.6237 8.02877 15.9706 7.99251 16.1895 7.77366L16.048 7.63224C15.8961 7.78415 15.6533 7.8099 15.4717 7.69285L15.3633 7.86095ZM13.578 7.12223C14.2163 7.26006 14.8168 7.5086 15.3633 7.86095L15.4717 7.69285C14.9049 7.32742 14.2819 7.06963 13.6203 6.92673L13.578 7.12223ZM13.0554 6.47626C13.0554 6.78571 13.2751 7.05677 13.578 7.12222L13.6203 6.92674C13.4089 6.88107 13.2554 6.69102 13.2554 6.47626H13.0554ZM13.0554 5.4389V6.47626H13.2554V5.4389H13.0554ZM11.6972 5.5389H13.1554V5.3389H11.6972V5.5389ZM11.7972 6.4763V5.4389H11.5972V6.4763H11.7972ZM11.2745 7.12226C11.5774 7.05682 11.7972 6.78575 11.7972 6.4763H11.5972C11.5972 6.69105 11.4436 6.8811 11.2322 6.92677L11.2745 7.12226ZM9.4892 7.86099C10.0357 7.50864 10.6363 7.2601 11.2745 7.12227L11.2322 6.92677C10.5707 7.06967 9.94767 7.32746 9.38083 7.69289L9.4892 7.86099ZM8.66307 7.7737C8.88184 7.99247 9.22878 8.0288 9.48918 7.861L9.38084 7.69288C9.19919 7.80994 8.95632 7.78412 8.80449 7.63228L8.66307 7.7737ZM7.93013 7.04068L8.66306 7.7737L8.80449 7.63228L8.07156 6.89927L7.93013 7.04068ZM7.04043 8.0718L8.07155 7.04069L7.93013 6.89926L6.89901 7.93038L7.04043 8.0718ZM7.77341 8.6634L7.04043 7.93038L6.89901 8.0718L7.63199 8.80482L7.77341 8.6634ZM7.86061 9.48954C8.02856 9.22913 7.99222 8.88216 7.7734 8.66339L7.632 8.80483C7.78386 8.95666 7.80968 9.1995 7.69253 9.38114L7.86061 9.48954ZM7.12193 11.2747C7.25981 10.6365 7.50831 10.036 7.86062 9.48953L7.69253 9.38115C7.32712 9.94788 7.06938 10.5709 6.92644 11.2325L7.12193 11.2747ZM6.47597 11.7974C6.78543 11.7974 7.05644 11.5777 7.12193 11.2748L6.92645 11.2325C6.88074 11.4439 6.69071 11.5974 6.47597 11.5974V11.7974ZM5.4386 11.7974H6.47597V11.5974H5.4386V11.7974ZM5.5386 13.1557V11.6974H5.3386V13.1557H5.5386ZM6.47597 13.0557H5.4386V13.2557H6.47597V13.0557ZM7.12193 13.5784C7.05644 13.2755 6.78544 13.0557 6.47597 13.0557V13.2557C6.6907 13.2557 6.88074 13.4092 6.92645 13.6206L7.12193 13.5784ZM7.86066 15.3636C7.50834 14.8172 7.25981 14.2166 7.12193 13.5784L6.92644 13.6206C7.06938 14.2823 7.32716 14.9052 7.69256 15.472L7.86066 15.3636ZM7.77336 16.1898C7.99221 15.971 8.02856 15.624 7.86065 15.3636L7.69257 15.472C7.80968 15.6536 7.78387 15.8964 7.63196 16.0483L7.77336 16.1898ZM7.04044 16.9228L7.77337 16.1898L7.63194 16.0483L6.89901 16.7814L7.04044 16.9228ZM8.07155 17.8125L7.04043 16.7813L6.89901 16.9228L7.93013 17.9539L8.07155 17.8125ZM8.66306 17.0795L7.93013 17.8125L8.07155 17.9539L8.80449 17.2209L8.66306 17.0795ZM9.4892 16.9922C9.2289 16.8244 8.88192 16.8607 8.66308 17.0794L8.80447 17.2209C8.9564 17.069 9.1993 17.0433 9.38082 17.1603L9.4892 16.9922ZM11.2745 17.7309C10.6363 17.5931 10.0357 17.3446 9.4892 16.9922L9.38083 17.1603C9.94767 17.5257 10.5706 17.7835 11.2322 17.9264L11.2745 17.7309ZM11.7972 18.3769C11.7972 18.0675 11.5774 17.7964 11.2745 17.7309L11.2322 17.9264C11.4436 17.9721 11.5972 18.1622 11.5972 18.3769H11.7972ZM11.7972 19.4143V18.3769H11.5972V19.4143H11.7972ZM13.1554 19.3143H11.6972V19.5143H13.1554V19.3143ZM13.0554 18.3769V19.4143H13.2554V18.3769H13.0554ZM13.578 17.7309C13.2751 17.7964 13.0554 18.0674 13.0554 18.3769H13.2554C13.2554 18.1621 13.4089 17.9721 13.6203 17.9264L13.578 17.7309ZM15.3633 16.9922C14.8168 17.3446 14.2163 17.5931 13.578 17.7309L13.6203 17.9264C14.2819 17.7835 14.9049 17.5257 15.4717 17.1603L15.3633 16.9922ZM16.1894 17.0795C15.9707 16.8607 15.6237 16.8243 15.3633 16.9922L15.4717 17.1603C15.6533 17.0432 15.8962 17.0691 16.048 17.2209L16.1894 17.0795ZM16.9224 17.8125L16.1894 17.0795L16.048 17.2209L16.781 17.9539L16.9224 17.8125ZM17.8121 16.7814L16.781 17.8125L16.9224 17.9539L17.9535 16.9228L17.8121 16.7814ZM17.0791 16.1898L17.8121 16.9228L17.9535 16.7814L17.2205 16.0484L17.0791 16.1898ZM16.9919 15.3637C16.824 15.624 16.8604 15.971 17.0791 16.1898L17.2205 16.0484C17.0687 15.8965 17.0429 15.6537 17.16 15.472L16.9919 15.3637ZM17.7306 13.5784C17.5927 14.2167 17.3442 14.8172 16.9919 15.3637L17.16 15.472C17.5254 14.9053 17.7832 14.2823 17.9261 13.6207L17.7306 13.5784ZM18.3766 13.0557C18.0671 13.0557 17.7961 13.2755 17.7306 13.5784L17.9261 13.6207C17.9718 13.4093 18.1618 13.2557 18.3766 13.2557V13.0557ZM9.05809 13.8577C8.472 12.4771 8.77855 10.9002 9.83919 9.83951L9.69776 9.6981C8.57949 10.8164 8.25603 12.4802 8.87399 13.9359L9.05809 13.8577ZM9.31093 13.9599C9.21296 14.0014 9.09967 13.9557 9.05809 13.8577L8.87398 13.9359C8.95875 14.1356 9.18952 14.2287 9.38907 14.144L9.31093 13.9599ZM9.41308 13.707C9.45469 13.8051 9.40898 13.9182 9.31092 13.9599L9.38908 14.144C9.58877 14.0592 9.68198 13.8286 9.59717 13.6289L9.41308 13.707ZM10.1119 10.1122C9.16332 11.0609 8.8889 12.4722 9.41307 13.707L9.59717 13.6289C9.10486 12.4692 9.36238 11.1446 10.2534 10.2537L10.1119 10.1122ZM14.7408 10.1122C13.4646 8.83603 11.3882 8.83599 10.1119 10.1122L10.2534 10.2537C11.4515 9.05552 13.4013 9.05556 14.5994 10.2537L14.7408 10.1122ZM14.7408 14.7411C16.017 13.4648 16.017 11.3885 14.7408 10.1122L14.5994 10.2537C15.7975 11.4518 15.7975 13.4015 14.5994 14.5997L14.7408 14.7411ZM12.4457 15.6997C13.3125 15.6946 14.1278 15.354 14.7408 14.7411L14.5994 14.5997C14.0236 15.1754 13.2587 15.4949 12.4446 15.4997L12.4457 15.6997ZM12.4263 15.6997L12.4454 15.6997L12.445 15.4997L12.4259 15.4997L12.4263 15.6997ZM10.1416 14.7703C10.7564 15.37 11.5674 15.6997 12.4261 15.6997V15.4997C11.6195 15.4997 10.8587 15.1904 10.2813 14.6272L10.1416 14.7703ZM9.86897 14.7737C9.94328 14.6975 10.0653 14.696 10.1416 14.7703L10.2813 14.6272C10.1259 14.4757 9.87721 14.4788 9.72577 14.6341L9.86897 14.7737ZM9.87237 15.0464C9.79612 14.9721 9.7946 14.85 9.86895 14.7737L9.72578 14.6341C9.5743 14.7894 9.57739 15.0381 9.73275 15.1896L9.87237 15.0464ZM12.4259 16.0854C11.4657 16.0854 10.5599 15.7171 9.87239 15.0464L9.73274 15.1896C10.4577 15.8967 11.4136 16.2854 12.4259 16.2854L12.4259 16.0854ZM12.4482 16.0853L12.4256 16.0854L12.4263 16.2854L12.4489 16.2853L12.4482 16.0853ZM15.0136 15.0137C14.3281 15.6992 13.4172 16.0796 12.448 16.0853L12.4492 16.2853C13.471 16.2793 14.4323 15.8778 15.155 15.1552L15.0136 15.0137ZM15.0136 9.83947C16.44 11.266 16.44 13.5873 15.0136 15.0137L15.155 15.1551C16.6595 13.6506 16.6595 11.2027 15.155 9.69806L15.0136 9.83947ZM9.83918 9.83952C11.2657 8.41304 13.5869 8.41304 15.0136 9.83948L15.155 9.69805C13.6502 8.19352 11.2024 8.19352 9.69777 9.69809L9.83918 9.83952ZM13.97 13.9705C13.5445 14.396 12.9856 14.6089 12.4262 14.6089V14.8089C13.0363 14.8089 13.6467 14.5766 14.1114 14.1119L13.97 13.9705ZM13.97 10.883C14.8212 11.7341 14.8212 13.1193 13.97 13.9705L14.1114 14.1119C15.0407 13.1826 15.0407 11.6708 14.1114 10.7415L13.97 10.883ZM10.8825 10.883C11.7337 10.0318 13.1188 10.0318 13.97 10.883L14.1114 10.7415C13.1821 9.81225 11.6703 9.81225 10.741 10.7415L10.8825 10.883ZM10.8825 13.9705C10.0313 13.1193 10.0313 11.7341 10.8825 10.883L10.741 10.7415C9.81178 11.6708 9.81178 13.1826 10.741 14.1119L10.8825 13.9705ZM12.4262 14.6089C11.8669 14.6089 11.308 14.396 10.8825 13.9705L10.741 14.1119C11.2057 14.5765 11.8162 14.8089 12.4262 14.8089V14.6089ZM12.4262 10.6299C11.9661 10.6299 11.5057 10.8051 11.1552 11.1556L11.2966 11.2971C11.608 10.9857 12.0168 10.83 12.4262 10.83V10.6299ZM13.6973 11.1557C13.3468 10.8052 12.8862 10.6299 12.4262 10.6299V10.83C12.8356 10.83 13.2446 10.9857 13.5558 11.2971L13.6973 11.1557ZM13.6973 13.6977C14.3982 12.9968 14.3982 11.8566 13.6973 11.1556L13.5558 11.2971C14.1787 11.9199 14.1787 12.9335 13.5558 13.5563L13.6973 13.6977ZM11.1552 13.6977C11.8561 14.3987 12.9964 14.3987 13.6973 13.6977L13.5558 13.5563C12.9331 14.1792 11.9194 14.1791 11.2966 13.5563L11.1552 13.6977ZM11.1552 11.1556C10.4542 11.8566 10.4542 12.9968 11.1552 13.6977L11.2966 13.5563C10.6737 12.9335 10.6737 11.9199 11.2966 11.2971L11.1552 11.1556Z" fill="white" mask="url(#path-1-outside-1_106:1586)"/>
</g>
<defs>
<clipPath id="clip0_106:1586">
<rect width="20" height="20" fill="white"/>
</clipPath>
</defs>
</svg>
