<svg width="72" height="15" viewBox="0 0 72 15" fill="none" xmlns="http://www.w3.org/2000/svg">
<path d="M4.56569 3.94309L3.97546 6.1155L7.35381 3.93072L5.1443 12.1744L7.38829 12.1763L10.6523 0" fill="#3395FF"/>
<path d="M0.929373 8.71063L0 12.1763H4.59927L6.48125 5.12617L0.929373 8.71063ZM16.9056 5.65944C16.7932 6.07728 16.5766 6.3842 16.2535 6.58019C15.9313 6.77581 15.4789 6.87399 14.8951 6.87399H13.0401L13.6914 4.44563H15.5464C16.1295 4.44563 16.5301 4.54306 16.7474 4.74168C16.9648 4.9403 17.0173 5.24384 16.9056 5.66356V5.65944ZM18.8262 5.61109C19.0623 4.73419 18.9648 4.05964 18.5331 3.58746C18.1022 3.11903 17.3459 2.88293 16.2666 2.88293H12.1268L9.63475 12.1804H11.646L12.6503 8.43294H13.9694C14.2655 8.43294 14.4986 8.48166 14.6687 8.57534C14.8392 8.67278 14.9393 8.84141 14.97 9.085L15.329 12.1804H17.4838L17.1346 9.29486C17.0634 8.65029 16.7684 8.2718 16.2502 8.15937C16.9108 7.96825 17.4643 7.64972 17.9103 7.20752C18.3531 6.76855 18.6695 6.21838 18.8262 5.61484V5.61109ZM23.7151 8.85266C23.5465 9.48223 23.2879 9.95816 22.9383 10.2917C22.5883 10.6252 22.17 10.7901 21.6821 10.7901C21.1852 10.7901 20.8483 10.629 20.6703 10.3029C20.4919 9.9769 20.4859 9.50472 20.6516 8.88638C20.8172 8.26805 21.0814 7.78463 21.4449 7.43611C21.8084 7.0876 22.2334 6.91334 22.7213 6.91334C23.2085 6.91334 23.542 7.08198 23.7106 7.41663C23.883 7.75277 23.8868 8.23357 23.7181 8.8594L23.7151 8.85266ZM24.5965 5.56238L24.3447 6.50299C24.236 6.16572 24.025 5.8959 23.7133 5.69354C23.4007 5.49492 23.014 5.39374 22.5527 5.39374C21.9868 5.39374 21.4434 5.53989 20.9225 5.83219C20.4016 6.1245 19.9444 6.53672 19.5547 7.06886C19.1649 7.601 18.8801 8.20434 18.6965 8.88264C18.5166 9.56468 18.4792 10.1605 18.5878 10.6777C18.7003 11.1986 18.9363 11.5958 19.2999 11.8731C19.6671 12.1542 20.1355 12.2928 20.7089 12.2928C21.1645 12.2951 21.615 12.1966 22.028 12.0043C22.4364 11.8201 22.7996 11.549 23.0923 11.2098L22.83 12.1902H24.7749L26.5508 5.56575H24.6021L24.5965 5.56238ZM33.5399 5.56238H27.8838L27.4885 7.03888H30.7795L26.4287 10.7976L26.0569 12.1842H31.8955L32.2908 10.7077H28.7645L33.182 6.89273L33.5399 5.56238ZM38.5184 8.84141C38.3434 9.49347 38.0837 9.98364 37.7408 10.3029C37.3979 10.6252 36.9827 10.7864 36.4951 10.7864C35.4758 10.7864 35.1408 10.138 35.4886 8.84141C35.6609 8.19685 35.9218 7.7123 36.2703 7.3859C36.6188 7.05837 37.0411 6.89498 37.5377 6.89498C38.0248 6.89498 38.3539 7.05724 38.5233 7.38402C38.6926 7.71005 38.6911 8.1961 38.5184 8.84066V8.84141ZM39.6569 5.81158C39.209 5.53277 38.6376 5.39337 37.9405 5.39337C37.2349 5.39337 36.5817 5.53202 35.9806 5.80933C35.382 6.08491 34.8559 6.49629 34.4441 7.01077C34.0207 7.53167 33.716 8.14251 33.529 8.83954C33.3454 9.53395 33.3229 10.1437 33.4653 10.6657C33.6077 11.1866 33.9075 11.5876 34.3572 11.8649C34.8106 12.1444 35.3877 12.2835 36.096 12.2835C36.793 12.2835 37.4414 12.1433 38.0372 11.8645C38.6331 11.5842 39.1427 11.1862 39.5662 10.6616C39.9896 10.1392 40.2932 9.52982 40.4806 8.83279C40.6679 8.13576 40.6904 7.52718 40.548 7.00403C40.4056 6.48313 40.1096 6.08215 39.6636 5.80296L39.6569 5.81158ZM46.6002 7.33193L47.0986 5.5294C46.93 5.44321 46.7089 5.39824 46.4315 5.39824C45.9856 5.39824 45.5584 5.50841 45.1462 5.73176C44.7916 5.92138 44.4904 6.18895 44.2355 6.52398L44.4941 5.55338L43.9294 5.55563H42.5428L40.7552 12.1774H42.7275L43.655 8.71587C43.79 8.21259 44.0328 7.81648 44.3832 7.53542C44.7317 7.25323 45.1664 7.11196 45.691 7.11196C46.0133 7.11196 46.3131 7.18578 46.5979 7.33306L46.6002 7.33193ZM52.088 8.87327C51.9193 9.4916 51.6645 9.96378 51.316 10.2898C50.9675 10.6173 50.5478 10.7807 50.0606 10.7807C49.5734 10.7807 49.2399 10.6158 49.0638 10.2861C48.8839 9.95441 48.8801 9.47661 49.0488 8.84853C49.2174 8.22083 49.476 7.73928 49.832 7.40576C50.188 7.06961 50.6077 6.90172 51.0949 6.90172C51.5746 6.90172 51.8969 7.07411 52.0692 7.42262C52.2416 7.77114 52.2454 8.25456 52.0797 8.87289L52.088 8.87327ZM53.4588 5.82245C53.0934 5.53015 52.6269 5.384 52.061 5.384C51.5652 5.384 51.0926 5.49642 50.6445 5.72352C50.1966 5.95024 49.8331 6.25941 49.5539 6.65064L49.5607 6.60567L49.8916 5.55263H47.9654L47.4745 7.38515L47.4595 7.44885L45.4358 14.9978H47.4108L48.4301 11.1978C48.5313 11.5358 48.7374 11.8012 49.0522 11.993C49.3669 12.1842 49.7556 12.279 50.2176 12.279C50.791 12.279 51.3381 12.1403 51.8571 11.863C52.378 11.5849 52.8277 11.1847 53.21 10.6676C53.5922 10.1504 53.8759 9.55081 54.0569 8.87252C54.2405 8.1931 54.278 7.58713 54.1731 7.05687C54.0663 6.52585 53.8298 6.11475 53.4648 5.82395L53.4588 5.82245ZM60.0098 8.84628C59.8411 9.47211 59.5825 9.95179 59.234 10.2816C58.8855 10.6136 58.4658 10.7789 57.9786 10.7789C57.4802 10.7789 57.1429 10.6177 56.9668 10.2917C56.7869 9.96565 56.7832 9.49347 56.9481 8.87514C57.113 8.25681 57.376 7.77338 57.7395 7.42487C58.103 7.07635 58.5284 6.90247 59.0163 6.90247C59.5035 6.90247 59.8333 7.07111 60.0056 7.40463C60.178 7.73928 60.1791 8.22008 60.0113 8.84741L60.0098 8.84628ZM60.8904 5.55413L60.6382 6.49475C60.5295 6.1556 60.3197 5.88578 60.0086 5.68529C59.6938 5.48518 59.3079 5.3855 58.8469 5.3855C58.281 5.3855 57.7347 5.53165 57.213 5.82395C56.6921 6.11625 56.2349 6.52623 55.8452 7.05687C55.4555 7.58751 55.1706 8.19235 54.987 8.87064C54.8053 9.55156 54.7697 10.1485 54.8783 10.6679C54.9881 11.1851 55.2246 11.5846 55.5904 11.8634C55.9554 12.1407 56.4261 12.2808 56.9994 12.2808C57.4604 12.2808 57.9007 12.1849 58.3185 11.9923C58.7259 11.8072 59.0882 11.5358 59.3802 11.1967L59.1179 12.1778H61.0628L62.8383 5.55601H60.8934L60.8904 5.55413ZM71.0037 5.55638L71.0048 5.55451H69.8094C69.7712 5.55451 69.7374 5.55638 69.7026 5.55713H69.0824L68.7638 5.99933L68.6852 6.10426L68.6514 6.15673L66.1312 9.66736L65.6104 5.55638H63.5462L64.5918 11.8034L62.2834 15H64.3407L64.8991 14.2082C64.9148 14.1849 64.9291 14.1654 64.9478 14.1407L65.5999 13.2151L65.6186 13.1889L68.539 9.0479L71.0011 5.56275L71.0048 5.5605H71.0037V5.55638Z" fill="#072654"/>
</svg>
