<svg width="20" height="20" viewBox="0 0 20 20" fill="none" xmlns="http://www.w3.org/2000/svg">
<g clip-path="url(#clip0_254:1235)">
<mask id="path-1-outside-1_254:1235" maskUnits="userSpaceOnUse" x="-1" y="-1" width="22" height="22" fill="black">
<rect fill="white" x="-1" y="-1" width="22" height="22"/>
<path fill-rule="evenodd" clip-rule="evenodd" d="M16.6333 0H1.0694C0.479744 0 0 0.478803 0 1.06739V17.7907C0 18.3793 0.479744 18.8581 1.0694 18.8581H11.6313C11.7494 18.8581 11.8452 18.7626 11.8452 18.6447C11.8452 18.5268 11.7494 18.4312 11.6313 18.4312H1.0694C0.715556 18.4312 0.427735 18.1439 0.427735 17.7908V3.2806H17.2749V10.2614C17.2749 10.3793 17.3706 10.4748 17.4888 10.4748C17.6069 10.4748 17.7027 10.3793 17.7027 10.2614V1.06739C17.7027 0.478803 17.2229 0 16.6333 0ZM17.2749 2.85368H0.427778V1.06739C0.427778 0.714231 0.715598 0.426966 1.06944 0.426966H16.6333C16.9871 0.426966 17.275 0.714231 17.275 1.06739V2.85368H17.2749ZM2.32508 2.0028C2.53771 2.0028 2.71008 1.83076 2.71008 1.61853C2.71008 1.4063 2.53771 1.23425 2.32508 1.23425C2.11246 1.23425 1.94009 1.4063 1.94009 1.61853C1.94009 1.83076 2.11246 2.0028 2.32508 2.0028ZM13.8005 10.319H15.3499C15.4681 10.319 15.5638 10.2234 15.5638 10.1055V5.20174C15.5638 5.08384 15.468 4.98828 15.3499 4.98828H10.4803C10.3622 4.98828 10.2665 5.08384 10.2665 5.20174V10.1055C10.2665 10.2234 10.3622 10.319 10.4803 10.319H12.0297C12.1224 10.319 12.2045 10.2594 12.2332 10.1714L12.9151 8.07649L13.5971 10.1714C13.6257 10.2594 13.7079 10.319 13.8005 10.319ZM15.1361 9.892H13.9559L13.1186 7.31969C13.0627 7.12666 12.7676 7.12662 12.7118 7.31969L11.8744 9.89204H10.6943V5.41525H15.1361V9.892ZM7.44354 5.71805C7.14751 6.31216 7.14854 7.02092 7.44632 7.61412C7.46119 7.64378 7.46897 7.67651 7.46892 7.70972V10.1055C7.46892 10.2234 7.37315 10.319 7.25503 10.319H2.35268C2.23452 10.319 2.13879 10.2234 2.13879 10.1055V7.71335C2.13879 7.68028 2.14653 7.64763 2.16132 7.61801C2.45918 7.02254 2.45973 6.31122 2.16281 5.71528C2.10435 5.60839 2.15747 5.46327 2.27144 5.41946L3.28435 5.00429C3.33196 4.98527 3.38567 4.9834 3.43443 4.99963C4.31764 5.29733 5.29046 5.29775 6.17384 5.0007C6.22256 4.98455 6.27576 4.98656 6.3232 5.00545L7.3361 5.41933C7.4514 5.46352 7.50405 5.61079 7.44354 5.71805ZM4.80388 6.59869C5.38704 6.59869 5.8779 6.12639 5.99943 5.49788C5.21832 5.701 4.38901 5.70066 3.60811 5.49681C3.72922 6.12592 4.22025 6.59869 4.80388 6.59869ZM2.56661 9.89198H7.04119V7.75891C6.73828 7.1231 6.71452 6.38318 6.97025 5.73109L6.43089 5.5107C6.30709 6.29288 5.73281 6.9063 5.01781 7.00968V8.84075C5.01781 8.95865 4.92204 9.05421 4.80392 9.05421C4.68576 9.05421 4.59003 8.95865 4.59003 8.84075V7.00972C3.87456 6.90639 3.30029 6.29254 3.17679 5.50989L2.63704 5.73113C2.89264 6.38587 2.86879 7.12617 2.56661 7.7625V9.89198ZM7.25507 12.4538H2.35272C2.2346 12.4538 2.13883 12.3582 2.13883 12.2403C2.13883 12.1224 2.23456 12.0269 2.35272 12.0269H7.25507C7.37319 12.0269 7.46896 12.1224 7.46896 12.2403C7.46896 12.3582 7.37319 12.4538 7.25507 12.4538ZM2.35272 14.5885H7.25507C7.37319 14.5885 7.46896 14.493 7.46896 14.3751C7.46896 14.2572 7.37319 14.1616 7.25507 14.1616H2.35272C2.23456 14.1616 2.13883 14.2572 2.13883 14.3751C2.13883 14.493 2.2346 14.5885 2.35272 14.5885ZM7.25507 16.7233H2.35272C2.2346 16.7233 2.13883 16.6278 2.13883 16.5099C2.13883 16.392 2.23456 16.2964 2.35272 16.2964H7.25507C7.37319 16.2964 7.46896 16.392 7.46896 16.5099C7.46896 16.6278 7.37319 16.7233 7.25507 16.7233ZM14.7291 12.0269C15.1053 11.9124 15.5043 11.8506 15.9175 11.8506C18.1686 11.8506 20 13.6784 20 15.9252C20 18.172 18.1686 20 15.9175 20C13.9401 20 12.2867 18.5893 11.9139 16.7232H10.4804C10.3622 16.7232 10.2665 16.6277 10.2665 16.5098C10.2665 16.3919 10.3623 16.2963 10.4804 16.2963H11.8522C11.8411 16.1741 11.8351 16.0503 11.8351 15.9252C11.8351 15.4572 11.9148 15.0075 12.061 14.5885H10.4804C10.3622 14.5885 10.2665 14.493 10.2665 14.3751C10.2665 14.2572 10.3623 14.1616 10.4804 14.1616H12.2376C12.5786 13.4558 13.1176 12.8625 13.7822 12.4538H10.4804C10.3622 12.4538 10.2665 12.3582 10.2665 12.2403C10.2665 12.1224 10.3623 12.0269 10.4804 12.0269H14.7291ZM12.2628 15.9252C12.2628 17.9366 13.9023 19.573 15.9175 19.573C17.9328 19.573 19.5722 17.9366 19.5722 15.9252C19.5722 13.9139 17.9327 12.2775 15.9175 12.2775C13.9024 12.2775 12.2628 13.9139 12.2628 15.9252ZM4.47336 1.61853C4.47336 1.83076 4.30099 2.0028 4.08836 2.0028C3.87573 2.0028 3.70335 1.83076 3.70335 1.61853C3.70335 1.4063 3.87573 1.23425 4.08836 1.23425C4.30099 1.23425 4.47336 1.4063 4.47336 1.61853ZM5.85167 2.0028C6.0643 2.0028 6.23667 1.83076 6.23667 1.61853C6.23667 1.4063 6.0643 1.23425 5.85167 1.23425C5.63904 1.23425 5.46667 1.4063 5.46667 1.61853C5.46667 1.83076 5.63904 2.0028 5.85167 2.0028ZM7.54371 1.83197H13.0951C13.2132 1.83197 13.309 1.73642 13.309 1.61851C13.309 1.50061 13.2132 1.40505 13.0951 1.40505H7.54371C7.42554 1.40505 7.32982 1.50061 7.32982 1.61851C7.32982 1.73642 7.42559 1.83197 7.54371 1.83197ZM17.8097 11.3112C17.8097 11.4881 17.6661 11.6314 17.4889 11.6314C17.3117 11.6314 17.1681 11.4881 17.1681 11.3112C17.1681 11.1344 17.3117 10.991 17.4889 10.991C17.6661 10.991 17.8097 11.1344 17.8097 11.3112ZM15.9176 17.5867C14.7451 17.5867 13.6487 17.0108 12.9848 16.0462C12.9347 15.9734 12.9347 15.8773 12.9848 15.8045C13.6487 14.8399 14.7451 14.264 15.9176 14.264C17.0901 14.264 18.1865 14.8399 18.8504 15.8045C18.9006 15.8772 18.9006 15.9734 18.8504 16.0462C18.1865 17.0108 17.0901 17.5867 15.9176 17.5867ZM13.4247 15.9253C14.0203 16.7119 14.9206 17.1597 15.9176 17.1597C16.9146 17.1597 17.8149 16.7119 18.4105 15.9253C17.8149 15.1388 16.9146 14.6909 15.9176 14.6909C14.9206 14.6909 14.0203 15.1388 13.4247 15.9253ZM15.0621 15.9254C15.0621 16.3963 15.4459 16.7793 15.9177 16.7793C16.3894 16.7793 16.7732 16.3963 16.7732 15.9254C16.7732 15.4546 16.3895 15.0715 15.9177 15.0715C15.4459 15.0715 15.0621 15.4546 15.0621 15.9254ZM15.4899 15.9254C15.4899 15.69 15.6818 15.4985 15.9177 15.4985C16.1535 15.4985 16.3455 15.69 16.3455 15.9254C16.3455 16.1609 16.1535 16.3524 15.9177 16.3524C15.6818 16.3524 15.4899 16.1609 15.4899 15.9254Z"/>
</mask>
<path fill-rule="evenodd" clip-rule="evenodd" d="M16.6333 0H1.0694C0.479744 0 0 0.478803 0 1.06739V17.7907C0 18.3793 0.479744 18.8581 1.0694 18.8581H11.6313C11.7494 18.8581 11.8452 18.7626 11.8452 18.6447C11.8452 18.5268 11.7494 18.4312 11.6313 18.4312H1.0694C0.715556 18.4312 0.427735 18.1439 0.427735 17.7908V3.2806H17.2749V10.2614C17.2749 10.3793 17.3706 10.4748 17.4888 10.4748C17.6069 10.4748 17.7027 10.3793 17.7027 10.2614V1.06739C17.7027 0.478803 17.2229 0 16.6333 0ZM17.2749 2.85368H0.427778V1.06739C0.427778 0.714231 0.715598 0.426966 1.06944 0.426966H16.6333C16.9871 0.426966 17.275 0.714231 17.275 1.06739V2.85368H17.2749ZM2.32508 2.0028C2.53771 2.0028 2.71008 1.83076 2.71008 1.61853C2.71008 1.4063 2.53771 1.23425 2.32508 1.23425C2.11246 1.23425 1.94009 1.4063 1.94009 1.61853C1.94009 1.83076 2.11246 2.0028 2.32508 2.0028ZM13.8005 10.319H15.3499C15.4681 10.319 15.5638 10.2234 15.5638 10.1055V5.20174C15.5638 5.08384 15.468 4.98828 15.3499 4.98828H10.4803C10.3622 4.98828 10.2665 5.08384 10.2665 5.20174V10.1055C10.2665 10.2234 10.3622 10.319 10.4803 10.319H12.0297C12.1224 10.319 12.2045 10.2594 12.2332 10.1714L12.9151 8.07649L13.5971 10.1714C13.6257 10.2594 13.7079 10.319 13.8005 10.319ZM15.1361 9.892H13.9559L13.1186 7.31969C13.0627 7.12666 12.7676 7.12662 12.7118 7.31969L11.8744 9.89204H10.6943V5.41525H15.1361V9.892ZM7.44354 5.71805C7.14751 6.31216 7.14854 7.02092 7.44632 7.61412C7.46119 7.64378 7.46897 7.67651 7.46892 7.70972V10.1055C7.46892 10.2234 7.37315 10.319 7.25503 10.319H2.35268C2.23452 10.319 2.13879 10.2234 2.13879 10.1055V7.71335C2.13879 7.68028 2.14653 7.64763 2.16132 7.61801C2.45918 7.02254 2.45973 6.31122 2.16281 5.71528C2.10435 5.60839 2.15747 5.46327 2.27144 5.41946L3.28435 5.00429C3.33196 4.98527 3.38567 4.9834 3.43443 4.99963C4.31764 5.29733 5.29046 5.29775 6.17384 5.0007C6.22256 4.98455 6.27576 4.98656 6.3232 5.00545L7.3361 5.41933C7.4514 5.46352 7.50405 5.61079 7.44354 5.71805ZM4.80388 6.59869C5.38704 6.59869 5.8779 6.12639 5.99943 5.49788C5.21832 5.701 4.38901 5.70066 3.60811 5.49681C3.72922 6.12592 4.22025 6.59869 4.80388 6.59869ZM2.56661 9.89198H7.04119V7.75891C6.73828 7.1231 6.71452 6.38318 6.97025 5.73109L6.43089 5.5107C6.30709 6.29288 5.73281 6.9063 5.01781 7.00968V8.84075C5.01781 8.95865 4.92204 9.05421 4.80392 9.05421C4.68576 9.05421 4.59003 8.95865 4.59003 8.84075V7.00972C3.87456 6.90639 3.30029 6.29254 3.17679 5.50989L2.63704 5.73113C2.89264 6.38587 2.86879 7.12617 2.56661 7.7625V9.89198ZM7.25507 12.4538H2.35272C2.2346 12.4538 2.13883 12.3582 2.13883 12.2403C2.13883 12.1224 2.23456 12.0269 2.35272 12.0269H7.25507C7.37319 12.0269 7.46896 12.1224 7.46896 12.2403C7.46896 12.3582 7.37319 12.4538 7.25507 12.4538ZM2.35272 14.5885H7.25507C7.37319 14.5885 7.46896 14.493 7.46896 14.3751C7.46896 14.2572 7.37319 14.1616 7.25507 14.1616H2.35272C2.23456 14.1616 2.13883 14.2572 2.13883 14.3751C2.13883 14.493 2.2346 14.5885 2.35272 14.5885ZM7.25507 16.7233H2.35272C2.2346 16.7233 2.13883 16.6278 2.13883 16.5099C2.13883 16.392 2.23456 16.2964 2.35272 16.2964H7.25507C7.37319 16.2964 7.46896 16.392 7.46896 16.5099C7.46896 16.6278 7.37319 16.7233 7.25507 16.7233ZM14.7291 12.0269C15.1053 11.9124 15.5043 11.8506 15.9175 11.8506C18.1686 11.8506 20 13.6784 20 15.9252C20 18.172 18.1686 20 15.9175 20C13.9401 20 12.2867 18.5893 11.9139 16.7232H10.4804C10.3622 16.7232 10.2665 16.6277 10.2665 16.5098C10.2665 16.3919 10.3623 16.2963 10.4804 16.2963H11.8522C11.8411 16.1741 11.8351 16.0503 11.8351 15.9252C11.8351 15.4572 11.9148 15.0075 12.061 14.5885H10.4804C10.3622 14.5885 10.2665 14.493 10.2665 14.3751C10.2665 14.2572 10.3623 14.1616 10.4804 14.1616H12.2376C12.5786 13.4558 13.1176 12.8625 13.7822 12.4538H10.4804C10.3622 12.4538 10.2665 12.3582 10.2665 12.2403C10.2665 12.1224 10.3623 12.0269 10.4804 12.0269H14.7291ZM12.2628 15.9252C12.2628 17.9366 13.9023 19.573 15.9175 19.573C17.9328 19.573 19.5722 17.9366 19.5722 15.9252C19.5722 13.9139 17.9327 12.2775 15.9175 12.2775C13.9024 12.2775 12.2628 13.9139 12.2628 15.9252ZM4.47336 1.61853C4.47336 1.83076 4.30099 2.0028 4.08836 2.0028C3.87573 2.0028 3.70335 1.83076 3.70335 1.61853C3.70335 1.4063 3.87573 1.23425 4.08836 1.23425C4.30099 1.23425 4.47336 1.4063 4.47336 1.61853ZM5.85167 2.0028C6.0643 2.0028 6.23667 1.83076 6.23667 1.61853C6.23667 1.4063 6.0643 1.23425 5.85167 1.23425C5.63904 1.23425 5.46667 1.4063 5.46667 1.61853C5.46667 1.83076 5.63904 2.0028 5.85167 2.0028ZM7.54371 1.83197H13.0951C13.2132 1.83197 13.309 1.73642 13.309 1.61851C13.309 1.50061 13.2132 1.40505 13.0951 1.40505H7.54371C7.42554 1.40505 7.32982 1.50061 7.32982 1.61851C7.32982 1.73642 7.42559 1.83197 7.54371 1.83197ZM17.8097 11.3112C17.8097 11.4881 17.6661 11.6314 17.4889 11.6314C17.3117 11.6314 17.1681 11.4881 17.1681 11.3112C17.1681 11.1344 17.3117 10.991 17.4889 10.991C17.6661 10.991 17.8097 11.1344 17.8097 11.3112ZM15.9176 17.5867C14.7451 17.5867 13.6487 17.0108 12.9848 16.0462C12.9347 15.9734 12.9347 15.8773 12.9848 15.8045C13.6487 14.8399 14.7451 14.264 15.9176 14.264C17.0901 14.264 18.1865 14.8399 18.8504 15.8045C18.9006 15.8772 18.9006 15.9734 18.8504 16.0462C18.1865 17.0108 17.0901 17.5867 15.9176 17.5867ZM13.4247 15.9253C14.0203 16.7119 14.9206 17.1597 15.9176 17.1597C16.9146 17.1597 17.8149 16.7119 18.4105 15.9253C17.8149 15.1388 16.9146 14.6909 15.9176 14.6909C14.9206 14.6909 14.0203 15.1388 13.4247 15.9253ZM15.0621 15.9254C15.0621 16.3963 15.4459 16.7793 15.9177 16.7793C16.3894 16.7793 16.7732 16.3963 16.7732 15.9254C16.7732 15.4546 16.3895 15.0715 15.9177 15.0715C15.4459 15.0715 15.0621 15.4546 15.0621 15.9254ZM15.4899 15.9254C15.4899 15.69 15.6818 15.4985 15.9177 15.4985C16.1535 15.4985 16.3455 15.69 16.3455 15.9254C16.3455 16.1609 16.1535 16.3524 15.9177 16.3524C15.6818 16.3524 15.4899 16.1609 15.4899 15.9254Z" fill="#303030"/>
<path d="M0.427735 3.2806V3.1806H0.327735V3.2806H0.427735ZM17.2749 3.2806H17.3749V3.1806H17.2749V3.2806ZM0.427778 2.85368H0.327778V2.95368H0.427778V2.85368ZM17.275 2.85368V2.95368H17.375V2.85368H17.275ZM15.5638 10.1055H15.4638V10.1055L15.5638 10.1055ZM12.2332 10.1714L12.1381 10.1405L12.1381 10.1405L12.2332 10.1714ZM12.9151 8.07649L13.0102 8.04553L12.9151 7.75343L12.82 8.04553L12.9151 8.07649ZM13.5971 10.1714L13.6922 10.1405L13.6922 10.1405L13.5971 10.1714ZM13.9559 9.892L13.8609 9.92296L13.8833 9.992H13.9559V9.892ZM15.1361 9.892V9.992H15.2361V9.892H15.1361ZM13.1186 7.31969L13.0224 7.34748L13.0235 7.35065L13.1186 7.31969ZM12.7118 7.31969L12.8069 7.35066L12.8078 7.34748L12.7118 7.31969ZM11.8744 9.89204V9.99204H11.947L11.9695 9.923L11.8744 9.89204ZM10.6943 9.89204H10.5943V9.99204H10.6943V9.89204ZM10.6943 5.41525V5.31525H10.5943V5.41525H10.6943ZM15.1361 5.41525H15.2361V5.31525H15.1361V5.41525ZM7.44632 7.61412L7.53571 7.5693L7.53569 7.56926L7.44632 7.61412ZM7.44354 5.71805L7.35633 5.66885L7.35403 5.67346L7.44354 5.71805ZM7.46892 7.70972L7.36892 7.70959V7.70972H7.46892ZM2.16132 7.61801L2.07188 7.57327L2.07185 7.57334L2.16132 7.61801ZM2.16281 5.71528L2.25238 5.67065L2.25054 5.66729L2.16281 5.71528ZM2.27144 5.41946L2.30733 5.51283L2.30937 5.51199L2.27144 5.41946ZM3.28435 5.00429L3.24725 4.91142L3.24642 4.91176L3.28435 5.00429ZM3.43443 4.99963L3.46638 4.90487L3.46603 4.90476L3.43443 4.99963ZM6.17384 5.0007L6.14236 4.90578L6.14196 4.90592L6.17384 5.0007ZM6.3232 5.00545L6.36102 4.91287L6.36019 4.91254L6.3232 5.00545ZM7.3361 5.41933L7.29827 5.51193L7.30031 5.51271L7.3361 5.41933ZM5.99943 5.49788L6.09762 5.51687L6.12772 5.3612L5.97427 5.4011L5.99943 5.49788ZM3.60811 5.49681L3.63337 5.40006L3.47994 5.36L3.50991 5.51572L3.60811 5.49681ZM7.04119 9.89198V9.99199H7.14119V9.89198H7.04119ZM2.56661 9.89198H2.46661V9.99199H2.56661V9.89198ZM7.04119 7.75891H7.14119V7.7363L7.13147 7.7159L7.04119 7.75891ZM6.97025 5.73109L7.06334 5.7676L7.09934 5.67581L7.00807 5.63852L6.97025 5.73109ZM6.43089 5.5107L6.46871 5.41813L6.35185 5.37038L6.33212 5.49507L6.43089 5.5107ZM5.01781 7.00968L5.0035 6.91071L4.91781 6.9231V7.00968H5.01781ZM4.59003 7.00972H4.69003V6.92312L4.60433 6.91075L4.59003 7.00972ZM3.17679 5.50989L3.27556 5.4943L3.25585 5.36941L3.13886 5.41736L3.17679 5.50989ZM2.63704 5.73113L2.59911 5.6386L2.50813 5.6759L2.54389 5.76749L2.63704 5.73113ZM2.56661 7.7625L2.47628 7.7196L2.46661 7.73996V7.7625H2.56661ZM14.7291 12.0269V12.1269H14.744L14.7582 12.1225L14.7291 12.0269ZM11.9139 16.7232L12.012 16.7037L11.9959 16.6232H11.9139V16.7232ZM11.8522 16.2963V16.3963H11.9617L11.9518 16.2873L11.8522 16.2963ZM12.061 14.5885L12.1554 14.6215L12.2018 14.4885H12.061V14.5885ZM12.2376 14.1616V14.2616H12.3004L12.3277 14.2051L12.2376 14.1616ZM13.7822 12.4538L13.8346 12.539L14.1357 12.3538H13.7822V12.4538ZM12.9848 16.0462L13.0672 15.9895L13.0671 15.9895L12.9848 16.0462ZM12.9848 15.8045L13.0672 15.8612L13.0672 15.8612L12.9848 15.8045ZM18.8504 15.8045L18.7681 15.8612L18.7681 15.8612L18.8504 15.8045ZM18.8504 16.0462L18.7681 15.9895L18.7681 15.9895L18.8504 16.0462ZM13.4247 15.9253L13.345 15.865L13.2993 15.9253L13.345 15.9857L13.4247 15.9253ZM18.4105 15.9253L18.4902 15.9857L18.536 15.9253L18.4902 15.865L18.4105 15.9253ZM1.0694 0.1H16.6333V-0.1H1.0694V0.1ZM0.1 1.06739C0.1 0.534211 0.534792 0.1 1.0694 0.1V-0.1C0.424695 -0.1 -0.1 0.423395 -0.1 1.06739H0.1ZM0.1 17.7907V1.06739H-0.1V17.7907H0.1ZM1.0694 18.7581C0.534795 18.7581 0.1 18.3239 0.1 17.7907H-0.1C-0.1 18.4347 0.424692 18.9581 1.0694 18.9581V18.7581ZM11.6313 18.7581H1.0694V18.9581H11.6313V18.7581ZM11.7452 18.6447C11.7452 18.7071 11.6944 18.7581 11.6313 18.7581V18.9581C11.8044 18.9581 11.9452 18.818 11.9452 18.6447H11.7452ZM11.6313 18.5312C11.6944 18.5312 11.7452 18.5822 11.7452 18.6447H11.9452C11.9452 18.4713 11.8045 18.3312 11.6313 18.3312V18.5312ZM1.0694 18.5312H11.6313V18.3312H1.0694V18.5312ZM0.327735 17.7908C0.327735 18.1993 0.660509 18.5312 1.0694 18.5312V18.3312C0.770602 18.3312 0.527735 18.0885 0.527735 17.7908H0.327735ZM0.327735 3.2806V17.7908H0.527735V3.2806H0.327735ZM17.2749 3.1806H0.427735V3.3806H17.2749V3.1806ZM17.3749 10.2614V3.2806H17.1749V10.2614H17.3749ZM17.4888 10.3748C17.4257 10.3748 17.3749 10.3239 17.3749 10.2614H17.1749C17.1749 10.4347 17.3156 10.5748 17.4888 10.5748V10.3748ZM17.6027 10.2614C17.6027 10.3238 17.5519 10.3748 17.4888 10.3748V10.5748C17.662 10.5748 17.8027 10.4347 17.8027 10.2614H17.6027ZM17.6027 1.06739V10.2614H17.8027V1.06739H17.6027ZM16.6333 0.1C17.1679 0.1 17.6027 0.534212 17.6027 1.06739H17.8027C17.8027 0.423395 17.278 -0.1 16.6333 -0.1V0.1ZM0.427778 2.95368H17.2749V2.75368H0.427778V2.95368ZM0.327778 1.06739V2.85368H0.527778V1.06739H0.327778ZM1.06944 0.326966C0.660552 0.326966 0.327778 0.65882 0.327778 1.06739H0.527778C0.527778 0.769641 0.770644 0.526966 1.06944 0.526966V0.326966ZM16.6333 0.326966H1.06944V0.526966H16.6333V0.326966ZM17.375 1.06739C17.375 0.65882 17.0422 0.326966 16.6333 0.326966V0.526966C16.9321 0.526966 17.175 0.769641 17.175 1.06739H17.375ZM17.375 2.85368V1.06739H17.175V2.85368H17.375ZM17.2749 2.95368H17.275V2.75368H17.2749V2.95368ZM2.61008 1.61853C2.61008 1.77535 2.48266 1.9028 2.32508 1.9028V2.1028C2.59276 2.1028 2.81008 1.88616 2.81008 1.61853H2.61008ZM2.32508 1.33425C2.48266 1.33425 2.61008 1.4617 2.61008 1.61853H2.81008C2.81008 1.35089 2.59276 1.13425 2.32508 1.13425V1.33425ZM2.04009 1.61853C2.04009 1.4617 2.16751 1.33425 2.32508 1.33425V1.13425C2.0574 1.13425 1.84009 1.35089 1.84009 1.61853H2.04009ZM2.32508 1.9028C2.16751 1.9028 2.04009 1.77535 2.04009 1.61853H1.84009C1.84009 1.88616 2.0574 2.1028 2.32508 2.1028V1.9028ZM15.3499 10.219H13.8005V10.419H15.3499V10.219ZM15.4638 10.1055C15.4638 10.168 15.413 10.219 15.3499 10.219V10.419C15.5231 10.419 15.6638 10.2788 15.6638 10.1054L15.4638 10.1055ZM15.4638 5.20174V10.1055H15.6638V5.20174H15.4638ZM15.3499 5.08828C15.413 5.08828 15.4638 5.13926 15.4638 5.20174H15.6638C15.6638 5.02841 15.523 4.88828 15.3499 4.88828V5.08828ZM10.4803 5.08828H15.3499V4.88828H10.4803V5.08828ZM10.3665 5.20174C10.3665 5.13925 10.4172 5.08828 10.4803 5.08828V4.88828C10.3071 4.88828 10.1665 5.02843 10.1665 5.20174H10.3665ZM10.3665 10.1055V5.20174H10.1665V10.1055H10.3665ZM10.4803 10.219C10.4173 10.219 10.3665 10.168 10.3665 10.1055H10.1665C10.1665 10.2788 10.3072 10.419 10.4803 10.419V10.219ZM12.0297 10.219H10.4803V10.419H12.0297V10.219ZM12.1381 10.1405C12.1229 10.1872 12.0792 10.219 12.0297 10.219V10.419C12.1656 10.419 12.2862 10.3317 12.3283 10.2024L12.1381 10.1405ZM12.82 8.04553L12.1381 10.1405L12.3283 10.2024L13.0102 8.10744L12.82 8.04553ZM13.6922 10.1405L13.0102 8.04553L12.82 8.10744L13.502 10.2024L13.6922 10.1405ZM13.8005 10.219C13.7511 10.219 13.7074 10.1872 13.6922 10.1405L13.502 10.2024C13.5441 10.3317 13.6647 10.419 13.8005 10.419V10.219ZM13.9559 9.992H15.1361V9.792H13.9559V9.992ZM13.0235 7.35065L13.8609 9.92296L14.051 9.86104L13.2136 7.28874L13.0235 7.35065ZM12.8078 7.34748C12.8207 7.30281 12.8617 7.2749 12.9152 7.2749C12.9686 7.2749 13.0096 7.30282 13.0225 7.34747L13.2146 7.29192C13.1717 7.14353 13.0372 7.07491 12.9152 7.0749C12.7931 7.07489 12.6586 7.1435 12.6157 7.2919L12.8078 7.34748ZM11.9695 9.923L12.8068 7.35065L12.6167 7.28874L11.7793 9.86109L11.9695 9.923ZM10.6943 9.99204H11.8744V9.79204H10.6943V9.99204ZM10.5943 5.41525V9.89204H10.7943V5.41525H10.5943ZM15.1361 5.31525H10.6943V5.51525H15.1361V5.31525ZM15.2361 9.892V5.41525H15.0361V9.892H15.2361ZM7.53569 7.56926C7.25204 7.00419 7.25106 6.32858 7.53304 5.76265L7.35403 5.67346C7.04397 6.29573 7.04504 7.03764 7.35694 7.65898L7.53569 7.56926ZM7.56892 7.70985C7.56899 7.66094 7.55753 7.61282 7.53571 7.5693L7.35693 7.65895C7.36485 7.67474 7.36894 7.69209 7.36892 7.70959L7.56892 7.70985ZM7.56892 10.1055V7.70972H7.36892V10.1055H7.56892ZM7.25503 10.419C7.42819 10.419 7.56892 10.2788 7.56892 10.1055H7.36892C7.36892 10.168 7.31812 10.219 7.25503 10.219V10.419ZM2.35268 10.419H7.25503V10.219H2.35268V10.419ZM2.03879 10.1055C2.03879 10.2788 2.17947 10.419 2.35268 10.419V10.219C2.28957 10.219 2.23879 10.168 2.23879 10.1055H2.03879ZM2.03879 7.71335V10.1055H2.23879V7.71335H2.03879ZM2.07185 7.57334C2.05017 7.61676 2.03879 7.66469 2.03879 7.71335H2.23879C2.23879 7.69586 2.24289 7.6785 2.25078 7.66268L2.07185 7.57334ZM2.07331 5.75987C2.35621 6.32768 2.35568 7.00592 2.07188 7.57327L2.25075 7.66275C2.56268 7.03916 2.56326 6.29475 2.25232 5.67068L2.07331 5.75987ZM2.23557 5.32612C2.06509 5.39164 1.98758 5.6033 2.07508 5.76326L2.25054 5.66729C2.22112 5.61349 2.24985 5.53489 2.30732 5.51281L2.23557 5.32612ZM3.24642 4.91176L2.23352 5.32693L2.30937 5.51199L3.32228 5.09682L3.24642 4.91176ZM3.46603 4.90476C3.39448 4.88093 3.31643 4.88379 3.24725 4.91143L3.32145 5.09716C3.34748 5.08676 3.37687 5.08586 3.40284 5.09451L3.46603 4.90476ZM6.14196 4.90592C5.2793 5.19601 4.32889 5.19559 3.46638 4.90487L3.40249 5.0944C4.30639 5.39906 5.30162 5.3995 6.20571 5.09549L6.14196 4.90592ZM6.36019 4.91254C6.2914 4.88515 6.21396 4.88205 6.14236 4.90578L6.20531 5.09562C6.23115 5.08705 6.26012 5.08797 6.2862 5.09835L6.36019 4.91254ZM7.37393 5.32676L6.36102 4.91288L6.28537 5.09802L7.29828 5.51191L7.37393 5.32676ZM7.53063 5.76719C7.62107 5.60689 7.54441 5.39208 7.37189 5.32596L7.30031 5.51271C7.35839 5.53497 7.38704 5.61469 7.35644 5.66892L7.53063 5.76719ZM5.90125 5.4789C5.78674 6.07105 5.32902 6.49869 4.80388 6.49869V6.69869C5.44506 6.69869 5.96905 6.18172 6.09762 5.51687L5.90125 5.4789ZM3.58285 5.59357C4.38028 5.80173 5.22696 5.80208 6.0246 5.59466L5.97427 5.4011C5.20969 5.59992 4.39773 5.59959 3.63337 5.40006L3.58285 5.59357ZM4.80388 6.49869C4.2783 6.49869 3.82041 6.07062 3.70631 5.47791L3.50991 5.51572C3.63803 6.18121 4.1622 6.69869 4.80388 6.69869V6.49869ZM7.04119 9.79198H2.56661V9.99199H7.04119V9.79198ZM6.94119 7.75891V9.89198H7.14119V7.75891H6.94119ZM6.87715 5.69458C6.61139 6.37226 6.63603 7.14097 6.95091 7.80192L7.13147 7.7159C6.84054 7.10522 6.81765 6.3941 7.06334 5.7676L6.87715 5.69458ZM6.39306 5.60327L6.93242 5.82366L7.00807 5.63852L6.46871 5.41813L6.39306 5.60327ZM5.03212 7.10865C5.79643 6.99814 6.39999 6.34557 6.52966 5.52634L6.33212 5.49507C6.21418 6.2402 5.66919 6.81446 5.0035 6.91071L5.03212 7.10865ZM5.11781 8.84075V7.00968H4.91781V8.84075H5.11781ZM4.80392 9.15421C4.97708 9.15421 5.11781 9.01408 5.11781 8.84075H4.91781C4.91781 8.90323 4.86701 8.95421 4.80392 8.95421V9.15421ZM4.49003 8.84075C4.49003 9.01406 4.63071 9.15421 4.80392 9.15421V8.95421C4.74081 8.95421 4.69003 8.90324 4.69003 8.84075H4.49003ZM4.49003 7.00972V8.84075H4.69003V7.00972H4.49003ZM3.07801 5.52548C3.20736 6.34518 3.81091 6.99823 4.57574 7.10869L4.60433 6.91075C3.93821 6.81454 3.39322 6.2399 3.27556 5.4943L3.07801 5.52548ZM2.67497 5.82366L3.21471 5.60242L3.13886 5.41736L2.59911 5.6386L2.67497 5.82366ZM2.65695 7.80539C2.97105 7.14396 2.99573 6.37497 2.7302 5.69476L2.54389 5.76749C2.78955 6.39677 2.76654 7.10839 2.47628 7.7196L2.65695 7.80539ZM2.66661 9.89198V7.7625H2.46661V9.89198H2.66661ZM2.35272 12.5538H7.25507V12.3538H2.35272V12.5538ZM2.03883 12.2403C2.03883 12.4136 2.17957 12.5538 2.35272 12.5538V12.3538C2.28963 12.3538 2.23883 12.3028 2.23883 12.2403H2.03883ZM2.35272 11.9269C2.17952 11.9269 2.03883 12.067 2.03883 12.2403H2.23883C2.23883 12.1778 2.2896 12.1269 2.35272 12.1269V11.9269ZM7.25507 11.9269H2.35272V12.1269H7.25507V11.9269ZM7.56896 12.2403C7.56896 12.067 7.42822 11.9269 7.25507 11.9269V12.1269C7.31816 12.1269 7.36896 12.1778 7.36896 12.2403H7.56896ZM7.25507 12.5538C7.42824 12.5538 7.56896 12.4136 7.56896 12.2403H7.36896C7.36896 12.3028 7.31815 12.3538 7.25507 12.3538V12.5538ZM7.25507 14.4885H2.35272V14.6885H7.25507V14.4885ZM7.36896 14.3751C7.36896 14.4376 7.31816 14.4885 7.25507 14.4885V14.6885C7.42822 14.6885 7.56896 14.5484 7.56896 14.3751H7.36896ZM7.25507 14.2616C7.31816 14.2616 7.36896 14.3126 7.36896 14.3751H7.56896C7.56896 14.2018 7.42822 14.0616 7.25507 14.0616V14.2616ZM2.35272 14.2616H7.25507V14.0616H2.35272V14.2616ZM2.23883 14.3751C2.23883 14.3126 2.2896 14.2616 2.35272 14.2616V14.0616C2.17952 14.0616 2.03883 14.2018 2.03883 14.3751H2.23883ZM2.35272 14.4885C2.28963 14.4885 2.23883 14.4376 2.23883 14.3751H2.03883C2.03883 14.5484 2.17957 14.6885 2.35272 14.6885V14.4885ZM2.35272 16.8233H7.25507V16.6233H2.35272V16.8233ZM2.03883 16.5099C2.03883 16.6832 2.17957 16.8233 2.35272 16.8233V16.6233C2.28963 16.6233 2.23883 16.5723 2.23883 16.5099H2.03883ZM2.35272 16.1964C2.17952 16.1964 2.03883 16.3365 2.03883 16.5099H2.23883C2.23883 16.4474 2.2896 16.3964 2.35272 16.3964V16.1964ZM7.25507 16.1964H2.35272V16.3964H7.25507V16.1964ZM7.56896 16.5099C7.56896 16.3365 7.42822 16.1964 7.25507 16.1964V16.3964C7.31816 16.3964 7.36896 16.4474 7.36896 16.5099H7.56896ZM7.25507 16.8233C7.42822 16.8233 7.56896 16.6832 7.56896 16.5099H7.36896C7.36896 16.5723 7.31816 16.6233 7.25507 16.6233V16.8233ZM15.9175 11.7506C15.4943 11.7506 15.0855 11.8139 14.7 11.9312L14.7582 12.1225C15.1251 12.0109 15.5143 11.9506 15.9175 11.9506V11.7506ZM20.1 15.9252C20.1 13.623 18.2237 11.7506 15.9175 11.7506V11.9506C18.1136 11.9506 19.9 13.7339 19.9 15.9252H20.1ZM15.9175 20.1C18.2237 20.1 20.1 18.2275 20.1 15.9252H19.9C19.9 18.1166 18.1136 19.9 15.9175 19.9V20.1ZM11.8159 16.7428C12.1978 18.6548 13.8915 20.1 15.9175 20.1V19.9C13.9886 19.9 12.3755 18.5238 12.012 16.7037L11.8159 16.7428ZM10.4804 16.8232H11.9139V16.6232H10.4804V16.8232ZM10.1665 16.5098C10.1665 16.6831 10.3072 16.8232 10.4804 16.8232V16.6232C10.4173 16.6232 10.3665 16.5723 10.3665 16.5098H10.1665ZM10.4804 16.1963C10.3072 16.1963 10.1665 16.3364 10.1665 16.5098H10.3665C10.3665 16.4473 10.4173 16.3963 10.4804 16.3963V16.1963ZM11.8522 16.1963H10.4804V16.3963H11.8522V16.1963ZM11.7351 15.9252C11.7351 16.0535 11.7412 16.1803 11.7526 16.3054L11.9518 16.2873C11.9409 16.1678 11.9351 16.0471 11.9351 15.9252H11.7351ZM11.9666 14.5556C11.8167 14.9849 11.7351 15.4458 11.7351 15.9252H11.9351C11.9351 15.4686 12.0128 15.03 12.1554 14.6215L11.9666 14.5556ZM10.4804 14.6885H12.061V14.4885H10.4804V14.6885ZM10.1665 14.3751C10.1665 14.5484 10.3072 14.6885 10.4804 14.6885V14.4885C10.4173 14.4885 10.3665 14.4376 10.3665 14.3751H10.1665ZM10.4804 14.0616C10.3072 14.0616 10.1665 14.2017 10.1665 14.3751H10.3665C10.3665 14.3126 10.4173 14.2616 10.4804 14.2616V14.0616ZM12.2376 14.0616H10.4804V14.2616H12.2376V14.0616ZM13.7298 12.3686C13.0491 12.7873 12.497 13.3949 12.1476 14.1181L12.3277 14.2051C12.6603 13.5166 13.1862 12.9378 13.8346 12.539L13.7298 12.3686ZM10.4804 12.5538H13.7822V12.3538H10.4804V12.5538ZM10.1665 12.2403C10.1665 12.4136 10.3072 12.5538 10.4804 12.5538V12.3538C10.4173 12.3538 10.3665 12.3028 10.3665 12.2403H10.1665ZM10.4804 11.9269C10.3072 11.9269 10.1665 12.067 10.1665 12.2403H10.3665C10.3665 12.1778 10.4173 12.1269 10.4804 12.1269V11.9269ZM14.7291 11.9269H10.4804V12.1269H14.7291V11.9269ZM15.9175 19.473C13.9574 19.473 12.3628 17.8812 12.3628 15.9252H12.1628C12.1628 17.992 13.8473 19.673 15.9175 19.673V19.473ZM19.4722 15.9252C19.4722 17.8812 17.8777 19.473 15.9175 19.473V19.673C17.9878 19.673 19.6722 17.992 19.6722 15.9252H19.4722ZM15.9175 12.3775C17.8777 12.3775 19.4722 13.9693 19.4722 15.9252H19.6722C19.6722 13.8585 17.9878 12.1775 15.9175 12.1775V12.3775ZM12.3628 15.9252C12.3628 13.9693 13.9574 12.3775 15.9175 12.3775V12.1775C13.8473 12.1775 12.1628 13.8585 12.1628 15.9252H12.3628ZM4.08836 2.1028C4.35604 2.1028 4.57336 1.88616 4.57336 1.61853H4.37336C4.37336 1.77535 4.24594 1.9028 4.08836 1.9028V2.1028ZM3.60335 1.61853C3.60335 1.88616 3.82068 2.1028 4.08836 2.1028V1.9028C3.93078 1.9028 3.80335 1.77535 3.80335 1.61853H3.60335ZM4.08836 1.13425C3.82068 1.13425 3.60335 1.35089 3.60335 1.61853H3.80335C3.80335 1.46171 3.93078 1.33425 4.08836 1.33425V1.13425ZM4.57336 1.61853C4.57336 1.35089 4.35604 1.13425 4.08836 1.13425V1.33425C4.24594 1.33425 4.37336 1.46171 4.37336 1.61853H4.57336ZM6.13667 1.61853C6.13667 1.77535 6.00925 1.9028 5.85167 1.9028V2.1028C6.11935 2.1028 6.33667 1.88616 6.33667 1.61853H6.13667ZM5.85167 1.33425C6.00925 1.33425 6.13667 1.46171 6.13667 1.61853H6.33667C6.33667 1.35089 6.11935 1.13425 5.85167 1.13425V1.33425ZM5.56667 1.61853C5.56667 1.46171 5.69409 1.33425 5.85167 1.33425V1.13425C5.58399 1.13425 5.36667 1.35089 5.36667 1.61853H5.56667ZM5.85167 1.9028C5.69409 1.9028 5.56667 1.77535 5.56667 1.61853H5.36667C5.36667 1.88616 5.58399 2.1028 5.85167 2.1028V1.9028ZM13.0951 1.73197H7.54371V1.93197H13.0951V1.73197ZM13.209 1.61851C13.209 1.68099 13.1582 1.73197 13.0951 1.73197V1.93197C13.2682 1.93197 13.409 1.79184 13.409 1.61851H13.209ZM13.0951 1.50505C13.1582 1.50505 13.209 1.55603 13.209 1.61851H13.409C13.409 1.44518 13.2682 1.30505 13.0951 1.30505V1.50505ZM7.54371 1.50505H13.0951V1.30505H7.54371V1.50505ZM7.42982 1.61851C7.42982 1.55602 7.48059 1.50505 7.54371 1.50505V1.30505C7.3705 1.30505 7.22982 1.4452 7.22982 1.61851H7.42982ZM7.54371 1.73197C7.48062 1.73197 7.42982 1.681 7.42982 1.61851H7.22982C7.22982 1.79184 7.37055 1.93197 7.54371 1.93197V1.73197ZM17.4889 11.7314C17.7211 11.7314 17.9097 11.5435 17.9097 11.3112H17.7097C17.7097 11.4327 17.611 11.5314 17.4889 11.5314V11.7314ZM17.0681 11.3112C17.0681 11.5435 17.2567 11.7314 17.4889 11.7314V11.5314C17.3668 11.5314 17.2681 11.4327 17.2681 11.3112H17.0681ZM17.4889 10.891C17.2567 10.891 17.0681 11.079 17.0681 11.3112H17.2681C17.2681 11.1898 17.3668 11.091 17.4889 11.091V10.891ZM17.9097 11.3112C17.9097 11.079 17.7211 10.891 17.4889 10.891V11.091C17.611 11.091 17.7097 11.1898 17.7097 11.3112H17.9097ZM12.9024 16.1029C13.585 17.0946 14.7122 17.6867 15.9176 17.6867V17.4867C14.7779 17.4867 13.7124 16.9269 13.0672 15.9895L12.9024 16.1029ZM12.9024 15.7478C12.8288 15.8547 12.8288 15.996 12.9024 16.1029L13.0671 15.9895C13.0405 15.9509 13.0405 15.8999 13.0672 15.8612L12.9024 15.7478ZM15.9176 14.164C14.7122 14.164 13.585 14.756 12.9024 15.7478L13.0672 15.8612C13.7124 14.9237 14.7779 14.364 15.9176 14.364V14.164ZM18.9328 15.7478C18.2502 14.7561 17.123 14.164 15.9176 14.164V14.364C17.0573 14.364 18.1228 14.9237 18.7681 15.8612L18.9328 15.7478ZM18.9328 16.1029C19.0064 15.996 19.0064 15.8547 18.9328 15.7477L18.7681 15.8612C18.7947 15.8998 18.7947 15.9508 18.7681 15.9895L18.9328 16.1029ZM15.9176 17.6867C17.123 17.6867 18.2502 17.0947 18.9328 16.1029L18.7681 15.9895C18.1228 16.927 17.0573 17.4867 15.9176 17.4867V17.6867ZM15.9176 17.0597C14.9518 17.0597 14.081 16.6264 13.5044 15.865L13.345 15.9857C13.9596 16.7973 14.8895 17.2597 15.9176 17.2597V17.0597ZM18.3308 15.865C17.7542 16.6264 16.8834 17.0597 15.9176 17.0597V17.2597C16.9457 17.2597 17.8756 16.7973 18.4902 15.9857L18.3308 15.865ZM15.9176 14.7909C16.8834 14.7909 17.7542 15.2242 18.3308 15.9857L18.4902 15.865C17.8756 15.0533 16.9457 14.5909 15.9176 14.5909V14.7909ZM13.5044 15.9857C14.081 15.2243 14.9518 14.7909 15.9176 14.7909V14.5909C14.8895 14.5909 13.9596 15.0534 13.345 15.865L13.5044 15.9857ZM15.9177 16.6793C15.501 16.6793 15.1621 16.3409 15.1621 15.9254H14.9621C14.9621 16.4517 15.3909 16.8793 15.9177 16.8793V16.6793ZM16.6732 15.9254C16.6732 16.3409 16.3344 16.6793 15.9177 16.6793V16.8793C16.4445 16.8793 16.8732 16.4517 16.8732 15.9254H16.6732ZM15.9177 15.1715C16.3344 15.1715 16.6732 15.51 16.6732 15.9254H16.8732C16.8732 15.3992 16.4445 14.9715 15.9177 14.9715V15.1715ZM15.1621 15.9254C15.1621 15.51 15.5009 15.1715 15.9177 15.1715V14.9715C15.3908 14.9715 14.9621 15.3992 14.9621 15.9254H15.1621ZM15.9177 15.3985C15.6268 15.3985 15.3899 15.6346 15.3899 15.9254H15.5899C15.5899 15.7454 15.7369 15.5985 15.9177 15.5985V15.3985ZM16.4455 15.9254C16.4455 15.6346 16.2086 15.3985 15.9177 15.3985V15.5985C16.0985 15.5985 16.2455 15.7454 16.2455 15.9254H16.4455ZM15.9177 16.4524C16.2086 16.4524 16.4455 16.2163 16.4455 15.9254H16.2455C16.2455 16.1054 16.0985 16.2524 15.9177 16.2524V16.4524ZM15.3899 15.9254C15.3899 16.2163 15.6268 16.4524 15.9177 16.4524V16.2524C15.7369 16.2524 15.5899 16.1054 15.5899 15.9254H15.3899Z" fill="#303030" mask="url(#path-1-outside-1_254:1235)"/>
</g>
<defs>
<clipPath id="clip0_254:1235">
<rect width="20" height="20" fill="white"/>
</clipPath>
</defs>
</svg>
