<svg width="20" height="20" viewBox="0 0 20 20" fill="none" xmlns="http://www.w3.org/2000/svg">
<g clip-path="url(#clip0_254:1189)">
<path d="M18.6714 0.449935L18.6714 0.449944L20.0018 2.6914L18.6714 0.449935ZM18.6714 0.449935C18.5455 0.237938 18.3144 0.10625 18.0678 0.10625H7.1993C6.95312 0.10625 6.7221 0.23742 6.59619 0.448954C6.59619 0.448961 6.59618 0.448968 6.59618 0.448976L5.26019 2.69099L18.6714 0.449935ZM5.2121 2.85958C5.21321 2.80219 5.2284 2.74412 5.26013 2.69108L5.2121 2.85958ZM5.2121 2.85958L5.21173 2.85953V2.86667V9.67512L0.112743 14.3497L0.112737 14.3497C0.0104983 14.4435 -0.0487478 14.5768 -0.0501034 14.7155L-0.0501039 14.7156C-0.0512905 14.8543 0.00561231 14.9885 0.106273 15.0843L0.106293 15.0843L5.03729 19.7693C5.13254 19.86 5.25697 19.9076 5.38319 19.9076C5.45001 19.9076 5.51745 19.8942 5.58142 19.8668L5.58145 19.8668C5.76613 19.7875 5.88562 19.6063 5.88562 19.4052V17.2301C7.04847 17.0331 8.08789 16.6689 8.997 16.1407H19.2533C19.6926 16.1407 20.0499 15.7834 20.0499 15.3441V2.86667H20.05L20.0498 2.86311L20.0497 2.86253C20.0491 2.8043 20.0339 2.74533 20.0018 2.69146L5.2121 2.85958ZM19.1047 2.5237H18.471C18.2814 2.5237 18.128 2.67733 18.128 2.86667C18.128 3.05618 18.2815 3.20964 18.471 3.20964H19.364V15.3441C19.364 15.4051 19.3143 15.4548 19.2533 15.4548H9.99134C10.4077 15.1171 10.7886 14.7366 11.1328 14.313C12.1837 13.0193 12.9026 11.3439 13.3325 9.19438L13.3325 9.19436C13.3641 9.03592 13.2809 8.87678 13.1324 8.81247C13.1324 8.81246 13.1324 8.81246 13.1324 8.81246L13.1125 8.85834C12.9859 8.80341 12.838 8.84445 12.7576 8.95691C11.4602 10.7738 10.0182 11.7757 8.08247 12.2054C7.92455 12.2404 7.82491 12.3969 7.86 12.5548M19.1047 2.5237L7.81118 12.5656M19.1047 2.5237L18.0818 0.800116C18.0818 0.800105 18.0818 0.800094 18.0818 0.800083C18.0789 0.795285 18.0734 0.792188 18.0678 0.792188H14.3758L14.6783 2.5237H19.1047ZM7.86 12.5548L7.81118 12.5656M7.86 12.5548C7.89494 12.7127 8.05119 12.8127 8.20943 12.7773L7.81118 12.5656M7.86 12.5548L7.81119 12.5656C7.81119 12.5656 7.81118 12.5656 7.81118 12.5656M7.2173 12.6544L7.26705 12.6495C7.26706 12.6495 7.26706 12.6495 7.26706 12.6495C7.28579 12.838 7.14805 13.0059 6.95965 13.0246L6.95964 13.0246C6.52006 13.0683 6.04829 13.0905 5.55704 13.0909H5.55699H5.5547H5.55287H5.54265C5.35314 13.0909 5.19968 12.9375 5.19968 12.748V10.6168L0.721364 14.7225L5.19968 18.9775V16.9365C5.19968 16.7659 5.32509 16.6212 5.49403 16.5969L5.49408 16.5969C7.67285 16.2858 9.38941 15.371 10.6003 13.8805C11.33 12.9824 11.8908 11.8758 12.2983 10.5215L6.89194 12.3421L6.89687 12.3918M7.2173 12.6544C7.20143 12.4933 7.058 12.3755 6.89687 12.3918M7.2173 12.6544C7.23332 12.8154 7.11568 12.9588 6.9547 12.9749L7.2173 12.6544ZM6.89687 12.3918C6.58043 12.4231 6.24551 12.4429 5.89767 12.4509L14.733 7.65213C14.733 7.7818 14.6598 7.9006 14.5438 7.95868M6.89687 12.3918L6.89183 12.3421C6.57714 12.3732 6.24391 12.3929 5.89767 12.4009V3.20964H10.7313V7.65213C10.7313 7.7818 10.8045 7.9006 10.9205 7.95868C11.0363 8.01691 11.1752 8.00453 11.2791 7.92723L11.2792 7.92721L12.7321 6.84473L14.1851 7.9272L14.1851 7.92721L14.215 7.88712M14.215 7.88712C14.2666 7.92557 14.328 7.9451 14.39 7.9451C14.4349 7.9451 14.4799 7.93488 14.5214 7.91397M14.215 7.88712L12.7321 6.78238L14.215 7.88712ZM14.5214 7.91397L14.5438 7.95868M14.5214 7.91397C14.6204 7.86438 14.683 7.76291 14.683 7.65213V3.20964L14.5438 7.95868M14.5214 7.91397L14.5439 7.95863C14.5438 7.95864 14.5438 7.95866 14.5438 7.95868M12.5272 6.14185L11.4172 6.96888V3.20964H14.047V6.96888L12.937 6.14185L12.9369 6.14179C12.8761 6.09667 12.8041 6.07396 12.7321 6.07396C12.66 6.07396 12.588 6.09665 12.5273 6.14183L12.5272 6.14185ZM7.18533 0.800131L7.18534 0.800116C7.18821 0.795299 7.19369 0.792188 7.1993 0.792188H11.0538L10.781 2.5237H6.1583L7.18533 0.800131ZM11.7481 0.792188H13.6795L13.9818 2.52355H11.4755L11.7481 0.792188Z" fill="#303030" stroke="#303030" stroke-width="0.1"/>
</g>
<defs>
<clipPath id="clip0_254:1189">
<rect width="20" height="20" fill="white"/>
</clipPath>
</defs>
</svg>
