<svg width="23" height="19" viewBox="0 0 23 19" fill="none" xmlns="http://www.w3.org/2000/svg">
<path d="M14.9609 14.4603C14.9054 14.2739 14.7577 14.1381 14.5801 14.1099L12.744 13.8187L11.9229 12.0025C11.8434 11.8267 11.6795 11.7155 11.4999 11.7155C11.3204 11.7155 11.1564 11.8267 11.0769 12.0025L10.2558 13.8187L8.41975 14.1099C8.24208 14.1381 8.09447 14.2739 8.03895 14.4603C7.98351 14.6467 8.02974 14.8513 8.15831 14.9881L9.48691 16.4018L9.17327 18.398C9.1429 18.5912 9.21563 18.7865 9.36091 18.9017C9.50619 19.0168 9.69877 19.0321 9.85765 18.9408L11.4999 17.9983L13.1422 18.9408C13.2112 18.9805 13.2866 19 13.3617 19C13.4594 19 13.5568 18.9668 13.639 18.9017C13.7842 18.7865 13.857 18.5912 13.8266 18.398L13.5129 16.4018L14.8416 14.9881C14.9701 14.8513 15.0164 14.6468 14.9609 14.4603Z" fill="#808080"/>
<path d="M7.33303 14.4604C7.27742 14.2739 7.1298 14.1381 6.95214 14.1099L5.11605 13.8187L4.29496 12.0025C4.21545 11.8267 4.05153 11.7155 3.87198 11.7155C3.69243 11.7155 3.52851 11.8267 3.44899 12.0025L2.62791 13.8187L0.79182 14.1099C0.614154 14.1381 0.466541 14.2739 0.411018 14.4603C0.355584 14.6467 0.401809 14.8513 0.530375 14.9881L1.85898 16.4019L1.54539 18.3981C1.51502 18.5913 1.58775 18.7865 1.73302 18.9017C1.87821 19.0169 2.07084 19.0321 2.22977 18.9409L3.87202 17.9984L5.51432 18.9409C5.58332 18.9805 5.6587 19 5.73377 19C5.83156 19 5.92891 18.9669 6.01107 18.9017C6.1563 18.7865 6.22907 18.5913 6.19871 18.3981L5.88506 16.4019L7.21367 14.9882C7.34224 14.8514 7.38851 14.6468 7.33303 14.4604Z" fill="#808080"/>
<path d="M22.5891 14.4603C22.5335 14.2739 22.3859 14.1381 22.2082 14.1099L20.3721 13.8187L19.5511 12.0025C19.4716 11.8267 19.3076 11.7155 19.1281 11.7155C18.9485 11.7155 18.7846 11.8267 18.7051 12.0025L17.884 13.8187L16.0479 14.1099C15.8703 14.1381 15.7226 14.2739 15.6671 14.4603C15.6117 14.6467 15.6579 14.8513 15.7865 14.9881L17.1151 16.4018L16.8014 18.398C16.7711 18.5912 16.8438 18.7865 16.9891 18.9017C17.0712 18.9668 17.1685 19 17.2664 19C17.3414 19 17.4168 18.9805 17.4858 18.9408L19.1281 17.9983L20.7704 18.9408C20.9292 19.032 21.1218 19.0169 21.2671 18.9017C21.4124 18.7865 21.4851 18.5912 21.4548 18.398L21.1412 16.4018L22.4698 14.9881C22.5983 14.8513 22.6446 14.6467 22.5891 14.4603Z" fill="#808080"/>
<path d="M19.7606 0H3.23941C1.45322 0 0 1.5863 0 3.53617V5.92227C0 7.74278 1.26662 9.24636 2.88852 9.4378L3.58894 10.4564C3.81984 10.7923 4.17279 10.9886 4.55732 10.9951C4.56393 10.9952 4.57058 10.9953 4.57713 10.9953C4.95416 10.9953 5.30437 10.8118 5.54057 10.4897L6.2971 9.45839H19.7606C21.5468 9.45839 23 7.87209 23 5.92222V3.53612C23 1.5863 21.5468 0 19.7606 0ZM10.055 6.91361H3.9215C3.54937 6.91361 3.24767 6.58427 3.24767 6.17805C3.24767 5.77183 3.54937 5.44249 3.9215 5.44249H10.055C10.4271 5.44249 10.7288 5.77183 10.7288 6.17805C10.7288 6.58427 10.4271 6.91361 10.055 6.91361ZM19.0785 3.95608H3.9215C3.54937 3.95608 3.24767 3.62674 3.24767 3.22052C3.24767 2.81429 3.54937 2.48496 3.9215 2.48496H19.0785C19.4506 2.48496 19.7523 2.81429 19.7523 3.22052C19.7523 3.62674 19.4506 3.95608 19.0785 3.95608Z" fill="#808080"/>
</svg>
