<svg width="18" height="18" viewBox="0 0 18 18" fill="none" xmlns="http://www.w3.org/2000/svg">
<path d="M17.6625 16.0875L12.9375 11.3625C12.7125 11.1375 12.375 11.025 12.0375 11.025C12.9375 9.9 13.5 8.325 13.5 6.75C13.5 3.0375 10.4625 0 6.75 0C3.0375 0 0 3.0375 0 6.75C0 10.4625 3.0375 13.5 6.75 13.5C8.325 13.5 9.9 12.9375 11.025 11.925C11.025 12.2625 11.025 12.6 11.3625 12.825L16.0875 17.55C16.3125 17.775 16.65 17.8875 16.875 17.8875C17.1 17.8875 17.4375 17.775 17.6625 17.55C18.1125 17.2125 18.1125 16.5375 17.6625 16.0875ZM6.75 11.8125C3.9375 11.8125 1.6875 9.5625 1.6875 6.75C1.6875 3.9375 3.9375 1.6875 6.75 1.6875C9.5625 1.6875 11.8125 3.9375 11.8125 6.75C11.8125 9.5625 9.5625 11.8125 6.75 11.8125Z" fill="#C4C4C4"/>
</svg>
