<svg width="20" height="20" viewBox="0 0 20 20" fill="none" xmlns="http://www.w3.org/2000/svg">
<path d="M18 14.4709V5.52919C18.0001 5.48422 17.9882 5.44005 17.9657 5.40113C17.9432 5.3622 17.9108 5.32991 17.8718 5.30749L10.128 0.836617C10.0891 0.814103 10.045 0.802246 10.0001 0.802246C9.95524 0.802246 9.91114 0.814103 9.87229 0.836617L2.12992 5.30749C2.09095 5.32991 2.05857 5.3622 2.03606 5.40113C2.01355 5.44005 2.0017 5.48422 2.00171 5.52919V14.4709C2.0017 14.5159 2.01355 14.5601 2.03606 14.599C2.05857 14.6379 2.09095 14.6702 2.12992 14.6926L9.87229 19.1635C9.91114 19.186 9.95524 19.1979 10.0001 19.1979C10.045 19.1979 10.0891 19.186 10.128 19.1635L17.8704 14.6926C17.9096 14.6704 17.9423 14.6382 17.9651 14.5992C17.9878 14.5603 17.9999 14.516 18 14.4709V14.4709Z" stroke="white" stroke-miterlimit="10" stroke-linejoin="round"/>
<path fill-rule="evenodd" clip-rule="evenodd" d="M10.0001 6.73535C8.19704 6.73535 6.73535 8.19704 6.73535 10.0001C6.73535 11.8032 8.19704 13.2649 10.0001 13.2649C11.8032 13.2649 13.2649 11.8032 13.2649 10.0001C13.2649 8.19704 11.8032 6.73535 10.0001 6.73535ZM5.73535 10.0001C5.73535 7.64475 7.64475 5.73535 10.0001 5.73535C12.3555 5.73535 14.2649 7.64475 14.2649 10.0001C14.2649 12.3555 12.3555 14.2649 10.0001 14.2649C7.64475 14.2649 5.73535 12.3555 5.73535 10.0001Z" fill="white"/>
</svg>
