<svg width="14" height="16" viewBox="0 0 14 16" fill="none" xmlns="http://www.w3.org/2000/svg">
<path d="M11.307 10.7623C10.5404 10.7623 9.84973 11.0934 9.37036 11.62L5.05872 8.94958C5.17383 8.65491 5.23767 8.33484 5.23767 8C5.23767 7.66504 5.17383 7.34497 5.05872 7.05042L9.37036 4.37988C9.84973 4.90649 10.5404 5.23767 11.307 5.23767C12.7511 5.23767 13.9259 4.06287 13.9259 2.61877C13.9259 1.17468 12.7511 0 11.307 0C9.86292 0 8.68811 1.1748 8.68811 2.6189C8.68811 2.95374 8.75208 3.2738 8.86707 3.56848L4.55554 6.23889C4.07617 5.71228 3.3855 5.3811 2.6189 5.3811C1.1748 5.3811 0 6.55603 0 8C0 9.44409 1.1748 10.6189 2.6189 10.6189C3.3855 10.6189 4.07617 10.2878 4.55554 9.76111L8.86707 12.4315C8.75208 12.7262 8.68811 13.0463 8.68811 13.3812C8.68811 14.8252 9.86292 16 11.307 16C12.7511 16 13.9259 14.8252 13.9259 13.3812C13.9259 11.9371 12.7511 10.7623 11.307 10.7623ZM9.64307 2.6189C9.64307 1.70142 10.3895 0.954956 11.307 0.954956C12.2245 0.954956 12.9709 1.70142 12.9709 2.6189C12.9709 3.53638 12.2245 4.28284 11.307 4.28284C10.3895 4.28284 9.64307 3.53638 9.64307 2.6189ZM2.6189 9.66394C1.70129 9.66394 0.954834 8.91748 0.954834 8C0.954834 7.08252 1.70129 6.33606 2.6189 6.33606C3.53638 6.33606 4.28271 7.08252 4.28271 8C4.28271 8.91748 3.53638 9.66394 2.6189 9.66394ZM9.64307 13.3811C9.64307 12.4636 10.3895 11.7172 11.307 11.7172C12.2245 11.7172 12.9709 12.4636 12.9709 13.3811C12.9709 14.2986 12.2245 15.045 11.307 15.045C10.3895 15.045 9.64307 14.2986 9.64307 13.3811Z" fill="black"/>
</svg>
