<svg width="15" height="15" viewBox="0 0 15 15" fill="none" xmlns="http://www.w3.org/2000/svg">
<path d="M10.9214 11.6551L9.5516 10.2819L9.18677 10.6467L10.739 12.2024H11.1038L13.7781 9.53158L13.4098 9.16675L10.9214 11.6551Z" fill="#303030"/>
<path d="M3.91064 10.072H3.39438V10.5883H3.91064V10.072Z" fill="#303030"/>
<path d="M2.40991 7.23608H1.89365V7.75236H2.40991V7.23608Z" fill="#303030"/>
<path d="M0.162502 4.02138L5.75883 0.789551H6.01696L11.6133 4.02138L11.7441 4.24509V7.18093C13.5613 7.31516 15 8.83298 15 10.6847C15 12.6224 13.4237 14.1987 11.4859 14.1987C10.2882 14.1987 9.22814 13.5964 8.59485 12.6774L6.02041 14.1643H5.76227L0.165944 10.9325L0.0351572 10.7088V4.24509L0.162502 4.02138ZM5.88618 1.3127L0.806114 4.24509L2.15185 5.02982L7.23879 2.09398L5.88618 1.3127ZM11.4825 13.6824C13.1346 13.6824 14.4803 12.3367 14.4803 10.6847C14.4803 9.03261 13.1346 7.68687 11.4825 7.68687C9.83045 7.68687 8.48472 9.03261 8.48472 10.6847C8.48472 12.3367 9.83045 13.6824 11.4825 13.6824ZM6.14431 13.4931L8.32984 12.23C8.09924 11.7619 7.97189 11.2388 7.97189 10.6847C7.97189 8.83298 9.41056 7.31516 11.2278 7.18093V4.69253L6.13054 7.64213L6.14431 13.4931ZM5.87241 7.1947L10.9697 4.24509L9.26256 3.26075L4.16873 6.20346L5.87241 7.1947ZM0.547981 10.5573L1.89372 11.3352V8.26853H2.40998V11.6346L3.39089 12.2025V11.1046H3.90716V12.4985L5.6246 13.4897L5.61083 7.64213L3.90716 6.6509V9.55575H3.39089V6.20002L3.52168 5.97631L8.74285 2.96131L7.75506 2.38998L2.40998 5.47725V6.71973H1.89372V5.47725L0.547981 4.69253V10.5573Z" fill="#303030"/>
</svg>
