<svg width="20" height="20" viewBox="0 0 20 20" fill="none" xmlns="http://www.w3.org/2000/svg">
<g clip-path="url(#clip0_254:1160)">
<mask id="path-1-outside-1_254:1160" maskUnits="userSpaceOnUse" x="-1" y="2.67432" width="22" height="14" fill="black">
<rect fill="white" x="-1" y="2.67432" width="22" height="14"/>
<path fill-rule="evenodd" clip-rule="evenodd" d="M18.082 6.96596L18.5999 9.03764C19.3915 9.15814 20 9.84334 20 10.668V14.0083C20 14.1813 19.8597 14.3215 19.6868 14.3215H18.6632C18.6633 14.3284 18.6638 14.3353 18.6638 14.3423C18.6638 15.4359 17.7741 16.3256 16.6805 16.3256C15.587 16.3256 14.6972 15.4359 14.6972 14.3423L14.6975 14.3309L14.6978 14.3215H7.64035L7.64062 14.3309L7.6409 14.3423C7.6409 15.4359 6.75117 16.3256 5.65762 16.3256C4.56406 16.3256 3.67434 15.4359 3.67434 14.3423L3.67462 14.3309L3.67477 14.3264L3.67488 14.3215H1.98332C1.62645 14.3215 1.33613 14.0312 1.33613 13.6743V12.9853H0.313164C0.140195 12.9853 0 12.8451 0 12.6722C0 12.4992 0.140234 12.359 0.313164 12.359H3.31941C3.49238 12.359 3.63258 12.4992 3.63258 12.6722C3.63258 12.8451 3.49234 12.9853 3.31941 12.9853H1.96242V13.6743C1.96242 13.6858 1.97176 13.6951 1.98328 13.6951H3.78332C4.05227 12.9185 4.79063 12.359 5.65762 12.359C6.52461 12.359 7.26293 12.9185 7.53191 13.6951H14.0291V11.3361C14.0291 11.1631 14.1693 11.0229 14.3423 11.0229C14.5152 11.0229 14.6554 11.1632 14.6554 11.3361V13.6952H14.8062C15.0752 12.9185 15.8135 12.3591 16.6805 12.3591C17.5475 12.3591 18.2858 12.9185 18.5548 13.6952H19.3736V12.3174H19.0187C18.4777 12.3174 18.0375 11.8772 18.0375 11.3362V10.6681C18.0375 10.4951 18.1777 10.3549 18.3507 10.3549H19.3244C19.1918 9.94381 18.8059 9.64545 18.3513 9.64514L18.3504 9.64518L18.3496 9.6451H14.6555V10.0001C14.6555 10.1731 14.5153 10.3133 14.3423 10.3133C14.1694 10.3133 14.0292 10.173 14.0292 10.0001V4.3215C14.0292 4.30998 14.0198 4.30064 14.0083 4.30064H1.98328C1.97176 4.30064 1.96242 4.30998 1.96242 4.3215V10C1.96242 10.173 1.82219 10.3132 1.64926 10.3132C1.47629 10.3132 1.33609 10.1729 1.33609 10V4.3215C1.33609 3.96463 1.62641 3.67432 1.98328 3.67432H14.0084C14.3652 3.67432 14.6555 3.96463 14.6555 4.3215V5.01049H17.0146C17.7398 5.01049 18.3298 5.60049 18.3298 6.32572V6.65975C18.3298 6.81025 18.2236 6.93588 18.082 6.96596ZM17.0146 5.63678H14.6555V6.34658H17.7036V6.32572C17.7036 5.94584 17.3945 5.63678 17.0146 5.63678ZM14.6555 6.97287V9.01881H17.9496L17.4382 6.97287H14.6555ZM4.30062 14.3424C4.30062 15.0907 4.90938 15.6994 5.65762 15.6994C6.40586 15.6994 7.01461 15.0907 7.01461 14.3424C7.01461 13.5941 6.40586 12.9854 5.65762 12.9854C4.90938 12.9854 4.30062 13.5941 4.30062 14.3424ZM15.3236 14.3424C15.3236 15.0907 15.9323 15.6994 16.6806 15.6994C17.4288 15.6994 18.0376 15.0907 18.0376 14.3424C18.0376 13.5941 17.4288 12.9854 16.6806 12.9854C15.9323 12.9854 15.3236 13.5941 15.3236 14.3424ZM19.0188 11.691H19.3737V10.9812H18.6639V11.3361C18.6639 11.5318 18.8231 11.691 19.0188 11.691ZM5.0105 14.3425C5.0105 13.9856 5.30081 13.6953 5.65769 13.6953C6.01456 13.6953 6.30487 13.9856 6.30487 14.3425C6.30487 14.6994 6.01456 14.9897 5.65769 14.9897C5.30081 14.9897 5.0105 14.6994 5.0105 14.3425ZM16.6805 13.6953C16.3236 13.6953 16.0333 13.9856 16.0333 14.3425C16.0333 14.6994 16.3236 14.9897 16.6805 14.9897C17.0374 14.9897 17.3277 14.6994 17.3277 14.3425C17.3277 13.9856 17.0374 13.6953 16.6805 13.6953ZM8.32976 12.3591H13.0062C13.1791 12.3591 13.3193 12.4993 13.3193 12.6723C13.3193 12.8453 13.1791 12.9855 13.0062 12.9855H8.32976C8.1568 12.9855 8.0166 12.8453 8.0166 12.6723C8.0166 12.4993 8.15684 12.3591 8.32976 12.3591ZM4.98949 11.0229H0.981132C0.808203 11.0229 0.667969 11.1631 0.667969 11.3361C0.667969 11.5091 0.808164 11.6493 0.981132 11.6493H4.98949C5.16241 11.6493 5.30265 11.5091 5.30265 11.3361C5.30265 11.1631 5.16241 11.0229 4.98949 11.0229ZM10.4466 6.77215C10.5689 6.64985 10.7672 6.64985 10.8895 6.77211C11.0117 6.89442 11.0117 7.09266 10.8894 7.215L7.88317 10.2212C7.82208 10.2824 7.74188 10.313 7.66176 10.313C7.58165 10.313 7.50149 10.2824 7.44036 10.2212L5.7702 8.5511C5.64789 8.42879 5.64789 8.23055 5.7702 8.10824C5.89246 7.98594 6.09074 7.98594 6.21305 8.10824L7.66176 9.55695L10.4466 6.77215Z"/>
</mask>
<path fill-rule="evenodd" clip-rule="evenodd" d="M18.082 6.96596L18.5999 9.03764C19.3915 9.15814 20 9.84334 20 10.668V14.0083C20 14.1813 19.8597 14.3215 19.6868 14.3215H18.6632C18.6633 14.3284 18.6638 14.3353 18.6638 14.3423C18.6638 15.4359 17.7741 16.3256 16.6805 16.3256C15.587 16.3256 14.6972 15.4359 14.6972 14.3423L14.6975 14.3309L14.6978 14.3215H7.64035L7.64062 14.3309L7.6409 14.3423C7.6409 15.4359 6.75117 16.3256 5.65762 16.3256C4.56406 16.3256 3.67434 15.4359 3.67434 14.3423L3.67462 14.3309L3.67477 14.3264L3.67488 14.3215H1.98332C1.62645 14.3215 1.33613 14.0312 1.33613 13.6743V12.9853H0.313164C0.140195 12.9853 0 12.8451 0 12.6722C0 12.4992 0.140234 12.359 0.313164 12.359H3.31941C3.49238 12.359 3.63258 12.4992 3.63258 12.6722C3.63258 12.8451 3.49234 12.9853 3.31941 12.9853H1.96242V13.6743C1.96242 13.6858 1.97176 13.6951 1.98328 13.6951H3.78332C4.05227 12.9185 4.79063 12.359 5.65762 12.359C6.52461 12.359 7.26293 12.9185 7.53191 13.6951H14.0291V11.3361C14.0291 11.1631 14.1693 11.0229 14.3423 11.0229C14.5152 11.0229 14.6554 11.1632 14.6554 11.3361V13.6952H14.8062C15.0752 12.9185 15.8135 12.3591 16.6805 12.3591C17.5475 12.3591 18.2858 12.9185 18.5548 13.6952H19.3736V12.3174H19.0187C18.4777 12.3174 18.0375 11.8772 18.0375 11.3362V10.6681C18.0375 10.4951 18.1777 10.3549 18.3507 10.3549H19.3244C19.1918 9.94381 18.8059 9.64545 18.3513 9.64514L18.3504 9.64518L18.3496 9.6451H14.6555V10.0001C14.6555 10.1731 14.5153 10.3133 14.3423 10.3133C14.1694 10.3133 14.0292 10.173 14.0292 10.0001V4.3215C14.0292 4.30998 14.0198 4.30064 14.0083 4.30064H1.98328C1.97176 4.30064 1.96242 4.30998 1.96242 4.3215V10C1.96242 10.173 1.82219 10.3132 1.64926 10.3132C1.47629 10.3132 1.33609 10.1729 1.33609 10V4.3215C1.33609 3.96463 1.62641 3.67432 1.98328 3.67432H14.0084C14.3652 3.67432 14.6555 3.96463 14.6555 4.3215V5.01049H17.0146C17.7398 5.01049 18.3298 5.60049 18.3298 6.32572V6.65975C18.3298 6.81025 18.2236 6.93588 18.082 6.96596ZM17.0146 5.63678H14.6555V6.34658H17.7036V6.32572C17.7036 5.94584 17.3945 5.63678 17.0146 5.63678ZM14.6555 6.97287V9.01881H17.9496L17.4382 6.97287H14.6555ZM4.30062 14.3424C4.30062 15.0907 4.90938 15.6994 5.65762 15.6994C6.40586 15.6994 7.01461 15.0907 7.01461 14.3424C7.01461 13.5941 6.40586 12.9854 5.65762 12.9854C4.90938 12.9854 4.30062 13.5941 4.30062 14.3424ZM15.3236 14.3424C15.3236 15.0907 15.9323 15.6994 16.6806 15.6994C17.4288 15.6994 18.0376 15.0907 18.0376 14.3424C18.0376 13.5941 17.4288 12.9854 16.6806 12.9854C15.9323 12.9854 15.3236 13.5941 15.3236 14.3424ZM19.0188 11.691H19.3737V10.9812H18.6639V11.3361C18.6639 11.5318 18.8231 11.691 19.0188 11.691ZM5.0105 14.3425C5.0105 13.9856 5.30081 13.6953 5.65769 13.6953C6.01456 13.6953 6.30487 13.9856 6.30487 14.3425C6.30487 14.6994 6.01456 14.9897 5.65769 14.9897C5.30081 14.9897 5.0105 14.6994 5.0105 14.3425ZM16.6805 13.6953C16.3236 13.6953 16.0333 13.9856 16.0333 14.3425C16.0333 14.6994 16.3236 14.9897 16.6805 14.9897C17.0374 14.9897 17.3277 14.6994 17.3277 14.3425C17.3277 13.9856 17.0374 13.6953 16.6805 13.6953ZM8.32976 12.3591H13.0062C13.1791 12.3591 13.3193 12.4993 13.3193 12.6723C13.3193 12.8453 13.1791 12.9855 13.0062 12.9855H8.32976C8.1568 12.9855 8.0166 12.8453 8.0166 12.6723C8.0166 12.4993 8.15684 12.3591 8.32976 12.3591ZM4.98949 11.0229H0.981132C0.808203 11.0229 0.667969 11.1631 0.667969 11.3361C0.667969 11.5091 0.808164 11.6493 0.981132 11.6493H4.98949C5.16241 11.6493 5.30265 11.5091 5.30265 11.3361C5.30265 11.1631 5.16241 11.0229 4.98949 11.0229ZM10.4466 6.77215C10.5689 6.64985 10.7672 6.64985 10.8895 6.77211C11.0117 6.89442 11.0117 7.09266 10.8894 7.215L7.88317 10.2212C7.82208 10.2824 7.74188 10.313 7.66176 10.313C7.58165 10.313 7.50149 10.2824 7.44036 10.2212L5.7702 8.5511C5.64789 8.42879 5.64789 8.23055 5.7702 8.10824C5.89246 7.98594 6.09074 7.98594 6.21305 8.10824L7.66176 9.55695L10.4466 6.77215Z" fill="#303030"/>
<path d="M18.5999 9.03764L18.5029 9.06189L18.5191 9.12648L18.5849 9.1365L18.5999 9.03764ZM18.082 6.96596L18.0612 6.86814L17.9598 6.88967L17.985 6.99021L18.082 6.96596ZM20 10.668L19.9 10.668V10.668H20ZM18.6632 14.3215V14.2215H18.5621L18.5632 14.3226L18.6632 14.3215ZM14.6972 14.3423L14.5972 14.3399V14.3423H14.6972ZM14.6975 14.3309L14.5975 14.3281L14.5975 14.3285L14.6975 14.3309ZM14.6978 14.3215L14.7977 14.3243L14.8006 14.2215H14.6978V14.3215ZM7.64035 14.3215V14.2215H7.53748L7.54039 14.3243L7.64035 14.3215ZM7.64062 14.3309L7.74059 14.3284L7.74058 14.3281L7.64062 14.3309ZM7.6409 14.3423H7.74093L7.74087 14.3399L7.6409 14.3423ZM3.67434 14.3423L3.57434 14.3399V14.3423H3.67434ZM3.67462 14.3309L3.57467 14.3274L3.57465 14.3285L3.67462 14.3309ZM3.67477 14.3264L3.77472 14.3299L3.77475 14.3286L3.67477 14.3264ZM3.67488 14.3215L3.77486 14.3237L3.77714 14.2215H3.67488V14.3215ZM1.33613 12.9853H1.43613V12.8853H1.33613V12.9853ZM1.96242 12.9853V12.8853H1.86242V12.9853H1.96242ZM3.78332 13.6951V13.7951H3.85452L3.87782 13.7279L3.78332 13.6951ZM7.53191 13.6951L7.43742 13.7279L7.46072 13.7951H7.53191V13.6951ZM14.0291 13.6951V13.7951H14.1291V13.6951H14.0291ZM14.6554 13.6952H14.5554V13.7952H14.6554V13.6952ZM14.8062 13.6952V13.7952H14.8774L14.9007 13.7279L14.8062 13.6952ZM18.5548 13.6952L18.4603 13.7279L18.4836 13.7952H18.5548V13.6952ZM19.3736 13.6952V13.7952H19.4736V13.6952H19.3736ZM19.3736 12.3174H19.4736V12.2174H19.3736V12.3174ZM19.3244 10.3549V10.4549H19.4617L19.4196 10.3243L19.3244 10.3549ZM18.3513 9.64514L18.3514 9.54503L18.3467 9.54524L18.3513 9.64514ZM18.3504 9.64518L18.3408 9.74572L18.355 9.74507L18.3504 9.64518ZM18.3496 9.6451L18.3591 9.5451H18.3496V9.6451ZM14.6555 9.6451V9.5451H14.5555V9.6451H14.6555ZM14.6555 5.01049H14.5555V5.11049H14.6555V5.01049ZM14.6555 5.63678V5.53678H14.5555V5.63678H14.6555ZM14.6555 6.34658H14.5555V6.44658H14.6555V6.34658ZM17.7036 6.34658V6.44658H17.8036V6.34658H17.7036ZM14.6555 9.01881H14.5555V9.11881H14.6555V9.01881ZM14.6555 6.97287V6.87287H14.5555V6.97287H14.6555ZM17.9496 9.01881V9.11881H18.0777L18.0467 8.99455L17.9496 9.01881ZM17.4382 6.97287L17.5352 6.94862L17.5162 6.87287H17.4382V6.97287ZM19.3737 11.691V11.791H19.4737V11.691H19.3737ZM19.3737 10.9812H19.4737V10.8812H19.3737V10.9812ZM18.6639 10.9812V10.8812H18.5639V10.9812H18.6639ZM10.8895 6.77211L10.9602 6.70141L10.9602 6.7014L10.8895 6.77211ZM10.4466 6.77215L10.5173 6.84286L10.5173 6.84285L10.4466 6.77215ZM10.8894 7.215L10.9601 7.28571L10.9601 7.2857L10.8894 7.215ZM7.88317 10.2212L7.81246 10.1505L7.81241 10.1506L7.88317 10.2212ZM7.44036 10.2212L7.51109 10.1506L7.51107 10.1505L7.44036 10.2212ZM5.7702 8.5511L5.69948 8.62181L5.7702 8.5511ZM5.7702 8.10824L5.84091 8.17896L5.84092 8.17894L5.7702 8.10824ZM6.21305 8.10824L6.14234 8.17896L6.21305 8.10824ZM7.66176 9.55695L7.59105 9.62766L7.66176 9.69837L7.73247 9.62766L7.66176 9.55695ZM18.6969 9.01338L18.179 6.9417L17.985 6.99021L18.5029 9.06189L18.6969 9.01338ZM20.1 10.668C20.1 9.79311 19.4546 9.0666 18.615 8.93878L18.5849 9.1365C19.3284 9.24969 19.9 9.89357 19.9 10.668L20.1 10.668ZM20.1 14.0083V10.668H19.9V14.0083H20.1ZM19.6868 14.4215C19.9149 14.4215 20.1 14.2365 20.1 14.0083H19.9C19.9 14.126 19.8045 14.2215 19.6868 14.2215V14.4215ZM18.6632 14.4215H19.6868V14.2215H18.6632V14.4215ZM18.7638 14.3423C18.7638 14.3368 18.7636 14.3317 18.7635 14.3282C18.7633 14.3242 18.7633 14.3223 18.7632 14.3203L18.5632 14.3226C18.5633 14.3276 18.5635 14.3326 18.5636 14.3355C18.5637 14.339 18.5638 14.3408 18.5638 14.3423H18.7638ZM16.6805 16.4256C17.8293 16.4256 18.7638 15.4911 18.7638 14.3423H18.5638C18.5638 15.3807 17.7188 16.2256 16.6805 16.2256V16.4256ZM14.5972 14.3423C14.5972 15.4911 15.5317 16.4256 16.6805 16.4256V16.2256C15.6422 16.2256 14.7972 15.3807 14.7972 14.3423H14.5972ZM14.5975 14.3285L14.5973 14.3399L14.7972 14.3448L14.7975 14.3334L14.5975 14.3285ZM14.5978 14.3186L14.5975 14.3281L14.7975 14.3338L14.7977 14.3243L14.5978 14.3186ZM7.64035 14.4215H14.6978V14.2215H7.64035V14.4215ZM7.74058 14.3281L7.74031 14.3186L7.54039 14.3243L7.54066 14.3337L7.74058 14.3281ZM7.74087 14.3399L7.74059 14.3284L7.54065 14.3333L7.54093 14.3448L7.74087 14.3399ZM5.65762 16.4256C6.8064 16.4256 7.7409 15.4911 7.7409 14.3423H7.5409C7.5409 15.3807 6.69594 16.2256 5.65762 16.2256V16.4256ZM3.57434 14.3423C3.57434 15.4911 4.50884 16.4256 5.65762 16.4256V16.2256C4.61929 16.2256 3.77434 15.3807 3.77434 14.3423H3.57434ZM3.57465 14.3285L3.57437 14.3399L3.77431 14.3448L3.77459 14.3334L3.57465 14.3285ZM3.57483 14.3229L3.57468 14.3274L3.77455 14.3344L3.77471 14.3299L3.57483 14.3229ZM3.57491 14.3192L3.5748 14.3242L3.77475 14.3286L3.77486 14.3237L3.57491 14.3192ZM1.98332 14.4215H3.67488V14.2215H1.98332V14.4215ZM1.23613 13.6743C1.23613 14.0864 1.57122 14.4215 1.98332 14.4215V14.2215C1.68167 14.2215 1.43613 13.9759 1.43613 13.6743H1.23613ZM1.23613 12.9853V13.6743H1.43613V12.9853H1.23613ZM0.313164 13.0853H1.33613V12.8853H0.313164V13.0853ZM-0.1 12.6722C-0.1 12.9004 0.084967 13.0853 0.313164 13.0853V12.8853C0.195424 12.8853 0.1 12.7899 0.1 12.6722H-0.1ZM0.313164 12.259C0.0850142 12.259 -0.1 12.444 -0.1 12.6722H0.1C0.1 12.5544 0.195455 12.459 0.313164 12.459V12.259ZM3.31941 12.259H0.313164V12.459H3.31941V12.259ZM3.73258 12.6722C3.73258 12.444 3.54761 12.259 3.31941 12.259V12.459C3.43715 12.459 3.53258 12.5544 3.53258 12.6722H3.73258ZM3.31941 13.0853C3.54756 13.0853 3.73258 12.9004 3.73258 12.6722H3.53258C3.53258 12.7899 3.43712 12.8853 3.31941 12.8853V13.0853ZM1.96242 13.0853H3.31941V12.8853H1.96242V13.0853ZM2.06242 13.6743V12.9853H1.86242V13.6743H2.06242ZM1.98328 13.5951C2.02699 13.5951 2.06242 13.6306 2.06242 13.6743H1.86242C1.86242 13.741 1.91653 13.7951 1.98328 13.7951V13.5951ZM3.78332 13.5951H1.98328V13.7951H3.78332V13.5951ZM5.65762 12.259C4.74655 12.259 3.97123 12.8469 3.68883 13.6624L3.87782 13.7279C4.1333 12.9901 4.8347 12.459 5.65762 12.459V12.259ZM7.62641 13.6624C7.34396 12.8469 6.56868 12.259 5.65762 12.259V12.459C6.48054 12.459 7.1819 12.9901 7.43742 13.7279L7.62641 13.6624ZM14.0291 13.5951H7.53191V13.7951H14.0291V13.5951ZM13.9291 11.3361V13.6951H14.1291V11.3361H13.9291ZM14.3423 10.9229C14.1141 10.9229 13.9291 11.1079 13.9291 11.3361H14.1291C14.1291 11.2184 14.2246 11.1229 14.3423 11.1229V10.9229ZM14.7554 11.3361C14.7554 11.108 14.5705 10.9229 14.3423 10.9229V11.1229C14.46 11.1229 14.5554 11.2184 14.5554 11.3361H14.7554ZM14.7554 13.6952V11.3361H14.5554V13.6952H14.7554ZM14.8062 13.5952H14.6554V13.7952H14.8062V13.5952ZM16.6805 12.2591C15.7694 12.2591 14.9941 12.8469 14.7117 13.6625L14.9007 13.7279C15.1562 12.9901 15.8576 12.4591 16.6805 12.4591V12.2591ZM18.6493 13.6625C18.3669 12.8469 17.5916 12.2591 16.6805 12.2591V12.4591C17.5034 12.4591 18.2048 12.9901 18.4603 13.7279L18.6493 13.6625ZM19.3736 13.5952H18.5548V13.7952H19.3736V13.5952ZM19.2736 12.3174V13.6952H19.4736V12.3174H19.2736ZM19.0187 12.4174H19.3736V12.2174H19.0187V12.4174ZM17.9375 11.3362C17.9375 11.9324 18.4224 12.4174 19.0187 12.4174V12.2174C18.5329 12.2174 18.1375 11.822 18.1375 11.3362H17.9375ZM17.9375 10.6681V11.3362H18.1375V10.6681H17.9375ZM18.3507 10.2549C18.1225 10.2549 17.9375 10.4399 17.9375 10.6681H18.1375C18.1375 10.5504 18.233 10.4549 18.3507 10.4549V10.2549ZM19.3244 10.2549H18.3507V10.4549H19.3244V10.2549ZM18.3512 9.74514C18.761 9.74542 19.1095 10.0145 19.2292 10.3856L19.4196 10.3243C19.2741 9.87317 18.8507 9.54548 18.3514 9.54514L18.3512 9.74514ZM18.355 9.74507L18.3558 9.74503L18.3467 9.54524L18.3459 9.54528L18.355 9.74507ZM18.3401 9.74465L18.3409 9.74472L18.3599 9.54563L18.3591 9.54555L18.3401 9.74465ZM14.6555 9.7451H18.3496V9.5451H14.6555V9.7451ZM14.7555 10.0001V9.6451H14.5555V10.0001H14.7555ZM14.3423 10.4133C14.5705 10.4133 14.7555 10.2283 14.7555 10.0001H14.5555C14.5555 10.1178 14.4601 10.2133 14.3423 10.2133V10.4133ZM13.9292 10.0001C13.9292 10.2282 14.1141 10.4133 14.3423 10.4133V10.2133C14.2246 10.2133 14.1292 10.1178 14.1292 10.0001H13.9292ZM13.9292 4.3215V10.0001H14.1292V4.3215H13.9292ZM14.0083 4.40064C13.9646 4.40064 13.9292 4.36521 13.9292 4.3215H14.1292C14.1292 4.25475 14.0751 4.20064 14.0083 4.20064V4.40064ZM1.98328 4.40064H14.0083V4.20064H1.98328V4.40064ZM2.06242 4.3215C2.06242 4.36521 2.02699 4.40064 1.98328 4.40064V4.20064C1.91653 4.20064 1.86242 4.25475 1.86242 4.3215H2.06242ZM2.06242 10V4.3215H1.86242V10H2.06242ZM1.64926 10.4132C1.87741 10.4132 2.06242 10.2282 2.06242 10H1.86242C1.86242 10.1178 1.76697 10.2132 1.64926 10.2132V10.4132ZM1.23609 10C1.23609 10.2282 1.42105 10.4132 1.64926 10.4132V10.2132C1.53153 10.2132 1.43609 10.1177 1.43609 10H1.23609ZM1.23609 4.3215V10H1.43609V4.3215H1.23609ZM1.98328 3.57432C1.57118 3.57432 1.23609 3.9094 1.23609 4.3215H1.43609C1.43609 4.01986 1.68163 3.77432 1.98328 3.77432V3.57432ZM14.0084 3.57432H1.98328V3.77432H14.0084V3.57432ZM14.7555 4.3215C14.7555 3.9094 14.4205 3.57432 14.0084 3.57432V3.77432C14.31 3.77432 14.5555 4.01986 14.5555 4.3215H14.7555ZM14.7555 5.01049V4.3215H14.5555V5.01049H14.7555ZM17.0146 4.91049H14.6555V5.11049H17.0146V4.91049ZM18.4298 6.32572C18.4298 5.54526 17.795 4.91049 17.0146 4.91049V5.11049C17.6846 5.11049 18.2298 5.65572 18.2298 6.32572H18.4298ZM18.4298 6.65975V6.32572H18.2298V6.65975H18.4298ZM18.1028 7.06377C18.2895 7.0241 18.4298 6.85851 18.4298 6.65975H18.2298C18.2298 6.762 18.1576 6.84766 18.0612 6.86814L18.1028 7.06377ZM14.6555 5.73678H17.0146V5.53678H14.6555V5.73678ZM14.7555 6.34658V5.63678H14.5555V6.34658H14.7555ZM17.7036 6.24658H14.6555V6.44658H17.7036V6.24658ZM17.6036 6.32572V6.34658H17.8036V6.32572H17.6036ZM17.0146 5.73678C17.3393 5.73678 17.6036 6.00107 17.6036 6.32572H17.8036C17.8036 5.89061 17.4497 5.53678 17.0146 5.53678V5.73678ZM14.7555 9.01881V6.97287H14.5555V9.01881H14.7555ZM17.9496 8.91881H14.6555V9.11881H17.9496V8.91881ZM17.3412 6.99712L17.8526 9.04306L18.0467 8.99455L17.5352 6.94862L17.3412 6.99712ZM14.6555 7.07287H17.4382V6.87287H14.6555V7.07287ZM5.65762 15.5994C4.9646 15.5994 4.40062 15.0355 4.40062 14.3424H4.20062C4.20062 15.1459 4.85415 15.7994 5.65762 15.7994V15.5994ZM6.91461 14.3424C6.91461 15.0355 6.35063 15.5994 5.65762 15.5994V15.7994C6.46109 15.7994 7.11461 15.1459 7.11461 14.3424H6.91461ZM5.65762 13.0854C6.35063 13.0854 6.91461 13.6494 6.91461 14.3424H7.11461C7.11461 13.5389 6.46109 12.8854 5.65762 12.8854V13.0854ZM4.40062 14.3424C4.40062 13.6494 4.9646 13.0854 5.65762 13.0854V12.8854C4.85415 12.8854 4.20062 13.5389 4.20062 14.3424H4.40062ZM16.6806 15.5994C15.9876 15.5994 15.4236 15.0355 15.4236 14.3424H15.2236C15.2236 15.1459 15.8771 15.7994 16.6806 15.7994V15.5994ZM17.9376 14.3424C17.9376 15.0355 17.3736 15.5994 16.6806 15.5994V15.7994C17.4841 15.7994 18.1376 15.1459 18.1376 14.3424H17.9376ZM16.6806 13.0854C17.3736 13.0854 17.9376 13.6494 17.9376 14.3424H18.1376C18.1376 13.5389 17.4841 12.8854 16.6806 12.8854V13.0854ZM15.4236 14.3424C15.4236 13.6494 15.9876 13.0854 16.6806 13.0854V12.8854C15.8771 12.8854 15.2236 13.5389 15.2236 14.3424H15.4236ZM19.3737 11.591H19.0188V11.791H19.3737V11.591ZM19.2737 10.9812V11.691H19.4737V10.9812H19.2737ZM18.6639 11.0812H19.3737V10.8812H18.6639V11.0812ZM18.7639 11.3361V10.9812H18.5639V11.3361H18.7639ZM19.0188 11.591C18.8783 11.591 18.7639 11.4766 18.7639 11.3361H18.5639C18.5639 11.587 18.7679 11.791 19.0188 11.791V11.591ZM5.65769 13.5953C5.24558 13.5953 4.9105 13.9304 4.9105 14.3425H5.1105C5.1105 14.0409 5.35604 13.7953 5.65769 13.7953V13.5953ZM6.40487 14.3425C6.40487 13.9304 6.06979 13.5953 5.65769 13.5953V13.7953C5.95933 13.7953 6.20487 14.0409 6.20487 14.3425H6.40487ZM5.65769 15.0897C6.06979 15.0897 6.40487 14.7546 6.40487 14.3425H6.20487C6.20487 14.6441 5.95933 14.8897 5.65769 14.8897V15.0897ZM4.9105 14.3425C4.9105 14.7546 5.24558 15.0897 5.65769 15.0897V14.8897C5.35604 14.8897 5.1105 14.6441 5.1105 14.3425H4.9105ZM16.1333 14.3425C16.1333 14.0409 16.3789 13.7953 16.6805 13.7953V13.5953C16.2684 13.5953 15.9333 13.9304 15.9333 14.3425H16.1333ZM16.6805 14.8897C16.3789 14.8897 16.1333 14.6441 16.1333 14.3425H15.9333C15.9333 14.7546 16.2684 15.0897 16.6805 15.0897V14.8897ZM17.2277 14.3425C17.2277 14.6441 16.9822 14.8897 16.6805 14.8897V15.0897C17.0926 15.0897 17.4277 14.7546 17.4277 14.3425H17.2277ZM16.6805 13.7953C16.9822 13.7953 17.2277 14.0409 17.2277 14.3425H17.4277C17.4277 13.9304 17.0926 13.5953 16.6805 13.5953V13.7953ZM13.0062 12.2591H8.32976V12.4591H13.0062V12.2591ZM13.4193 12.6723C13.4193 12.4441 13.2344 12.2591 13.0062 12.2591V12.4591C13.1239 12.4591 13.2193 12.5546 13.2193 12.6723H13.4193ZM13.0062 13.0855C13.2343 13.0855 13.4193 12.9005 13.4193 12.6723H13.2193C13.2193 12.79 13.1239 12.8855 13.0062 12.8855V13.0855ZM8.32976 13.0855H13.0062V12.8855H8.32976V13.0855ZM7.9166 12.6723C7.9166 12.9005 8.10157 13.0855 8.32976 13.0855V12.8855C8.21202 12.8855 8.1166 12.79 8.1166 12.6723H7.9166ZM8.32976 12.2591C8.10161 12.2591 7.9166 12.4441 7.9166 12.6723H8.1166C8.1166 12.5546 8.21206 12.4591 8.32976 12.4591V12.2591ZM0.981132 11.1229H4.98949V10.9229H0.981132V11.1229ZM0.767969 11.3361C0.767969 11.2184 0.863423 11.1229 0.981132 11.1229V10.9229C0.752982 10.9229 0.567969 11.1079 0.567969 11.3361H0.767969ZM0.981132 11.5493C0.863392 11.5493 0.767969 11.4539 0.767969 11.3361H0.567969C0.567969 11.5643 0.752935 11.7493 0.981132 11.7493V11.5493ZM4.98949 11.5493H0.981132V11.7493H4.98949V11.5493ZM5.20265 11.3361C5.20265 11.4538 5.10719 11.5493 4.98949 11.5493V11.7493C5.21763 11.7493 5.40265 11.5643 5.40265 11.3361H5.20265ZM4.98949 11.1229C5.10719 11.1229 5.20265 11.2184 5.20265 11.3361H5.40265C5.40265 11.1079 5.21763 10.9229 4.98949 10.9229V11.1229ZM10.9602 6.7014C10.7989 6.54008 10.5372 6.54008 10.3759 6.70145L10.5173 6.84285C10.6005 6.75961 10.7355 6.75961 10.8188 6.84283L10.9602 6.7014ZM10.9601 7.2857C11.1215 7.12432 11.1215 6.86278 10.9602 6.70141L10.8187 6.84281C10.902 6.92606 10.902 7.061 10.8187 7.1443L10.9601 7.2857ZM7.95388 10.292L10.9601 7.28571L10.8187 7.14429L7.81246 10.1505L7.95388 10.292ZM7.66176 10.413C7.76728 10.413 7.87328 10.3727 7.95393 10.2919L7.81241 10.1506C7.77087 10.1922 7.71649 10.213 7.66176 10.213V10.413ZM7.36962 10.2919C7.45029 10.3727 7.55623 10.413 7.66176 10.413V10.213C7.60706 10.213 7.55269 10.1922 7.51109 10.1506L7.36962 10.2919ZM5.69948 8.62181L7.36965 10.292L7.51107 10.1505L5.84091 8.48038L5.69948 8.62181ZM5.69948 8.03753C5.53813 8.19889 5.53813 8.46045 5.69948 8.62181L5.84091 8.48038C5.75765 8.39713 5.75765 8.26221 5.84091 8.17896L5.69948 8.03753ZM6.28376 8.03753C6.12241 7.87618 5.8608 7.87617 5.69947 8.03754L5.84092 8.17894C5.92412 8.09571 6.05908 8.0957 6.14234 8.17896L6.28376 8.03753ZM7.73247 9.48624L6.28376 8.03753L6.14234 8.17896L7.59105 9.62766L7.73247 9.48624ZM10.3759 6.70144L7.59105 9.48624L7.73247 9.62766L10.5173 6.84286L10.3759 6.70144Z" fill="#303030" mask="url(#path-1-outside-1_254:1160)"/>
</g>
<defs>
<clipPath id="clip0_254:1160">
<rect width="20" height="20" fill="white"/>
</clipPath>
</defs>
</svg>
