<svg width="80" height="15" viewBox="0 0 80 15" fill="none" xmlns="http://www.w3.org/2000/svg">
<path d="M79.0399 3.84382C78.971 1.91489 77.7139 0.709093 75.785 0.680804C73.2602 0.645444 70.7355 0.569418 68.2107 0.564114C61.3065 0.551738 54.4041 0.454496 47.5 0.394383C41.0378 0.339574 34.5739 0.277692 28.1117 0.221115C21.6478 0.164538 15.1856 0.146858 8.72168 0.0071833C7.8412 0.0071833 6.95895 0.0071833 6.0767 0.00895134C5.19622 0.00895134 4.31397 -0.0122651 3.43172 0.0124874C1.54169 0.0672965 -0.0725253 1.07331 0.00173214 3.4354C0.0848297 6.14226 0.196216 8.84735 0.369483 11.5489C0.49855 13.5662 1.96071 14.9382 3.99749 14.9948C4.93455 15.0213 5.87337 14.9488 6.81043 14.9312C10.9211 14.8481 15.0336 14.8746 19.1442 14.7508C22.9897 14.6359 26.8387 14.6942 30.686 14.5811C34.8532 14.4573 39.0258 14.5245 43.1948 14.4025C47.2171 14.2823 51.2411 14.3194 55.2652 14.2363C60.2581 14.132 65.2528 14.1391 70.2457 14.0401C71.4798 14.0153 72.7139 14.0242 73.948 14.0118C74.809 14.0029 75.6435 13.8509 76.4162 13.4602C77.1853 13.073 77.6821 12.4877 77.8624 11.6037C78.163 10.1186 78.4441 8.63165 78.6633 7.1359C78.8242 6.04502 79.0806 4.95768 79.0399 3.84382ZM69.9416 4.70131C71.3189 4.71192 72.6945 4.70485 74.0718 4.70839C74.2981 4.70839 74.5562 4.66065 74.687 4.92762C74.8391 5.23703 74.7118 5.50577 74.5085 5.72324C74.1496 6.10513 73.7676 6.46758 73.384 6.82472C73.1736 7.02274 72.9314 7.18717 72.8005 7.43646C72.8606 7.75471 73.2443 7.84488 73.2673 8.18257C72.6237 8.27981 71.9855 8.15075 71.349 8.18081C71.0396 8.19495 70.9441 8.03052 70.9494 7.7494C70.9565 7.19778 70.9512 6.64615 70.9512 6.09629C71.2906 6.02734 71.3313 6.52769 71.5894 6.44636C71.8582 6.3615 72.0474 6.11397 72.1481 5.73031C71.3843 5.73031 70.6612 5.71617 69.9381 5.73561C69.5509 5.74622 69.3546 5.66489 69.3493 5.21404C69.344 4.74905 69.5686 4.69778 69.9416 4.70131ZM8.82599 5.76744C7.82705 5.76037 6.82811 5.77451 5.82917 5.76037C5.43137 5.75506 5.23688 5.87882 5.23865 6.30669C5.24042 6.70626 5.36948 6.90428 5.79558 6.89368C6.70612 6.87069 7.61666 6.85832 8.52542 6.85832C9.35817 6.85832 9.37938 6.88484 9.38646 7.67338C9.39353 8.28689 9.37585 8.89863 9.39353 9.51037C9.40414 9.91525 9.23617 10.1062 8.82953 10.1062C7.12514 10.1044 5.42076 10.1044 3.71637 10.1044C3.30442 10.1044 3.17359 9.89049 3.17182 9.49269C3.17182 9.0772 3.26199 8.81376 3.74112 8.81553C4.77012 8.82083 5.79735 8.82967 6.82634 8.81023C7.33907 8.80138 7.52295 8.4743 7.29487 8.08179C7.1605 7.84841 6.95364 7.89262 6.75562 7.89085C5.84508 7.88731 4.93455 7.89262 4.02401 7.88731C3.19127 7.88378 3.1895 7.88024 3.18243 7.07755C3.17889 6.49587 3.21248 5.91065 3.17359 5.32897C3.13822 4.80916 3.36276 4.68187 3.8419 4.69778C4.69409 4.72783 5.54629 4.70662 6.39848 4.70662C7.22062 4.70662 8.04452 4.71369 8.86666 4.70308C9.25385 4.69778 9.56503 4.71546 9.54558 5.24233C9.5279 5.7586 9.20435 5.76921 8.82599 5.76744ZM13.0215 6.88837C13.8737 6.87246 14.7259 6.86008 15.5781 6.85655C16.715 6.85124 16.715 6.85478 16.715 8.02345C16.715 8.49021 16.7043 8.95697 16.7185 9.42373C16.7309 9.90464 16.5081 10.115 16.029 10.1097C15.2068 10.1009 14.3829 10.108 13.5608 10.108C12.7369 10.108 11.913 10.1221 11.0908 10.1027C10.5092 10.0885 10.4473 9.9789 10.4314 9.42727C10.4172 8.95697 10.6471 8.81023 11.0732 8.81199C12.1022 8.81907 13.1312 8.81553 14.1601 8.81376C14.3352 8.81376 14.5385 8.8226 14.6092 8.62635C14.68 8.4354 14.6817 8.22147 14.5509 8.04113C14.4059 7.84311 14.1831 7.89262 13.9833 7.89085C13.071 7.88731 12.1605 7.89615 11.25 7.88908C10.4703 7.88201 10.449 7.86079 10.4384 7.11291C10.4314 6.47112 10.4455 5.82932 10.4349 5.18752C10.4296 4.86221 10.5622 4.70485 10.8981 4.70485C12.721 4.70839 14.5438 4.71015 16.3649 4.70662C16.7273 4.70485 16.7981 4.90994 16.8016 5.21404C16.8051 5.55881 16.7061 5.77097 16.3083 5.76744C15.2493 5.76037 14.192 5.77805 13.1347 5.76037C12.6944 5.75329 12.4894 5.8859 12.507 6.35619C12.5212 6.72218 12.6449 6.89721 13.0215 6.88837ZM22.7475 9.26461C22.7333 10.0549 22.6962 10.0956 21.8953 10.1044C21.3083 10.1115 20.7213 10.1062 20.1343 10.1062C19.5473 10.1062 18.9604 10.1186 18.3751 10.1027C17.7298 10.085 17.6573 10.0213 17.652 9.40428C17.6414 8.03583 17.6626 6.66737 17.6414 5.29891C17.6343 4.82861 17.8377 4.71369 18.2708 4.69778C19.5367 4.65358 19.5367 4.63943 19.5367 5.90888C19.5367 6.72394 19.5385 7.54078 19.5367 8.35584C19.5367 8.64403 19.5969 8.89686 19.9505 8.89686C20.2793 8.89686 20.7355 9.04537 20.7797 8.52027C20.8168 8.06235 21.0679 8.03759 21.425 8.02699C22.7705 7.98455 22.7687 7.97571 22.7475 9.26461ZM29.2998 9.30704C29.2857 10.062 29.2627 10.0991 28.5077 10.1044C27.0986 10.1133 25.6895 10.1133 24.2804 10.1044C23.5378 10.0991 23.4989 10.0514 23.4954 9.29644C23.4883 7.98455 23.5095 6.67444 23.4848 5.36433C23.4759 4.88519 23.6174 4.67656 24.1301 4.69778C24.8921 4.7296 25.6559 4.70662 26.4197 4.70662C27.1234 4.70662 27.8288 4.69778 28.5325 4.70839C29.2079 4.71723 29.2432 4.75789 29.2751 5.37847C29.3387 6.62317 29.2097 6.73986 27.9685 6.64615C27.629 6.61963 27.3815 6.52769 27.3797 6.15641C27.3797 5.79573 27.18 5.72677 26.8741 5.72854C24.9876 5.73561 25.2882 5.58003 25.2669 7.20839C25.2634 7.61503 25.2669 8.02345 25.2687 8.43187C25.2705 8.78724 25.4402 8.96581 25.8097 8.95697C26.1333 8.94813 26.4568 8.94636 26.7786 8.95874C27.1322 8.97112 27.4133 8.93399 27.431 8.47607C27.4416 8.20556 27.6432 8.11008 27.9155 8.07649C29.2079 7.9156 29.3228 8.01107 29.2998 9.30704ZM35.9494 9.52451C35.9529 9.86751 35.8044 10.0638 35.5109 10.0921C35.4879 10.0938 35.465 10.0956 35.442 10.0956C33.8454 10.1097 32.2507 10.108 30.6541 10.0991H30.6046C30.2086 10.0974 30.0477 9.87281 30.0512 9.47677C30.0636 8.08003 30.0618 6.68505 30.053 5.2883C30.0512 4.8516 30.2422 4.69424 30.6541 4.69601C30.6701 4.69601 30.686 4.69778 30.7036 4.69778C31.4657 4.7243 32.2277 4.70485 32.9915 4.70485C33.7818 4.70485 34.5739 4.71723 35.3659 4.70131C35.4172 4.69955 35.4667 4.70131 35.5109 4.70662C35.8115 4.73137 35.9547 4.87635 35.9512 5.24764C35.9353 6.67267 35.937 8.09947 35.9494 9.52451ZM45.8769 9.49092C45.861 10.0461 45.7691 10.1027 45.0707 10.1027C44.3688 10.1044 44.2804 10.0532 44.2698 9.49092C44.2521 8.52911 44.2698 7.5673 44.2627 6.60372C44.2574 5.847 44.2238 5.81871 43.4795 5.78866C42.5424 5.74976 42.5088 5.78158 42.5053 6.7487C42.5035 7.62387 42.5123 8.49905 42.5017 9.37423C42.4947 10.0355 42.3939 10.1097 41.6248 10.1027C40.914 10.0974 40.7991 10.016 40.7885 9.40959C40.7744 8.44778 40.7903 7.4842 40.7832 6.52239C40.7779 5.81518 40.7708 5.81518 40.0548 5.78512H39.9664C39.1283 5.7586 39.123 5.7586 39.1177 6.55421C39.1124 7.42762 39.1213 8.3028 39.116 9.17798C39.1089 10.0019 38.3522 10.4315 37.629 10.0355C37.3621 9.89049 37.4116 9.64651 37.4116 9.42197C37.4063 8.45839 37.4063 7.49658 37.4098 6.533C37.4116 6.17409 37.4363 5.85938 36.936 5.75329C36.5382 5.66843 36.7238 5.26885 36.7185 5.00365C36.7114 4.7243 36.9483 4.71369 37.1605 4.70839C37.2188 4.70839 37.2772 4.71192 37.3355 4.70662C37.8147 4.66772 38.2143 5.09735 38.7942 4.75612C39.1867 4.52628 39.8267 4.69955 40.3553 4.71192C40.7549 4.71899 41.1881 4.60054 41.5063 4.9789C41.5965 5.08675 41.7238 5.07083 41.8051 4.96652C42.0951 4.60054 42.5 4.71899 42.8677 4.71192C43.5449 4.69955 44.2203 4.70662 44.8974 4.70839C45.8787 4.71015 45.8804 4.71015 45.8804 5.73031C45.8822 6.2837 45.8804 6.8371 45.8804 7.39226C45.8804 8.0924 45.8946 8.79255 45.8769 9.49092ZM56.0855 9.49092C56.0714 10.0496 55.9795 10.1062 55.2811 10.1044C54.5845 10.1027 54.5102 10.0585 54.4996 9.47324C54.4855 8.51143 54.5014 7.54785 54.4943 6.58604C54.489 5.83816 54.4625 5.82048 53.6934 5.78866C53.5749 5.78512 53.4565 5.79749 53.3398 5.78689C52.8713 5.74269 52.7245 5.97607 52.7333 6.41277C52.751 7.34452 52.744 8.27805 52.7351 9.2098C52.7316 9.48915 52.8553 9.85513 52.5318 10.0054C52.1269 10.1946 51.669 10.161 51.2464 10.0266C50.9671 9.93646 51.0184 9.65004 51.0184 9.42197C51.0148 8.46015 51.0201 7.49834 51.0148 6.53477C51.0131 6.2837 51.105 5.93363 50.792 5.84877C50.3766 5.73561 49.9169 5.68434 49.4978 5.83639C49.2768 5.91595 49.3546 6.19353 49.3529 6.38979C49.3476 7.3516 49.3529 8.31341 49.3476 9.27522C49.3476 9.55987 49.4147 9.91525 49.0611 10.0284C48.6421 10.161 48.1895 10.1946 47.7793 9.98066C47.5618 9.86574 47.6449 9.61468 47.6449 9.42197C47.6379 8.4301 47.6396 7.44 47.6414 6.44813C47.6414 6.14933 47.6538 5.85938 47.2454 5.78689C46.7521 5.70202 46.9094 5.29891 46.9289 5.01426C46.9572 4.63766 47.3267 4.79325 47.5389 4.69247C47.9614 4.49445 48.2001 5.2441 48.6828 4.82508C49.0205 4.53158 49.5332 4.74021 49.9664 4.71015C50.2581 4.69071 50.5534 4.70485 50.8469 4.70839C51.1368 4.71015 51.4409 4.66419 51.6655 4.92409C51.745 5.01602 51.844 5.08321 51.966 5.01249C53.1471 4.34417 54.4254 4.86751 55.6471 4.71369C55.9918 4.67126 56.0961 4.89226 56.0926 5.20697C56.0838 5.9354 56.0891 6.66383 56.0891 7.39226C56.0908 8.0924 56.1032 8.79255 56.0855 9.49092ZM61.7698 9.98774C60.4172 9.98774 59.0647 9.99304 57.7121 9.98597C57.0138 9.98243 56.9996 9.97182 56.9943 9.32472C56.9855 7.98279 57.0085 6.64085 56.9837 5.29891C56.9749 4.83215 57.1552 4.68894 57.6007 4.70131C58.3946 4.7243 59.1884 4.70839 59.9823 4.70839C60.7478 4.70839 61.5116 4.71723 62.2754 4.70485C62.6467 4.69955 62.8076 4.84452 62.797 5.22112C62.7793 5.83462 62.7811 6.44813 62.797 7.05987C62.8058 7.44177 62.6343 7.57083 62.2666 7.56553C61.326 7.55315 60.3854 7.55138 59.4448 7.56553C58.8154 7.57614 58.7464 7.66631 58.7588 8.29042C58.7712 8.85973 58.8189 8.911 59.436 8.93222C59.7595 8.94283 60.0831 8.93399 60.4066 8.93045C60.6312 8.92692 60.8345 8.85266 60.8557 8.6069C60.884 8.28158 61.0519 8.12069 61.3596 8.12776C61.7945 8.13837 62.2542 8.00577 62.652 8.26213C62.8872 8.41242 62.7846 8.68823 62.7899 8.911C62.8182 9.98597 62.8129 9.98774 61.7698 9.98774ZM67.3939 6.60549C67.0261 6.59311 66.692 6.60195 66.6513 6.09099C66.6195 5.67904 66.2694 5.72147 65.9759 5.74445C65.6559 5.76921 65.6382 6.00435 65.64 6.25188C65.6435 6.80351 65.6418 7.3569 65.6418 7.90853C65.64 8.43187 65.6276 8.95697 65.6453 9.48031C65.6559 9.8569 65.495 10.0143 65.122 9.9895C64.9469 9.9789 64.7684 9.97182 64.5951 9.99127C64.0753 10.0549 63.9232 9.78618 63.9285 9.32472C63.9391 8.36645 63.9338 7.40641 63.9303 6.44636C63.9303 6.13342 63.9887 5.81694 63.5573 5.6702C63.186 5.5429 63.3009 5.18399 63.3557 4.91525C63.4087 4.6465 63.6881 4.67303 63.8649 4.71723C64.5668 4.89049 65.2599 4.74728 65.9582 4.71369C66.6602 4.68187 67.3656 4.72783 68.0675 4.70131C68.5343 4.68363 68.6616 4.87635 68.674 5.31659C68.7111 6.60018 68.6757 6.64969 67.3939 6.60549ZM74.2609 10.1345C72.7121 10.1433 71.1598 10.1628 69.6128 10.1115C68.9551 10.0885 68.78 9.6854 69.1637 9.17974C69.5756 8.64049 69.9681 8.07296 70.5162 7.6557C70.8292 7.90676 70.5905 8.26213 70.7903 8.50082C71.0131 8.64403 71.2305 8.50612 71.4515 8.4743C71.6478 8.44778 71.768 8.44778 71.7309 8.73066C71.6937 9.02416 71.9713 8.89863 72.1075 8.9004C72.8076 8.91454 73.5113 8.911 74.2132 8.90747C74.542 8.9057 74.7878 8.96404 74.7648 9.38307C74.7436 9.74551 74.7613 10.1309 74.2609 10.1345Z" fill="#2B5EAB"/>
<path d="M34.2538 7.51772C34.2538 9.10011 34.2538 9.10011 32.6308 9.08597C31.7768 9.07713 31.775 9.07713 31.7715 8.21433C31.768 7.66447 31.7909 7.11107 31.7644 6.56122C31.7397 6.05909 31.9642 5.87168 32.4433 5.91942C32.5017 5.92649 32.56 5.91942 32.6184 5.92119C34.5314 5.94771 34.2238 5.67013 34.2538 7.51772Z" fill="#2B5EAB"/>
<path d="M59.7914 6.84761C59.6181 6.84761 59.4431 6.84054 59.2698 6.84938C58.9268 6.86706 58.7288 6.77158 58.7305 6.37201C58.7341 6.00779 58.8561 5.83983 59.2344 5.85397C59.611 5.86988 59.9894 5.86635 60.366 5.85397C60.7125 5.84336 60.9035 5.94414 60.9052 6.33665C60.907 6.70617 60.7779 6.87236 60.4013 6.84761C60.198 6.837 59.9947 6.84761 59.7914 6.84761Z" fill="#295CAA"/>
</svg>
