<svg width="60" height="60" viewBox="0 0 60 60" fill="none" xmlns="http://www.w3.org/2000/svg">
<g clip-path="url(#clip0_102:1147)">
<path d="M40.6843 57.3111C38.6756 58.097 36.0522 56.4708 34.0049 56.7803C31.8948 57.1016 29.8568 59.4083 27.7698 59.2464C25.6544 59.0836 23.9955 56.4804 21.9876 55.8581C19.9798 55.2358 17.1334 56.4426 15.306 55.3876C13.4787 54.3326 13.1126 51.2768 11.5566 49.8319C10.0267 48.4117 6.94319 48.2691 5.74337 46.5006C4.58301 44.7838 5.57211 41.8773 4.78952 39.8627C4.00694 37.8482 1.29542 36.3847 0.990296 34.3399C0.66893 32.2298 2.84026 30.029 3.00106 27.9471C3.16387 25.8318 1.36139 23.3304 1.9818 21.3292C2.60221 19.3279 5.5106 18.2705 6.56788 16.4425C7.62516 14.6146 7.07555 11.5799 8.51963 10.0253C9.93983 8.49547 13.0017 8.81216 14.771 7.6109C16.4827 6.44948 17.3072 3.47484 19.3159 2.68892C21.3247 1.903 23.948 3.52922 25.9954 3.21977C28.1054 2.8984 30.1435 0.591726 32.2305 0.753583C34.3458 0.916393 36.0048 3.51965 38.0126 4.14194C40.0205 4.76424 42.8669 3.55744 44.6942 4.61244C46.5215 5.66744 46.8877 8.72324 48.4437 10.1682C49.9735 11.5884 53.0571 11.7309 54.2569 13.4994C55.4198 15.2119 54.4273 18.1242 55.2132 20.133C55.9992 22.1417 58.7045 23.6093 59.0125 25.6558C59.3338 27.7659 57.1583 29.974 57.0017 32.0486C56.8389 34.1639 58.6414 36.6653 58.0176 38.6723C57.3939 40.6793 54.4888 41.731 53.4315 43.5589C52.3743 45.3869 52.9272 48.4158 51.4831 49.9704C50.0629 51.5002 47.0011 51.1835 45.2317 52.3848C43.5175 53.5505 42.6931 56.5252 40.6843 57.3111Z" fill="#C9C9C9"/>
<path d="M35.9316 41.4863C35.5347 41.6919 35.1271 41.8761 34.7105 42.038C32.7984 42.7854 30.7359 43.0668 28.6936 42.859C26.6512 42.6512 24.6876 41.9601 22.9653 40.8429C21.243 39.7257 19.8114 38.2145 18.7889 36.4344C17.7665 34.6542 17.1826 32.6561 17.0854 30.6055L35.9316 41.4863Z" fill="white"/>
<path d="M42.9164 29.4051L24.063 18.5201C24.461 18.311 24.8706 18.1247 25.2897 17.962C27.2027 17.2149 29.2661 16.934 31.3091 17.1425C33.3522 17.3511 35.3163 18.0431 37.0388 19.1614C38.7613 20.2796 40.1929 21.792 41.2149 23.5733C42.237 25.3546 42.8202 27.3536 42.9164 29.4051Z" fill="white"/>
<path d="M53.1682 36.5249L51.823 35.7482L14.1076 13.9732L12.7594 13.1949L12.032 12.7749L11.5111 13.677L12.0308 13.977L13.363 14.7462L51.5201 36.7762L52.8523 37.5453L53.6621 38.0128L54.1829 37.1107L53.1682 36.5249Z" fill="white"/>
<path d="M38.2185 51.0088C34.4259 52.49 30.3034 52.9178 26.2875 52.2468C22.2717 51.5759 18.5121 49.8312 15.4071 47.1976C12.302 44.564 9.96709 41.1396 8.6497 37.2871C7.33232 33.4346 7.0815 29.2975 7.92383 25.3141L6.56128 24.5274C5.39159 29.5489 5.86423 34.8133 7.90966 39.5462C9.9551 44.279 13.4654 48.2306 17.9242 50.8197C18.7099 51.2739 19.5204 51.6841 20.3519 52.0481C24.6674 53.9305 29.4394 54.5093 34.0798 53.7132C38.7203 52.917 43.0264 50.7807 46.4677 47.5674L45.1008 46.7782C43.0808 48.5921 40.7491 50.0254 38.2185 51.0088Z" fill="white"/>
<path d="M21.7789 8.98954C24.5368 7.90342 27.4827 7.37474 30.4462 7.43407C33.4097 7.49339 36.332 8.13954 39.0442 9.33516C39.8229 9.6767 40.5823 10.0605 41.3191 10.485C45.4331 12.8735 48.6877 16.5003 50.6188 20.8478C52.5499 25.1953 53.0588 30.0416 52.0729 34.6955L53.4369 35.483C54.6056 30.4531 54.1268 25.1807 52.071 20.4437C50.0152 15.7066 46.4914 11.7557 42.0194 9.17375C37.5473 6.5918 32.3638 5.51553 27.2335 6.10372C22.1032 6.6919 17.2978 8.91339 13.5261 12.4405L14.8944 13.2305C16.9146 11.413 19.247 9.97619 21.7789 8.98954Z" fill="white"/>
<path d="M46.6345 45.2582L8.47601 23.2273L7.14522 22.459L6.61694 22.154L6.09528 23.0575L6.8314 23.4825L8.17663 24.2592L45.8891 46.0325L47.2373 46.8109L48.2462 47.3934L48.7678 46.4898L47.9668 46.0273L46.6345 45.2582Z" fill="white"/>
<path d="M35.3661 20.7159L35.1475 21.7444L36.0583 22.2702L35.0116 22.3799L34.793 23.4084L34.3661 22.4479L33.3193 22.5576L34.1008 21.854L33.6738 20.8936L34.5846 21.4194L35.3661 20.7159Z" fill="#C9C9C9"/>
<path d="M39.9655 23.839L39.8154 24.549L40.4447 24.9124L39.721 24.9891L39.5709 25.6992L39.2747 25.0355L38.5519 25.1109L39.0917 24.6258L38.7964 23.9607L39.4257 24.324L39.9655 23.839Z" fill="#C9C9C9"/>
<path d="M30.3962 18.3141L30.246 19.0241L30.8754 19.3875L30.1517 19.4642L30.0015 20.1743L29.7054 19.5106L28.9825 19.586L29.5224 19.1009L29.227 18.4358L29.8563 18.7991L30.3962 18.3141Z" fill="#C9C9C9"/>
<path d="M25.8846 37.1386L25.6661 38.1671L26.5768 38.693L25.5301 38.8026L25.3116 39.8311L24.8846 38.8706L23.8379 38.9803L24.6193 38.2768L24.1924 37.3163L25.1032 37.8421L25.8846 37.1386Z" fill="#C9C9C9"/>
<path d="M30.4838 40.2617L30.3337 40.9717L30.963 41.3351L30.2402 41.4104L30.0892 42.1219L29.793 41.4583L29.0702 41.5336L29.6108 41.0471L29.3147 40.3834L29.944 40.7467L30.4838 40.2617Z" fill="#C9C9C9"/>
<path d="M20.9145 34.7368L20.7644 35.4468L21.3937 35.8102L20.6708 35.8855L20.5198 36.597L20.2237 35.9333L19.5008 36.0087L20.0415 35.5222L19.7453 34.8585L20.3746 35.2218L20.9145 34.7368Z" fill="#C9C9C9"/>
<path d="M11.4533 17.737C11.5041 17.6341 11.5318 17.5214 11.5345 17.4066C11.5373 17.2919 11.515 17.1779 11.4693 17.0727C11.3471 16.831 11.1513 16.6344 10.9101 16.5112C10.7495 16.4122 10.5712 16.3452 10.3851 16.3139C10.244 16.2911 10.0994 16.3083 9.96767 16.3636C9.84671 16.4152 9.74607 16.5052 9.68125 16.6196C9.62373 16.7066 9.59413 16.809 9.59643 16.9132C9.59956 17.0162 9.62537 17.1172 9.67201 17.209C9.72683 17.3156 9.79374 17.4156 9.87142 17.5069C9.95871 17.6106 10.0526 17.7085 10.1525 17.8001L10.5772 18.2012C10.7748 18.3818 10.9541 18.5814 11.1126 18.7971C11.2544 18.9885 11.3656 19.2007 11.4423 19.4262C11.5135 19.6382 11.5392 19.8629 11.5177 20.0855C11.4914 20.3255 11.4141 20.5572 11.291 20.7649C11.1183 21.0758 10.8547 21.3266 10.5355 21.4834C10.2068 21.6378 9.84029 21.6936 9.48048 21.6441C9.0331 21.5768 8.60375 21.4205 8.21777 21.1845C7.81833 20.9652 7.46591 20.6696 7.18057 20.3143C6.9372 20.0136 6.78892 19.6473 6.75464 19.262C6.73374 18.8559 6.83274 18.4526 7.0393 18.1023L8.16225 18.7506C8.07166 18.9197 8.03433 19.1121 8.05518 19.3027C8.0807 19.4846 8.15656 19.6557 8.27418 19.7968C8.40869 19.9601 8.57275 20.0966 8.75778 20.1991C8.93086 20.3036 9.12172 20.3753 9.32079 20.4107C9.48102 20.439 9.64592 20.4239 9.79832 20.3669C9.93495 20.3129 10.0488 20.2135 10.1206 20.0853C10.1872 19.9745 10.2111 19.8431 10.1876 19.716C10.1557 19.5689 10.0904 19.4311 9.99671 19.3133C9.87054 19.1512 9.73157 18.9995 9.58115 18.8597L9.06692 18.3704C8.71161 18.0546 8.44002 17.6559 8.2764 17.2096C8.21321 17.0104 8.19498 16.7996 8.22304 16.5925C8.25109 16.3854 8.32473 16.1871 8.43864 16.0119C8.6103 15.6977 8.87952 15.4478 9.20566 15.3001C9.54354 15.1543 9.91455 15.1025 10.2794 15.1502C10.7017 15.2011 11.1083 15.3408 11.4727 15.5601C11.8441 15.7632 12.1669 16.0448 12.4185 16.3852C12.6343 16.6729 12.7653 17.0152 12.7968 17.3734C12.8224 17.7288 12.7397 18.0837 12.5595 18.3911L11.4533 17.737Z" fill="white"/>
<path d="M13.6528 18.1775L14.2036 17.2234L18.7113 19.8259L18.1588 20.7828L16.4787 19.8128L13.8645 24.3407L12.7098 23.674L15.3257 19.1433L13.6528 18.1775Z" fill="white"/>
<path d="M22.7573 25.8183C22.4677 26.3569 22.048 26.8146 21.5364 27.1496C21.0959 27.4315 20.5836 27.5807 20.0605 27.5792C19.5321 27.564 19.0158 27.4177 18.558 27.1534C18.1002 26.889 17.7153 26.515 17.4379 26.065C17.177 25.612 17.0508 25.0938 17.0743 24.5715C17.1273 23.9651 17.3124 23.3776 17.6168 22.8504C17.9211 22.3233 18.3373 21.8692 18.836 21.5202C19.2762 21.2385 19.7879 21.0891 20.3104 21.0897C20.8387 21.1055 21.3548 21.2521 21.8125 21.5163C22.2702 21.7806 22.6552 22.1543 22.933 22.6039C23.1958 23.0561 23.3229 23.5744 23.2989 24.0968C23.2646 24.7068 23.0784 25.2986 22.7573 25.8183ZM21.5809 25.1391C21.784 24.8096 21.9176 24.4421 21.9736 24.0591C22.0181 23.7564 21.9706 23.4473 21.8371 23.172C21.694 22.9095 21.4813 22.6915 21.2223 22.542C20.9633 22.3925 20.6682 22.3172 20.3692 22.3245C20.0643 22.3474 19.773 22.4607 19.5328 22.6499C18.9362 23.1501 18.5351 23.8447 18.4003 24.6115C18.3573 24.9138 18.405 25.222 18.5376 25.4971C18.6368 25.7009 18.7806 25.8798 18.9582 26.0207C19.1358 26.1615 19.3428 26.2608 19.5638 26.311C19.7849 26.3612 20.0144 26.3612 20.2354 26.311C20.4565 26.2607 20.6635 26.1615 20.8411 26.0206C21.1451 25.7802 21.3968 25.4802 21.5809 25.1391Z" fill="white"/>
<path d="M29.0182 28.3342L27.8447 27.6567C27.9086 27.504 27.9434 27.3407 27.9475 27.1752C27.9501 27.0212 27.9236 26.8682 27.8693 26.724C27.8122 26.5771 27.7284 26.4419 27.6222 26.3254C27.5085 26.1993 27.3756 26.092 27.2283 26.0075C26.9688 25.8501 26.6679 25.7743 26.3648 25.7899C26.0578 25.8144 25.7647 25.9282 25.5215 26.1172C24.9249 26.6151 24.5245 27.3087 24.3915 28.0744C24.346 28.3741 24.3945 28.6805 24.5302 28.9515C24.666 29.2226 24.8824 29.4449 25.1497 29.5879C25.2955 29.674 25.4536 29.7374 25.6185 29.7758C25.7689 29.8115 25.9245 29.8199 26.0778 29.8004C26.2268 29.7804 26.3709 29.7331 26.5028 29.6609C26.6432 29.5806 26.7684 29.4764 26.873 29.3531L28.0464 30.0306C27.8695 30.2648 27.6516 30.465 27.4032 30.6214C27.1448 30.7874 26.8581 30.9043 26.5574 30.9664C26.2373 31.0326 25.9077 31.0381 25.5857 30.9828C25.2189 30.9173 24.867 30.7859 24.5471 30.5949C24.084 30.3371 23.6974 29.9611 23.4268 29.5054C23.168 29.0536 23.0448 28.5368 23.0718 28.0168C23.1269 27.411 23.3129 26.8243 23.6171 26.2974C23.9213 25.7706 24.3363 25.3161 24.8335 24.9655C25.2725 24.6835 25.7833 24.5335 26.3051 24.5334C26.8299 24.5399 27.3438 24.6846 27.7949 24.9529C28.0967 25.1235 28.3692 25.3412 28.6022 25.5979C28.8151 25.8345 28.9834 26.1077 29.0989 26.4043C29.2113 26.6984 29.2638 27.0121 29.2534 27.3268C29.2401 27.6745 29.1602 28.0165 29.0182 28.3342Z" fill="white"/>
<path d="M27.8785 32.4316L31.0452 26.9468L32.1999 27.6134L30.8032 30.0325L30.8754 30.0742L34.2524 28.7984L35.6423 29.601L32.1876 30.878L32.4973 35.0983L31.1102 34.2974L30.9087 31.1731L29.9361 31.5411L29.0361 33.0999L27.8785 32.4316Z" fill="white"/>
<path d="M41.5473 36.6667C41.2577 37.205 40.8386 37.6628 40.3279 37.9988C39.8866 38.28 39.3739 38.4288 38.8506 38.4276C38.3222 38.4124 37.8059 38.2661 37.3481 38.0018C36.8903 37.7375 36.5054 37.3635 36.228 36.9134C35.9675 36.4605 35.8419 35.9426 35.8658 35.4207C35.9188 34.8143 36.1039 34.2268 36.4083 33.6997C36.7126 33.1725 37.1288 32.7185 37.6275 32.3694C38.0671 32.0876 38.5783 31.9379 39.1005 31.9381C39.6288 31.9539 40.1449 32.1005 40.6026 32.3647C41.0603 32.629 41.4453 33.0027 41.7231 33.4523C41.9858 33.9049 42.1132 34.4233 42.0904 34.9461C42.0548 35.5558 41.8682 36.147 41.5473 36.6667ZM40.3724 35.9884C40.5755 35.6589 40.7091 35.2913 40.7651 34.9083C40.8089 34.6057 40.7614 34.2968 40.6287 34.0213C40.4854 33.7585 40.2724 33.5403 40.0132 33.3906C39.754 33.241 39.4585 33.1657 39.1593 33.173C38.8545 33.1964 38.5634 33.3096 38.3229 33.4983C37.728 34 37.3273 34.6939 37.1904 35.4599C37.148 35.7622 37.1958 36.0702 37.3276 36.3455C37.4709 36.6083 37.6839 36.8265 37.9431 36.9762C38.2023 37.1258 38.4978 37.2011 38.797 37.1938C39.1015 37.1711 39.3923 37.0583 39.6326 36.8699C39.9353 36.6283 40.1855 36.3275 40.3681 35.9859L40.3724 35.9884Z" fill="white"/>
<path d="M47.4607 36.4243L48.6154 37.091L46.5579 40.6547C46.3511 41.0297 46.0401 41.3368 45.6626 41.5388C45.2933 41.7315 44.8766 41.8147 44.4617 41.7788C43.9899 41.7273 43.534 41.5782 43.1229 41.3409C42.7119 41.1036 42.3548 40.7833 42.0743 40.4005C41.8366 40.059 41.701 39.657 41.6832 39.2413C41.6701 38.8134 41.7805 38.3907 42.0012 38.0238L44.0587 34.4601L45.2134 35.1268L43.2134 38.5909C43.0975 38.7839 43.0336 39.0036 43.028 39.2287C43.0263 39.4434 43.0854 39.6543 43.1983 39.837C43.3271 40.0344 43.5006 40.1987 43.7047 40.3166C43.9088 40.4344 44.1379 40.5025 44.3732 40.5153C44.587 40.5201 44.7979 40.4652 44.9823 40.357C45.1799 40.2452 45.3448 40.0837 45.4607 39.8884L47.4607 36.4243Z" fill="white"/>
<path d="M48.9001 38.5274L49.4509 37.5734L53.9557 40.1742L53.4032 41.1312L51.7246 40.162L49.1104 44.6899L47.9644 44.0282L50.5802 39.4974L48.9001 38.5274Z" fill="white"/>
</g>
<defs>
<clipPath id="clip0_102:1147">
<rect width="60" height="60" fill="white"/>
</clipPath>
</defs>
</svg>
