<svg width="10" height="10" viewBox="0 0 10 10" fill="none" xmlns="http://www.w3.org/2000/svg">
<path d="M7.67512 3.89837C8.16262 3.49403 8.47368 2.88397 8.47368 2.2026C8.47366 0.988094 7.48557 0 6.27105 0C5.05653 0 4.06845 0.988094 4.06845 2.2026C4.06845 2.36135 4.08548 2.51617 4.11755 2.66549C3.99212 2.64322 3.8631 2.63156 3.73138 2.63156C2.51686 2.63156 1.52878 3.61966 1.52878 4.83416C1.52878 5.51547 1.83978 6.12548 2.32721 6.52984C0.96366 7.08574 0 8.42569 0 9.9867H0.781432C0.781432 8.36009 2.10476 7.03678 3.73136 7.03678C4.94588 7.03678 5.93395 6.04868 5.93395 4.83418C5.93395 4.67543 5.91692 4.52058 5.88485 4.37127C6.01028 4.39353 6.13931 4.40519 6.27103 4.40519C7.22959 4.40519 8.08249 4.86504 8.62163 5.57544L9.15115 4.98586C8.75978 4.5109 8.25337 4.13421 7.67512 3.89837ZM3.73138 6.25532C2.94776 6.25532 2.31021 5.6178 2.31021 4.83416C2.31021 4.05052 2.94776 3.413 3.73138 3.413C4.515 3.413 5.15254 4.05054 5.15254 4.83416C5.15254 5.61778 4.515 6.25532 3.73138 6.25532ZM6.27105 3.62374C5.48743 3.62374 4.84988 2.98622 4.84988 2.20258C4.84988 1.41894 5.48743 0.781432 6.27105 0.781432C7.05467 0.781432 7.69221 1.41896 7.69221 2.2026C7.69221 2.98625 7.05469 3.62374 6.27105 3.62374Z" fill="white"/>
</svg>
