<svg width="37" height="15" viewBox="0 0 37 15" fill="none" xmlns="http://www.w3.org/2000/svg">
<path d="M2.53338 5.87784C2.53338 5.48732 2.85381 5.33712 3.38451 5.33712C4.14553 5.33712 5.10681 5.56742 5.86782 5.97797V3.62483C5.03672 3.29439 4.21562 3.16422 3.38451 3.16422C1.3518 3.16422 0 4.22563 0 5.998C0 8.76168 3.80507 8.3211 3.80507 9.51268C3.80507 9.9733 3.40454 10.1235 2.84379 10.1235C2.01268 10.1235 0.951268 9.78304 0.110147 9.32243V11.7056C1.04139 12.1061 1.98264 12.2764 2.84379 12.2764C4.92657 12.2764 6.35848 11.245 6.35848 9.4526C6.34846 6.46863 2.53338 6.99933 2.53338 5.87784ZM9.3024 1.16155L6.85915 1.68224L6.84913 9.70294C6.84913 11.1849 7.96061 12.2764 9.44259 12.2764C10.2637 12.2764 10.8645 12.1262 11.1949 11.9459V9.91322C10.8745 10.0434 9.29239 10.504 9.29239 9.02203V5.46729H11.1949V3.33445H9.29239L9.3024 1.16155ZM14.3091 4.07543L14.1489 3.33445H11.986V12.0961H14.4893V6.15821C15.0801 5.38718 16.0814 5.52737 16.3919 5.63752V3.33445C16.0714 3.21429 14.8999 2.99399 14.3091 4.07543ZM17.0027 3.33445H19.516V12.0961H17.0027V3.33445ZM17.0027 2.57343L19.516 2.03271V0L17.0027 0.530708V2.57343ZM24.743 3.16422C23.7617 3.16422 23.1308 3.62483 22.7804 3.94526L22.6502 3.32443H20.4473V15L22.9506 14.4693L22.9606 11.6355C23.3211 11.8959 23.8518 12.2664 24.733 12.2664C26.5254 12.2664 28.1575 10.8244 28.1575 7.6502C28.1475 4.74633 26.4953 3.16422 24.743 3.16422ZM24.1422 10.0634C23.5514 10.0634 23.2009 9.85314 22.9606 9.59279L22.9506 5.87784C23.2109 5.58745 23.5714 5.38718 24.1422 5.38718C25.0534 5.38718 25.6842 6.40855 25.6842 7.72029C25.6842 9.06208 25.0634 10.0634 24.1422 10.0634ZM36.0481 7.75033C36.0481 5.18692 34.8064 3.16422 32.4332 3.16422C30.0501 3.16422 28.6081 5.18692 28.6081 7.73031C28.6081 10.7443 30.3104 12.2664 32.7537 12.2664C33.9453 12.2664 34.8465 11.996 35.5274 11.6155V9.61282C34.8465 9.95327 34.0654 10.1636 33.0741 10.1636C32.1028 10.1636 31.2417 9.8231 31.1315 8.64152H36.028C36.028 8.51135 36.0481 7.99065 36.0481 7.75033ZM31.1015 6.79907C31.1015 5.66756 31.7924 5.19693 32.4232 5.19693C33.034 5.19693 33.6849 5.66756 33.6849 6.79907H31.1015Z" fill="#6772E5"/>
</svg>
