<svg width="18" height="18" viewBox="0 0 18 18" fill="none" xmlns="http://www.w3.org/2000/svg">
<path d="M16.736 7.84775C16.6671 5.88434 15.872 4.04834 14.4759 2.65222C13.0125 1.18859 11.0677 0.382812 8.99994 0.382812C4.82366 0.382812 1.41126 3.70691 1.26416 7.84775C0.626849 8.13097 0.180786 8.76884 0.180786 9.51022V11.5527C0.180786 12.5556 0.996692 13.3718 1.99991 13.3718C2.64904 13.3718 3.17694 12.8439 3.17694 12.1948V8.86784C3.17694 8.25838 2.70951 7.76141 2.11522 7.70234C2.3346 4.09475 5.33779 1.22656 8.99994 1.22656C10.8427 1.22656 12.5755 1.94488 13.8796 3.24903C15.0772 4.44659 15.7781 6.00753 15.8835 7.70263C15.2898 7.76225 14.8232 8.25894 14.8232 8.86784V12.1945C14.8232 12.809 15.298 13.3091 15.8993 13.3611V14.2018C15.8993 15.1484 15.1289 15.9185 14.1823 15.9185H12.9107C12.8483 15.7402 12.7504 15.5754 12.6132 15.4387C12.3727 15.1971 12.0521 15.0641 11.7106 15.0641H10.4C10.2118 15.0641 10.0313 15.104 9.86591 15.1811C9.41479 15.3883 9.12341 15.8434 9.12341 16.3404C9.12341 16.6818 9.25644 17.0024 9.49747 17.2423C9.73851 17.4839 10.0591 17.617 10.4 17.617H11.7106C12.254 17.617 12.733 17.2657 12.9116 16.7623H14.1823C15.5944 16.7623 16.743 15.6136 16.743 14.2018V13.2109C17.3764 12.926 17.8191 12.2904 17.8191 11.5521V9.50966C17.8191 8.76884 17.373 8.13097 16.736 7.84775ZM2.33291 8.86784V12.1945C2.33291 12.3781 2.18357 12.5278 1.99963 12.5278C1.46188 12.5278 1.02425 12.0901 1.02425 11.5524V9.50994C1.02425 8.97191 1.46188 8.53456 1.99963 8.53456C2.18357 8.53456 2.33291 8.68419 2.33291 8.86784ZM12.1339 16.4309C12.092 16.6295 11.9137 16.7738 11.7104 16.7738H10.3997C10.2844 16.7738 10.1761 16.7288 10.0934 16.6461C10.0119 16.5648 9.96688 16.4563 9.96688 16.3409C9.96688 16.1725 10.0656 16.0186 10.2203 15.9475C10.2754 15.9216 10.3359 15.9084 10.3997 15.9084H11.7104C11.8257 15.9084 11.9339 15.9531 12.0163 16.0358C12.0979 16.1171 12.1429 16.2256 12.1429 16.3409C12.1432 16.3719 12.1398 16.4028 12.1339 16.4309ZM16.9753 11.5524C16.9753 12.0901 16.5377 12.5278 16 12.5278C15.8163 12.5278 15.6667 12.3784 15.6667 12.1945V8.86784C15.6667 8.68419 15.816 8.53456 16 8.53456C16.5377 8.53456 16.9753 8.97219 16.9753 9.50994V11.5524Z" fill="white"/>
</svg>
