<svg width="15" height="15" viewBox="0 0 15 15" fill="none" xmlns="http://www.w3.org/2000/svg">
<path d="M6.80464 12C6.77352 12 6.74202 11.9938 6.71192 11.9808C6.60659 11.9354 6.54963 11.8204 6.57728 11.7091L7.36984 8.51881H5.23438C5.15708 8.51881 5.08476 8.4807 5.04105 8.41694C4.99735 8.35317 4.9879 8.27197 5.01579 8.19987L6.58238 4.14983C6.6173 4.05953 6.70414 4 6.80095 4H8.95658C9.03579 4 9.10963 4.04 9.15291 4.10634C9.19616 4.17269 9.20301 4.25639 9.17107 4.32887L8.24343 6.43449H10.0781C10.1638 6.43449 10.2427 6.48129 10.2838 6.55652C10.3249 6.63174 10.3216 6.7234 10.2753 6.79552L7.00195 11.8923C6.95769 11.9612 6.88241 12 6.80464 12Z" fill="#303030"/>
<path fill-rule="evenodd" clip-rule="evenodd" d="M7.5 14.2C11.2003 14.2 14.2 11.2003 14.2 7.5C14.2 3.79969 11.2003 0.8 7.5 0.8C3.79969 0.8 0.8 3.79969 0.8 7.5C0.8 11.2003 3.79969 14.2 7.5 14.2ZM7.5 15C11.6421 15 15 11.6421 15 7.5C15 3.35786 11.6421 0 7.5 0C3.35786 0 0 3.35786 0 7.5C0 11.6421 3.35786 15 7.5 15Z" fill="#303030"/>
</svg>
