<svg width="20" height="20" viewBox="0 0 20 20" fill="none" xmlns="http://www.w3.org/2000/svg">
<path fill-rule="evenodd" clip-rule="evenodd" d="M4.19355 5.56448C4.36943 5.56448 4.51217 5.70485 4.51605 5.87975L4.51613 5.88706V5.93644C4.63152 5.99908 4.72669 6.09426 4.78932 6.20964C4.72669 6.32503 4.63151 6.4202 4.51613 6.48283V6.53222L4.51605 6.53956C4.51215 6.71448 4.36938 6.85479 4.19355 6.85479C4.01769 6.85479 3.87496 6.71445 3.87106 6.53957L3.87098 6.53222V6.48283C3.75559 6.4202 3.66042 6.32501 3.59778 6.20963C3.66042 6.09425 3.7556 5.99908 3.87098 5.93645V5.88706L3.87106 5.87975C3.87494 5.70481 4.01772 5.56448 4.19355 5.56448ZM4.19355 7.49999C4.36942 7.49999 4.51215 7.64034 4.51605 7.81522L4.51613 7.82257V7.87195C4.63152 7.93459 4.72669 8.02977 4.78932 8.14515C4.72669 8.26053 4.63151 8.35571 4.51613 8.41834V8.46772L4.51605 8.47503C4.51217 8.64997 4.36939 8.7903 4.19355 8.7903C4.01768 8.7903 3.87494 8.64994 3.87106 8.47504L3.87098 8.46772V8.41834C3.75559 8.3557 3.66042 8.26052 3.59778 8.14514C3.66042 8.02976 3.7556 7.93459 3.87098 7.87196V7.82257L3.87106 7.81522C3.87496 7.6403 4.01773 7.49999 4.19355 7.49999ZM5.51613 8.46772C5.51613 8.70203 5.45525 8.92206 5.34844 9.11289C5.45525 9.30373 5.51613 9.52376 5.51613 9.75804V10.4032C5.51613 10.6375 5.45525 10.8575 5.34844 11.0484C5.45525 11.2392 5.51613 11.4592 5.51613 11.6935V12.3387C5.51613 12.573 5.45525 12.793 5.34843 12.9838C5.45525 13.1747 5.51613 13.3947 5.51613 13.629V14.2742C5.51613 14.4954 5.46187 14.7039 5.36592 14.8871H19V5.27417H5.36591C5.46187 5.45738 5.51613 5.66588 5.51613 5.88706V6.53222C5.51613 6.76653 5.45525 6.98657 5.34843 7.1774C5.45525 7.36824 5.51613 7.58829 5.51613 7.82257V8.46772ZM4.19355 9.43546C4.36943 9.43546 4.51217 9.57583 4.51605 9.75072L4.51613 9.75804V9.80742C4.63152 9.87006 4.72669 9.96524 4.78933 10.0806C4.72669 10.196 4.63151 10.2912 4.51613 10.3538V10.4032L4.51605 10.4105C4.51217 10.5854 4.36939 10.7258 4.19355 10.7258C4.01768 10.7258 3.87494 10.5854 3.87106 10.4105L3.87098 10.4032V10.3538C3.75559 10.2912 3.66042 10.196 3.59778 10.0806C3.66042 9.96523 3.7556 9.87006 3.87098 9.80742V9.75804L3.87106 9.75073C3.87494 9.57579 4.01772 9.43546 4.19355 9.43546ZM2.87098 10.4032C2.87098 10.6375 2.93185 10.8575 3.03867 11.0483C2.93186 11.2392 2.87098 11.4592 2.87098 11.6935V12.3387C2.87098 12.5729 2.93186 12.793 3.03868 12.9838C2.93186 13.1747 2.87098 13.3947 2.87098 13.629V14.2742C2.87098 14.4954 2.92524 14.7038 3.02119 14.8871H1V12.6744C1.78111 12.0819 2.29031 11.1425 2.29031 10.0806C2.29031 9.01867 1.7811 8.07932 1 7.48679V5.27417H3.02119C2.92524 5.45737 2.87098 5.66585 2.87098 5.88706V6.53222C2.87098 6.7665 2.93186 6.98654 3.03868 7.17739C2.93186 7.36821 2.87098 7.58825 2.87098 7.82257V8.46772C2.87098 8.702 2.93185 8.92204 3.03867 9.11287C2.93186 9.3037 2.87098 9.52373 2.87098 9.75804V10.4032ZM4.19355 12.6612C4.01769 12.6612 3.87496 12.5209 3.87106 12.346L3.87098 12.3387V12.2893C3.75559 12.2266 3.66042 12.1315 3.59778 12.0161C3.66042 11.9007 3.7556 11.8055 3.87098 11.7429V11.6935L3.87106 11.6862C3.87494 11.5113 4.01772 11.3709 4.19355 11.3709C4.36943 11.3709 4.51217 11.5113 4.51605 11.6862L4.51613 11.6935V11.7429C4.63152 11.8055 4.72669 11.9007 4.78933 12.0161C4.72669 12.1315 4.63151 12.2266 4.51613 12.2893V12.3387L4.51605 12.346C4.51215 12.5209 4.36938 12.6612 4.19355 12.6612ZM3.87098 13.629L3.87106 13.6217C3.87496 13.4467 4.01773 13.3064 4.19355 13.3064C4.36942 13.3064 4.51214 13.4468 4.51605 13.6217L4.51613 13.629V13.6784C4.63152 13.741 4.72669 13.8362 4.78932 13.9516C4.72669 14.067 4.63151 14.1622 4.51613 14.2248V14.2742L4.51605 14.2815C4.51217 14.4564 4.36939 14.5967 4.19355 14.5967C4.01768 14.5967 3.87494 14.4564 3.87106 14.2815L3.87098 14.2742V14.2248C3.75559 14.1621 3.66042 14.067 3.59778 13.9516C3.66042 13.8362 3.7556 13.741 3.87098 13.6784V13.629ZM4.19355 15.2419C4.36943 15.2419 4.51217 15.3823 4.51605 15.5572L4.51613 15.5645V15.8871H4.78933H4.87098H5.51613H19.3548C19.7111 15.8871 20 15.5982 20 15.2419V4.91933C20 4.563 19.7111 4.27417 19.3548 4.27417H5.51613H4.87098H4.78932H4.51613V4.59675L4.51605 4.60406C4.51217 4.77899 4.36939 4.91933 4.19355 4.91933C4.01768 4.91933 3.87494 4.77896 3.87106 4.60406L3.87098 4.59675V4.27417H3.59778H3.51613H2.87098H0.645156C0.288867 4.27417 0 4.563 0 4.91933V7.75905C0 7.92167 0.0799609 8.0762 0.218242 8.16175C0.861172 8.5594 1.29031 9.26905 1.29031 10.0806C1.29031 10.8921 0.861172 11.6018 0.218242 11.9995C0.0799609 12.085 0 12.2396 0 12.4022V15.2419C0 15.5982 0.288867 15.8871 0.645156 15.8871H2.87098H3.51613H3.59779H3.87098V15.5645L3.87106 15.5572C3.87494 15.3822 4.01772 15.2419 4.19355 15.2419ZM9.23216 6.94C8.98217 7.19346 8.85718 7.52632 8.85718 7.93857V8.26379C8.85718 8.69742 8.98359 9.03944 9.23643 9.28985C9.4921 9.5372 9.82873 9.66087 10.2463 9.66087C10.6668 9.66087 11.0006 9.53567 11.2477 9.28527C11.4949 9.03486 11.6184 8.70353 11.6184 8.29128V7.96147C11.6184 7.5309 11.4949 7.19041 11.2477 6.94C11.0006 6.68654 10.6639 6.55981 10.2378 6.55981C9.81737 6.55981 9.48216 6.68654 9.23216 6.94ZM9.90544 8.68063C9.82305 8.57985 9.78186 8.45007 9.78186 8.29128V7.94773C9.78186 7.77672 9.82305 7.64236 9.90544 7.54464C9.98782 7.44387 10.0986 7.39348 10.2378 7.39348C10.3827 7.39348 10.4949 7.4454 10.5744 7.54922C10.654 7.64999 10.6938 7.77978 10.6938 7.93857V8.21341C10.6938 8.62261 10.5446 8.82721 10.2463 8.82721C10.1015 8.82721 9.98782 8.77835 9.90544 8.68063ZM12.1809 10.6915C11.9309 10.9419 11.8059 11.2748 11.8059 11.6901V12.0199C11.8059 12.4535 11.9324 12.7955 12.1852 13.0459C12.4409 13.2933 12.7775 13.417 13.1951 13.417C13.6184 13.417 13.9536 13.2918 14.2007 13.0413C14.4479 12.7909 14.5715 12.4581 14.5715 12.0428V11.7221C14.5715 11.2793 14.4465 10.9343 14.1965 10.6869C13.9465 10.4396 13.6098 10.3159 13.1866 10.3159C12.769 10.3159 12.4338 10.4411 12.1809 10.6915ZM12.8627 12.423C12.7718 12.313 12.7264 12.1863 12.7264 12.0428V11.6672C12.732 11.5084 12.7761 11.3832 12.8585 11.2916C12.9408 11.1969 13.0502 11.1496 13.1866 11.1496C13.3286 11.1496 13.4408 11.2 13.5232 11.3007C13.6056 11.3984 13.6468 11.5282 13.6468 11.6901L13.6425 12.1619C13.6198 12.4428 13.4707 12.5833 13.1951 12.5833C13.0644 12.5833 12.9536 12.5299 12.8627 12.423ZM9.85004 12.4642L10.5191 12.8261L13.5488 7.61335L12.8798 7.25148L9.85004 12.4642Z" fill="#303030"/>
</svg>
