<svg width="21" height="24" viewBox="0 0 21 24" fill="none" xmlns="http://www.w3.org/2000/svg">
<path d="M19.6484 4.30286H15.5711C15.8148 3.03806 15.3301 1.64603 14.3396 0.801037C13.1779 -0.189436 11.6726 -0.264057 10.2 0.59328C8.72798 -0.264057 7.22214 -0.189973 6.06041 0.801037C5.06994 1.64603 4.58517 3.03806 4.82943 4.30286H0.751579C0.337137 4.30286 0 4.64 0 5.05444V23.0923C0 23.5068 0.337137 23.8439 0.751579 23.8439H19.6484C20.0629 23.8439 20.4 23.5068 20.4 23.0923V5.05444C20.4 4.64 20.0629 4.30286 19.6484 4.30286ZM13.945 4.46498C13.1634 6.02773 10.9414 7.2716 10.1995 7.65275C9.45808 7.27267 7.23824 6.03203 6.45445 4.46498C6.04967 3.65596 6.29984 2.57208 7.03585 1.94451L7.03693 1.94344C7.35366 1.66643 7.75898 1.51396 8.17986 1.51396C8.67966 1.51504 9.22617 1.71474 9.76194 2.09858C10.0239 2.28648 10.3755 2.28648 10.6375 2.09858C11.6414 1.37868 12.6351 1.32285 13.3636 1.94397C14.1002 2.57262 14.3498 3.65596 13.945 4.46498ZM10.5103 9.1747C10.6311 9.11994 13.4624 7.82025 14.8866 5.80602H18.8968V22.3408H1.50316V5.80602H5.51391C6.94083 7.82454 9.76945 9.12048 9.89024 9.1747C10.0873 9.26435 10.3133 9.26435 10.5103 9.1747Z" fill="#303030"/>
<path d="M7.73071 11.9264C7.73071 12.3409 8.06785 12.678 8.48229 12.678H15.3539C15.7683 12.678 16.1054 12.3409 16.1054 11.9264C16.1054 11.512 15.7683 11.1749 15.3539 11.1749H8.48229C8.06785 11.1749 7.73071 11.512 7.73071 11.9264Z" fill="#303030"/>
<path d="M5.04626 12.678C5.46134 12.678 5.79784 12.3415 5.79784 11.9264C5.79784 11.5114 5.46134 11.1749 5.04626 11.1749C4.63117 11.1749 4.29468 11.5114 4.29468 11.9264C4.29468 12.3415 4.63117 12.678 5.04626 12.678Z" fill="#303030"/>
<path d="M15.3539 14.6096H8.48229C8.06785 14.6096 7.73071 14.9467 7.73071 15.3611C7.73071 15.7756 8.06785 16.1127 8.48229 16.1127H15.3539C15.7683 16.1127 16.1054 15.7756 16.1054 15.3611C16.1054 14.9467 15.7683 14.6096 15.3539 14.6096Z" fill="#303030"/>
<path d="M5.04626 16.1127C5.46134 16.1127 5.79784 15.7762 5.79784 15.3611C5.79784 14.9461 5.46134 14.6096 5.04626 14.6096C4.63117 14.6096 4.29468 14.9461 4.29468 15.3611C4.29468 15.7762 4.63117 16.1127 5.04626 16.1127Z" fill="#303030"/>
<path d="M15.3539 18.0456H8.48229C8.06785 18.0456 7.73071 18.3827 7.73071 18.7972C7.73071 19.2116 8.06785 19.5488 8.48229 19.5488H15.3539C15.7683 19.5488 16.1054 19.2116 16.1054 18.7972C16.1054 18.3827 15.7683 18.0456 15.3539 18.0456Z" fill="#303030"/>
<path d="M5.04626 19.5488C5.46134 19.5488 5.79784 19.2123 5.79784 18.7972C5.79784 18.3821 5.46134 18.0456 5.04626 18.0456C4.63117 18.0456 4.29468 18.3821 4.29468 18.7972C4.29468 19.2123 4.63117 19.5488 5.04626 19.5488Z" fill="#303030"/>
</svg>
