<svg width="32" height="32" viewBox="0 0 32 32" fill="none" xmlns="http://www.w3.org/2000/svg">
<g filter="url(#filter0_d_3:966)">
<rect x="6" y="5" width="20" height="23" rx="1" fill="white"/>
<path d="M13.5459 17.7756C13.5459 18.2033 13.8938 18.5512 14.3215 18.5512H21.4129C21.8406 18.5512 22.1886 18.2033 22.1886 17.7756C22.1886 17.3479 21.8406 17 21.4129 17H14.3215C13.8938 17 13.5459 17.3479 13.5459 17.7756Z" fill="#2EB2FD"/>
<path d="M10.7756 18.5512C11.204 18.5512 11.5512 18.204 11.5512 17.7756C11.5512 17.3473 11.204 17 10.7756 17C10.3473 17 10 17.3473 10 17.7756C10 18.204 10.3473 18.5512 10.7756 18.5512Z" fill="#2EB2FD"/>
<path d="M21.4129 20.5457H14.3215C13.8938 20.5457 13.5459 20.8936 13.5459 21.3213C13.5459 21.749 13.8938 22.0969 14.3215 22.0969H21.4129C21.8406 22.0969 22.1886 21.749 22.1886 21.3213C22.1886 20.8936 21.8406 20.5457 21.4129 20.5457Z" fill="#2EB2FD"/>
<path d="M10.7756 22.0969C11.204 22.0969 11.5512 21.7496 11.5512 21.3213C11.5512 20.8929 11.204 20.5457 10.7756 20.5457C10.3473 20.5457 10 20.8929 10 21.3213C10 21.7496 10.3473 22.0969 10.7756 22.0969Z" fill="#2EB2FD"/>
<path d="M21.4129 24.0916H14.3215C13.8938 24.0916 13.5459 24.4395 13.5459 24.8672C13.5459 25.2949 13.8938 25.6428 14.3215 25.6428H21.4129C21.8406 25.6428 22.1886 25.2949 22.1886 24.8672C22.1886 24.4395 21.8406 24.0916 21.4129 24.0916Z" fill="#2EB2FD"/>
<path d="M10.7756 25.6428C11.204 25.6428 11.5512 25.2955 11.5512 24.8672C11.5512 24.4388 11.204 24.0916 10.7756 24.0916C10.3473 24.0916 10 24.4388 10 24.8672C10 25.2955 10.3473 25.6428 10.7756 25.6428Z" fill="#2EB2FD"/>
<path d="M20.5965 10.9831C19.6372 13.0924 16.9102 14.7712 15.9997 15.2857C15.0898 14.7727 12.3655 13.0982 11.4035 10.9831C10.9068 9.89112 11.2138 8.42817 12.1171 7.58112L12.1184 7.57967C12.5071 7.20578 13.0045 7 13.5211 7C14.1345 7.00145 14.8052 7.271 15.4627 7.78908C15.7842 8.04269 16.2158 8.04269 16.5373 7.78908C17.7693 6.8174 18.9889 6.74205 19.8829 7.5804C20.7869 8.42889 21.0932 9.89112 20.5965 10.9831Z" fill="#2EB2FD"/>
</g>
<defs>
<filter id="filter0_d_3:966" x="4" y="4" width="24" height="27" filterUnits="userSpaceOnUse" color-interpolation-filters="sRGB">
<feFlood flood-opacity="0" result="BackgroundImageFix"/>
<feColorMatrix in="SourceAlpha" type="matrix" values="0 0 0 0 0 0 0 0 0 0 0 0 0 0 0 0 0 0 127 0" result="hardAlpha"/>
<feOffset dy="1"/>
<feGaussianBlur stdDeviation="1"/>
<feComposite in2="hardAlpha" operator="out"/>
<feColorMatrix type="matrix" values="0 0 0 0 0 0 0 0 0 0 0 0 0 0 0 0 0 0 0.3 0"/>
<feBlend mode="normal" in2="BackgroundImageFix" result="effect1_dropShadow_3:966"/>
<feBlend mode="normal" in="SourceGraphic" in2="effect1_dropShadow_3:966" result="shape"/>
</filter>
</defs>
</svg>
